<?xml version="1.0" encoding="UTF-8" standalone="no"?>
<svg
   xmlns:dc="http://purl.org/dc/elements/1.1/"
   xmlns:cc="http://creativecommons.org/ns#"
   xmlns:rdf="http://www.w3.org/1999/02/22-rdf-syntax-ns#"
   xmlns:svg="http://www.w3.org/2000/svg"
   xmlns="http://www.w3.org/2000/svg"
   xmlns:sodipodi="http://sodipodi.sourceforge.net/DTD/sodipodi-0.dtd"
   xmlns:inkscape="http://www.inkscape.org/namespaces/inkscape"
   width="210mm"
   height="297mm"
   viewBox="0 0 210 297"
   version="1.1"
   id="svg150"
   inkscape:version="1.0.1 (3bc2e813f5, 2020-09-07)"
   sodipodi:docname="aerial_wiki_free_200Perc_edit_200Perc_edit_Gaus3_OilBrush1_Course8_color16.svg">
  <defs
     id="defs144" />
  <sodipodi:namedview
     id="base"
     pagecolor="#ffffff"
     bordercolor="#666666"
     borderopacity="1.0"
     inkscape:pageopacity="0.0"
     inkscape:pageshadow="2"
     inkscape:zoom="0.7"
     inkscape:cx="870.45219"
     inkscape:cy="411.43346"
     inkscape:document-units="mm"
     inkscape:current-layer="layer1"
     inkscape:document-rotation="0"
     showgrid="false"
     inkscape:window-width="3840"
     inkscape:window-height="2097"
     inkscape:window-x="1432"
     inkscape:window-y="140"
     inkscape:window-maximized="1" />
  <metadata
     id="metadata147">
    <rdf:RDF>
      <cc:Work
         rdf:about="">
        <dc:format>image/svg+xml</dc:format>
        <dc:type
           rdf:resource="http://purl.org/dc/dcmitype/StillImage" />
        <dc:title></dc:title>
      </cc:Work>
    </rdf:RDF>
  </metadata>
  <g
     inkscape:label="Laag 1"
     inkscape:groupmode="layer"
     id="layer1">
    <g
       id="g166"
       transform="matrix(3.7254465,0,0,3.4667083,-306.41159,-186.88712)">
      <path
         style="fill:#fdfdfd;stroke-width:0.352778"
         d="M 82.146828,80.130953 V 54.025398 h 28.222222 28.22222 V 80.130953 106.23651 H 110.36905 82.146828 Z"
         id="path198" />
      <path
         style="fill:#d2d2d2;stroke-width:0.352778"
         d="m 96.610717,104.79955 c 0,-1.31543 -0.238678,-1.68617 -2.822223,-4.38388 l -2.822222,-2.946922 v -2.336419 c 0,-1.358466 0.215603,-2.753345 0.515097,-3.332504 0.604354,-1.168689 0.430639,-1.438317 -0.926671,-1.438317 -1.778416,0 -2.410648,-1.055247 -2.410648,-4.023567 0,-2.46898 0.06781,-2.69362 1.234722,-4.090322 0.679097,-0.812826 1.234722,-1.650012 1.234722,-1.860412 0,-0.2104 -0.555625,-0.891478 -1.234722,-1.513507 -1.40535,-1.287251 -1.65239,-2.928341 -0.655141,-4.352114 0.53759,-0.767516 0.53759,-0.898554 0,-1.80862 -0.379837,-0.643013 -0.579581,-1.783056 -0.579581,-3.307972 0,-3.212736 0.546907,-3.73793 3.892465,-3.73793 h 2.481353 l 3.074896,2.868485 c 1.691193,1.577667 3.313026,3.320312 3.604066,3.872544 0.61759,1.171833 0.93185,1.268795 1.21551,0.375035 0.11261,-0.354775 1.68942,-2.101025 3.50404,-3.880555 l 3.2993,-3.235509 h 2.51696 c 3.42584,0 3.92808,0.49821 3.92808,3.896591 0,2.128407 -0.11742,2.6029 -0.81733,3.302806 l -0.81733,0.817327 0.81733,0.950199 c 0.45436,0.528226 0.81733,1.411457 0.81733,1.98886 0,1.104021 -1.06327,2.449772 -1.93555,2.449772 -0.28844,0 -0.76256,0.569932 -1.05361,1.266516 -0.29874,0.714976 -0.85148,1.350797 -1.26928,1.460055 -1.91364,0.500427 0.71382,0.790798 7.20093,0.795805 l 6.99945,0.0054 3.49569,3.456825 3.4957,3.456825 v 3.95151 c 0,4.613804 -0.38587,5.362617 -2.76343,5.362617 -1.76521,0 -1.9246,0.218793 -0.90332,1.240068 0.74162,0.74162 0.84453,1.16889 0.84453,3.5064 v 2.66187 h -5.23699 c -4.78897,0 -5.29162,-0.0604 -5.87551,-0.70556 -0.35119,-0.38805 -0.90148,-0.70555 -1.22288,-0.70555 -0.3214,0 -0.92516,0.3175 -1.34169,0.70555 -0.60532,0.56394 -1.24495,0.70556 -3.18684,0.70556 -1.98149,0 -2.54727,-0.13011 -3.06804,-0.70556 -0.35118,-0.38805 -0.93007,-0.70555 -1.28641,-0.70555 -0.35634,0 -0.84617,0.3175 -1.08851,0.70555 -0.4083,0.65379 -0.82269,0.70556 -5.64744,0.70556 h -5.206803 z"
         id="path196" />
      <path
         style="fill:#b3b3b3;stroke-width:0.352778"
         d="m 97.177627,105.67849 c -0.117773,-0.30691 -0.214133,-1.03952 -0.214133,-1.62801 0,-0.85776 -0.542308,-1.62727 -2.734027,-3.87947 l -2.734028,-2.809474 v -2.362112 c 0,-1.915421 0.150103,-2.552936 0.79375,-3.371201 0.436562,-0.554997 0.79375,-1.126232 0.79375,-1.269407 0,-0.143175 -0.803095,-0.337485 -1.784655,-0.4318 -2.144988,-0.206107 -2.447411,-0.466619 -2.69636,-2.32267 -0.292051,-2.177407 0.148383,-3.760008 1.494943,-5.371735 1.684862,-2.016649 1.632183,-2.317016 -0.700456,-3.993902 -1.008893,-0.725273 -0.919287,-2.781072 0.171842,-3.942525 l 0.859759,-0.915172 -0.877397,-0.661822 c -0.788235,-0.594567 -0.877398,-0.913027 -0.877398,-3.13378 0,-1.557902 0.16958,-2.641538 0.458611,-2.930568 0.286731,-0.286731 1.361274,-0.458611 2.867097,-0.458611 h 2.408487 l 2.953736,2.802278 c 1.624554,1.541254 3.110102,3.049379 3.301222,3.351389 0.19111,0.302011 0.42924,1.50161 0.52916,2.665777 0.13438,1.565548 0.31947,2.116667 0.71085,2.116667 0.39234,0 0.58454,-0.579277 0.74332,-2.240237 l 0.21414,-2.240235 3.22782,-3.22782 3.22782,-3.227819 h 2.44943 c 1.34905,0 2.62833,0.178911 2.84767,0.398256 0.53986,0.539857 0.83508,2.979704 0.5466,4.51741 -0.17494,0.932506 -0.52396,1.405274 -1.35453,1.83478 l -1.11888,0.578591 1.07618,0.921592 c 0.5919,0.506876 1.17743,1.200784 1.30119,1.542017 0.35772,0.986361 -0.32274,2.26706 -1.34022,2.52243 -0.61495,0.154344 -1.10192,0.642906 -1.43473,1.439431 -0.41354,0.989735 -0.74122,1.243967 -1.82884,1.418881 -2.54047,0.408567 -2.91252,0.541949 -2.91252,1.04414 0,0.422735 1.46497,0.522689 8.94982,0.61064 l 8.94983,0.105164 3.3092,3.259843 3.3092,3.259843 v 3.866268 c 0,2.531943 -0.14577,4.012043 -0.42239,4.28866 -0.23232,0.232318 -1.41023,0.518068 -2.61758,0.635 -2.5588,0.247826 -3.0488,0.871205 -1.26923,1.614753 1.32716,0.55452 1.65089,1.25644 1.65855,3.59608 0.009,2.63929 0.1106,2.5865 -4.99459,2.5865 h -4.57114 l -0.89053,-1.05834 c -1.11872,-1.32952 -1.77007,-1.32919 -3.18993,0.002 -1.58712,1.48759 -3.48441,1.4621 -5.62561,-0.0756 -1.70903,-1.22733 -2.433,-1.14208 -3.12023,0.36739 -0.33156,0.72814 -0.57048,0.76477 -4.98934,0.76477 -3.906643,0 -4.674988,-0.0883 -4.855233,-0.55802 z"
         id="path194" />
      <path
         style="fill:#929191;stroke-width:0.352778"
         d="m 97.316272,104.62317 c 0,-1.53592 -0.135443,-1.75478 -2.822222,-4.56027 L 91.671828,97.115971 V 95.02197 c 0,-1.793265 0.151256,-2.284331 1.05318,-3.419256 0.579249,-0.728892 0.966756,-1.465093 0.861125,-1.636007 -0.105631,-0.170917 -0.897062,-0.310755 -1.758736,-0.310755 -2.182515,0 -2.977791,-0.854138 -2.977791,-3.198192 0,-1.973646 0.320572,-2.765887 1.815623,-4.486999 0.55363,-0.637342 1.006599,-1.409744 1.006599,-1.716449 0,-0.306705 -0.635,-1.138092 -1.411111,-1.847528 -1.710132,-1.563214 -1.797292,-2.548994 -0.342835,-3.877435 l 1.068277,-0.975721 -1.068277,-1.117849 c -0.89823,-0.939911 -1.068276,-1.399133 -1.068276,-2.884948 0,-2.568155 0.831441,-3.304942 3.510816,-3.111134 1.999069,0.1446 2.054156,0.178792 5.163932,3.205217 l 3.143306,3.059058 0.17639,2.390574 c 0.16732,2.267723 0.22171,2.390573 1.05833,2.390573 0.83613,0 0.89111,-0.123597 1.05834,-2.379377 l 0.17639,-2.379378 3.06525,-3.064608 3.06526,-3.064608 2.09867,-0.151805 c 2.68854,-0.194471 3.58887,0.532299 3.58887,2.897035 0,2.062542 -0.24186,2.599211 -1.45386,3.225959 -1.31712,0.681111 -1.28027,1.096462 0.21914,2.469868 1.41076,1.292212 1.50167,1.689389 0.56925,2.487003 -0.85273,0.729447 -2.26916,2.145876 -2.99861,2.998611 -0.37469,0.438022 -1.03286,0.665467 -1.92569,0.665467 -1.41927,0 -2.80584,1.022642 -2.36147,1.741659 0.15347,0.248318 3.15246,0.375007 8.8772,0.375007 4.75498,0 8.9128,0.143712 9.23959,0.319359 0.3268,0.175647 1.94355,1.590249 3.59278,3.143559 l 2.99861,2.824199 0.12026,3.527164 c 0.10901,3.19755 0.0513,3.59609 -0.61737,4.264773 -0.56593,0.565937 -1.18042,0.737612 -2.64014,0.737612 -1.48286,0 -1.95453,0.135502 -2.13825,0.614271 -0.15939,0.41535 0.0283,0.809308 0.57961,1.216537 1.97008,1.455234 2.05006,1.610904 2.05006,3.990024 v 2.29306 h -4.4205 -4.4205 l -1.0841,-1.23473 c -0.59626,-0.67909 -1.32912,-1.23472 -1.62858,-1.23472 -0.29947,0 -1.22255,0.55563 -2.0513,1.23472 -2.0677,1.69433 -2.67853,1.62743 -5.90434,-0.64661 -1.16762,-0.82312 -2.1788,-0.51764 -2.77964,0.83974 l -0.46105,1.0416 h -4.49999 -4.499998 z"
         id="path192" />
      <path
         style="fill:#947252;stroke-width:0.352778"
         d="m 97.666725,104.7372 c -0.0028,-1.79424 -0.529879,-2.64639 -3.437258,-5.556989 -2.200587,-2.20302 -2.204861,-2.211292 -2.204861,-4.266004 0,-1.80001 0.137686,-2.215518 1.095712,-3.306653 1.472635,-1.677236 1.184306,-2.30438 -1.059442,-2.30438 -2.279771,0 -2.858493,-0.581175 -2.858493,-2.870612 0,-1.948642 0.323831,-2.744439 1.815624,-4.461801 0.553629,-0.637342 1.006599,-1.41579 1.006599,-1.729885 0,-0.314095 -0.635,-1.15731 -1.411112,-1.873812 -0.790729,-0.729998 -1.411111,-1.630704 -1.411111,-2.048734 0,-0.714194 1.232009,-2.184599 1.830409,-2.184599 0.671604,0 0.203637,-1.069121 -0.772075,-1.763889 -0.950582,-0.676874 -1.058334,-0.946134 -1.058334,-2.644657 0,-2.45726 0.536104,-3.003134 2.935616,-2.989111 1.79668,0.0105 1.879378,0.05941 5.001884,2.958193 l 3.174997,2.947516 0.17639,2.385413 c 0.19452,2.630603 0.84288,3.516678 2.02847,2.772216 0.46014,-0.28893 0.64456,-0.957105 0.72415,-2.623701 l 0.10679,-2.236048 3.22776,-3.107133 c 3.21991,-3.099586 3.23222,-3.107133 5.07148,-3.107133 2.42888,0 2.95246,0.539427 2.95246,3.041811 0,1.875783 -0.0366,1.948372 -1.23472,2.44898 -1.69725,0.709158 -1.69725,1.927728 0,2.929132 1.65629,0.977235 1.65147,2.025286 -0.0125,2.720544 -0.75825,0.316819 -1.38929,0.894757 -1.60957,1.474124 -0.45212,1.189169 -0.90713,1.484276 -2.29908,1.491118 -1.92169,0.0094 -3.81452,2.07068 -2.39998,2.613492 0.30691,0.117773 4.48376,0.214132 9.28187,0.214132 h 8.72385 l 3.24174,3.241742 3.24175,3.241742 v 3.259448 c 0,3.969113 -0.27231,4.368179 -2.98062,4.368179 -2.06738,0 -2.86906,0.561495 -2.49307,1.74614 0.12597,0.396914 0.61953,0.819669 1.09678,0.939449 1.19526,0.29999 1.55468,1.14179 1.55468,3.64122 v 2.13986 h -4.1767 c -4.08874,0 -4.18499,-0.0182 -4.57005,-0.86329 -0.53563,-1.17559 -1.98083,-2.07266 -2.87954,-1.78743 -0.39861,0.12652 -1.22109,0.64768 -1.82775,1.15815 -1.52738,1.28521 -2.94908,1.21162 -4.99636,-0.25863 -1.47472,-1.05906 -1.75131,-1.14173 -2.57073,-0.76838 -0.50501,0.2301 -1.09666,0.89114 -1.31477,1.46897 l -0.39656,1.05061 h -4.15599 -4.15599 l -0.0023,-1.49931 z"
         id="path190" />
      <path
         style="fill:#6e6d6d;stroke-width:0.352778"
         d="m 97.666725,104.7372 c -0.0028,-1.79424 -0.529879,-2.64639 -3.437258,-5.556989 -2.200587,-2.20302 -2.204861,-2.211292 -2.204861,-4.266004 0,-1.80001 0.137686,-2.215518 1.095712,-3.306653 1.472635,-1.677236 1.184306,-2.30438 -1.059442,-2.30438 -2.279771,0 -2.858493,-0.581175 -2.858493,-2.870612 0,-1.948642 0.323831,-2.744439 1.815624,-4.461801 0.553629,-0.637342 1.006599,-1.41579 1.006599,-1.729885 0,-0.314095 -0.635,-1.15731 -1.411112,-1.873812 -0.790729,-0.729998 -1.411111,-1.630704 -1.411111,-2.048734 0,-0.714194 1.232009,-2.184599 1.830409,-2.184599 0.671604,0 0.203637,-1.069121 -0.772075,-1.763889 -0.950582,-0.676874 -1.058334,-0.946134 -1.058334,-2.644657 0,-2.45726 0.536104,-3.003134 2.935616,-2.989111 1.79668,0.0105 1.879378,0.05941 5.001884,2.958193 l 3.174997,2.947516 0.17639,2.385413 c 0.19452,2.630603 0.84288,3.516678 2.02847,2.772216 0.46014,-0.28893 0.64456,-0.957105 0.72415,-2.623701 l 0.10679,-2.236048 3.22776,-3.107133 c 3.21991,-3.099586 3.23222,-3.107133 5.07148,-3.107133 2.42888,0 2.95246,0.539427 2.95246,3.041811 0,1.875783 -0.0366,1.948372 -1.23472,2.44898 -1.69725,0.709158 -1.69725,1.927728 0,2.929132 1.65629,0.977235 1.65147,2.025286 -0.0125,2.720544 -0.75825,0.316819 -1.38929,0.894757 -1.60957,1.474124 -0.45212,1.189169 -0.90713,1.484276 -2.29908,1.491118 -1.92169,0.0094 -3.81452,2.07068 -2.39998,2.613492 0.30691,0.117773 4.48376,0.214132 9.28187,0.214132 h 8.72385 l 3.24174,3.241742 3.24175,3.241742 v 3.259448 c 0,3.969113 -0.27231,4.368179 -2.98062,4.368179 -2.06738,0 -2.86906,0.561495 -2.49307,1.74614 0.12597,0.396914 0.61953,0.819669 1.09678,0.939449 1.19526,0.29999 1.55468,1.14179 1.55468,3.64122 v 2.13986 h -4.1767 c -4.08874,0 -4.18499,-0.0182 -4.57005,-0.86329 -0.53563,-1.17559 -1.98083,-2.07266 -2.87954,-1.78743 -0.39861,0.12652 -1.22109,0.64768 -1.82775,1.15815 -1.52738,1.28521 -2.94908,1.21162 -4.99636,-0.25863 -1.47472,-1.05906 -1.75131,-1.14173 -2.57073,-0.76838 -0.50501,0.2301 -1.09666,0.89114 -1.31477,1.46897 l -0.39656,1.05061 h -4.15599 -4.15599 l -0.0023,-1.49931 z M 127.65516,92.44132 c 0,-1.022767 -0.23617,-1.642495 -0.86591,-2.272235 -1.4693,-1.469296 -2.11778,-0.927279 -1.07437,0.897978 0.27729,0.48507 0.50979,1.207382 0.51667,1.605139 0.0143,0.823997 0.68476,1.632077 1.12731,1.358568 0.16296,-0.100718 0.2963,-0.815971 0.2963,-1.58945 z"
         id="path188" />
      <path
         style="fill:#885a27;stroke-width:0.352778"
         d="m 98.021828,104.80788 c 0,-1.92636 -0.592708,-2.92759 -3.324974,-5.616737 -2.313336,-2.276827 -2.319471,-2.288127 -2.319471,-4.272181 0,-1.788953 0.124363,-2.121182 1.234722,-3.298503 0.679098,-0.720055 1.234723,-1.451049 1.234723,-1.624436 0,-0.565887 -1.332767,-1.045626 -2.904864,-1.045626 -0.847075,0 -1.730636,-0.1905 -1.96347,-0.423334 -0.232833,-0.232833 -0.423333,-1.248768 -0.423333,-2.257632 0,-1.595684 0.185189,-2.079837 1.423589,-3.721806 1.577664,-2.091791 1.636934,-3.159033 0.237063,-4.268632 -0.428289,-0.33948 -0.977145,-0.782302 -1.21968,-0.984047 -0.751074,-0.624761 -0.4888,-1.668004 0.617361,-2.45566 1.256047,-0.894384 1.365243,-1.930219 0.264584,-2.509844 -0.436563,-0.229902 -0.910382,-0.592674 -1.052931,-0.806163 -0.419103,-0.627663 -0.30725,-3.561173 0.153347,-4.02177 0.232834,-0.232834 1.225021,-0.419681 2.204862,-0.415217 1.74351,0.0079 1.847398,0.07029 4.868333,2.921727 l 3.086801,2.913611 v 2.299383 c 0,2.519629 0.35122,3.146051 1.76389,3.146051 1.39015,0 1.76389,-0.633186 1.76389,-2.988327 v -2.141661 l 3.09379,-3.07945 c 3.07928,-3.065018 3.10223,-3.079451 4.89569,-3.079451 2.23198,0 2.6689,0.468142 2.52611,2.706619 -0.0982,1.539943 -0.21848,1.751448 -1.25517,2.20774 -1.57468,0.693085 -1.6215,2.255673 -0.0937,3.127743 1.74574,0.996484 1.69215,2.218511 -0.11721,2.672631 -0.45655,0.114587 -1.01768,0.696761 -1.30845,1.357529 -0.42814,0.972941 -0.74023,1.187757 -1.96264,1.35093 -2.74167,0.365971 -4.31012,2.243952 -2.62659,3.144951 0.41774,0.22357 4.07461,0.36519 9.42983,0.36519 h 8.74746 l 3.09378,3.07945 3.09379,3.07945 v 3.199994 c 0,2.018513 -0.1563,3.356296 -0.42334,3.623328 -0.23283,0.232833 -1.2401,0.423333 -2.23837,0.423333 -3.14833,0 -3.93254,1.98399 -1.37959,3.490267 1.19247,0.70357 1.21908,0.76957 1.21908,3.02422 v 2.30496 h -3.85679 c -3.43655,0 -3.87925,-0.0708 -4.063,-0.64976 -0.35172,-1.10816 -1.89013,-2.29006 -2.98085,-2.29006 -0.59962,0 -1.49485,0.39233 -2.1466,0.94074 -1.48174,1.2468 -2.9407,1.20995 -4.90932,-0.12401 -0.85382,-0.57855 -1.77884,-1.05191 -2.05561,-1.05191 -0.67971,0 -2.56561,1.92493 -2.56561,2.61869 0,0.47284 -0.58223,0.55631 -3.88056,0.55631 H 98.021828 Z M 127.65516,92.44132 c 0,-1.022767 -0.23617,-1.642495 -0.86591,-2.272235 -1.4693,-1.469296 -2.11778,-0.927279 -1.07437,0.897978 0.27729,0.48507 0.50979,1.207382 0.51667,1.605139 0.0143,0.823997 0.68476,1.632077 1.12731,1.358568 0.16296,-0.100718 0.2963,-0.815971 0.2963,-1.58945 z"
         id="path186" />
      <path
         style="fill:#744c24;stroke-width:0.352778"
         d="m 98.021828,104.80788 c 0,-1.92636 -0.592708,-2.92759 -3.324974,-5.616737 -2.313336,-2.276827 -2.319471,-2.288127 -2.319471,-4.272181 0,-1.788953 0.124363,-2.121182 1.234722,-3.298503 0.679098,-0.720055 1.234723,-1.451049 1.234723,-1.624436 0,-0.565887 -1.332767,-1.045626 -2.904864,-1.045626 -0.847075,0 -1.730636,-0.1905 -1.96347,-0.423334 -0.232833,-0.232833 -0.423333,-1.248768 -0.423333,-2.257632 0,-1.595684 0.185189,-2.079837 1.423589,-3.721806 1.577664,-2.091791 1.636934,-3.159033 0.237063,-4.268632 -0.428289,-0.33948 -0.977145,-0.782302 -1.21968,-0.984047 -0.751074,-0.624761 -0.4888,-1.668004 0.617361,-2.45566 1.256047,-0.894384 1.365243,-1.930219 0.264584,-2.509844 -0.436563,-0.229902 -0.910382,-0.592674 -1.052931,-0.806163 -0.419103,-0.627663 -0.30725,-3.561173 0.153347,-4.02177 0.232834,-0.232834 1.225021,-0.419681 2.204862,-0.415217 1.74351,0.0079 1.847398,0.07029 4.868333,2.921727 l 3.086801,2.913611 v 2.299383 c 0,2.519629 0.35122,3.146051 1.76389,3.146051 1.39015,0 1.76389,-0.633186 1.76389,-2.988327 v -2.141661 l 3.09379,-3.07945 c 3.07928,-3.065018 3.10223,-3.079451 4.89569,-3.079451 2.23198,0 2.6689,0.468142 2.52611,2.706619 -0.0982,1.539943 -0.21848,1.751448 -1.25517,2.20774 -1.57468,0.693085 -1.6215,2.255673 -0.0937,3.127743 1.74574,0.996484 1.69215,2.218511 -0.11721,2.672631 -0.45655,0.114587 -1.01768,0.696761 -1.30845,1.357529 -0.42814,0.972941 -0.74023,1.187757 -1.96264,1.35093 -2.74167,0.365971 -4.31012,2.243952 -2.62659,3.144951 0.41774,0.22357 4.07461,0.36519 9.42983,0.36519 h 8.74746 l 3.09378,3.07945 3.09379,3.07945 v 3.199994 c 0,2.018513 -0.1563,3.356296 -0.42334,3.623328 -0.23283,0.232833 -1.2401,0.423333 -2.23837,0.423333 -3.14833,0 -3.93254,1.98399 -1.37959,3.490267 1.19247,0.70357 1.21908,0.76957 1.21908,3.02422 v 2.30496 h -3.85679 c -3.43655,0 -3.87925,-0.0708 -4.063,-0.64976 -0.35172,-1.10816 -1.89013,-2.29006 -2.98085,-2.29006 -0.59962,0 -1.49485,0.39233 -2.1466,0.94074 -1.48174,1.2468 -2.9407,1.20995 -4.90932,-0.12401 -0.85382,-0.57855 -1.77884,-1.05191 -2.05561,-1.05191 -0.67971,0 -2.56561,1.92493 -2.56561,2.61869 0,0.47284 -0.58223,0.55631 -3.88056,0.55631 h -3.880552 z m 7.684112,-10.301234 c 0.19919,-0.242534 0.41707,-0.828463 0.48417,-1.302064 0.0889,-0.627641 0.42676,-0.939637 1.24611,-1.150806 1.25124,-0.322478 1.82386,-1.432303 1.15489,-2.238365 -0.90349,-1.088635 -2.27123,-0.430632 -2.50979,1.207421 -0.0871,0.598061 -0.474,0.95129 -1.35242,1.234722 -1.41135,0.455387 -1.82157,1.520589 -0.85717,2.225774 0.7962,0.582203 1.36922,0.589484 1.83421,0.02332 z m 14.32667,-0.352777 c 0.56672,-0.904057 -0.14719,-1.828416 -1.51693,-1.964112 -1.07074,-0.106077 -1.12508,-0.181049 -1.02276,-1.411111 l 0.10807,-1.299083 2.35086,-0.103621 c 1.55445,-0.06852 2.4995,-0.282726 2.78963,-0.632311 0.73965,-0.891221 -0.1076,-1.246115 -2.70601,-1.133483 -2.118,0.09181 -2.47885,0.206628 -2.77581,0.88325 -0.19059,0.434253 -0.72018,0.823753 -1.19914,0.881944 -1.93688,0.235324 -1.85628,2.454903 0.0976,2.687302 0.52546,0.0625 1.0383,0.380002 1.13964,0.705556 0.57011,1.831488 0.86556,2.223678 1.59355,2.115312 0.41487,-0.06175 0.92845,-0.390095 1.14131,-0.729643 z m 7.90366,-1.345696 c 0.1189,-1.821099 -0.67562,-3.143606 -2.43526,-4.05355 -1.48142,-0.766072 -1.66867,0.02664 -0.51722,2.189628 0.49912,0.937584 0.90748,1.952025 0.90748,2.25431 0,0.741881 0.74514,1.440014 1.40377,1.315208 0.36692,-0.06952 0.56961,-0.608665 0.64123,-1.705596 z M 96.706474,85.426502 c 0.343708,-0.0022 0.792342,-0.371325 0.996964,-0.820422 0.204622,-0.449096 0.875576,-0.965034 1.491008,-1.146528 1.209104,-0.356571 1.617184,-1.282801 0.929984,-2.110824 -0.743738,-0.896149 -1.721506,-0.595541 -2.350038,0.722502 -0.470528,0.986708 -0.791776,1.234722 -1.599311,1.234722 -1.249715,0 -3.092142,0.916263 -3.092142,1.537763 0,0.786115 0.481095,1.001638 1.763889,0.790191 0.679097,-0.111937 1.515938,-0.205269 1.859646,-0.207404 z m 9.228936,-6.530272 c 0.51797,-0.679097 1.15423,-1.234722 1.4139,-1.234722 0.25967,0 0.81911,-0.280969 1.2432,-0.624376 l 0.77107,-0.624375 -0.73199,-0.930573 c -0.40259,-0.511816 -0.73198,-1.078146 -0.73198,-1.258511 0,-0.180366 0.72625,-1.008637 1.61389,-1.840602 1.17546,-1.101732 1.50829,-1.618268 1.22515,-1.901403 -0.28313,-0.283134 -0.76539,0.04033 -1.77524,1.190689 -0.76257,0.868686 -1.39327,1.784191 -1.40154,2.034455 -0.0303,0.91815 -1.38696,3.103757 -2.62421,4.227835 -1.27771,1.160827 -1.47089,1.526435 -1.0362,1.96112 0.49814,0.498143 1.12753,0.188845 2.03395,-0.999537 z M 96.749362,75.3396 c 0.457323,-1.191764 0.198569,-2.193255 -0.722617,-2.796838 -0.515212,-0.33758 -1.297918,-1.030526 -1.739348,-1.539879 -0.667491,-0.770199 -0.880963,-0.84698 -1.268112,-0.45611 -0.386223,0.389935 -0.270228,0.634662 0.681015,1.436802 0.63059,0.531749 1.146528,1.05493 1.146528,1.162625 0,0.107696 0.240255,0.770822 0.533901,1.473615 0.57384,1.373393 1.026473,1.61144 1.368633,0.719785 z"
         id="path184" />
      <path
         style="fill:#4d4b4a;stroke-width:0.352778"
         d="m 98.021828,104.80788 c 0,-1.92636 -0.592708,-2.92759 -3.324974,-5.616737 -2.313336,-2.276827 -2.319471,-2.288127 -2.319471,-4.272181 0,-1.788953 0.124363,-2.121182 1.234722,-3.298503 0.679098,-0.720055 1.234723,-1.451049 1.234723,-1.624436 0,-0.565887 -1.332767,-1.045626 -2.904864,-1.045626 -0.847075,0 -1.730636,-0.1905 -1.96347,-0.423334 -0.232833,-0.232833 -0.423333,-1.248768 -0.423333,-2.257632 0,-1.595684 0.185189,-2.079837 1.423589,-3.721806 1.577664,-2.091791 1.636934,-3.159033 0.237063,-4.268632 -0.428289,-0.33948 -0.977145,-0.782302 -1.21968,-0.984047 -0.751074,-0.624761 -0.4888,-1.668004 0.617361,-2.45566 1.256047,-0.894384 1.365243,-1.930219 0.264584,-2.509844 -0.436563,-0.229902 -0.910382,-0.592674 -1.052931,-0.806163 -0.419103,-0.627663 -0.30725,-3.561173 0.153347,-4.02177 0.232834,-0.232834 1.225021,-0.419681 2.204862,-0.415217 1.74351,0.0079 1.847398,0.07029 4.868333,2.921727 l 3.086801,2.913611 v 2.299383 c 0,2.519629 0.35122,3.146051 1.76389,3.146051 1.39015,0 1.76389,-0.633186 1.76389,-2.988327 v -2.141661 l 3.09379,-3.07945 c 3.07928,-3.065018 3.10223,-3.079451 4.89569,-3.079451 2.23198,0 2.6689,0.468142 2.52611,2.706619 -0.0982,1.539943 -0.21848,1.751448 -1.25517,2.20774 -1.57468,0.693085 -1.6215,2.255673 -0.0937,3.127743 1.74574,0.996484 1.69215,2.218511 -0.11721,2.672631 -0.45655,0.114587 -1.01768,0.696761 -1.30845,1.357529 -0.42814,0.972941 -0.74023,1.187757 -1.96264,1.35093 -2.74167,0.365971 -4.31012,2.243952 -2.62659,3.144951 0.41774,0.22357 4.07461,0.36519 9.42983,0.36519 h 8.74746 l 3.09378,3.07945 3.09379,3.07945 v 3.199994 c 0,2.018513 -0.1563,3.356296 -0.42334,3.623328 -0.23283,0.232833 -1.2401,0.423333 -2.23837,0.423333 -3.14833,0 -3.93254,1.98399 -1.37959,3.490267 1.19247,0.70357 1.21908,0.76957 1.21908,3.02422 v 2.30496 h -1.5875 c -0.87313,0 -1.5875,-0.15875 -1.5875,-0.35278 0,-0.19403 -0.23813,-0.35278 -0.52917,-0.35278 -0.29104,0 -0.52917,0.15875 -0.52917,0.35278 0,0.19403 -0.78305,0.35278 -1.74011,0.35278 -1.38048,0 -1.78274,-0.13429 -1.94634,-0.64976 -0.35172,-1.10816 -1.89013,-2.29006 -2.98085,-2.29006 -0.59962,0 -1.49485,0.39233 -2.1466,0.94074 -1.48174,1.2468 -2.9407,1.20995 -4.90932,-0.12401 -0.85382,-0.57855 -1.77884,-1.05191 -2.05561,-1.05191 -0.67971,0 -2.56561,1.92493 -2.56561,2.61869 0,0.42259 -0.37453,0.55631 -1.5581,0.55631 -0.92697,0 -1.62215,-0.17862 -1.71622,-0.44098 -0.219,-0.61076 0.36187,-1.71782 1.34199,-2.55763 0.45289,-0.38806 0.9212,-1.18181 1.04068,-1.76389 l 0.21724,-1.05834 -0.63294,0.87878 c -0.34811,0.48333 -1.15795,1.46512 -1.79964,2.18177 -0.64169,0.71664 -1.19141,1.63088 -1.2216,2.03164 -0.0473,0.62723 -0.28995,0.72865 -1.743706,0.72865 H 98.021828 Z M 122.25403,90.287558 c 0.31437,-0.347383 0.77939,-0.631606 1.03337,-0.631606 0.62118,0 2.25109,2.446292 2.25109,3.378606 0,1.104589 1.29237,2.162397 2.04913,1.677211 0.44135,-0.28297 0.59199,-0.867854 0.57861,-2.246425 -0.0168,-1.734083 -0.12059,-1.954795 -1.49012,-3.170143 -1.94269,-1.723988 -3.83298,-2.225326 -7.34235,-1.947321 -1.5351,0.121608 -5.04557,0.301868 -7.80102,0.400577 -4.19367,0.150231 -5.19176,0.08544 -6.12595,-0.397648 -0.80237,-0.414921 -1.22362,-0.469535 -1.49883,-0.194322 -0.21054,0.210539 -0.74792,0.382799 -1.19419,0.382799 -0.44626,0 -0.81139,0.15875 -0.81139,0.352777 0,0.194028 0.38788,0.352778 0.86194,0.352778 0.86273,0 1.96029,1.138227 1.96029,2.032928 0,0.255654 -0.67412,1.087282 -1.49804,1.848061 l -1.49803,1.383231 1.49803,1.526382 c 0.93404,0.951709 1.49804,1.849747 1.49804,2.385275 v 0.85889 l 0.54917,-0.784049 c 0.31269,-0.44644 0.92032,-0.784052 1.41111,-0.784052 0.90188,0 0.97255,-0.163674 0.87151,-2.018467 -0.0504,-0.92522 0.22171,-1.400919 1.46357,-2.558634 1.29491,-1.207173 1.68543,-1.389076 2.5838,-1.203519 0.58209,0.120227 1.13234,0.287281 1.22278,0.371228 0.0904,0.08395 0.1341,1.176655 0.097,2.428237 -0.0382,1.28912 0.0817,2.2756 0.27652,2.2756 0.18919,0 0.34397,-0.238125 0.34397,-0.529167 0,-0.656152 1.24566,-1.940277 1.88215,-1.940277 0.25908,0 1.19566,0.714374 2.08129,1.587499 0.88564,0.873125 1.92441,1.5875 2.30838,1.5875 0.45322,0 0.86785,0.40222 1.18191,1.146528 0.45381,1.075531 0.48999,0.896197 0.58421,-2.896171 0.0777,-3.128402 0.22971,-4.185539 0.67204,-4.674306 z M 100.21491,84.13819 c 1.02513,-0.900464 1.92303,-1.687231 1.99534,-1.748373 0.27149,-0.229552 -2.976037,-3.305251 -3.482867,-3.298587 -0.291042,0.0038 -0.846667,0.675674 -1.234722,1.492994 -0.535226,1.127292 -1.173961,1.7443 -2.645833,2.555839 -1.312377,0.723599 -1.976759,1.323116 -2.053009,1.852568 -0.108431,0.752918 -0.0046,0.782766 2.722252,0.782766 h 2.834983 z m 5.21525,-4.360015 c 0.38806,-0.388056 0.70556,-0.873089 0.70556,-1.077851 0,-0.204762 0.88602,-0.777928 1.96893,-1.273702 l 1.96893,-0.901408 -0.94488,-0.986244 c -1.16165,-1.2125 -0.97224,-2.085422 0.73503,-3.387624 1.21171,-0.924216 1.60407,-1.898171 0.76469,-1.898171 -0.84559,0 -3.35479,2.980467 -3.75244,4.457198 -0.51575,1.915361 -1.70508,3.410658 -2.53926,3.192515 -0.35448,-0.0927 -0.82853,0.0532 -1.05345,0.324206 -0.29598,0.356629 -0.29956,0.492747 -0.013,0.492747 0.21778,0 0.39597,0.396875 0.39597,0.881945 0,1.080796 0.78135,1.15893 1.76389,0.176389 z m -8.308514,-6.384658 c -0.09444,-0.310104 -0.557141,-0.739437 -1.028219,-0.954074 -0.471077,-0.214638 -1.121284,-0.794354 -1.444903,-1.288259 -0.648778,-0.990161 -1.918363,-1.218585 -1.918363,-0.345153 0,0.304072 0.555625,1.076879 1.234722,1.71735 1.062051,1.001642 1.234722,1.390556 1.234722,2.781003 0,1.171052 0.170125,1.712931 0.617362,1.966411 0.53656,0.304107 0.673576,0.110171 1.046877,-1.481776 0.236233,-1.007422 0.352245,-2.085398 0.257802,-2.395502 z"
         id="path182" />
      <path
         style="fill:#6c451b;stroke-width:0.352778"
         d="m 98.374605,104.84836 c 0,-2.14796 -0.495753,-3.01785 -3.167079,-5.557218 l -2.477365,-2.354989 v -1.995918 c 0,-1.831848 0.101496,-2.088275 1.234722,-3.119487 2.066848,-1.880789 1.552473,-2.880175 -1.639441,-3.18529 L 90.084328,88.42123 89.979461,86.424022 c -0.09415,-1.793047 0.0037,-2.120911 0.957628,-3.207323 0.584373,-0.665563 1.220687,-1.626192 1.414034,-2.134731 0.484022,-1.273076 -0.149672,-2.9448 -1.330033,-3.508706 -1.374958,-0.656873 -1.411078,-1.856237 -0.07668,-2.546279 1.497901,-0.774595 1.498376,-2.240224 9.88e-4,-3.0924 -1.011625,-0.57573 -1.068464,-0.720744 -0.967908,-2.469445 l 0.106843,-1.857796 1.795486,-0.104668 1.795486,-0.104667 3.055209,2.902565 3.055207,2.902565 v 2.335019 c 0,1.345756 0.179352,2.51437 0.423339,2.758352 0.23283,0.232833 1.10596,0.423333 1.94028,0.423333 1.38289,0 1.51694,0.07794 1.51694,0.881945 0,0.548765 0.19991,0.881944 0.52917,0.881944 0.6057,0 1.94028,-1.226671 1.94028,-1.783406 0,-0.204762 0.88602,-0.777928 1.96893,-1.273702 l 1.96893,-0.901408 -0.94488,-0.986244 c -1.16165,-1.2125 -0.97224,-2.085422 0.73503,-3.387624 1.21171,-0.924216 1.60407,-1.898171 0.76469,-1.898171 -0.84559,0 -3.35479,2.980467 -3.75244,4.457198 -0.44776,1.662852 -1.61668,3.303913 -2.35337,3.303913 -0.38722,0 -0.50356,-0.558302 -0.50356,-2.416555 v -2.416554 l 3.04581,-2.891911 3.04582,-2.891911 1.80488,0.104994 1.80488,0.104993 v 1.917852 c 0,1.85426 -0.0368,1.927381 -1.10892,2.205202 -1.28326,0.332526 -1.60298,0.926468 -1.30385,2.422132 0.15836,0.791796 0.53026,1.201604 1.43259,1.578623 1.35186,0.564843 1.38439,1.277022 0.0721,1.578013 -0.51348,0.117771 -1.10169,0.686099 -1.47055,1.420841 -0.52942,1.054567 -0.84112,1.258032 -2.24535,1.46569 -2.78344,0.411612 -4.20504,2.445795 -2.52945,3.61942 0.65879,0.461437 2.19094,0.549171 9.59052,0.549171 h 8.80646 l 2.94702,2.947016 2.94701,2.947015 -0.10211,3.314791 -0.10213,3.314788 -1.5875,0.09304 c -2.38899,0.140003 -3.11761,0.375278 -3.52612,1.138615 -0.60889,1.137719 -0.0546,2.440939 1.27446,2.996239 1.18374,0.4946 1.19333,0.51718 1.19333,2.80966 v 2.31106 h -1.41111 c -0.77611,0 -1.41111,-0.15875 -1.41111,-0.35278 0,-0.19403 -0.23812,-0.35278 -0.52916,-0.35278 -0.29104,0 -0.52917,0.15875 -0.52917,0.35278 0,0.19403 -0.7183,0.35278 -1.59623,0.35278 -1.32932,0 -1.6475,-0.13273 -1.90285,-0.79375 -0.48933,-1.26674 -2.04115,-2.49884 -3.14728,-2.49884 -0.55421,0 -1.56267,0.42333 -2.24103,0.94073 -1.51751,1.15747 -2.87736,1.19567 -4.30847,0.12102 -1.6064,-1.20626 -2.23366,-1.34514 -3.56426,-0.78918 -0.88433,0.3695 -1.27749,0.80779 -1.49999,1.67219 -0.26779,1.04032 -0.45317,1.18404 -1.65633,1.28404 -2.1708,0.18044 -2.34454,-1.23465 -0.36033,-2.93482 0.45289,-0.38806 0.9212,-1.18181 1.04068,-1.76389 l 0.21724,-1.05834 -0.63294,0.87878 c -0.34811,0.48333 -1.15795,1.46512 -1.79964,2.18177 -0.64169,0.71664 -1.19141,1.63088 -1.2216,2.03164 -0.0463,0.6145 -0.29181,0.72865 -1.567322,0.72865 H 98.374605 Z M 122.25403,90.287558 c 0.31437,-0.347383 0.77939,-0.631606 1.03337,-0.631606 0.62118,0 2.25109,2.446292 2.25109,3.378606 0,1.104589 1.29237,2.162397 2.04913,1.677211 0.44135,-0.28297 0.59199,-0.867854 0.57861,-2.246425 -0.0168,-1.734083 -0.12059,-1.954795 -1.49012,-3.170143 -1.94269,-1.723988 -3.83298,-2.225326 -7.34235,-1.947321 -1.5351,0.121608 -5.04557,0.301868 -7.80102,0.400577 -4.19367,0.150231 -5.19176,0.08544 -6.12595,-0.397648 -0.80237,-0.414921 -1.22362,-0.469535 -1.49883,-0.194322 -0.21054,0.210539 -0.74792,0.382799 -1.19419,0.382799 -0.44626,0 -0.81139,0.15875 -0.81139,0.352777 0,0.194028 0.38788,0.352778 0.86194,0.352778 0.86273,0 1.96029,1.138227 1.96029,2.032928 0,0.255654 -0.67412,1.087282 -1.49804,1.848061 l -1.49803,1.383231 1.49803,1.526382 c 0.93404,0.951709 1.49804,1.849747 1.49804,2.385275 v 0.85889 l 0.54917,-0.784049 c 0.31269,-0.44644 0.92032,-0.784052 1.41111,-0.784052 0.90188,0 0.97255,-0.163674 0.87151,-2.018467 -0.0504,-0.92522 0.22171,-1.400919 1.46357,-2.558634 1.29491,-1.207173 1.68543,-1.389076 2.5838,-1.203519 0.58209,0.120227 1.13234,0.287281 1.22278,0.371228 0.0904,0.08395 0.1341,1.176655 0.097,2.428237 -0.0382,1.28912 0.0817,2.2756 0.27652,2.2756 0.18919,0 0.34397,-0.238125 0.34397,-0.529167 0,-0.656152 1.24566,-1.940277 1.88215,-1.940277 0.25908,0 1.19566,0.714374 2.08129,1.587499 0.88564,0.873125 1.92441,1.5875 2.30838,1.5875 0.45322,0 0.86785,0.40222 1.18191,1.146528 0.45381,1.075531 0.48999,0.896197 0.58421,-2.896171 0.0777,-3.128402 0.22971,-4.185539 0.67204,-4.674306 z M 100.21491,84.13819 c 1.02513,-0.900464 1.92303,-1.687231 1.99534,-1.748373 0.27149,-0.229552 -2.976037,-3.305251 -3.482867,-3.298587 -0.291042,0.0038 -0.846667,0.675674 -1.234722,1.492994 -0.535226,1.127292 -1.173961,1.7443 -2.645833,2.555839 -1.312377,0.723599 -1.976759,1.323116 -2.053009,1.852568 -0.108431,0.752918 -0.0046,0.782766 2.722252,0.782766 h 2.834983 z M 97.121646,73.393517 c -0.09444,-0.310104 -0.557141,-0.739437 -1.028219,-0.954074 -0.471077,-0.214638 -1.121284,-0.794354 -1.444903,-1.288259 -0.648778,-0.990161 -1.918363,-1.218585 -1.918363,-0.345153 0,0.304072 0.555625,1.076879 1.234722,1.71735 1.062051,1.001642 1.234722,1.390556 1.234722,2.781003 0,1.171052 0.170125,1.712931 0.617362,1.966411 0.53656,0.304107 0.673576,0.110171 1.046877,-1.481776 0.236233,-1.007422 0.352245,-2.085398 0.257802,-2.395502 z"
         id="path180" />
      <path
         style="fill:#633b15;stroke-width:0.352778"
         d="m 98.374605,104.84836 c 0,-2.14796 -0.495753,-3.01785 -3.167079,-5.557218 l -2.477365,-2.354989 v -1.995918 c 0,-1.831848 0.101496,-2.088275 1.234722,-3.119487 2.066848,-1.880789 1.552473,-2.880175 -1.639441,-3.18529 L 90.084328,88.42123 89.979461,86.424022 c -0.09415,-1.793047 0.0037,-2.120911 0.957628,-3.207323 0.584373,-0.665563 1.220687,-1.626192 1.414034,-2.134731 0.484022,-1.273076 -0.149672,-2.9448 -1.330033,-3.508706 -1.374958,-0.656873 -1.411078,-1.856237 -0.07668,-2.546279 1.497901,-0.774595 1.498376,-2.240224 9.88e-4,-3.0924 -1.011625,-0.57573 -1.068464,-0.720744 -0.967908,-2.469445 l 0.106843,-1.857796 1.795486,-0.104668 1.795486,-0.104667 3.055209,2.902565 3.055207,2.902565 v 2.335019 c 0,2.707448 0.326019,3.181685 2.187229,3.181685 1.25432,0 1.34055,0.06808 1.34055,1.058334 0,1.54123 1.11601,1.384185 2.5125,-0.353561 0.83718,-1.041758 1.62764,-1.567302 3.01523,-2.004703 1.03433,-0.326044 1.8796,-0.762255 1.87838,-0.969356 -0.001,-0.207101 -0.47748,-0.646976 -1.05834,-0.9775 -1.4254,-0.811094 -1.33013,-1.523125 0.41755,-3.12066 1.25934,-1.151153 1.40697,-1.427393 1.01514,-1.899523 -0.61305,-0.738673 -0.96706,-0.696749 -1.69849,0.201147 -0.33765,0.414491 -1.03927,1.145121 -1.55914,1.623622 -0.56432,0.519398 -1.03815,1.419925 -1.1758,2.234605 -0.25644,1.517861 -1.36394,3.149262 -2.13791,3.149262 -0.38336,0 -0.50356,-0.534717 -0.50356,-2.240165 v -2.240166 l 3.04581,-2.891911 3.04582,-2.891911 1.80488,0.104994 1.80488,0.104993 v 1.917852 c 0,1.85426 -0.0368,1.927381 -1.10892,2.205202 -1.28326,0.332526 -1.60298,0.926468 -1.30385,2.422132 0.15836,0.791796 0.53026,1.201604 1.43259,1.578623 1.35186,0.564843 1.38439,1.277022 0.0721,1.578013 -0.51348,0.117771 -1.10169,0.686099 -1.47055,1.420841 -0.52942,1.054567 -0.84112,1.258032 -2.24535,1.46569 -2.78344,0.411612 -4.20504,2.445795 -2.52945,3.61942 0.65879,0.461437 2.19094,0.549171 9.59052,0.549171 h 8.80646 l 2.94702,2.947016 2.94701,2.947015 -0.10211,3.314791 -0.10213,3.314788 -1.5875,0.09304 c -2.38899,0.140003 -3.11761,0.375278 -3.52612,1.138615 -0.60889,1.137719 -0.0546,2.440939 1.27446,2.996239 1.18374,0.4946 1.19333,0.51718 1.19333,2.80966 v 2.31106 h -1.41111 c -1.39458,0 -1.41117,-0.0155 -1.41593,-1.32292 -0.007,-1.96892 -0.35046,-2.91042 -1.06121,-2.91042 -0.55731,0 -0.60855,0.24706 -0.43902,2.11667 l 0.19193,2.11667 h -1.46884 c -1.19721,0 -1.52554,-0.14679 -1.77546,-0.79375 -0.48932,-1.26674 -2.04115,-2.49884 -3.14728,-2.49884 -0.55421,0 -1.56267,0.42333 -2.24102,0.94073 -1.51752,1.15747 -2.87736,1.19567 -4.30847,0.12102 -1.6064,-1.20626 -2.23366,-1.34514 -3.56427,-0.78918 -0.88426,0.36947 -1.27755,0.80786 -1.50013,1.67219 -0.27446,1.06582 -0.43497,1.18122 -1.78042,1.27992 -1.91908,0.14078 -1.93385,-0.42171 -0.0677,-2.57793 0.77611,-0.89672 1.4111,-1.88015 1.4111,-2.18538 0,-1.570509 0.87487,-3.312875 1.99543,-3.974016 1.08918,-0.642634 1.17957,-0.832044 1.17957,-2.471751 0,-1.305419 0.18689,-1.962676 0.70556,-2.481344 1.49441,-1.494412 2.82222,-0.361004 2.82222,2.409028 0,1.782505 0.0237,1.824305 1.03456,1.824305 0.72491,0 1.10162,-0.211285 1.25862,-0.705929 0.12323,-0.388264 0.54577,-0.878113 0.93899,-1.088559 0.58151,-0.311207 0.87337,-0.233807 1.56361,0.414648 0.46677,0.438499 0.84866,1.015985 0.84866,1.283296 0,0.267314 0.48135,0.653824 1.06967,0.858915 0.70397,0.245403 1.24055,0.781872 1.5695,1.569148 0.27492,0.657941 0.73886,1.196259 1.03101,1.196259 0.62522,0 0.79763,-0.912234 1.10008,-5.820833 0.11957,-1.940278 0.36142,-3.67484 0.53746,-3.85458 0.49523,-0.505662 1.70086,0.793661 2.16077,2.328703 0.48877,1.631372 1.03931,2.147881 2.12529,1.993928 0.6871,-0.0974 0.83035,-0.35525 0.92402,-1.663199 0.14342,-2.002652 -0.42286,-3.317977 -1.92015,-4.460015 -2.03857,-1.554893 -4.04448,-2.046574 -7.30525,-1.790635 -1.58394,0.124324 -5.1024,0.214579 -7.81879,0.200566 -4.63156,-0.02389 -5.01463,-0.07856 -6.15621,-0.878643 -1.05504,-0.739425 -1.29028,-0.787146 -1.76454,-0.35795 -0.30096,0.272369 -0.98348,0.661087 -1.5167,0.863817 -1.39251,0.529433 -1.28294,1.65674 0.22217,2.285612 0.65541,0.273849 1.30065,0.674272 1.43388,0.889834 0.40795,0.660079 -0.1014,1.612293 -1.21398,2.269511 -1.37692,0.813364 -1.33823,1.597282 0.1369,2.77429 0.87958,0.701816 1.30767,1.42094 1.61938,2.720294 0.53341,2.223523 0.0766,3.79376 -1.66404,5.72049 -0.8379,0.92745 -1.17413,1.59125 -1.04878,2.07055 0.16386,0.62663 0.0107,0.70548 -1.369987,0.70548 H 98.37458 Z m 1.816755,-19.778519 c 0.20291,-0.582083 0.51937,-1.058333 0.70324,-1.058333 0.52149,0 2.06612,-1.673703 2.06612,-2.238776 0,-0.278827 -0.40753,-0.609242 -0.90562,-0.734254 -0.49809,-0.125013 -1.17278,-0.696845 -1.49931,-1.270736 -0.34307,-0.602963 -0.891527,-1.046662 -1.29924,-1.051072 -1.642217,-0.01777 -2.321942,-1.339681 -2.048947,-3.984749 0.192059,-1.860875 0.150747,-2.010957 -0.636723,-2.313096 -0.463159,-0.177707 -1.288703,-0.826936 -1.834541,-1.442732 -1.045204,-1.179164 -1.53821,-1.23965 -2.153503,-0.264209 -0.305068,0.483634 -0.122907,0.800174 0.986933,1.714998 1.314852,1.083812 1.354175,1.179964 1.158447,2.832584 -0.195803,1.653246 -0.161437,1.737103 1.023443,2.497338 2.373272,1.522722 1.992897,3.420304 -1.050499,5.240638 -2.107636,1.260632 -2.564752,1.886137 -1.93389,2.64628 0.288877,0.348076 1.338507,0.484452 3.728605,0.484452 h 3.326544 z"
         id="path178" />
      <path
         style="fill:#513010;stroke-width:0.352778"
         d="m 98.374605,104.84836 c 0,-2.14796 -0.495753,-3.01785 -3.167079,-5.557218 l -2.477365,-2.354989 v -1.995918 c 0,-1.831848 0.101496,-2.088275 1.234722,-3.119487 2.066848,-1.880789 1.552473,-2.880175 -1.639441,-3.18529 L 90.084328,88.42123 89.979461,86.424022 c -0.09415,-1.793047 0.0037,-2.120911 0.957628,-3.207323 0.584373,-0.665563 1.220687,-1.626192 1.414034,-2.134731 0.484022,-1.273076 -0.149672,-2.9448 -1.330033,-3.508706 -1.374958,-0.656873 -1.411078,-1.856237 -0.07668,-2.546279 1.497901,-0.774595 1.498376,-2.240224 9.88e-4,-3.0924 -1.011625,-0.57573 -1.068464,-0.720744 -0.967908,-2.469445 l 0.106843,-1.857796 1.795486,-0.104668 1.795486,-0.104667 3.055209,2.902565 3.055207,2.902565 v 2.581964 c 0,2.848499 -0.393115,3.247181 -1.807351,1.832945 -0.637967,-0.637967 -0.717853,-1.01717 -0.538813,-2.557639 0.233898,-2.012476 0.09299,-2.377846 -1.174911,-3.046556 -0.481383,-0.253889 -1.174389,-0.84192 -1.540014,-1.306736 -0.876939,-1.114847 -2.131838,-0.965309 -2.275861,0.2712 -0.07696,0.660757 0.128813,1.026666 0.770486,1.370079 0.481521,0.257702 1.066545,0.929791 1.300054,1.493531 0.373942,0.902777 0.332491,1.122986 -0.347667,1.846982 l -0.772229,0.822 1.782042,1.280269 c 2.245564,1.613277 2.331211,2.48935 0.405791,4.15081 -0.756938,0.653168 -1.797977,1.479714 -2.31342,1.836769 -0.620319,0.429705 -0.900466,0.906791 -0.82861,1.411111 0.09665,0.678312 0.381502,0.781275 2.595888,0.938308 2.840834,0.201458 4.186646,0.898315 4.552868,2.357459 0.284782,1.134664 0.746706,1.510069 1.867446,1.517696 0.52093,0.0035 0.79375,0.219152 0.79375,0.627302 0,0.342046 -0.35719,0.778609 -0.79375,0.970139 -1.33244,0.584574 -1.20079,1.979108 0.35672,3.778663 2.68588,3.103297 2.78993,4.967817 0.43619,7.816167 -0.77565,0.93864 -1.41027,2.00683 -1.41027,2.37376 0,0.52727 -0.25888,0.66715 -1.234727,0.66715 -1.20192,0 -1.234723,-0.0369 -1.234723,-1.38815 z m 4.500115,1.16667 c 0.24374,-0.10536 0.34458,-0.35108 0.22408,-0.54605 -0.1205,-0.19497 0.34405,-0.93548 1.03233,-1.64557 0.68828,-0.71009 1.36848,-1.76732 1.51155,-2.3494 0.14307,-0.58209 1.14012,-1.981284 2.21565,-3.109326 1.7212,-1.805231 1.95708,-2.227227 1.96854,-3.521749 0.0102,-1.156797 0.15574,-1.498494 0.68162,-1.600715 0.59293,-0.115252 0.64653,0.03461 0.47355,1.324265 -0.13732,1.023803 -0.0406,1.60867 0.32673,1.976014 0.70923,0.709228 3.59872,0.703721 3.87159,-0.0074 0.23765,-0.619316 1.53869,-0.720761 1.53869,-0.119984 0,0.225055 1.50812,1.878598 3.35139,3.674545 3.15322,3.07226 3.35139,3.35054 3.35139,4.70608 0,1.4133 -0.0237,1.44074 -1.24346,1.44074 -0.96347,0 -1.31249,-0.17873 -1.55007,-0.79375 -0.48932,-1.26674 -2.04115,-2.49884 -3.14728,-2.49884 -0.55421,0 -1.56267,0.42333 -2.24103,0.94073 -1.51751,1.15747 -2.87736,1.19567 -4.30847,0.12102 -1.6064,-1.20626 -2.23366,-1.34514 -3.56426,-0.78918 -0.88426,0.36947 -1.27755,0.80786 -1.50013,1.67219 -0.28042,1.08895 -0.412,1.1766 -1.86862,1.24467 -0.86183,0.0403 -1.36753,-0.013 -1.12379,-0.11832 z m 22.51949,-0.66279 c 0.12207,-0.48634 0.11563,-1.45089 -0.0143,-2.14344 -0.1881,-1.00268 -0.48346,-1.36249 -1.44993,-1.76631 l -1.21372,-0.50712 v -3.158294 c 0,-3.027228 0.68228,-5.65168 1.46928,-5.65168 0.15415,0 0.59833,0.623458 0.98708,1.385461 0.87518,1.715488 1.93995,2.136126 2.92183,1.154257 0.59435,-0.594353 0.66944,-0.973935 0.46385,-2.344875 -0.29614,-1.974829 -1.70512,-3.71758 -3.84187,-4.751959 -1.38502,-0.670476 -2.11818,-0.722778 -9.83394,-0.701531 l -8.33735,0.02296 -1.79222,-1.338014 c -2.01442,-1.503905 -2.37074,-2.80923 -1.07045,-3.921436 0.39697,-0.339549 1.48911,-1.366492 2.42699,-2.282097 1.26848,-1.23836 2.07581,-1.723996 3.15213,-1.896107 1.51437,-0.242158 2.38579,-0.913057 1.99894,-1.538981 -0.12516,-0.202527 -0.50396,-0.368231 -0.84175,-0.368231 -0.78759,0 -1.46085,-0.674587 -1.46085,-1.463714 0,-0.339376 0.56342,-1.046786 1.25204,-1.572024 1.35496,-1.033481 1.55802,-2.326534 0.40002,-2.547326 -0.79362,-0.151319 -4.12151,3.215504 -4.12151,4.169733 0,1.419066 -1.28083,3.529997 -2.14186,3.529997 -0.18017,0 -0.32758,-1.008074 -0.32758,-2.240165 v -2.240166 l 3.04581,-2.891911 3.04582,-2.891911 1.80488,0.104994 1.80488,0.104993 v 1.917852 c 0,1.85426 -0.0368,1.927381 -1.10892,2.205202 -1.28326,0.332526 -1.60298,0.926468 -1.30385,2.422132 0.15836,0.791796 0.53026,1.201604 1.43259,1.578623 1.35186,0.564843 1.38439,1.277022 0.0721,1.578013 -0.51348,0.117771 -1.10169,0.686099 -1.47055,1.420841 -0.52942,1.054567 -0.84112,1.258032 -2.24535,1.46569 -2.78344,0.411612 -4.20504,2.445795 -2.52945,3.61942 0.65879,0.461437 2.19094,0.549171 9.59052,0.549171 h 8.80646 l 2.94702,2.947016 2.94701,2.947015 -0.10211,3.314791 -0.10212,3.314788 -1.5875,0.09304 c -2.389,0.140003 -3.11761,0.375278 -3.52613,1.138615 -0.60889,1.137719 -0.0546,2.440948 1.27447,2.996248 1.18374,0.4946 1.19333,0.51718 1.19333,2.80966 v 2.31106 h -1.41783 c -1.33719,0 -1.40521,-0.0503 -1.1959,-0.88427 z M 101.39792,85.462591 c -0.10633,-0.172043 0.0289,-0.497252 0.30055,-0.722686 0.54989,-0.456364 1.11297,0.06804 0.73308,0.682714 -0.26995,0.436782 -0.77629,0.456363 -1.03363,0.03997 z m -0.54146,-5.661224 c -0.5394,-1.007886 -0.4802,-1.081526 0.86953,-1.081526 1.08186,0 1.23473,0.109194 1.23473,0.881945 0,0.702198 -0.17722,0.881944 -0.86954,0.881944 -0.49862,0 -1.0253,-0.291065 -1.23472,-0.682363 z"
         id="path176" />
      <path
         style="fill:#302d2b;stroke-width:0.352778"
         d="m 98.374605,104.84836 c 0,-2.14796 -0.495753,-3.01785 -3.167079,-5.557218 l -2.477365,-2.354989 v -1.995918 c 0,-1.831848 0.101496,-2.088275 1.234722,-3.119487 2.066848,-1.880789 1.552473,-2.880175 -1.639441,-3.18529 L 90.084328,88.42123 89.979461,86.424022 c -0.09415,-1.793047 0.0037,-2.120911 0.957628,-3.207323 0.584373,-0.665563 1.220687,-1.626192 1.414034,-2.134731 0.484022,-1.273076 -0.149672,-2.9448 -1.330033,-3.508706 -1.374958,-0.656873 -1.411078,-1.856237 -0.07668,-2.546279 1.497901,-0.774595 1.498376,-2.240224 9.88e-4,-3.0924 -1.011625,-0.57573 -1.068464,-0.720744 -0.967908,-2.469445 l 0.106843,-1.857796 1.795486,-0.104668 1.795486,-0.104667 3.055209,2.902565 3.055207,2.902565 v 2.405575 c 0,2.60317 -0.389677,3.023598 -1.581659,1.706472 -0.499659,-0.552117 -0.585923,-1.040219 -0.410296,-2.321558 0.236537,-1.725725 -0.180911,-2.976562 -0.993384,-2.976562 -0.270089,0 -0.959312,-0.568058 -1.531607,-1.26235 -0.827929,-1.004422 -1.247643,-1.238685 -2.054155,-1.146528 -0.880842,0.10065 -1.025003,0.277565 -1.100511,1.350545 -0.07426,1.055185 0.07963,1.338122 1.058333,1.94583 1.484771,0.921944 1.703158,2.159903 0.46413,2.63098 -1.284903,0.48852 -1.123446,1.2953 0.416511,2.081258 0.727604,0.371353 1.625917,1.010224 1.996251,1.419714 0.930138,1.028485 0.37749,2.13195 -1.880021,3.75381 -3.119254,2.240961 -2.770068,3.690629 0.888972,3.690629 1.99392,0 2.304766,0.09621 2.811995,0.87034 0.937247,1.430419 0.389599,3.467948 -1.289575,4.797878 -1.275642,1.010327 -1.381095,1.228266 -1.381095,2.854322 0,1.623786 0.132956,1.899849 1.712448,3.555615 1.189886,1.247348 1.889623,1.727153 2.293055,1.572343 0.928427,-0.356272 0.676741,-1.341514 -0.654114,-2.56053 -0.679097,-0.622028 -1.234722,-1.466737 -1.234722,-1.877131 0,-0.735809 1.127398,-2.157281 1.710984,-2.157281 0.378327,0 3.671129,3.776387 4.261929,4.887841 0.66622,1.253346 0.16571,3.061121 -1.23546,4.462301 -0.67422,0.67421 -1.32143,1.70374 -1.43825,2.28785 -0.17706,0.88531 -0.38115,1.06201 -1.226634,1.06201 -0.945293,0 -1.014236,-0.0944 -1.014236,-1.38815 z m 4.938885,0.88235 c 0,-0.30278 0.53457,-1.14627 1.18792,-1.87444 0.65335,-0.72816 1.29774,-1.67699 1.43197,-2.10851 0.13424,-0.43153 0.72195,-1.12487 1.30603,-1.54078 0.58408,-0.415896 1.20738,-1.13866 1.38512,-1.606129 0.17773,-0.467473 0.65949,-0.974372 1.07058,-1.126444 1.11235,-0.411484 5.05762,0.386775 5.18518,1.049133 0.0574,0.298065 -0.54695,1.213083 -1.34301,2.03336 -1.46647,1.5111 -1.70672,2.57913 -0.62694,2.78708 0.36964,0.0712 0.79971,-0.28574 1.1421,-0.94785 0.30206,-0.58412 1.09084,-1.47517 1.75284,-1.9801 1.13867,-0.868507 1.26878,-0.890838 2.41058,-0.41376 0.66382,0.27736 1.55733,0.94974 1.98559,1.49417 0.42824,0.54443 1.24865,1.27571 1.82312,1.62506 0.83886,0.51015 1.04448,0.87929 1.04448,1.8751 0,1.14475 -0.0819,1.23991 -1.06707,1.23991 -0.78055,0 -1.14939,-0.21313 -1.37368,-0.79375 -0.48932,-1.26674 -2.04115,-2.49884 -3.14728,-2.49884 -0.55421,0 -1.56267,0.42333 -2.24103,0.94073 -1.51751,1.15747 -2.87736,1.19567 -4.30847,0.12102 -1.6064,-1.20626 -2.23366,-1.34514 -3.56426,-0.78918 -0.88437,0.36951 -1.27746,0.80775 -1.49991,1.67219 -0.25255,0.9814 -0.48415,1.18937 -1.42765,1.28198 -0.83251,0.0817 -1.12621,-0.033 -1.12621,-0.43995 z m 22.57297,-0.99351 c -0.007,-2.28244 -0.31493,-2.99762 -1.62057,-3.76796 -1.19366,-0.70428 -1.19684,-0.71328 -1.19684,-3.387084 0,-2.574872 0.3794,-4.045648 1.04361,-4.045648 0.17227,0 0.78948,0.476249 1.37156,1.058333 1.18113,1.181132 1.71781,1.291099 2.72087,0.55753 0.83804,-0.612885 0.85163,-3.103845 0.0256,-4.701124 -0.76867,-1.48644 -2.80172,-3.164042 -4.35829,-3.596305 -0.74925,-0.208068 -4.84917,-0.370916 -9.36614,-0.372022 l -8.03358,-0.002 -1.57962,-1.456041 c -0.86879,-0.800822 -1.57962,-1.671007 -1.57962,-1.933744 0,-0.262737 1.02664,-1.504343 2.28142,-2.759124 2.23695,-2.23695 2.56567,-2.40414 5.4797,-2.787052 0.33627,-0.04419 0.52916,-0.452294 0.52916,-1.119572 0,-0.889832 -0.16081,-1.077892 -1.05402,-1.232609 -1.13702,-0.196946 -1.57015,-1.116982 -0.90383,-1.919848 0.42632,-0.513685 1.89516,-1.019717 1.60713,-0.553675 -0.0964,0.156005 -0.0754,0.782923 0.0466,1.39315 0.16703,0.83512 0.52329,1.235434 1.44061,1.618714 1.35186,0.564843 1.38439,1.277022 0.0721,1.578013 -0.51348,0.117771 -1.10169,0.686099 -1.47055,1.420841 -0.52942,1.054567 -0.84112,1.258032 -2.24535,1.46569 -2.78344,0.411612 -4.20504,2.445795 -2.52945,3.61942 0.65879,0.461437 2.19094,0.549171 9.59052,0.549171 h 8.80646 l 2.94702,2.947016 2.94701,2.947015 -0.10211,3.314791 -0.10212,3.314788 -1.5875,0.09304 c -2.389,0.140003 -3.11761,0.375278 -3.52613,1.138615 -0.60889,1.137719 -0.0546,2.440941 1.27447,2.996241 1.18374,0.4946 1.19333,0.51718 1.19333,2.80966 v 2.31106 h -1.05834 c -1.00915,0 -1.05855,-0.0697 -1.06314,-1.49931 z M 101.19683,79.425397 c -0.33145,-0.619315 -0.26829,-0.705556 0.51675,-0.705556 0.65917,0 0.89436,0.185538 0.89436,0.705556 0,0.388056 -0.23254,0.705556 -0.51676,0.705556 -0.28421,0 -0.68667,-0.3175 -0.89435,-0.705556 z m 2.82222,-4.180443 v -2.063777 l 3.04581,-2.891911 3.04582,-2.891911 1.80488,0.104994 1.80488,0.104993 v 1.914896 c 0,1.781281 -0.0663,1.932634 -0.95046,2.169088 -0.87209,0.233232 -0.95935,0.162607 -1.05833,-0.856563 -0.0928,-0.95592 -0.26036,-1.125617 -1.20176,-1.217374 -0.87507,-0.08529 -1.21962,0.09113 -1.72244,0.881945 -0.34571,0.543709 -1.08378,1.357257 -1.64015,1.807882 -0.74289,0.601693 -1.01158,1.127853 -1.01158,1.980897 0,1.125277 -1.12285,3.020617 -1.7895,3.020617 -0.17994,0 -0.32717,-0.928699 -0.32717,-2.063776 z"
         id="path174" />
      <path
         style="fill:#352312;stroke-width:0.352778"
         d="m 98.633619,104.70747 c 0.229705,-2.03794 -0.454919,-3.28132 -3.275719,-5.949213 -2.183348,-2.064992 -2.274961,-2.219836 -2.274961,-3.84513 0,-1.520849 0.125873,-1.7895 1.234722,-2.63526 0.885173,-0.675153 1.234722,-1.217298 1.234722,-1.915033 0,-1.348865 -0.835098,-1.911978 -3.140987,-2.117993 l -1.97429,-0.176389 -0.103796,-1.770356 c -0.09217,-1.572012 0.02932,-1.927728 1.084336,-3.175 1.494764,-1.767152 1.736802,-2.428609 1.449348,-3.960872 -0.167138,-0.890923 -0.555413,-1.418701 -1.418212,-1.927766 -1.465621,-0.864737 -1.495032,-1.266532 -0.127605,-1.74322 1.09282,-0.380959 1.673635,-1.570109 1.274682,-2.609763 -0.141451,-0.368614 -0.06722,-0.46689 0.226537,-0.299908 1.832481,1.04166 2.201539,2.426498 0.789709,2.963275 -1.261837,0.479749 -1.089179,1.291003 0.440973,2.071957 0.727604,0.371353 1.625917,1.010224 1.996251,1.419714 0.930138,1.028485 0.37749,2.13195 -1.880021,3.75381 -3.119254,2.240961 -2.770068,3.690629 0.888972,3.690629 1.99392,0 2.304766,0.09621 2.811995,0.87034 0.937247,1.430419 0.389599,3.467948 -1.289575,4.797878 -1.275642,1.010327 -1.381095,1.228266 -1.381095,2.854322 0,1.623786 0.132956,1.899849 1.712448,3.555615 1.189886,1.247348 1.889623,1.727153 2.293055,1.572343 0.928432,-0.356272 0.676741,-1.341514 -0.654114,-2.56053 -0.679097,-0.622028 -1.234722,-1.466737 -1.234722,-1.877131 0,-0.735809 1.127398,-2.157281 1.710984,-2.157281 0.378327,0 3.671134,3.776387 4.261934,4.887841 0.66622,1.253346 0.16571,3.061121 -1.23546,4.462301 -0.67422,0.67421 -1.32143,1.70374 -1.43825,2.28785 -0.17442,0.87212 -0.386,1.06201 -1.183304,1.06201 -0.936523,0 -0.9648,-0.0541 -0.798557,-1.52904 z m 4.679871,1.00089 c 0,-0.29048 0.53457,-1.12392 1.18792,-1.85209 0.65335,-0.72816 1.29774,-1.67699 1.43197,-2.10851 0.13424,-0.43153 0.72195,-1.12487 1.30603,-1.54078 0.58408,-0.415896 1.20738,-1.13866 1.38512,-1.606129 0.17773,-0.467473 0.65949,-0.974372 1.07058,-1.126444 1.11235,-0.411484 5.05762,0.386775 5.18518,1.049133 0.0574,0.298065 -0.54695,1.213083 -1.34301,2.03336 -1.46647,1.5111 -1.70672,2.57913 -0.62694,2.78708 0.36964,0.0712 0.79971,-0.28574 1.1421,-0.94785 0.30206,-0.58412 1.09084,-1.47517 1.75284,-1.9801 1.13867,-0.868507 1.26878,-0.890838 2.41058,-0.41376 0.66382,0.27736 1.55733,0.94974 1.98559,1.49417 0.42824,0.54443 1.24865,1.27571 1.82312,1.62506 0.83886,0.51015 1.04448,0.87929 1.04448,1.8751 0,1.14249 -0.0832,1.23991 -1.05833,1.23991 -0.87255,0 -1.05834,-0.14403 -1.05834,-0.82045 0,-0.99281 -1.2122,-2.19894 -2.74814,-2.73437 -0.98944,-0.34492 -1.3251,-0.27986 -2.69348,0.52206 -1.94065,1.1373 -2.45189,1.13946 -4.89569,0.0206 -1.27869,-0.5854 -2.25903,-0.81936 -2.8314,-0.67571 -1.21197,0.30419 -2.4417,1.70801 -2.4417,2.78737 0,0.75662 -0.16201,0.90046 -1.01424,0.90046 -0.66549,0 -1.01424,-0.18161 -1.01424,-0.52815 z m 22.57297,-0.97116 c -0.007,-2.28244 -0.31493,-2.99762 -1.62057,-3.76796 -1.19366,-0.70428 -1.19684,-0.71328 -1.19684,-3.387084 0,-2.574872 0.3794,-4.045648 1.04361,-4.045648 0.17227,0 0.78948,0.476249 1.37156,1.058333 1.18113,1.181132 1.71781,1.291099 2.72087,0.55753 0.83804,-0.612885 0.85163,-3.103845 0.0256,-4.701124 -0.76867,-1.48644 -2.80172,-3.164042 -4.35829,-3.596305 -0.74925,-0.208068 -4.84917,-0.370916 -9.36614,-0.372022 l -8.03358,-0.002 -1.57962,-1.456041 c -0.86879,-0.800822 -1.57962,-1.66499 -1.57962,-1.920373 0,-0.670083 4.02986,-4.677575 5.12075,-5.092332 0.9302,-0.353662 2.64037,-0.481436 2.64037,-0.197275 0,0.08438 -0.14624,0.538052 -0.32497,1.008154 -0.25216,0.663226 -0.66028,0.899704 -1.82154,1.055462 -1.98323,0.266006 -3.29302,1.272209 -3.42957,2.634646 -0.20799,2.07525 0.39622,2.20387 10.35293,2.20387 h 8.85319 l 2.89898,2.898979 2.89898,2.89898 -0.10081,3.010048 -0.10081,3.010049 -2.06548,0.183596 c -2.1973,0.195315 -3.40257,1.087024 -3.40257,2.517355 0,0.655898 1.01094,1.850712 2.19203,2.590712 0.37435,0.23456 0.61358,1.03259 0.71384,2.38125 0.15071,2.02748 0.15029,2.02848 -0.84838,2.02848 -0.93954,0 -0.99944,-0.0895 -1.00397,-1.49931 z M 101.43201,79.895767 c -0.44725,-0.447248 -0.23245,-0.823148 0.47037,-0.823148 0.39198,0 0.70556,0.235186 0.70556,0.529167 0,0.537073 -0.74627,0.723639 -1.17593,0.293981 z m -3.227953,-2.580583 c -0.499659,-0.552117 -0.585923,-1.040219 -0.410296,-2.321558 0.236537,-1.725725 -0.180911,-2.976562 -0.993384,-2.976562 -0.270089,0 -0.959312,-0.568058 -1.531607,-1.26235 -0.827929,-1.004422 -1.247643,-1.238685 -2.054155,-1.146528 -0.841864,0.0962 -1.043509,0.311783 -1.190009,1.272281 -0.172465,1.130729 -0.194465,1.143729 -0.988807,0.584282 -0.664577,-0.468054 -0.792971,-0.838995 -0.705555,-2.038403 0.106437,-1.460403 0.112986,-1.466666 1.648824,-1.576789 1.357237,-0.09732 1.674762,0.02947 2.650485,1.058333 0.609687,0.642893 1.939866,1.916106 2.955954,2.829363 l 1.847432,1.660467 v 2.308283 c 0,2.450175 -0.214088,2.730516 -1.228882,1.609181 z m 6.178923,-1.784247 -0.0112,-1.954183 3.02576,-2.915469 c 2.90806,-2.802057 3.08303,-2.911301 4.49792,-2.808317 1.46093,0.106335 1.47298,0.118607 1.58081,1.610253 0.0938,1.297234 -0.003,1.544863 -0.70555,1.808018 -0.70341,0.263421 -0.83844,0.178888 -0.99215,-0.621157 -0.14016,-0.72945 -0.40986,-0.948711 -1.27027,-1.032693 -0.87341,-0.08525 -1.21832,0.09152 -1.7209,0.881945 -0.34571,0.543709 -1.08378,1.357257 -1.64015,1.807882 -0.75159,0.608737 -1.01158,1.12504 -1.01158,2.0088 0,0.762205 -0.3128,1.545033 -0.8708,2.179292 l -0.8708,0.989811 z m 7.39718,0.895849 c 0,-0.593485 0.0648,-0.617531 0.85107,-0.315812 0.64582,0.247825 0.40362,0.844979 -0.34272,0.844979 -0.27959,0 -0.50835,-0.238125 -0.50835,-0.529167 z m -2.23426,-1.469907 c -0.4144,-0.414403 -0.25198,-1.428369 0.30251,-1.888557 0.65375,-0.542563 0.72553,-0.474895 1.03663,0.977214 0.20985,0.979527 0.14734,1.146528 -0.42916,1.146528 -0.37114,0 -0.78063,-0.105834 -0.90998,-0.235185 z"
         id="path172" />
      <path
         style="fill:#29190b;stroke-width:0.352778"
         d="m 98.633619,104.70747 c 0.113995,-1.01137 -0.02011,-1.90122 -0.396112,-2.62832 -0.720134,-1.39258 -0.713255,-1.48709 0.108246,-1.48709 1.971517,0 2.408607,-1.41761 0.878404,-2.848921 -1.334427,-1.248181 -1.644545,-1.969234 -1.202329,-2.79552 0.207681,-0.388056 0.591553,-0.705556 0.853049,-0.705556 0.666572,0 4.438613,4.501448 4.438613,5.296916 0,1.167511 -0.67764,2.478471 -1.82089,3.522671 -0.78896,0.7206 -1.11892,1.33941 -1.11892,2.09842 0,0.93531 -0.12537,1.07644 -0.956203,1.07644 -0.919185,0 -0.949531,-0.0592 -0.783858,-1.52904 z m 4.679871,1.34024 c 0,-0.42016 1.1333,-1.88115 1.59735,-2.05922 0.37268,-0.14301 0.48523,0.11381 0.45084,1.02871 -0.0411,1.09336 -0.14925,1.21931 -1.04701,1.21931 -0.55065,0 -1.00118,-0.085 -1.00118,-0.1888 z m 17.63889,-0.63165 c 0,-0.98567 -1.20954,-2.19801 -2.71736,-2.72364 -0.91651,-0.31949 -1.33969,-0.26077 -2.54247,0.35285 l -1.44295,0.73613 v -0.74758 c 0,-0.41116 0.5095,-1.22351 1.13222,-1.80522 1.51149,-1.411939 3.02165,-1.20167 4.81647,0.67063 0.70579,0.73627 1.54243,1.49742 1.85921,1.69144 0.31677,0.19403 0.66999,0.86872 0.78493,1.49931 0.19748,1.08342 0.15122,1.14653 -0.84053,1.14653 -0.86332,0 -1.04952,-0.14556 -1.04952,-0.82045 z m 5.11528,-1.47261 c 0,-1.96407 0.0902,-2.29305 0.62843,-2.29305 0.74451,0 0.8579,0.29326 1.05711,2.73402 0.14681,1.79867 0.12468,1.85209 -0.76719,1.85209 -0.89509,0 -0.91835,-0.0581 -0.91835,-2.29306 z m -16.36024,-1.10619 c -0.91413,-0.39877 -1.43971,-0.4327 -2.26207,-0.14602 -0.5892,0.2054 -1.14397,0.30075 -1.23282,0.2119 -0.40758,-0.40758 0.3838,-2.02256 1.16568,-2.37881 0.47863,-0.21808 1.19615,-0.948881 1.59449,-1.624006 l 0.72424,-1.227497 2.17269,0.22709 c 1.19499,0.124901 2.30896,0.363354 2.47551,0.529897 0.16855,0.168561 -0.32104,1.023599 -1.1043,1.928586 -0.77391,0.89419 -1.50923,1.94756 -1.63406,2.34084 -0.26228,0.8264 -0.31293,0.83008 -1.89936,0.13802 z m 13.94959,-2.48038 c -0.12935,-0.12935 -0.23518,-1.45929 -0.23518,-2.955417 0,-3.390949 0.47286,-3.9855 1.94646,-2.447392 1.86534,1.946998 3.92337,0.897269 3.81336,-1.945072 -0.0712,-1.840706 -0.84346,-3.415397 -2.34186,-4.775448 -2.05912,-1.868998 -3.43062,-2.105377 -12.21568,-2.105377 h -7.96648 l -1.50545,-1.461196 c -1.37346,-1.33308 -1.46329,-1.524704 -1.02452,-2.185527 0.76405,-1.150725 1.3025,-1.121976 1.3025,0.06954 0,2.051154 0.55287,2.166068 10.4213,2.166068 h 8.85319 l 2.89898,2.898979 2.89898,2.89898 -0.10081,3.010048 -0.10081,3.010049 -1.90774,0.02921 c -1.63803,0.02508 -2.02917,0.170366 -2.76661,1.027694 -0.63837,0.742142 -0.80749,1.255434 -0.65872,1.999273 0.16081,0.804028 0.0747,1.000778 -0.43778,1.000778 -0.35087,0 -0.74378,-0.10583 -0.87313,-0.23518 z M 94.582244,98.009232 c -1.322305,-1.332022 -1.499305,-1.699553 -1.499305,-3.113235 0,-1.471578 0.715987,-2.770601 1.527083,-2.770601 0.130243,0 0.236806,1.099069 0.236806,2.442376 0,2.090519 0.127057,2.593379 0.881944,3.49051 1.727327,2.052808 0.905084,2.017638 -1.146528,-0.04905 z m 0.970139,-7.428141 c 0,-1.572319 -0.738489,-2.121604 -3.140987,-2.33625 l -1.97429,-0.176389 -0.103796,-1.770356 c -0.09429,-1.60818 0.01838,-1.913094 1.229917,-3.328502 1.159882,-1.355061 1.33434,-1.791026 1.338518,-3.344921 0.0043,-1.588455 0.08312,-1.774083 0.71036,-1.672416 0.388056,0.0629 1.083739,0.484376 1.545963,0.936619 1.190301,1.164598 0.794229,2.299693 -1.336605,3.830545 -2.025181,1.454948 -2.488111,2.45002 -1.597589,3.434035 0.466812,0.515821 1.092794,0.68158 2.589436,0.685676 2.662589,0.0073 3.026862,0.294029 2.938974,2.313442 -0.0798,1.833474 -0.541387,2.620045 -1.537541,2.620045 -0.517224,0 -0.66236,-0.261088 -0.66236,-1.191528 z M 106.48849,79.945426 c 0,-0.789601 1.40529,-1.673141 2.7258,-1.713782 1.09192,-0.03361 1.33115,0.08082 1.33115,0.636702 0,0.542845 -0.40358,0.758257 -2.02847,1.082715 -1.53975,0.307454 -2.02848,0.306096 -2.02848,-0.0056 z m -8.345378,-3.182251 c -0.246664,-0.642798 0.04304,-3.616915 0.385694,-3.959571 0.459293,-0.459293 0.893391,0.822159 0.898731,2.653043 0.0042,1.430333 -0.11762,1.852083 -0.534837,1.852083 -0.297131,0 -0.634446,-0.2455 -0.749588,-0.545555 z m -7.706006,-0.16 c -0.119916,-0.194028 -0.119916,-0.511528 0,-0.705556 0.368275,-0.595881 1.142267,-0.391648 1.336939,0.352778 0.135335,0.517522 0.01082,0.705556 -0.467202,0.705556 -0.35844,0 -0.749822,-0.15875 -0.869737,-0.352778 z m 13.934724,-1.544304 c 0,-1.451681 0.6567,-2.620287 1.17898,-2.098006 0.39611,0.396105 0.25493,2.772842 -0.1912,3.218977 -0.7421,0.742099 -0.98778,0.463294 -0.98778,-1.120971 z M 92.857735,74.662897 c -0.111683,-0.291041 -0.100868,-0.795476 0.02403,-1.120966 0.208171,-0.542483 0.274132,-0.544762 0.79154,-0.02735 0.581825,0.581825 0.42664,1.677487 -0.237592,1.677487 -0.206207,0 -0.466299,-0.238125 -0.577982,-0.529167 z m 17.031355,-0.06839 c -0.42163,-0.421624 -0.22779,-1.166335 0.30357,-1.166335 0.29104,0 0.52917,0.228756 0.52917,0.508347 0,0.589366 -0.50351,0.987215 -0.83274,0.657988 z m -3.4006,-2.875548 c 0,-0.341498 1.17131,-1.465787 1.52709,-1.465787 0.42013,0 0.25214,0.639821 -0.31756,1.209524 -0.60261,0.602607 -1.20953,0.731195 -1.20953,0.256263 z M 95.898086,71.126594 c -0.245435,-0.29573 -0.348084,-0.635852 -0.22811,-0.755826 0.256219,-0.256219 1.293518,0.53282 1.293518,0.983936 0,0.485933 -0.574974,0.362828 -1.065408,-0.22811 z m -5.496908,-0.310669 c -0.104596,-0.272571 -0.139301,-1.026634 -0.07712,-1.675695 0.111642,-1.1654 0.134977,-1.18011 1.872108,-1.18011 1.339031,0 1.785265,0.136084 1.868814,0.569917 0.07517,0.390347 -0.226015,0.637072 -0.955901,0.78305 -0.756385,0.151277 -1.130677,0.472192 -1.289696,1.105776 -0.241483,0.962145 -1.108238,1.204815 -1.418202,0.397062 z M 112.07128,70.43511 c -0.26601,-0.583824 -0.80114,-1.007134 -1.43291,-1.133487 -0.68079,-0.136159 -0.97268,-0.386798 -0.89858,-0.771586 0.0836,-0.433833 0.52978,-0.569917 1.86881,-0.569917 h 1.75906 v 1.558102 c 0,1.817837 -0.66998,2.291692 -1.29638,0.916888 z"
         id="path170" />
      <path
         style="fill:#130d09;stroke-width:0.352778"
         d="m 98.722566,104.56081 c -0.0026,-0.92163 -0.100972,-2.03453 -0.218494,-2.47311 -0.17666,-0.65928 -0.02267,-0.86401 0.888888,-1.18178 1.73615,-0.60523 1.82966,-1.836693 0.261431,-3.442707 -0.703882,-0.720841 -1.279786,-1.489135 -1.279786,-1.707321 0,-1.017626 1.044187,-0.540857 2.766795,1.263298 1.70515,1.785877 1.86608,2.089703 1.68802,3.18694 -0.11773,0.72551 -0.69496,1.72302 -1.43652,2.48245 -0.68184,0.69826 -1.34223,1.7822 -1.467542,2.40875 -0.36301,1.81505 -1.197101,1.44299 -1.202792,-0.53652 z m 5.358814,1.08757 c 0.17164,-0.88504 0.996,-1.00656 0.996,-0.14683 0,0.43333 -0.22778,0.73496 -0.55503,0.73496 -0.32852,0 -0.50849,-0.24002 -0.44097,-0.58813 z m 17.08904,-0.52655 c -0.25479,-1.27396 -0.12095,-1.52837 0.64869,-1.23303 0.6961,0.26712 0.74866,2.34771 0.0593,2.34771 -0.26678,0 -0.58538,-0.50161 -0.708,-1.11468 z m 5.42641,-1.03139 c 0,-2.84974 0.83585,-2.72664 0.98774,0.14546 0.0855,1.61727 0.001,2.00061 -0.44097,2.00061 -0.43393,0 -0.54677,-0.44293 -0.54677,-2.14607 z m -11.64167,-1.51222 c 0,-1.58758 3.52973,-2.13443 4.4804,-0.69414 0.49574,0.75107 0.47455,0.76206 -1.37108,0.71103 -1.03103,-0.0285 -2.15241,0.0818 -2.49196,0.24503 -0.45306,0.21785 -0.61736,0.14814 -0.61736,-0.26192 z m -8.30433,-0.18046 c -0.32341,-0.31651 0.59212,-1.3887 1.34773,-1.57835 0.48146,-0.12084 1.03445,-0.68682 1.33223,-1.3635 0.57413,-1.304699 1.89775,-1.659682 3.6725,-0.984924 l 1.00704,0.382881 -1.06863,1.133679 c -0.58775,0.623524 -1.23753,1.451184 -1.44397,1.839234 -0.31293,0.58825 -0.73564,0.70556 -2.54236,0.70556 -1.19186,0 -2.2289,-0.0606 -2.30454,-0.13458 z m 17.35896,-2.39366 c -0.12935,-0.129351 -0.23519,-1.319976 -0.23519,-2.645835 0,-2.636061 0.28751,-2.926376 1.63987,-1.655896 0.80295,0.754338 0.80301,0.755234 0.11093,1.635075 -0.38085,0.484177 -0.69246,1.335166 -0.69246,1.891083 0,0.969563 -0.32394,1.274783 -0.82315,0.775573 z M 93.297071,96.506265 c -0.378084,-0.98527 -0.228825,-2.87117 0.259299,-3.276279 0.71261,-0.591414 0.93768,-0.122682 0.93768,1.952819 0,1.373018 -0.132805,1.88148 -0.491423,1.88148 -0.270283,0 -0.587783,-0.251107 -0.705556,-0.55802 z M 129.2653,95.12423 c 0.47949,-1.147565 0.47863,-1.503081 -0.008,-3.403343 -0.69666,-2.719336 -0.7027,-2.690159 0.35184,-1.699471 0.82734,0.777254 0.88771,1.043516 0.79375,3.501079 -0.0935,2.445089 -0.16513,2.668859 -0.88725,2.771503 -0.77035,0.109496 -0.77519,0.08685 -0.25014,-1.169768 z M 95.905161,90.361508 c 0,-1.269102 -1.243095,-2.116667 -3.104444,-2.116667 -1.946974,0 -2.54,-0.433711 -2.54,-1.857636 0,-1.207613 0.462795,-2.153504 1.815623,-3.710889 0.783646,-0.902139 1.006599,-1.507701 1.006599,-2.734028 0,-1.782014 0.570342,-2.063216 1.763889,-0.869669 0.975009,0.975009 0.899721,1.303628 -0.617361,2.694702 -2.671292,2.449415 -2.910417,2.719808 -2.910417,3.290976 0,1.369131 0.924965,1.94627 3.41083,2.128211 2.343384,0.171513 2.413203,0.204384 2.525743,1.189153 0.165096,1.444643 -0.218473,2.691402 -0.828016,2.691402 -0.287345,0 -0.522446,-0.3175 -0.522446,-0.705555 z M 126.41726,87.53577 c -1.2733,-1.406973 -3.64935,-1.760373 -11.83571,-1.760373 -6.37308,0 -7.72738,-0.08855 -8.09306,-0.529167 -0.38846,-0.468065 0.62117,-0.529167 8.74388,-0.529167 h 9.18304 l 1.61987,1.57434 c 0.89094,0.865887 1.61988,1.659637 1.61988,1.763889 0,0.415821 -0.63114,0.150946 -1.2379,-0.519522 z m -21.88804,-4.260556 c -0.13037,-0.210934 -0.0604,-0.560184 0.15557,-0.776111 0.28827,-0.288275 0.39259,-0.186367 0.39259,0.383516 0,0.851786 -0.18325,0.983032 -0.54816,0.392595 z m 2.75042,-3.938011 c 0.16211,-0.49511 2.60834,-1.216022 2.95385,-0.870511 0.1225,0.122496 0.12872,0.467692 0.0138,0.767101 -0.26477,0.689994 -3.19314,0.792033 -2.96767,0.10341 z M 98.537703,76.51936 c -0.310493,-0.809133 -0.04604,-2.914796 0.366069,-2.914796 0.483769,0 0.664859,2.651251 0.212021,3.10409 -0.251855,0.251855 -0.431361,0.193076 -0.57809,-0.189294 z m -7.924209,-0.289783 c 0,-0.205478 0.15875,-0.275485 0.352778,-0.155569 0.194028,0.119916 0.352778,0.288035 0.352778,0.373598 0,0.08556 -0.15875,0.155569 -0.352778,0.155569 -0.194028,0 -0.352778,-0.168119 -0.352778,-0.373598 z m 13.902396,-0.818158 c -0.28851,-0.751852 -0.0462,-1.722252 0.4733,-1.895214 0.28794,-0.09587 0.44097,0.223434 0.44097,0.920085 0,1.177234 -0.59372,1.810474 -0.91427,0.975129 z M 90.495902,70.723545 c -0.389762,-0.389762 -0.264606,-2.063727 0.188148,-2.516481 0.456392,-0.456392 1.647292,-0.554231 2.546425,-0.209201 0.764475,0.293357 0.703883,0.844201 -0.09286,0.844201 -0.708023,0 -1.818565,1.040258 -1.818565,1.703473 0,0.452277 -0.451287,0.54987 -0.823148,0.178008 z m 21.809458,-0.555676 c -0.19185,-0.436431 -0.80511,-1.010773 -1.36281,-1.276316 -0.77531,-0.369159 -0.89987,-0.555095 -0.52916,-0.789912 0.7543,-0.477798 2.29394,-0.371858 2.76018,0.189923 0.4838,0.58295 0.36938,2.379015 -0.16266,2.55309 -0.19621,0.0642 -0.51371,-0.240355 -0.70555,-0.676785 z"
         id="path168" />
    </g>
  </g>
</svg>
