<?xml version="1.0" encoding="UTF-8" standalone="no"?>
<svg
   xmlns:dc="http://purl.org/dc/elements/1.1/"
   xmlns:cc="http://creativecommons.org/ns#"
   xmlns:rdf="http://www.w3.org/1999/02/22-rdf-syntax-ns#"
   xmlns:svg="http://www.w3.org/2000/svg"
   xmlns="http://www.w3.org/2000/svg"
   xmlns:sodipodi="http://sodipodi.sourceforge.net/DTD/sodipodi-0.dtd"
   xmlns:inkscape="http://www.inkscape.org/namespaces/inkscape"
   width="210mm"
   height="297mm"
   viewBox="0 0 210 297"
   version="1.1"
   id="svg1060"
   inkscape:version="1.0.1 (3bc2e813f5, 2020-09-07)"
   sodipodi:docname="tactical_outlined_8color.svg">
  <defs
     id="defs1054" />
  <sodipodi:namedview
     id="base"
     pagecolor="#ffffff"
     bordercolor="#666666"
     borderopacity="1.0"
     inkscape:pageopacity="0.0"
     inkscape:pageshadow="2"
     inkscape:zoom="0.35"
     inkscape:cx="-453.2459"
     inkscape:cy="-254.52851"
     inkscape:document-units="mm"
     inkscape:current-layer="layer1"
     inkscape:document-rotation="0"
     showgrid="false"
     inkscape:window-width="1440"
     inkscape:window-height="1198"
     inkscape:window-x="1466"
     inkscape:window-y="174"
     inkscape:window-maximized="0" />
  <metadata
     id="metadata1057">
    <rdf:RDF>
      <cc:Work
         rdf:about="">
        <dc:format>image/svg+xml</dc:format>
        <dc:type
           rdf:resource="http://purl.org/dc/dcmitype/StillImage" />
        <dc:title></dc:title>
      </cc:Work>
    </rdf:RDF>
  </metadata>
  <g
     inkscape:label="Laag 1"
     inkscape:groupmode="layer"
     id="layer1">
    <g
       id="g1076"
       transform="matrix(4.9272631,0,0,4.7477052,-10.625582,-3.065916)">
      <path
         style="fill:#fbfbfb;stroke-width:0.352778"
         d="M 2.2603281,20.555803 V 0.80024934 H 23.426994 44.59366 V 20.555803 40.311357 H 23.426994 2.2603281 Z"
         id="path1092" />
      <path
         style="fill:#a4a2a0;stroke-width:0.352778"
         d="m 10.726995,39.712958 c 0,-0.32912 0.412005,-1.192921 0.915566,-1.919562 1.035052,-1.49358 0.944378,-1.890188 -0.498102,-2.178684 C 9.6742615,35.320672 6.5133047,32.683425 5.9151241,31.251778 5.2634817,29.692178 5.7518833,27.934393 7.2877291,26.311694 7.8920092,25.673241 8.265548,24.966041 8.1531727,24.673197 8.0444325,24.389824 6.946024,23.822054 5.7122649,23.411486 4.4785057,23.000917 3.1971002,22.347364 2.8646972,21.959145 1.5575045,20.432456 2.3670668,18.183793 4.8713781,16.385333 c 0.8922558,-0.64077 1.6222832,-1.301742 1.6222832,-1.468827 0,-0.537549 -1.7723064,-2.429717 -2.4888075,-2.657126 -0.8648854,-0.274503 -1.7445257,-1.922791 -1.7445257,-3.2689271 0,-1.4808671 0.2757963,-1.5622822 1.956232,-0.5774816 C 5.0982247,8.9296612 5.815935,9.1545122 5.9404476,8.9530465 6.2140299,8.510381 4.4618845,4.7906592 3.7120123,4.2221848 3.3986555,3.9846304 2.948288,3.444298 2.7111959,3.0214461 1.9603548,1.6823274 3.3028444,1.7130041 6.8057285,3.1150086 c 3.8728445,1.5500787 5.1954865,2.8337272 5.5317595,5.3686745 0.143678,1.0830979 0.578207,2.1236759 1.210138,2.8979499 0.880422,1.078738 1.050768,1.154272 1.591348,0.70563 0.332962,-0.276333 1.246964,-1.852836 2.031118,-3.5033409 1.442264,-3.03571 4.279261,-6.5241305 5.767882,-7.0922869 0.410136,-0.1565351 1.640448,-0.3812287 2.734028,-0.49931907 1.877669,-0.20276049 1.988325,-0.17157991 1.988325,0.56026607 0,0.4262367 -0.634225,1.9305663 -1.409389,3.3429547 -0.775163,1.4123884 -1.279718,2.6481191 -1.121233,2.7460686 0.158485,0.097949 0.718246,-0.045044 1.243912,-0.3177628 1.696568,-0.8801901 2.631747,0.1582056 2.15421,2.3919721 -0.654389,3.0610292 -2.706368,4.6943422 -6.49535,5.1701032 -2.631192,0.330385 -3.26755,0.725944 -3.10542,1.930326 0.242006,1.797746 5.430752,3.239082 8.60462,2.390202 0.871996,-0.233223 3.207376,-0.523281 5.189733,-0.644572 3.064044,-0.187476 3.787686,-0.125693 4.827853,0.412189 2.156495,1.115149 3.138861,2.023375 4.578403,4.232867 1.208648,1.855106 1.407661,2.434536 1.407661,4.098438 0,1.678491 -0.137136,2.069261 -1.024555,2.919461 -0.860785,0.824686 -1.269608,0.962112 -2.557639,0.859752 -1.477444,-0.117412 -1.536866,-0.08333 -1.637252,0.939195 -0.08399,0.855511 0.09623,1.179409 0.930427,1.672182 1.28845,0.761107 2.227347,3.006042 2.120497,5.07019 l -0.07999,1.545209 h -4.343802 c -2.389091,0 -4.343802,-0.08153 -4.343802,-0.181176 0,-0.09965 0.19634,-0.495564 0.436311,-0.87982 0.379709,-0.608009 0.291277,-0.843682 -0.681665,-1.816622 l -1.117978,-1.117978 -1.270887,1.115854 c -0.911064,0.799923 -1.621955,1.115854 -2.510853,1.115854 -2.346678,0 -4.335304,-1.64834 -3.846532,-3.188326 0.368305,-1.160423 -0.376002,-0.784778 -2.442374,1.232646 -1.372365,1.339857 -1.971577,2.1976 -1.971577,2.822222 v 0.897346 h -4.233333 c -3.745458,0 -4.233333,-0.06896 -4.233333,-0.598399 z"
         id="path1090" />
      <path
         style="fill:#615e5c;stroke-width:0.352778"
         d="m 11.079772,39.864081 c 0,-0.245999 0.396875,-1.031328 0.881945,-1.74517 1.036682,-1.525616 1.119282,-2.340756 0.264583,-2.611033 -2.061735,-0.651974 -3.4444523,-1.48787 -4.6819321,-2.830377 -1.8803423,-2.03993 -1.9244805,-3.576799 -0.1687622,-5.876193 0.6790972,-0.889387 1.2347222,-1.760736 1.2347222,-1.936332 0,-0.486144 -1.1287544,-1.372438 -2.1166666,-1.661998 C 6.0085919,23.060803 4.8576544,22.625602 3.9360225,22.235865 2.3921446,21.582994 2.2603281,21.430346 2.2603281,20.295357 c 0,-0.970927 0.2802508,-1.490966 1.3229166,-2.454834 0.7276042,-0.672617 1.7594791,-1.452167 2.2930555,-1.732333 0.5335764,-0.280167 0.9701389,-0.671951 0.9701389,-0.870631 0,-0.825612 -1.1362883,-2.465512 -2.0344436,-2.936125 -1.6169838,-0.847262 -2.5516674,-1.942312 -2.5516674,-2.9894647 0,-1.4236078 0.2194094,-1.4810372 1.954127,-0.5114851 C 6.5810899,10.123222 7.0933705,9.4216207 5.7334391,6.7201401 5.315317,5.8895471 4.329764,4.5352838 3.5433214,3.7106658 2.2603898,2.3654582 2.1930672,2.2113603 2.8883018,2.2113603 c 1.1118945,0 6.8102577,2.4060731 7.7510352,3.2727919 0.809627,0.7458935 1.493259,2.6030384 1.496801,4.066195 0.0021,0.8717198 1.696702,3.2443178 2.317216,3.2443358 0.726246,2e-5 2.214959,-1.966516 3.27581,-4.3272245 1.004428,-2.2351539 4.248454,-6.1859714 5.730655,-6.9792212 0.633034,-0.338789 4.200508,-0.81131212 4.200508,-0.55637028 0,0.46352928 -1.501708,3.56691868 -2.280828,4.71349618 -0.491794,0.7237405 -0.894172,1.6163839 -0.894172,1.9836527 0,0.6842727 0.384585,0.686769 2.734028,0.017748 0.721691,-0.2055071 0.79375,-0.1065537 0.79375,1.0900028 0,1.6937683 -1.24463,3.8974913 -2.714213,4.8057433 -0.634473,0.392126 -2.06927,0.799776 -3.188437,0.905889 -1.119167,0.106112 -2.392037,0.416098 -2.8286,0.688857 -1.5346,0.958799 -0.675547,3.18056 1.558142,4.029807 1.499656,0.570168 5.825308,0.795666 7.349497,0.383133 0.776111,-0.210061 2.919236,-0.480253 4.7625,-0.600427 3.34157,-0.217857 3.357053,-0.21505 5.284833,0.958352 2.724358,1.658263 4.945722,4.989078 4.945722,7.415844 0,2.386357 -1.138752,3.572166 -3.268204,3.403259 -1.336562,-0.106015 -1.526003,-0.01831 -1.976271,0.914998 -0.483569,1.002321 -0.457351,1.068814 0.904155,2.293056 1.673207,1.504519 2.223653,2.694 2.223653,4.805178 v 1.570901 h -3.880555 c -2.134305,0 -3.880555,-0.08981 -3.880555,-0.19958 0,-0.10977 0.153164,-0.485772 0.340365,-0.835561 0.270926,-0.506229 0.079,-0.897347 -0.94074,-1.917086 -0.704609,-0.704607 -1.432129,-1.281106 -1.616711,-1.281106 -0.184582,0 -0.878023,0.47625 -1.540979,1.058334 -0.662956,0.582083 -1.586391,1.058333 -2.052078,1.058333 -1.083968,0 -2.740976,-0.627691 -3.084914,-1.168598 -0.472066,-0.74241 -0.294454,-1.961667 0.337257,-2.315191 0.337932,-0.189116 0.504075,-0.454195 0.369207,-0.589063 -0.98842,-0.98842 -6.275296,3.435605 -6.275296,5.25113 v 0.938388 h -3.880555 c -2.898423,0 -3.880556,-0.113203 -3.880556,-0.447276 z"
         id="path1088" />
      <path
         style="fill:#835a31;stroke-width:0.352778"
         d="m 11.631449,39.517607 c 0.135545,-0.436562 0.554581,-1.231229 0.931192,-1.765927 0.760325,-1.079483 0.732541,-1.998776 -0.07176,-2.374196 C 9.4699909,33.96743 8.4344745,33.325049 7.5398322,32.306108 6.0450571,30.603653 6.1027758,28.907934 7.7249594,26.867255 8.4021735,26.015331 8.9577985,25.12605 8.9596816,24.891073 8.966275,24.068308 7.5521216,23.162991 4.9186154,22.304054 2.3927866,21.480236 2.2627278,21.385841 2.2668243,20.379414 c 0.00361,-0.886978 0.6774609,-2.672826 0.6936573,-1.83834 0.00297,0.153079 0.3625895,-0.06244 0.799152,-0.478925 C 4.1961961,17.645661 5.1486961,16.92311 5.8763002,16.456481 6.6039044,15.989852 7.1986235,15.411618 7.1978982,15.171517 7.1953306,14.321534 5.8049396,12.468739 4.7667883,11.93189 3.4929513,11.273163 2.6131059,10.090457 2.6131059,9.0368654 V 8.2582507 l 1.5968856,0.8925164 c 1.2893573,0.7206357 1.6969852,0.8094412 2.1166666,0.4611367 0.2858794,-0.237259 0.519781,-0.6451783 0.519781,-0.9064875 0,-0.8080198 -1.4683305,-3.4374266 -2.5892494,-4.636688 C 3.67051,3.4410447 3.281146,2.8368387 3.3919364,2.7260483 3.658323,2.4596617 8.8714656,4.6323742 10.111815,5.5267321 c 0.960782,0.6927754 1.655241,2.3798641 1.684791,4.092961 0.0084,0.4850689 0.560768,1.5169439 1.227557,2.2930549 1.188719,1.383614 1.231425,1.400537 2.191615,0.868424 0.670001,-0.371297 1.50552,-1.596843 2.645579,-3.880555 2.179182,-4.3652362 5.326201,-7.6070448 7.65739,-7.8880342 L 27.037102,0.82956816 26.812673,1.9614364 c -0.123437,0.6225276 -0.788146,2.0470428 -1.477133,3.1655894 -1.479788,2.4023864 -1.468878,3.2708872 0.04055,3.2284124 0.57723,-0.016242 1.327323,-0.1522899 1.666871,-0.3023267 0.522875,-0.2310429 0.617361,-0.082242 0.617361,0.972247 0,0.8638681 -0.355747,1.7124535 -1.161993,2.7717705 -1.267872,1.665844 -2.729466,2.356905 -5.052237,2.388763 -2.650043,0.03635 -4.063548,1.963179 -2.782194,3.792569 1.381251,1.972012 5.481908,2.445427 13.112456,1.513815 3.647575,-0.445332 4.04386,-0.433995 5.345415,0.152925 1.538517,0.693775 3.33273,2.424221 4.778283,4.608466 1.20982,1.828051 1.29479,4.403726 0.181988,5.516529 -0.617256,0.617255 -1.01594,0.710963 -2.284857,0.537039 -1.282227,-0.175749 -1.59699,-0.09884 -1.898107,0.463803 -0.65024,1.214986 -0.412598,2.392068 0.656738,3.252946 1.331073,1.07159 2.06459,2.577834 2.206368,4.530685 l 0.11473,1.580299 -3.802132,0.100292 -3.802132,0.100294 0.592268,-0.903915 c 0.584372,-0.891864 0.572631,-0.922595 -0.88074,-2.305156 -0.810154,-0.770678 -1.669068,-1.401236 -1.908699,-1.401236 -0.23963,0 -0.975819,0.493331 -1.635974,1.096288 -1.045983,0.955358 -1.384419,1.071591 -2.632655,0.90417 -0.883566,-0.118513 -1.674685,-0.491367 -2.064807,-0.973148 -0.610899,-0.75443 -0.608019,-0.80702 0.08459,-1.544267 0.938131,-0.998596 0.909262,-1.600029 -0.07672,-1.598391 -1.092089,0.0018 -2.605993,0.98468 -4.622106,3.000795 -1.446115,1.446114 -1.673701,1.854962 -1.504236,2.702288 l 0.199675,0.998375 h -3.71912 c -3.6947,0 -3.717502,-0.0052 -3.472675,-0.79375 z M 2.436717,2.5641381 C 2.3168012,2.3701103 2.3868073,2.2113603 2.592286,2.2113603 c 0.2054787,0 0.3735976,0.15875 0.3735976,0.3527778 0,0.1940278 -0.070006,0.3527777 -0.155569,0.3527777 -0.085563,0 -0.2536819,-0.1587499 -0.3735976,-0.3527777 z"
         id="path1086" />
      <path
         style="fill:#744c25;stroke-width:0.352778"
         d="m 11.631449,39.517607 c 0.135545,-0.436562 0.554581,-1.231229 0.931192,-1.765927 0.760325,-1.079483 0.732541,-1.998776 -0.07176,-2.374196 C 9.4699909,33.96743 8.4344745,33.325049 7.5398322,32.306108 6.0450571,30.603653 6.1027758,28.907934 7.7249594,26.867255 8.4021735,26.015331 8.9577985,25.12605 8.9596816,24.891073 8.966275,24.068308 7.5521216,23.162991 4.9186154,22.304054 2.3927866,21.480236 2.2627278,21.385841 2.2668243,20.379414 c 0.00361,-0.886978 0.6774609,-2.672826 0.6936573,-1.83834 0.00297,0.153079 0.3625895,-0.06244 0.799152,-0.478925 C 4.1961961,17.645661 5.1486961,16.92311 5.8763002,16.456481 6.6039044,15.989852 7.1986235,15.411618 7.1978982,15.171517 7.1953306,14.321534 5.8049396,12.468739 4.7667883,11.93189 3.4929513,11.273163 2.6131059,10.090457 2.6131059,9.0368654 V 8.2582507 l 1.5968856,0.8925164 c 1.2893573,0.7206357 1.6969852,0.8094412 2.1166666,0.4611367 0.2858794,-0.237259 0.519781,-0.6451783 0.519781,-0.9064875 0,-0.8080198 -1.4683305,-3.4374266 -2.5892494,-4.636688 C 3.67051,3.4410447 3.281146,2.8368387 3.3919364,2.7260483 3.658323,2.4596617 8.8714656,4.6323742 10.111815,5.5267321 c 0.960782,0.6927754 1.655241,2.3798641 1.684791,4.092961 0.0084,0.4850689 0.560768,1.5169439 1.227557,2.2930549 1.188719,1.383614 1.231425,1.400537 2.191615,0.868424 0.670001,-0.371297 1.50552,-1.596843 2.645579,-3.880555 2.179182,-4.3652362 5.326201,-7.6070448 7.65739,-7.8880342 L 27.037102,0.82956816 26.812673,1.9614364 c -0.123437,0.6225276 -0.788146,2.0470428 -1.477133,3.1655894 -1.479788,2.4023864 -1.468878,3.2708872 0.04055,3.2284124 0.57723,-0.016242 1.327323,-0.1522899 1.666871,-0.3023267 0.522875,-0.2310429 0.617361,-0.082242 0.617361,0.972247 0,0.8638681 -0.355747,1.7124535 -1.161993,2.7717705 -1.267872,1.665844 -2.729466,2.356905 -5.052237,2.388763 -2.650043,0.03635 -4.063548,1.963179 -2.782194,3.792569 1.381251,1.972012 5.481908,2.445427 13.112456,1.513815 3.647575,-0.445332 4.04386,-0.433995 5.345415,0.152925 1.538517,0.693775 3.33273,2.424221 4.778283,4.608466 1.20982,1.828051 1.29479,4.403726 0.181988,5.516529 -0.617256,0.617255 -1.01594,0.710963 -2.284857,0.537039 -1.282227,-0.175749 -1.59699,-0.09884 -1.898107,0.463803 -0.65024,1.214986 -0.412598,2.392068 0.656738,3.252946 1.331073,1.07159 2.06459,2.577834 2.206368,4.530685 l 0.11473,1.580299 -3.802132,0.100292 -3.802132,0.100294 0.592268,-0.903915 c 0.584372,-0.891864 0.572631,-0.922595 -0.88074,-2.305156 -0.810154,-0.770678 -1.669068,-1.401236 -1.908699,-1.401236 -0.23963,0 -0.975819,0.493331 -1.635974,1.096288 -1.045983,0.955358 -1.384419,1.071591 -2.632655,0.90417 -0.883566,-0.118513 -1.674685,-0.491367 -2.064807,-0.973148 -0.610899,-0.75443 -0.608019,-0.80702 0.08459,-1.544267 0.938131,-0.998596 0.909262,-1.600029 -0.07672,-1.598391 -1.092089,0.0018 -2.605993,0.98468 -4.622106,3.000795 -1.446115,1.446114 -1.673701,1.854962 -1.504236,2.702288 l 0.199675,0.998375 h -3.71912 c -3.6947,0 -3.717502,-0.0052 -3.472675,-0.79375 z m 7.843203,-10.888181 c 0.330524,-0.604229 0.958141,-1.643154 1.394703,-2.308722 1.053532,-1.606176 1.025031,-2.518411 -0.08741,-2.797615 -1.296262,-0.32534 -1.826159,0.002 -3.000389,1.853588 -1.25894,1.985143 -1.336041,3.0578 -0.273294,3.802177 1.084539,0.759641 1.280207,0.704969 1.966385,-0.549428 z m 13.406786,-0.03029 c 0.232834,-0.232833 0.423334,-0.909872 0.423334,-1.50453 0,-0.594658 0.327526,-1.69229 0.727836,-2.439182 1.276485,-2.381643 0.330403,-2.859433 -3.495764,-1.765431 -2.097803,0.599818 -3.229294,1.34312 -3.229294,2.121396 0,0.498331 4.160606,3.979156 4.780138,3.999135 0.203729,0.0066 0.560917,-0.178555 0.79375,-0.411388 z m 7.765824,-2.484194 c -0.140349,-1.451975 -1.214935,-1.791541 -1.542263,-0.487351 -0.276719,1.102522 0.0297,1.63099 0.945723,1.63099 0.58492,0 0.687987,-0.197591 0.59654,-1.143639 z M 11.500457,18.778967 c 1.372021,-0.381064 1.906912,-1.236164 1.52532,-2.438451 -0.379869,-1.196862 -1.541684,-1.256994 -2.715028,-0.140521 -2.5471029,2.423647 -2.0591883,3.481316 1.189708,2.578972 z M 2.436717,2.5641381 C 2.3168012,2.3701103 2.3868073,2.2113603 2.592286,2.2113603 c 0.2054787,0 0.3735976,0.15875 0.3735976,0.3527778 0,0.1940278 -0.070006,0.3527777 -0.155569,0.3527777 -0.085563,0 -0.2536819,-0.1587499 -0.3735976,-0.3527777 z"
         id="path1084" />
      <path
         style="fill:#6c451a;stroke-width:0.352778"
         d="m 11.631449,39.517607 c 0.135545,-0.436562 0.554581,-1.231229 0.931192,-1.765927 0.760325,-1.079483 0.732541,-1.998776 -0.07176,-2.374196 C 9.4699909,33.96743 8.4344745,33.325049 7.5398322,32.306108 6.0450571,30.603653 6.1027758,28.907934 7.7249594,26.867255 8.4021735,26.015331 8.9577985,25.12605 8.9596816,24.891073 8.966275,24.068308 7.5521216,23.162991 4.9186154,22.304054 2.3927866,21.480236 2.2627278,21.385841 2.2668243,20.379414 c 0.00361,-0.886978 0.6774609,-2.672826 0.6936573,-1.83834 0.00297,0.153079 0.3625895,-0.06244 0.799152,-0.478925 C 4.1961961,17.645661 5.1486961,16.92311 5.8763002,16.456481 6.6039044,15.989852 7.1986235,15.411618 7.1978982,15.171517 7.1953306,14.321534 5.8049396,12.468739 4.7667883,11.93189 3.4929513,11.273163 2.6131059,10.090457 2.6131059,9.0368654 V 8.2582507 l 1.5968856,0.8925164 c 1.2893573,0.7206357 1.6969852,0.8094412 2.1166666,0.4611367 0.2858794,-0.237259 0.519781,-0.6451783 0.519781,-0.9064875 0,-0.8080198 -1.4683305,-3.4374266 -2.5892494,-4.636688 C 3.67051,3.4410447 3.281146,2.8368387 3.3919364,2.7260483 3.658323,2.4596617 8.8714656,4.6323742 10.111815,5.5267321 c 0.960782,0.6927754 1.655241,2.3798641 1.684791,4.092961 0.0084,0.4850689 0.560768,1.5169439 1.227557,2.2930549 1.188719,1.383614 1.231425,1.400537 2.191615,0.868424 0.670001,-0.371297 1.50552,-1.596843 2.645579,-3.880555 2.179182,-4.3652362 5.326201,-7.6070448 7.65739,-7.8880342 L 27.037102,0.82956816 26.812673,1.9614364 c -0.123437,0.6225276 -0.788146,2.0470428 -1.477133,3.1655894 -1.479788,2.4023864 -1.468878,3.2708872 0.04055,3.2284124 0.57723,-0.016242 1.327323,-0.1522899 1.666871,-0.3023267 0.522875,-0.2310429 0.617361,-0.082242 0.617361,0.972247 0,0.8638681 -0.355747,1.7124535 -1.161993,2.7717705 -1.267872,1.665844 -2.729466,2.356905 -5.052237,2.388763 -2.650043,0.03635 -4.063548,1.963179 -2.782194,3.792569 1.381251,1.972012 5.481908,2.445427 13.112456,1.513815 3.647575,-0.445332 4.04386,-0.433995 5.345415,0.152925 1.538517,0.693775 3.33273,2.424221 4.778283,4.608466 1.20982,1.828051 1.29479,4.403726 0.181988,5.516529 -0.617256,0.617255 -1.01594,0.710963 -2.284857,0.537039 -1.282227,-0.175749 -1.59699,-0.09884 -1.898107,0.463803 -0.65024,1.214986 -0.412598,2.392068 0.656738,3.252946 1.331073,1.07159 2.06459,2.577834 2.206368,4.530685 l 0.11473,1.580299 -3.802132,0.100292 -3.802132,0.100294 0.592268,-0.903915 c 0.584372,-0.891864 0.572631,-0.922595 -0.88074,-2.305156 -0.810154,-0.770678 -1.669068,-1.401236 -1.908699,-1.401236 -0.23963,0 -0.975819,0.493331 -1.635974,1.096288 -1.045983,0.955358 -1.384419,1.071591 -2.632655,0.90417 -0.883566,-0.118513 -1.674685,-0.491367 -2.064807,-0.973148 -0.610899,-0.75443 -0.608019,-0.80702 0.08459,-1.544267 0.938131,-0.998596 0.909262,-1.600029 -0.07672,-1.598391 -1.092089,0.0018 -2.605993,0.98468 -4.622106,3.000795 -1.446115,1.446114 -1.673701,1.854962 -1.504236,2.702288 l 0.199675,0.998375 h -3.71912 c -3.6947,0 -3.717502,-0.0052 -3.472675,-0.79375 z m 15.852489,-3.439583 c 0.119916,-0.194027 -0.03883,-0.352777 -0.352777,-0.352777 -0.313944,0 -0.472694,0.15875 -0.352778,0.352777 0.119916,0.194028 0.278666,0.352778 0.352778,0.352778 0.07411,0 0.232862,-0.15875 0.352777,-0.352778 z m -8.182853,-4.509905 c 0.313255,-0.346143 0.959731,-1.511609 1.436614,-2.589926 0.854212,-1.931526 2.632556,-3.836279 3.581682,-3.836279 0.267012,0 0.995646,0.634838 1.619187,1.410752 0.679584,0.845651 1.607916,1.541686 2.317545,1.737624 0.651109,0.179779 1.975848,0.989984 2.943865,1.800453 0.968017,0.81047 1.968416,1.393617 2.223108,1.295882 0.254692,-0.09773 0.735371,-1.4169 1.068175,-2.931479 0.375018,-1.706699 0.956246,-3.214161 1.528605,-3.964562 1.135993,-1.489364 0.845311,-2.144662 -1.252255,-2.823012 -1.338688,-0.43293 -1.795995,-0.393034 -5.08291,0.44344 -4.348282,1.106577 -5.472303,1.129789 -9.156654,0.18909 -1.562062,-0.398829 -3.056949,-0.641937 -3.321972,-0.540238 -0.282553,0.108426 -0.481858,0.704875 -0.481858,1.442031 0,0.691419 -0.238125,1.827038 -0.529167,2.523599 -0.291042,0.696561 -0.529167,1.6029 -0.529167,2.014087 0,0.753045 2.335744,4.457888 2.810507,4.457888 0.140327,0 0.51144,-0.283207 0.824695,-0.62935 z m 21.341464,-3.674538 c 0.698437,-0.698436 0.480508,-2.503742 -0.471329,-3.904497 -0.492065,-0.724138 -1.009036,-1.316614 -1.148827,-1.316614 -0.285673,0 -1.13151,2.513102 -1.13151,3.361868 0,0.577535 1.516429,2.282576 2.030077,2.282576 0.164041,0 0.488756,-0.1905 0.721589,-0.423333 z M 12.666047,19.344329 c 1.414891,-0.59118 1.877922,-1.824773 1.252066,-3.335722 -0.496913,-1.199656 -1.904944,-1.952184 -2.770306,-1.480603 -0.328461,0.178995 -1.14428,0.8941 -1.8129325,1.589123 -0.6686521,0.695022 -1.4774851,1.263677 -1.7974069,1.263677 -0.5535584,0 -2.0222229,1.29984 -1.7178009,1.520337 1.3818827,1.000921 4.9575633,1.232385 6.8463803,0.443188 z M 22.095342,9.9867509 C 21.978129,8.9402742 21.322782,8.4646324 20.704798,8.9775131 20.213611,9.3851626 20.100388,10.408828 20.50206,10.8105 c 0.137537,0.137536 0.574099,0.203169 0.970139,0.14585 0.534142,-0.07731 0.695045,-0.327668 0.623143,-0.9695991 z m 3.656703,0.076512 c -0.24465,-0.2446509 -0.91394,0.252428 -0.91394,0.678779 0,0.233925 0.202418,0.207162 0.537692,-0.07109 0.29573,-0.245435 0.465042,-0.518894 0.376248,-0.607688 z M 2.436717,2.5641381 C 2.3168012,2.3701103 2.3868073,2.2113603 2.592286,2.2113603 c 0.2054787,0 0.3735976,0.15875 0.3735976,0.3527778 0,0.1940278 -0.070006,0.3527777 -0.155569,0.3527777 -0.085563,0 -0.2536819,-0.1587499 -0.3735976,-0.3527777 z"
         id="path1082" />
      <path
         style="fill:#533516;stroke-width:0.352778"
         d="m 11.631449,39.517607 c 0.135545,-0.436562 0.554581,-1.231229 0.931192,-1.765927 0.760325,-1.079483 0.732541,-1.998776 -0.07176,-2.374196 C 9.4699909,33.96743 8.4344745,33.325049 7.5398322,32.306108 6.0450571,30.603653 6.1027758,28.907934 7.7249594,26.867255 8.4021735,26.015331 8.9577985,25.12605 8.9596816,24.891073 8.966275,24.068308 7.5521216,23.162991 4.9186154,22.304054 2.3927866,21.480236 2.2627278,21.385841 2.2668243,20.379414 c 0.00361,-0.886978 0.6774609,-2.672826 0.6936573,-1.83834 0.00297,0.153079 0.3625895,-0.06244 0.799152,-0.478925 C 4.1961961,17.645661 5.1486961,16.92311 5.8763002,16.456481 6.6039044,15.989852 7.1986235,15.411618 7.1978982,15.171517 7.1953306,14.321534 5.8049396,12.468739 4.7667883,11.93189 3.4929513,11.273163 2.6131059,10.090457 2.6131059,9.0368654 V 8.2582507 l 1.5968856,0.8925164 c 1.2893573,0.7206357 1.6969852,0.8094412 2.1166666,0.4611367 0.2858794,-0.237259 0.519781,-0.6451783 0.519781,-0.9064875 0,-0.8080198 -1.4683305,-3.4374266 -2.5892494,-4.636688 C 3.67051,3.4410447 3.281146,2.8368387 3.3919364,2.7260483 3.658323,2.4596617 8.8714656,4.6323742 10.111815,5.5267321 c 0.960782,0.6927754 1.655241,2.3798641 1.684791,4.092961 0.0084,0.4850689 0.560768,1.5169439 1.227557,2.2930549 1.188719,1.383614 1.231425,1.400537 2.191615,0.868424 0.670001,-0.371297 1.50552,-1.596843 2.645579,-3.880555 2.179182,-4.3652362 5.326201,-7.6070448 7.65739,-7.8880342 L 27.037102,0.82956816 26.812673,1.9614364 c -0.123437,0.6225276 -0.788146,2.0470428 -1.477133,3.1655894 -1.479788,2.4023864 -1.468878,3.2708872 0.04055,3.2284124 0.57723,-0.016242 1.327323,-0.1522899 1.666871,-0.3023267 0.522875,-0.2310429 0.617361,-0.082242 0.617361,0.972247 0,0.8638681 -0.355747,1.7124535 -1.161993,2.7717705 -1.267872,1.665844 -2.729466,2.356905 -5.052237,2.388763 -2.650043,0.03635 -4.063548,1.963179 -2.782194,3.792569 1.381251,1.972012 5.481908,2.445427 13.112456,1.513815 3.647575,-0.445332 4.04386,-0.433995 5.345415,0.152925 1.538517,0.693775 3.33273,2.424221 4.778283,4.608466 1.20982,1.828051 1.29479,4.403726 0.181988,5.516529 -0.617256,0.617255 -1.01594,0.710963 -2.284857,0.537039 -1.282227,-0.175749 -1.59699,-0.09884 -1.898107,0.463803 -0.65024,1.214986 -0.412598,2.392068 0.656738,3.252946 1.331073,1.07159 2.06459,2.577834 2.206368,4.530685 l 0.11473,1.580299 -3.802132,0.100292 -3.802132,0.100294 0.592268,-0.903915 c 0.584372,-0.891864 0.572631,-0.922595 -0.88074,-2.305156 -0.810154,-0.770678 -1.669068,-1.401236 -1.908699,-1.401236 -0.23963,0 -0.975819,0.493331 -1.635974,1.096288 -1.045983,0.955358 -1.384419,1.071591 -2.632655,0.90417 -0.883566,-0.118513 -1.674685,-0.491367 -2.064807,-0.973148 -0.610899,-0.75443 -0.608019,-0.80702 0.08459,-1.544267 0.938131,-0.998596 0.909262,-1.600029 -0.07672,-1.598391 -1.092089,0.0018 -2.605993,0.98468 -4.622106,3.000795 -1.446115,1.446114 -1.673701,1.854962 -1.504236,2.702288 l 0.199675,0.998375 h -3.71912 c -3.6947,0 -3.717502,-0.0052 -3.472675,-0.79375 z m 26.259434,-1.875274 c 0,-0.870889 -0.680591,-1.917086 -1.247135,-1.917086 -0.602925,0 -0.672014,0.814613 -0.151564,1.78708 0.437937,0.818293 1.398699,0.907591 1.398699,0.130006 z M 27.483938,36.078024 c 0.119916,-0.194027 -0.03883,-0.352777 -0.352777,-0.352777 -0.313944,0 -0.472694,0.15875 -0.352778,0.352777 0.119916,0.194028 0.278666,0.352778 0.352778,0.352778 0.07411,0 0.232862,-0.15875 0.352777,-0.352778 z m -6.803626,-4.409722 c 2.373101,-4.086296 2.67288,-4.280039 4.367506,-2.822652 0.594337,0.511133 1.469683,0.883879 2.083343,0.887144 1.235144,0.0066 1.776554,0.297642 4.748528,2.55287 1.21454,0.921631 2.33343,1.675694 2.48642,1.675694 0.152991,0 0.387899,-1.092677 0.522017,-2.42817 0.246854,-2.458058 1.198669,-4.629379 2.027433,-4.625061 0.245386,0.0013 0.922407,0.317733 1.50449,0.703231 2.813484,1.863298 3.870516,-0.612142 1.68093,-3.936539 -1.502661,-2.281455 -4.938501,-3.070985 -9.579601,-2.201321 -1.975541,0.370183 -4.272001,0.521211 -6.609561,0.434681 L 20.32965,21.775577 18.754678,20.323818 c -0.866235,-0.798467 -1.895689,-1.55355 -2.287676,-1.677962 -0.41885,-0.132937 -0.957558,-0.867343 -1.306564,-1.781202 -0.405626,-1.062115 -0.985124,-1.78585 -1.828261,-2.283313 -1.729043,-1.020161 -2.428624,-0.915669 -3.5602817,0.531776 -0.5418483,0.69305 -1.5751831,1.566693 -2.2962997,1.94143 -0.7211169,0.374736 -1.4778449,0.992865 -1.6816186,1.373619 -0.3141266,0.586951 -0.2112377,0.774637 0.6762412,1.23357 0.5757061,0.297709 1.7740957,0.54129 2.6630883,0.54129 3.7040625,0 5.5653335,2.045206 5.4112825,5.946037 -0.07053,1.785948 0.06669,2.28829 1.039028,3.803538 0.61616,0.960203 1.359039,2.422507 1.650842,3.249565 0.984571,2.790572 0.916981,2.820658 3.445853,-1.533864 z M 18.41755,13.429693 c 0.572441,-0.572441 0.533159,-0.987778 -0.09342,-0.987778 -0.284215,0 -0.686676,0.3175 -0.894357,0.705556 -0.289966,0.541806 -0.268284,0.705555 0.09342,0.705555 0.259063,0 0.661523,-0.1905 0.894357,-0.423333 z m 3.898468,-1.727844 c 1.206339,-0.420532 1.414246,-1.038517 0.581809,-1.7293782 -0.291041,-0.241543 -0.531597,-0.7769185 -0.534568,-1.1897235 -0.003,-0.4128047 -0.148173,-0.9761265 -0.322671,-1.2518262 -0.834356,-1.31825 -3.353663,2.3760657 -2.729516,4.0025669 0.249031,0.648963 1.435585,0.715443 3.004946,0.168361 z m 2.979529,-0.85852 c 0.348607,-0.478972 0.519857,-0.8708582 0.380556,-0.8708582 -0.368409,0 -1.543553,1.1159392 -1.543553,1.4657872 0,0.550907 0.5242,0.282753 1.162997,-0.594929 z M 10.139384,9.4979259 C 10.543639,7.7885624 10.067696,6.6775926 8.5293273,5.7396462 6.7504715,4.6550744 6.3805459,4.8250907 7.1985314,6.3512746 c 0.3884326,0.7247308 0.706241,1.8836057 0.706241,2.5752776 0,2.4008308 1.6992042,2.8353048 2.2346116,0.5713737 z M 23.265111,5.3628894 c 0.379684,-0.6143423 -0.05275,-0.744446 -0.536597,-0.1614434 -0.278253,0.3352743 -0.305016,0.5376918 -0.07109,0.5376918 0.206335,0 0.479794,-0.1693118 0.607687,-0.3762484 z M 2.436717,2.5641381 C 2.3168012,2.3701103 2.3868073,2.2113603 2.592286,2.2113603 c 0.2054787,0 0.3735976,0.15875 0.3735976,0.3527778 0,0.1940278 -0.070006,0.3527777 -0.155569,0.3527777 -0.085563,0 -0.2536819,-0.1587499 -0.3735976,-0.3527777 z"
         id="path1080" />
      <path
         style="fill:#241a12;stroke-width:0.352778"
         d="m 11.434357,40.046774 c 9.88e-4,-0.145521 0.392915,-0.899583 0.870935,-1.675694 0.946477,-1.536697 1.146887,-2.941968 0.450175,-3.156607 -0.242535,-0.07472 -0.894824,-0.23585 -1.449531,-0.35807 C 10.751228,34.734183 9.4415408,33.824771 8.395519,32.835488 6.0171189,30.586096 5.8920376,29.511904 7.7283835,27.10616 9.7982266,24.394519 9.3605885,23.656186 4.8543206,22.257371 2.3778982,21.488652 2.2606163,21.403862 2.2666872,20.386619 2.2734901,19.246725 3.7774907,17.720327 6.0526891,16.544235 8.1109787,15.480267 7.7215622,14.605077 3.4068558,10.597885 2.9702934,10.192437 2.6131059,9.477639 2.6131059,9.0094458 c 0,-0.7339005 0.068812,-0.7824487 0.4991203,-0.3521403 C 3.8506631,9.3957424 5.697369,10.082776 6.3109365,9.8473286 6.6054629,9.7343081 6.8464391,9.2949852 6.8464391,8.871055 6.8464391,7.6368588 5.1806976,4.459899 4.1178814,3.667056 3.1832191,2.9698135 3.1752286,2.9387989 3.927496,2.9280919 4.3593689,2.9219451 5.2014337,3.2141207 5.7987512,3.5773711 6.6814774,4.1141888 6.7758175,4.2796403 6.3027048,4.4611906 5.7752524,4.6635933 5.7883277,4.7992995 6.4420305,5.9072435 8.0155622,8.5741812 7.7518157,10.651364 5.8331043,10.702946 c -0.8358006,0.02247 -0.7881944,0.08724 0.4841681,0.658799 3.1599208,1.419455 3.2009118,2.529774 0.210928,5.713348 -0.9779476,1.041266 -1.7826633,2.080126 -1.7882572,2.308578 -0.02231,0.911147 1.821123,1.877688 3.5812174,1.877688 1.3689139,0 1.9140104,0.181662 2.5982584,0.865909 0.47625,0.47625 0.865909,1.02154 0.865909,1.211756 0,0.856082 -0.842619,2.429297 -1.8737207,3.498338 -0.9355776,0.970002 -1.1192528,1.427792 -1.0913907,2.720172 0.030765,1.427042 0.5744305,2.639935 1.1833194,2.639935 0.136666,0 0.184338,-0.437055 0.105937,-0.971233 -0.1781007,-1.213476 1.264911,-2.74392 2.263203,-2.400329 0.766537,0.263825 3.125856,3.238242 3.638861,4.587547 0.693222,1.823312 0.428663,2.868261 -1.24698,4.925287 -1.1559,1.418988 -1.848966,1.972616 -2.469445,1.972616 -0.474409,0 -0.861748,-0.119062 -0.860755,-0.264583 z m 5.380439,-0.427027 c -0.512832,-0.821175 -0.258514,-1.663135 0.649071,-2.148857 0.361154,-0.193287 1.295867,-1.292726 2.07714,-2.443201 1.633142,-2.404907 3.401814,-3.8904 4.624842,-3.884366 1.479497,0.0073 4.388906,0.928349 6.099992,1.931112 1.659506,0.972536 5.508375,5.131181 5.508375,5.951721 0,0.702458 -0.776598,1.285201 -1.712732,1.285201 -0.816684,0 -0.832776,-0.03678 -0.282222,-0.645138 0.321114,-0.354828 0.583843,-0.798859 0.583843,-0.986737 0,-0.596851 -2.649007,-2.954235 -3.319691,-2.954235 -0.35426,0 -1.196914,0.485369 -1.872565,1.078596 -1.021926,0.897266 -1.415266,1.038522 -2.339627,0.840208 -2.480103,-0.532081 -2.956157,-1.400126 -1.574456,-2.870879 1.103981,-1.175133 0.452207,-1.743072 -1.32664,-1.156 -2.258852,0.745489 -6.703529,5.509332 -5.511074,5.906817 0.722531,0.240842 0.462062,0.787368 -0.375254,0.787368 -0.438396,0 -0.991447,-0.311224 -1.229002,-0.69161 z m 11.352742,-3.393775 c 1.057693,-1.057693 -0.03834,-1.565524 -1.722576,-0.798133 -0.695702,0.316983 -0.807957,0.513976 -0.502571,0.881943 0.528399,0.636682 1.542866,0.598473 2.225147,-0.08381 z m 11.134456,3.137454 c 0,-1.707635 -0.630855,-3.301487 -1.612308,-4.073499 -1.552433,-1.221143 -1.956484,-2.64167 -1.480065,-5.203478 0.224779,-1.208691 0.610008,-2.274872 0.856065,-2.369293 0.246056,-0.09442 0.914079,0.160648 1.484496,0.56682 1.846174,1.314593 3.221256,0.690454 3.221256,-1.462104 0,-1.238388 -1.714444,-4.453517 -2.729438,-5.118568 -1.744947,-1.143332 -4.539593,-1.440744 -8.383062,-0.892144 -4.497863,0.642006 -8.990681,0.376178 -10.615634,-0.628098 -1.861703,-1.150596 -3.375138,-3.087364 -3.250938,-4.16028 0.173417,-1.498077 3.046658,-3.228089 5.36128,-3.228089 2.096607,0 3.101114,-0.567517 3.741658,-2.113928 C 26.45795,9.3224175 26.306851,9.1732895 24.904305,9.7026915 23.947856,10.06371 23.693469,10.037358 23.180201,9.5240903 22.612576,8.9564656 22.624795,8.8156897 23.393554,7.0659773 c 1.225965,-2.7903254 1.31374,-3.443506 0.462742,-3.443506 -1.142949,0 -4.077332,3.5021119 -4.957884,5.9171091 -0.546207,1.4980236 -1.23617,2.5429946 -2.367775,3.5860716 -1.732208,1.596694 -2.239965,1.634053 -4.128666,0.30378 -1.366133,-0.962211 -1.67922,-1.71678 -1.628326,-3.9244121 C 10.822515,7.3851794 10.340255,6.4075928 8.7179484,5.3379237 7.9376297,4.8234203 7.8663859,4.6849621 8.3810224,4.683129 c 0.3589513,-0.00127 1.178145,0.5231818 1.8204306,1.1654673 0.871209,0.8712087 1.232879,1.6103652 1.42407,2.9104164 0.28482,1.9367043 1.933031,4.3884583 2.950176,4.3884583 0.904157,0 1.904443,-1.25178 3.433693,-4.2969982 1.883003,-3.7496517 5.601129,-7.6078824 7.559044,-7.8438792 1.357928,-0.16367766 1.384767,-0.14558453 1.16174,0.7831925 -0.236642,0.9854798 -1.039697,2.5859377 -2.29415,4.5721579 -1.099795,1.7413417 -0.677519,2.3419931 1.467859,2.0879049 2.071983,-0.2453957 2.190471,0.050498 1.002729,2.5040461 -0.9608,1.984748 -2.259621,2.761844 -5.129825,3.069217 -3.136299,0.335869 -4.281472,1.632145 -3.421563,3.873033 0.589756,1.536879 6.175179,2.971567 9.051957,2.325112 0.927923,-0.208519 3.314193,-0.478677 5.302824,-0.600352 4.753819,-0.290866 5.729956,0.191524 8.641608,4.270537 1.386304,1.942114 1.483035,2.222101 1.279715,3.704166 -0.289563,2.110747 -1.23583,2.955678 -2.980125,2.660981 -1.428941,-0.241418 -1.904559,0.105206 -2.298601,1.675198 -0.205165,0.817444 -0.04298,1.14097 1.060107,2.114693 1.462169,1.290691 2.185575,2.743686 2.359099,4.738352 0.102133,1.174037 0.01393,1.36484 -0.676179,1.462867 -0.662376,0.09408 -0.793637,-0.05217 -0.793637,-0.884273 z M 2.436717,2.5641381 C 2.3168012,2.3701103 2.3868073,2.2113603 2.592286,2.2113603 c 0.2054787,0 0.3735976,0.15875 0.3735976,0.3527778 0,0.1940278 -0.070006,0.3527777 -0.155569,0.3527777 -0.085563,0 -0.2536819,-0.1587499 -0.3735976,-0.3527777 z"
         id="path1078" />
    </g>
  </g>
</svg>
