<?xml version="1.0" encoding="UTF-8" standalone="no"?>
<svg
   xmlns:dc="http://purl.org/dc/elements/1.1/"
   xmlns:cc="http://creativecommons.org/ns#"
   xmlns:rdf="http://www.w3.org/1999/02/22-rdf-syntax-ns#"
   xmlns:svg="http://www.w3.org/2000/svg"
   xmlns="http://www.w3.org/2000/svg"
   xmlns:sodipodi="http://sodipodi.sourceforge.net/DTD/sodipodi-0.dtd"
   xmlns:inkscape="http://www.inkscape.org/namespaces/inkscape"
   width="210mm"
   height="297mm"
   viewBox="0 0 210 297"
   version="1.1"
   id="svg96"
   inkscape:version="1.0.1 (3bc2e813f5, 2020-09-07)"
   sodipodi:docname="aerial_wiki_free_200Perc_edit_200Perc_edit_Gaus3_OilBrush1_Course8_edit_color16.svg">
  <defs
     id="defs90" />
  <sodipodi:namedview
     id="base"
     pagecolor="#ffffff"
     bordercolor="#666666"
     borderopacity="1.0"
     inkscape:pageopacity="0.0"
     inkscape:pageshadow="2"
     inkscape:zoom="0.49497475"
     inkscape:cx="37.518807"
     inkscape:cy="151.99686"
     inkscape:document-units="mm"
     inkscape:current-layer="layer1"
     inkscape:document-rotation="0"
     showgrid="false"
     inkscape:window-width="3840"
     inkscape:window-height="2097"
     inkscape:window-x="1432"
     inkscape:window-y="140"
     inkscape:window-maximized="1" />
  <metadata
     id="metadata93">
    <rdf:RDF>
      <cc:Work
         rdf:about="">
        <dc:format>image/svg+xml</dc:format>
        <dc:type
           rdf:resource="http://purl.org/dc/dcmitype/StillImage" />
        <dc:title></dc:title>
      </cc:Work>
    </rdf:RDF>
  </metadata>
  <g
     inkscape:label="Laag 1"
     inkscape:groupmode="layer"
     id="layer1">
    <g
       id="g112"
       transform="matrix(3.7179416,0,0,3.5156142,-339.33207,-288.1875)">
      <path
         style="fill:#fdfdfd;stroke-width:0.352778"
         d="M 91.218254,108.10119 V 81.995636 h 28.222226 28.22222 v 26.105554 26.10555 H 119.44048 91.218254 Z"
         id="path144" />
      <path
         style="fill:#d0d0d0;stroke-width:0.352778"
         d="m 105.68214,132.76979 c 0,-1.31543 -0.23867,-1.68618 -2.82222,-4.38388 l -2.82222,-2.94692 v -2.16571 c 0,-2.25287 0.30806,-3.17323 1.50072,-4.48357 l 0.70701,-0.77676 -1.98373,-0.93925 c -1.684461,-0.79755 -2.043639,-1.13922 -2.380873,-2.26481 -0.547357,-1.82691 0.05891,-3.50156 1.855144,-5.12435 0.782539,-0.70698 1.368999,-1.33294 1.303239,-1.39102 -0.0658,-0.0581 -0.78895,-0.44313 -1.607077,-0.85567 -0.818131,-0.41254 -1.651569,-1.05662 -1.852084,-1.43129 -0.585062,-1.09319 -0.422813,-2.67507 0.378916,-3.6943 0.664136,-0.84431 0.701788,-1.1108 0.352778,-2.496849 -0.628468,-2.495871 -0.50401,-3.942077 0.393339,-4.570605 1.584278,-1.109674 4.860218,-0.536347 6.833108,1.195874 0.67476,0.592448 1.44726,1.077178 1.71666,1.077178 0.2694,0 0.97826,0.410986 1.57523,0.913304 1.04231,0.877053 1.0854,1.023251 1.0854,3.683348 0,1.68103 0.15695,2.86704 0.39923,3.01678 0.70447,0.43539 1.31231,-1.09428 1.9444,-4.89324 0.24091,-1.447889 1.20609,-2.367415 2.48495,-2.367415 0.43507,0 0.95775,-0.311511 1.16152,-0.692247 0.20376,-0.380736 1.08985,-1.187192 1.96909,-1.792125 1.39314,-0.958505 1.78516,-1.068361 3.04993,-0.85468 0.80506,0.136013 1.83035,0.624231 2.30252,1.096404 0.98598,0.985984 0.88314,2.197737 -0.38021,4.479583 l -0.75019,1.35499 0.99248,0.72297 c 1.3284,0.96767 1.78963,2.2404 1.26815,3.49935 -0.22365,0.53996 -0.73343,1.08546 -1.13284,1.21222 -0.39941,0.12677 -1.1364,0.67499 -1.63776,1.21827 -0.5877,0.63684 -1.59138,1.15446 -2.82507,1.45693 -1.05244,0.25804 -1.98674,0.69238 -2.07622,0.96519 -0.13616,0.41511 0.44504,0.45672 3.56342,0.25511 2.04936,-0.13249 5.92054,-0.0684 8.60261,0.14241 4.80218,0.37747 4.91336,0.40546 7.29659,1.83731 1.75817,1.0563 2.75681,1.96109 3.65107,3.30796 1.14607,1.72609 1.23463,2.06021 1.28406,4.84441 0.063,3.54698 -0.5293,4.67649 -2.88928,5.51007 -1.34568,0.47531 -1.96477,1.06921 -1.11457,1.06921 0.19403,0 0.67028,0.3175 1.05834,0.70555 0.58012,0.58012 0.70555,1.17593 0.70555,3.35139 v 2.64583 h -5.1569 -5.1569 l -1.23286,-1.08247 -1.23287,-1.08247 -0.8706,0.81789 c -0.73442,0.68996 -1.24619,0.81789 -3.27185,0.81789 -2.12803,0 -2.4858,-0.10035 -3.14422,-0.88195 l -0.74297,-0.88194 -1.05572,1.14653 -1.05572,1.14652 h -5.12025 -5.12025 z"
         id="path142" />
      <path
         style="fill:#b0b0b0;stroke-width:0.352778"
         d="m 106.24905,133.64872 c -0.11777,-0.3069 -0.21413,-1.03951 -0.21413,-1.628 0,-0.85521 -0.53402,-1.61875 -2.66021,-3.80362 -2.01358,-2.06915 -2.71003,-3.04064 -2.86518,-3.99671 -0.32314,-1.99126 0.17067,-3.70015 1.49175,-5.16243 l 1.21816,-1.34835 -1.85546,-0.60278 c -2.225475,-0.72298 -2.977077,-1.33764 -3.270771,-2.67481 -0.301363,-1.3721 0.862952,-3.8984 2.252801,-4.88805 0.60654,-0.4319 1.1028,-0.93468 1.1028,-1.11728 0,-0.18261 -0.77593,-0.80945 -1.724285,-1.39298 -1.54407,-0.95008 -2.136789,-1.79051 -2.151454,-3.05059 -0.0026,-0.22765 0.391265,-0.88462 0.875366,-1.45994 0.839515,-0.99771 0.857243,-1.11106 0.383696,-2.45324 -1.306736,-3.703682 -0.558936,-5.189319 2.552817,-5.071619 1.74387,0.06596 2.56944,0.430847 4.22127,1.865716 0.63735,0.553629 1.39862,1.006598 1.69173,1.006598 0.29311,0 0.92259,0.389659 1.39884,0.865909 0.75978,0.759783 0.86657,1.181341 0.87131,3.439586 0.006,2.80338 0.319,3.67737 1.19677,3.34053 0.70563,-0.27077 1.08492,-1.19443 1.67999,-4.09119 0.51114,-2.488134 0.99868,-3.202057 2.18672,-3.202057 0.44909,0 1.3657,-0.594534 2.14151,-1.389041 1.84283,-1.887225 2.90679,-2.291453 4.73533,-1.799079 1.82676,0.491897 2.31844,1.329704 1.82009,3.101399 -0.20444,0.726794 -0.60725,1.629597 -0.89515,2.006228 -0.77051,1.00801 -0.63879,1.92362 0.34094,2.37001 0.47542,0.21662 1.00923,0.80935 1.18627,1.31719 0.34629,0.99338 -0.0324,2.50718 -0.62715,2.50718 -0.19973,0 -0.97421,0.55207 -1.72109,1.22683 -0.9117,0.82367 -1.95659,1.35521 -3.17966,1.61751 -1.69251,0.36298 -2.83779,1.30636 -2.27238,1.87178 0.12253,0.12252 3.49038,0.23223 7.48412,0.2438 3.99374,0.0116 8.01768,0.14549 8.94209,0.29762 2.07341,0.3412 5.17658,2.40806 6.79213,4.52388 0.99675,1.30541 1.20798,1.93074 1.42138,4.20807 0.19992,2.13347 0.13365,2.92017 -0.32748,3.88717 -0.58059,1.21752 -2.26828,2.23167 -3.71379,2.23167 -0.99482,0 -1.34483,0.76397 -0.5557,1.2129 1.71568,0.97606 2.28744,1.89617 2.28744,3.68111 0,2.96123 0.1646,2.8671 -5.01406,2.8671 -4.47441,0 -4.60268,-0.0215 -5.28128,-0.88417 -1.27845,-1.62528 -1.94511,-1.7508 -3.3975,-0.63969 -1.78835,1.36813 -4.21608,1.36757 -5.64487,-0.001 -0.54209,-0.51924 -1.1477,-0.94417 -1.3458,-0.94417 -0.48414,0 -1.89427,1.52696 -1.89427,2.05121 0,0.30164 -1.31713,0.41823 -4.72476,0.41823 -3.98292,0 -4.75838,-0.0876 -4.93889,-0.55802 z"
         id="path140" />
      <path
         style="fill:#919090;stroke-width:0.352778"
         d="m 106.3877,132.57873 c 0,-1.55378 -0.12467,-1.75612 -2.73403,-4.43748 l -2.73403,-2.80948 v -2.42208 c 0,-2.25478 0.0792,-2.5038 1.14653,-3.60501 1.27551,-1.31599 1.46012,-2.02733 0.52917,-2.03902 -0.83242,-0.0104 -3.706374,-1.33458 -4.041762,-1.86219 -0.440755,-0.69336 -0.316277,-2.68061 0.234641,-3.74596 0.282925,-0.54712 1.116362,-1.49166 1.852081,-2.09899 l 1.33768,-1.10422 -0.75854,-0.61753 c -0.4172,-0.33964 -1.330013,-1.06085 -2.028476,-1.6027 -1.552614,-1.20448 -1.669106,-2.44012 -0.358968,-3.80761 0.87256,-0.91076 0.887858,-0.99553 0.362869,-2.01075 -0.301453,-0.582944 -0.649505,-1.694071 -0.773448,-2.469171 -0.186695,-1.167528 -0.09077,-1.543851 0.559202,-2.193824 0.683481,-0.683481 1.017983,-0.754774 2.596511,-0.553398 1.19431,0.152361 2.29297,0.587874 3.22307,1.277634 0.77611,0.575563 1.88736,1.258759 2.46944,1.518212 1.74954,0.779826 2.09878,1.471736 2.02359,4.009057 -0.0704,2.37508 0.31256,3.62753 1.10915,3.62753 0.92226,0 1.71462,-1.42643 2.19392,-3.94959 0.50878,-2.678303 1.06416,-3.458747 2.46131,-3.458747 0.42647,0 1.02164,-0.37804 1.32567,-0.842038 0.96686,-1.475627 2.92203,-2.443991 4.50564,-2.231584 2.00515,0.268947 2.54225,0.828427 2.32809,2.425105 -0.0974,0.726569 -0.51079,1.789537 -0.91853,2.362151 -1.00584,1.412573 -0.93369,2.013403 0.33152,2.760783 0.59007,0.34856 1.16984,1.02016 1.28837,1.49245 0.17987,0.71665 -0.0997,1.13941 -1.69022,2.55577 -1.11238,0.99059 -2.49317,1.85122 -3.31684,2.06733 -2.34558,0.61541 -2.99861,0.99646 -2.99861,1.74969 0,0.39222 0.11906,0.7266 0.26458,0.74308 0.14552,0.0165 3.83646,0.0843 8.20208,0.15067 4.36563,0.0664 8.47051,0.28483 9.12196,0.48545 1.77111,0.54542 4.74106,2.9403 5.99613,4.83511 1.00308,1.51437 1.10969,1.93609 1.10969,4.3895 0,3.30515 -0.67688,4.44745 -2.84038,4.79341 -0.75801,0.12121 -1.65933,0.43886 -2.00293,0.70588 -0.58798,0.45692 -0.57285,0.52592 0.2572,1.17262 2.08483,1.62432 2.11667,1.68561 2.11667,4.0749 v 2.29305 h -4.58611 c -2.52236,0 -4.58611,-0.1371 -4.58611,-0.30467 0,-0.56166 -1.85277,-2.16477 -2.50189,-2.16477 -0.35298,0 -1.22661,0.39688 -1.9414,0.88195 -1.83994,1.24861 -3.65113,1.18723 -5.20421,-0.17639 -0.66295,-0.58209 -1.35315,-1.05834 -1.53377,-1.05834 -0.46738,0 -2.22429,1.89614 -2.22429,2.40056 0,0.30541 -1.26438,0.42166 -4.58611,0.42166 h -4.58611 z"
         id="path138" />
      <path
         style="fill:#96714e;stroke-width:0.352778"
         d="m 106.74048,132.5934 c 0,-1.53591 -0.13545,-1.75477 -2.82223,-4.56027 l -2.82222,-2.94692 v -2.14149 c 0,-1.95192 0.10931,-2.26249 1.23472,-3.50819 0.6791,-0.75167 1.23473,-1.53977 1.23473,-1.75131 0,-0.21154 -0.67469,-0.56612 -1.49931,-0.78797 -3.034159,-0.81627 -3.439583,-1.19595 -3.439583,-3.22115 0,-1.69474 0.106943,-1.91777 1.610303,-3.35824 0.88567,-0.84862 1.56035,-1.75568 1.49931,-2.0157 -0.061,-0.26002 -0.82538,-1.01368 -1.6985,-1.67479 -1.973364,-1.49419 -2.248484,-2.74427 -0.911171,-4.14012 l 0.907371,-0.9471 -0.703655,-1.38018 c -0.786185,-1.542057 -0.925111,-3.690659 -0.280325,-4.335446 0.232834,-0.232833 1.25255,-0.423333 2.26603,-0.423333 1.56047,0 2.08893,0.187946 3.45027,1.22708 0.88416,0.674895 2.16067,1.458183 2.83669,1.740642 1.39566,0.583145 1.56294,1.035516 1.69368,4.580177 0.0703,1.90602 0.22799,2.51695 0.72846,2.82222 1.0182,0.62106 2.11441,-0.95793 2.67954,-3.85966 0.55042,-2.826124 0.85794,-3.335459 2.01386,-3.335459 0.48698,0 1.23575,-0.448615 1.79342,-1.074507 1.56778,-1.759567 3.10567,-2.546691 4.42702,-2.265845 2.57472,0.547239 2.91222,2.116986 1.04664,4.867951 l -0.91633,1.3512 1.3023,1.22865 c 1.48067,1.39693 1.63899,2.3288 0.5464,3.21614 -0.41575,0.33765 -1.28708,1.06534 -1.93628,1.61708 -0.68708,0.58394 -1.76362,1.0814 -2.57601,1.19037 -1.57081,0.21069 -2.94177,1.27862 -2.77302,2.16007 0.0993,0.5185 1.07764,0.61001 8.57455,0.80205 4.65438,0.11923 8.72438,0.23829 9.04444,0.26459 0.80629,0.0662 3.77643,2.38199 5.43071,4.2342 1.24175,1.39031 1.39822,1.7836 1.60435,4.03251 0.31296,3.41427 -0.09,4.70112 -1.68013,5.36552 -0.69329,0.28968 -1.70803,0.52669 -2.25497,0.52669 -0.54693,0 -1.09342,0.16017 -1.2144,0.35593 -0.40059,0.64817 0.2118,1.75569 1.0931,1.97688 1.19526,0.29999 1.55468,1.14179 1.55468,3.64122 v 2.13985 l -4.14514,-0.0136 -4.14514,-0.0136 -0.70779,-1.12523 c -0.8572,-1.36274 -2.40605,-2.0176 -3.27957,-1.3866 -3.04956,2.2029 -4.1828,2.27872 -6.29816,0.4214 -1.13686,-0.99817 -1.31798,-1.05254 -2.0084,-0.60289 -0.41737,0.27181 -1.07636,0.98901 -1.46441,1.59376 l -0.70556,1.09955 -4.14514,0.0136 -4.14513,0.0136 z"
         id="path136" />
      <path
         style="fill:#6f6e6e;stroke-width:0.352778"
         d="m 106.74048,132.5934 c 0,-1.53591 -0.13545,-1.75477 -2.82223,-4.56027 l -2.82222,-2.94692 v -2.14149 c 0,-1.95192 0.10931,-2.26249 1.23472,-3.50819 0.6791,-0.75167 1.23473,-1.53977 1.23473,-1.75131 0,-0.21154 -0.67469,-0.56612 -1.49931,-0.78797 -3.034159,-0.81627 -3.439583,-1.19595 -3.439583,-3.22115 0,-1.69474 0.106943,-1.91777 1.610303,-3.35824 0.88567,-0.84862 1.56035,-1.75568 1.49931,-2.0157 -0.061,-0.26002 -0.82538,-1.01368 -1.6985,-1.67479 -1.973364,-1.49419 -2.248484,-2.74427 -0.911171,-4.14012 l 0.907371,-0.9471 -0.703655,-1.38018 c -0.786185,-1.542057 -0.925111,-3.690659 -0.280325,-4.335446 0.232834,-0.232833 1.25255,-0.423333 2.26603,-0.423333 1.56047,0 2.08893,0.187946 3.45027,1.22708 0.88416,0.674895 2.16067,1.458183 2.83669,1.740642 1.39566,0.583145 1.56294,1.035516 1.69368,4.580177 0.0703,1.90602 0.22799,2.51695 0.72846,2.82222 1.0182,0.62106 2.11441,-0.95793 2.67954,-3.85966 0.55042,-2.826124 0.85794,-3.335459 2.01386,-3.335459 0.48698,0 1.23575,-0.448615 1.79342,-1.074507 1.56778,-1.759567 3.10567,-2.546691 4.42702,-2.265845 2.57472,0.547239 2.91222,2.116986 1.04664,4.867951 l -0.91633,1.3512 1.3023,1.22865 c 1.48067,1.39693 1.63899,2.3288 0.5464,3.21614 -0.41575,0.33765 -1.28708,1.06534 -1.93628,1.61708 -0.68708,0.58394 -1.76362,1.0814 -2.57601,1.19037 -1.57081,0.21069 -2.94177,1.27862 -2.77302,2.16007 0.0993,0.5185 1.07764,0.61001 8.57455,0.80205 4.65438,0.11923 8.72438,0.23829 9.04444,0.26459 0.80629,0.0662 3.77643,2.38199 5.43071,4.2342 1.24175,1.39031 1.39822,1.7836 1.60435,4.03251 0.31296,3.41427 -0.09,4.70112 -1.68013,5.36552 -0.69329,0.28968 -1.70803,0.52669 -2.25497,0.52669 -0.54693,0 -1.09342,0.16017 -1.2144,0.35593 -0.40059,0.64817 0.2118,1.75569 1.0931,1.97688 1.19526,0.29999 1.55468,1.14179 1.55468,3.64122 v 2.13985 l -4.14514,-0.0136 -4.14514,-0.0136 -0.70779,-1.12523 c -0.8572,-1.36274 -2.40605,-2.0176 -3.27957,-1.3866 -3.04956,2.2029 -4.1828,2.27872 -6.29816,0.4214 -1.13686,-0.99817 -1.31798,-1.05254 -2.0084,-0.60289 -0.41737,0.27181 -1.07636,0.98901 -1.46441,1.59376 l -0.70556,1.09955 -4.14514,0.0136 -4.14513,0.0136 z m 29.98611,-12.18184 c 0,-1.02277 -0.23617,-1.6425 -0.86591,-2.27224 -1.4693,-1.46929 -2.11778,-0.92728 -1.07437,0.89798 0.27729,0.48507 0.50979,1.20738 0.51666,1.60514 0.0143,0.824 0.68477,1.63208 1.12731,1.35857 0.16297,-0.10072 0.29631,-0.81597 0.29631,-1.58945 z"
         id="path134" />
      <path
         style="fill:#885a27;stroke-width:0.352778"
         d="m 107.09325,132.55102 c 0,-1.55465 -0.12383,-1.77464 -2.02847,-3.60355 -3.23417,-3.10556 -3.61597,-3.74935 -3.61597,-6.09714 0,-1.8559 0.11894,-2.17876 1.27345,-3.45667 0.70433,-0.7796 1.18829,-1.63148 1.0829,-1.90613 -0.10481,-0.27312 -0.81023,-0.60127 -1.5676,-0.72923 -0.75737,-0.12796 -1.87967,-0.53832 -2.494006,-0.91192 -0.887992,-0.54002 -1.116697,-0.91536 -1.115648,-1.83098 0.0016,-1.40788 1.003148,-3.123 2.447034,-4.19051 1.33713,-0.98858 1.37152,-1.81004 0.10929,-2.61074 -1.606275,-1.01894 -2.910421,-2.38188 -2.910421,-3.04164 0,-0.34192 0.508801,-1.09718 1.130669,-1.67837 1.043712,-0.97544 1.088252,-1.10568 0.579121,-1.69358 -0.623061,-0.71945 -1.357012,-2.709801 -1.357012,-3.67999 0,-0.354629 0.386281,-0.897881 0.858401,-1.207226 1.333802,-0.873943 3.858372,-0.358206 5.498102,1.123192 0.72255,0.652783 1.53698,1.186877 1.80984,1.186877 0.27286,0 0.84893,0.247127 1.28016,0.549171 0.681,0.476986 0.78405,0.86811 0.78405,2.975646 0,3.10747 0.41302,4.23629 1.55,4.23629 1.12031,0 2.1649,-1.69998 2.49287,-4.05694 0.29993,-2.155439 1.01867,-3.351389 2.0141,-3.351389 0.41196,0 1.51275,-0.714375 2.4462,-1.5875 1.7915,-1.675746 2.84825,-1.948642 4.74834,-1.226227 0.85811,0.32625 0.93248,0.493542 0.76722,1.725658 -0.10065,0.750411 -0.59958,1.9769 -1.10872,2.725528 l -0.92573,1.36115 1.4162,1.30876 c 0.7789,0.71982 1.41619,1.44354 1.41619,1.60827 0,0.96008 -3.90953,3.96214 -5.15982,3.96214 -2.07463,0 -3.89398,1.86608 -2.94002,3.01554 0.34885,0.42033 1.86523,0.51224 8.45172,0.51224 4.41462,0 8.55513,0.1057 9.20113,0.2349 0.80723,0.16145 2.05773,1.08555 3.99885,2.95509 l 2.82432,2.72018 0.14171,2.50788 c 0.0779,1.37933 0.0422,2.90415 -0.0793,3.38849 -0.25776,1.02701 -1.84175,1.95179 -3.34308,1.95179 -0.96938,0 -2.15938,0.75437 -2.15938,1.36888 0,0.43263 0.82499,1.29105 1.85208,1.92713 0.89664,0.55529 0.97014,0.77393 0.97014,2.88573 v 2.28492 h -3.88055 c -2.13687,0 -3.88056,-0.14635 -3.88056,-0.3257 0,-0.6556 -1.7873,-2.42591 -2.67383,-2.64841 -0.67933,-0.1705 -1.32509,0.0447 -2.53097,0.84344 -2.05877,1.36368 -3.2543,1.36717 -4.79547,0.014 -0.66295,-0.58208 -1.52516,-1.05833 -1.91601,-1.05833 -0.69341,10e-6 -2.90039,2.15684 -2.90039,2.8345 0,0.19818 -1.62196,0.3405 -3.88055,0.3405 h -3.88056 z m 29.63334,-12.13946 c 0,-1.02277 -0.23617,-1.6425 -0.86591,-2.27224 -1.4693,-1.46929 -2.11778,-0.92728 -1.07437,0.89798 0.27729,0.48507 0.50979,1.20738 0.51666,1.60514 0.0143,0.824 0.68477,1.63208 1.12731,1.35857 0.16297,-0.10072 0.29631,-0.81597 0.29631,-1.58945 z"
         id="path132" />
      <path
         style="fill:#4e4c4c;stroke-width:0.352778"
         d="m 107.09325,132.55102 c 0,-1.55465 -0.12383,-1.77464 -2.02847,-3.60355 -3.23417,-3.10556 -3.61597,-3.74935 -3.61597,-6.09714 0,-1.8559 0.11894,-2.17876 1.27345,-3.45667 0.70433,-0.7796 1.18829,-1.63148 1.0829,-1.90613 -0.10481,-0.27312 -0.81023,-0.60127 -1.5676,-0.72923 -0.75737,-0.12796 -1.87967,-0.53832 -2.494006,-0.91192 -0.887992,-0.54002 -1.116697,-0.91536 -1.115648,-1.83098 0.0016,-1.40788 1.003148,-3.123 2.447034,-4.19051 1.33713,-0.98858 1.37152,-1.81004 0.10929,-2.61074 -1.606275,-1.01894 -2.910421,-2.38188 -2.910421,-3.04164 0,-0.34192 0.508801,-1.09718 1.130669,-1.67837 1.043712,-0.97544 1.088252,-1.10568 0.579121,-1.69358 -0.623061,-0.71945 -1.357012,-2.709801 -1.357012,-3.67999 0,-0.354629 0.386281,-0.897881 0.858401,-1.207226 1.333802,-0.873943 3.858372,-0.358206 5.498102,1.123192 0.72255,0.652783 1.53698,1.186877 1.80984,1.186877 0.27286,0 0.84893,0.247127 1.28016,0.549171 0.681,0.476986 0.78405,0.86811 0.78405,2.975646 0,3.10747 0.41302,4.23629 1.55,4.23629 1.12031,0 2.1649,-1.69998 2.49287,-4.05694 0.29993,-2.155439 1.01867,-3.351389 2.0141,-3.351389 0.41196,0 1.51275,-0.714375 2.4462,-1.5875 1.7915,-1.675746 2.84825,-1.948642 4.74834,-1.226227 0.85811,0.32625 0.93248,0.493542 0.76722,1.725658 -0.10065,0.750411 -0.59958,1.9769 -1.10872,2.725528 l -0.92573,1.36115 1.4162,1.30876 c 0.7789,0.71982 1.41619,1.44354 1.41619,1.60827 0,0.96008 -3.90953,3.96214 -5.15982,3.96214 -2.07463,0 -3.89398,1.86608 -2.94002,3.01554 0.34885,0.42033 1.86523,0.51224 8.45172,0.51224 4.41462,0 8.55513,0.1057 9.20113,0.2349 0.80723,0.16145 2.05773,1.08555 3.99885,2.95509 l 2.82432,2.72018 0.14171,2.50788 c 0.0779,1.37933 0.0422,2.90415 -0.0793,3.38849 -0.25776,1.02701 -1.84175,1.95179 -3.34308,1.95179 -0.96938,0 -2.15938,0.75437 -2.15938,1.36888 0,0.43263 0.82499,1.29105 1.85208,1.92713 0.89664,0.55529 0.97014,0.77393 0.97014,2.88573 v 2.28492 h -3.88055 c -2.13687,0 -3.88056,-0.14635 -3.88056,-0.3257 0,-0.6556 -1.7873,-2.42591 -2.67383,-2.64841 -0.67933,-0.1705 -1.32509,0.0447 -2.53097,0.84344 -2.05877,1.36368 -3.2543,1.36717 -4.79547,0.014 -0.66295,-0.58208 -1.52516,-1.05833 -1.91601,-1.05833 -0.69341,10e-6 -2.90039,2.15684 -2.90039,2.8345 0,0.19818 -1.62196,0.3405 -3.88055,0.3405 h -3.88056 z m 7.68412,-10.07414 c 0.19919,-0.24253 0.41707,-0.82846 0.48416,-1.30206 0.0889,-0.62764 0.42676,-0.93964 1.24611,-1.15081 1.25125,-0.32247 1.82387,-1.4323 1.1549,-2.23836 -0.90349,-1.08864 -2.27124,-0.43063 -2.50979,1.20742 -0.0871,0.59806 -0.474,0.95129 -1.35242,1.23472 -1.41135,0.45539 -1.82158,1.52059 -0.85718,2.22578 0.79621,0.5822 1.36922,0.58948 1.83422,0.0233 z m 14.32666,-0.35277 c 0.56672,-0.90406 -0.14718,-1.82842 -1.51692,-1.96411 -1.07075,-0.10608 -1.12509,-0.18105 -1.02276,-1.41112 l 0.10807,-1.29908 2.35085,-0.10362 c 1.55445,-0.0685 2.49951,-0.28273 2.78964,-0.63231 0.73964,-0.89122 -0.10761,-1.24612 -2.70602,-1.13348 -2.118,0.0918 -2.47884,0.20662 -2.77581,0.88325 -0.19059,0.43425 -0.72017,0.82375 -1.19914,0.88194 -1.93687,0.23532 -1.85627,2.4549 0.0976,2.6873 0.52547,0.0625 1.03831,0.38 1.13965,0.70556 0.57011,1.83149 0.86556,2.22368 1.59354,2.11531 0.41487,-0.0618 0.92846,-0.39009 1.14131,-0.72964 z m 7.90367,-1.3457 c 0.1189,-1.8211 -0.67563,-3.14361 -2.43527,-4.05355 -1.48142,-0.76607 -1.66866,0.0266 -0.51721,2.18963 0.49911,0.93758 0.90748,1.95202 0.90748,2.25431 0,0.74188 0.74514,1.44001 1.40377,1.31521 0.36691,-0.0695 0.56961,-0.60867 0.64123,-1.7056 z m -31.2298,-7.38167 c 0.34371,-0.002 0.79234,-0.37133 0.99696,-0.82042 0.20463,-0.4491 0.87558,-0.96504 1.49101,-1.14653 1.20911,-0.35657 1.61718,-1.2828 0.92999,-2.11082 -0.74374,-0.89615 -1.72151,-0.59555 -2.35004,0.7225 -0.47053,0.98671 -0.79178,1.23472 -1.59931,1.23472 -1.24972,0 -3.09215,0.91626 -3.09215,1.53776 0,0.78612 0.4811,1.00164 1.76389,0.79019 0.6791,-0.11193 1.51594,-0.20527 1.85965,-0.2074 z m 9.22894,-6.53027 c 0.51797,-0.6791 1.15422,-1.23472 1.4139,-1.23472 0.25967,0 0.81911,-0.28097 1.2432,-0.62438 l 0.77107,-0.62437 -0.73199,-0.93058 c -0.40259,-0.51181 -0.73199,-1.07814 -0.73199,-1.25851 0,-0.18037 0.72625,-1.00864 1.6139,-1.8406 1.17546,-1.101733 1.50828,-1.618269 1.22515,-1.901404 -0.28313,-0.283134 -0.7654,0.04033 -1.77524,1.190689 -0.76258,0.868685 -1.39327,1.785755 -1.40155,2.037925 -0.0289,0.88079 -1.16117,2.72799 -2.564,4.1829 -1.33591,1.38552 -1.51518,2.23777 -0.4707,2.23777 0.25656,0 0.89027,-0.55562 1.40825,-1.23472 z m -9.18605,-3.55663 c 0.45732,-1.19177 0.19857,-2.19326 -0.72262,-2.79684 -0.51521,-0.33758 -1.29792,-1.030526 -1.73935,-1.539879 -0.66749,-0.770199 -0.88096,-0.84698 -1.26811,-0.45611 -0.38622,0.389935 -0.27023,0.634662 0.68102,1.436802 0.63059,0.531747 1.14652,1.054927 1.14652,1.162627 0,0.10769 0.24026,0.77082 0.5339,1.47361 0.57384,1.3734 1.02648,1.61144 1.36864,0.71979 z"
         id="path130" />
      <path
         style="fill:#744c24;stroke-width:0.352778"
         d="m 107.44603,132.56073 c 0,-1.59338 -0.0902,-1.73386 -2.82222,-4.3934 l -2.82222,-2.74739 v -2.42427 c 0,-2.15362 0.10208,-2.51975 0.91433,-3.27952 1.95775,-1.83121 1.80297,-2.65731 -0.59842,-3.194 -2.466593,-0.55125 -3.138135,-1.15167 -3.138135,-2.80577 0,-1.22579 0.246575,-1.68481 1.770785,-3.29643 1.19974,-1.26856 1.6995,-2.05809 1.54975,-2.44833 -0.12156,-0.31679 -0.33421,-0.57599 -0.47256,-0.57599 -0.13834,0 -0.91511,-0.56799 -1.72614,-1.26221 -1.778979,-1.52273 -1.897642,-2.52567 -0.427435,-3.61264 l 1.047175,-0.77422 -0.870786,-1.63773 c -1.65629,-3.115049 -1.001138,-4.558846 1.940416,-4.2762 1.34405,0.129147 2.11323,0.466356 3.32074,1.45582 0.86434,0.708257 1.81361,1.287741 2.10951,1.287741 1.05705,0 1.63632,1.455069 1.63632,4.110239 0,2.55002 0.46638,3.65087 1.5467,3.65087 0.97631,0 2.26822,-1.95833 2.67636,-4.05694 0.63485,-3.264403 0.67835,-3.351391 1.67566,-3.351391 0.61201,0 1.53193,-0.586042 2.79493,-1.780535 1.75769,-1.662354 1.97069,-1.765113 3.20908,-1.548201 0.72954,0.127783 1.51067,0.463682 1.73583,0.746442 0.53419,0.670823 0.065,2.327569 -1.1272,3.979885 l -0.90061,1.24824 1.42657,1.28266 c 0.78461,0.70546 1.42657,1.51959 1.42657,1.80918 0,0.72165 -3.58752,3.43455 -4.54183,3.43455 -1.22781,0 -3.12631,0.931 -3.56321,1.74735 -0.53012,0.99055 -0.173,2.00676 0.79659,2.26669 0.43013,0.11531 4.52856,0.21183 9.1076,0.21448 l 8.32554,0.005 1.37585,1.00609 c 0.75672,0.55335 2.20929,1.89322 3.22793,2.9775 l 1.85209,1.9714 v 3.0116 c 0,2.82769 -0.0542,3.04708 -0.88704,3.5928 -0.48787,0.31966 -1.60493,0.66212 -2.48237,0.76102 -2.57292,0.29001 -2.97861,2.45653 -0.64274,3.43252 1.17969,0.49291 1.18992,0.51706 1.18992,2.80824 v 2.31105 h -3.70416 c -3.34156,0 -3.70417,-0.0626 -3.70417,-0.63955 0,-0.97838 -1.94728,-2.65365 -3.07928,-2.64915 -0.53772,0.002 -1.59513,0.42548 -2.34981,0.94075 -1.78234,1.21691 -2.98052,1.18544 -4.62508,-0.12149 -0.73245,-0.58208 -1.59626,-1.05833 -1.91958,-1.05833 -0.64811,0 -2.61599,1.93674 -2.9572,2.91041 -0.18663,0.53256 -0.70247,0.61736 -3.7552,0.61736 h -3.53885 z m 7.33134,-10.08385 c 0.19919,-0.24253 0.41707,-0.82846 0.48416,-1.30206 0.0889,-0.62764 0.42676,-0.93964 1.24611,-1.15081 1.25125,-0.32247 1.82387,-1.4323 1.1549,-2.23836 -0.90349,-1.08864 -2.27124,-0.43063 -2.50979,1.20742 -0.0871,0.59806 -0.474,0.95129 -1.35242,1.23472 -1.41135,0.45539 -1.82158,1.52059 -0.85718,2.22578 0.79621,0.5822 1.36922,0.58948 1.83422,0.0233 z m 14.32666,-0.35277 c 0.56672,-0.90406 -0.14718,-1.82842 -1.51692,-1.96411 -1.07075,-0.10608 -1.12509,-0.18105 -1.02276,-1.41112 l 0.10807,-1.29908 2.35085,-0.10362 c 1.55445,-0.0685 2.49951,-0.28273 2.78964,-0.63231 0.73964,-0.89122 -0.10761,-1.24612 -2.70602,-1.13348 -2.118,0.0918 -2.47884,0.20662 -2.77581,0.88325 -0.19059,0.43425 -0.72017,0.82375 -1.19914,0.88194 -1.93687,0.23532 -1.85627,2.4549 0.0976,2.6873 0.52547,0.0625 1.03831,0.38 1.13965,0.70556 0.57011,1.83149 0.86556,2.22368 1.59354,2.11531 0.41487,-0.0618 0.92846,-0.39009 1.14131,-0.72964 z m 7.90367,-1.3457 c 0.1189,-1.8211 -0.67563,-3.14361 -2.43527,-4.05355 -1.48142,-0.76607 -1.66866,0.0266 -0.51721,2.18963 0.49911,0.93758 0.90748,1.95202 0.90748,2.25431 0,0.74188 0.74514,1.44001 1.40377,1.31521 0.36691,-0.0695 0.56961,-0.60867 0.64123,-1.7056 z m -31.2298,-7.38167 c 0.34371,-0.002 0.79234,-0.37133 0.99696,-0.82042 0.20463,-0.4491 0.87558,-0.96504 1.49101,-1.14653 1.20911,-0.35657 1.61718,-1.2828 0.92999,-2.11082 -0.74374,-0.89615 -1.72151,-0.59555 -2.35004,0.7225 -0.47053,0.98671 -0.79178,1.23472 -1.59931,1.23472 -1.24972,0 -3.09215,0.91626 -3.09215,1.53776 0,0.78612 0.4811,1.00164 1.76389,0.79019 0.6791,-0.11193 1.51594,-0.20527 1.85965,-0.2074 z m 9.22894,-6.53027 c 0.51797,-0.6791 1.15422,-1.23472 1.4139,-1.23472 0.25967,0 0.81911,-0.28097 1.2432,-0.62438 l 0.77107,-0.62437 -0.73199,-0.93058 c -0.40259,-0.51181 -0.73199,-1.07814 -0.73199,-1.25851 0,-0.18037 0.72625,-1.00864 1.6139,-1.8406 1.17546,-1.101733 1.50828,-1.618269 1.22515,-1.901404 -0.28313,-0.283134 -0.7654,0.04033 -1.77524,1.190689 -0.76258,0.868685 -1.39327,1.785755 -1.40155,2.037925 -0.0289,0.88079 -1.16117,2.72799 -2.564,4.1829 -1.33591,1.38552 -1.51518,2.23777 -0.4707,2.23777 0.25656,0 0.89027,-0.55562 1.40825,-1.23472 z m -9.18605,-3.55663 c 0.45732,-1.19177 0.19857,-2.19326 -0.72262,-2.79684 -0.51521,-0.33758 -1.29792,-1.030526 -1.73935,-1.539879 -0.66749,-0.770199 -0.88096,-0.84698 -1.26811,-0.45611 -0.38622,0.389935 -0.27023,0.634662 0.68102,1.436802 0.63059,0.531747 1.14652,1.054927 1.14652,1.162627 0,0.10769 0.24026,0.77082 0.5339,1.47361 0.57384,1.3734 1.02648,1.61144 1.36864,0.71979 z"
         id="path128" />
      <path
         style="fill:#6c451b;stroke-width:0.352778"
         d="m 107.44603,132.56073 c 0,-1.59338 -0.0902,-1.73386 -2.82222,-4.3934 l -2.82222,-2.74739 v -2.42427 c 0,-2.15362 0.10208,-2.51975 0.91433,-3.27952 1.95775,-1.83121 1.80297,-2.65731 -0.59842,-3.194 -2.466593,-0.55125 -3.138135,-1.15167 -3.138135,-2.80577 0,-1.22579 0.246575,-1.68481 1.770785,-3.29643 1.19974,-1.26856 1.6995,-2.05809 1.54975,-2.44833 -0.12156,-0.31679 -0.33421,-0.57599 -0.47256,-0.57599 -0.13834,0 -0.91511,-0.56799 -1.72614,-1.26221 -1.778979,-1.52273 -1.897642,-2.52567 -0.427435,-3.61264 l 1.047175,-0.77422 -0.870786,-1.63773 c -1.65629,-3.115049 -1.001138,-4.558846 1.940416,-4.2762 1.34405,0.129147 2.11323,0.466356 3.32074,1.45582 0.86434,0.708257 1.81361,1.287741 2.10951,1.287741 1.05705,0 1.63632,1.455069 1.63632,4.110239 0,2.55002 0.46638,3.65087 1.5467,3.65087 0.97631,0 2.26822,-1.95833 2.67636,-4.05694 0.63485,-3.264403 0.67835,-3.351391 1.67566,-3.351391 0.61201,0 1.53193,-0.586042 2.79493,-1.780535 1.75769,-1.662354 1.97069,-1.765113 3.20908,-1.548201 0.72954,0.127783 1.51067,0.463682 1.73583,0.746442 0.53419,0.670823 0.065,2.327569 -1.1272,3.979885 l -0.90061,1.24824 1.42657,1.28266 c 0.78461,0.70546 1.42657,1.51959 1.42657,1.80918 0,0.72165 -3.58752,3.43455 -4.54183,3.43455 -1.22781,0 -3.12631,0.931 -3.56321,1.74735 -0.53012,0.99055 -0.173,2.00676 0.79659,2.26669 0.43013,0.11531 4.52856,0.21183 9.1076,0.21448 l 8.32554,0.005 1.37585,1.00609 c 0.75672,0.55335 2.20929,1.89322 3.22793,2.9775 l 1.85209,1.9714 v 3.0116 c 0,2.82769 -0.0542,3.04708 -0.88704,3.5928 -0.48787,0.31966 -1.60493,0.66212 -2.48237,0.76102 -2.57292,0.29001 -2.97861,2.45653 -0.64274,3.43252 1.17969,0.49291 1.18992,0.51706 1.18992,2.80824 v 2.31105 h -1.41111 c -0.77611,0 -1.41111,-0.15874 -1.41111,-0.35277 0,-0.19403 -0.23812,-0.35278 -0.52916,-0.35278 -0.29105,0 -0.52917,0.15875 -0.52917,0.35278 0,0.19403 -0.79375,0.35277 -1.76389,0.35277 -1.46803,0 -1.76389,-0.10727 -1.76389,-0.63955 0,-0.97838 -1.94728,-2.65365 -3.07928,-2.64915 -0.53772,0.002 -1.59513,0.42548 -2.34981,0.94075 -1.78234,1.21691 -2.98052,1.18544 -4.62508,-0.12149 -0.73245,-0.58208 -1.59626,-1.05833 -1.91958,-1.05833 -0.64811,0 -2.61599,1.93674 -2.9572,2.91041 -0.25937,0.74012 -2.90495,0.88779 -3.16004,0.17639 -0.219,-0.61076 0.36188,-1.71782 1.342,-2.55764 0.45289,-0.38805 0.92119,-1.1818 1.04067,-1.76388 l 0.21724,-1.05834 -0.63293,0.87878 c -0.34811,0.48333 -1.15795,1.46512 -1.79965,2.18177 -0.64169,0.71664 -1.19141,1.63088 -1.2216,2.03163 -0.0463,0.61451 -0.29181,0.72865 -1.56731,0.72865 h -1.51243 z m 23.87942,-14.30293 c 0.31438,-0.34739 0.7794,-0.63161 1.03337,-0.63161 0.62119,0 2.2511,2.44629 2.2511,3.37861 0,1.10459 1.29237,2.16239 2.04912,1.67721 0.44135,-0.28297 0.592,-0.86786 0.57861,-2.24643 -0.0168,-1.73408 -0.12058,-1.95479 -1.49011,-3.17014 -1.94269,-1.72399 -3.83298,-2.22533 -7.34235,-1.94732 -1.53511,0.12161 -5.04557,0.30187 -7.80103,0.40058 -4.19366,0.15023 -5.19175,0.0854 -6.12595,-0.39765 -0.80237,-0.41492 -1.22361,-0.46954 -1.49882,-0.19432 -0.21054,0.21053 -0.74793,0.38279 -1.19419,0.38279 -0.44627,0 -0.81139,0.15875 -0.81139,0.35278 0,0.19403 0.38787,0.35278 0.86194,0.35278 0.86273,0 1.96028,1.13823 1.96028,2.03293 0,0.25565 -0.67411,1.08728 -1.49803,1.84806 l -1.49803,1.38323 1.49803,1.52638 c 0.93403,0.95171 1.49803,1.84975 1.49803,2.38528 v 0.85889 l 0.54917,-0.78405 c 0.3127,-0.44644 0.92032,-0.78405 1.41111,-0.78405 0.90188,0 0.97255,-0.16368 0.87152,-2.01847 -0.0504,-0.92522 0.2217,-1.40092 1.46356,-2.55864 1.29491,-1.20717 1.68543,-1.38907 2.58381,-1.20351 0.58208,0.12022 1.13233,0.28728 1.22278,0.37122 0.0904,0.084 0.13409,1.17666 0.097,2.42824 -0.0382,1.28912 0.0817,2.2756 0.27653,2.2756 0.18918,0 0.34397,-0.23813 0.34397,-0.52917 0,-0.65615 1.24565,-1.94027 1.88215,-1.94027 0.25907,0 1.19565,0.71437 2.08129,1.5875 0.88563,0.87312 1.92441,1.5875 2.30838,1.5875 0.45322,0 0.86785,0.40221 1.1819,1.14652 0.45382,1.07553 0.48999,0.8962 0.58421,-2.89617 0.0777,-3.1284 0.22972,-4.18554 0.67204,-4.6743 z m -22.03911,-6.16754 c 1.02512,-0.91045 1.86386,-1.8076 1.86386,-1.99367 0,-0.33121 -3.20875,-2.70188 -3.65449,-2.7 -0.12434,5.2e-4 -0.54357,0.59128 -0.93162,1.3128 -0.47216,0.87789 -1.34741,1.66893 -2.64584,2.39128 -1.30824,0.72781 -1.977,1.33442 -2.053,1.8622 -0.10844,0.75292 -0.005,0.78276 2.72225,0.78276 h 2.83498 z m 5.2015,-4.40837 c 0.39562,-0.42464 0.7193,-0.90967 0.7193,-1.07785 0,-0.16817 0.88602,-0.71141 1.96894,-1.20718 l 1.96893,-0.90141 -0.94488,-0.98624 c -1.16165,-1.2125 -0.97225,-2.08542 0.73503,-3.38763 0.66598,-0.507965 1.21087,-1.142858 1.21087,-1.410871 0,-1.739334 -3.60119,1.750921 -4.2346,4.104151 -0.28266,1.05014 -0.88786,2.00879 -1.7998,2.85089 -1.38034,1.27464 -1.84638,2.78822 -0.85851,2.78822 0.28349,0 0.83911,-0.34744 1.23472,-0.77208 z m -8.29477,-6.31813 c -0.0944,-0.31011 -0.55714,-0.73944 -1.02822,-0.95408 -0.47107,-0.21464 -1.12128,-0.794353 -1.4449,-1.288258 -0.64878,-0.990161 -1.91836,-1.218585 -1.91836,-0.345153 0,0.304072 0.55562,1.076879 1.23472,1.717351 1.06205,1.00164 1.23472,1.39056 1.23472,2.781 0,1.17105 0.17013,1.71293 0.61736,1.96641 0.53656,0.30411 0.67358,0.11017 1.04688,-1.48177 0.23623,-1.00743 0.35224,-2.0854 0.2578,-2.3955 z"
         id="path126" />
      <path
         style="fill:#633b15;stroke-width:0.352778"
         d="m 107.44603,132.56073 c 0,-1.59338 -0.0902,-1.73386 -2.82222,-4.3934 l -2.82222,-2.74739 v -2.42427 c 0,-2.15362 0.10208,-2.51975 0.91433,-3.27952 1.95775,-1.83121 1.80297,-2.65731 -0.59842,-3.194 -2.466593,-0.55125 -3.138135,-1.15167 -3.138135,-2.80577 0,-1.22579 0.246575,-1.68481 1.770785,-3.29643 1.19974,-1.26856 1.6995,-2.05809 1.54975,-2.44833 -0.12156,-0.31679 -0.33421,-0.57599 -0.47256,-0.57599 -0.13834,0 -0.91511,-0.56799 -1.72614,-1.26221 -1.778979,-1.52273 -1.897642,-2.52567 -0.427435,-3.61264 l 1.047175,-0.77422 -0.870786,-1.63773 c -1.65629,-3.115049 -1.001138,-4.558846 1.940416,-4.2762 1.34405,0.129147 2.11323,0.466356 3.32074,1.45582 0.86434,0.708257 1.81361,1.287741 2.10951,1.287741 1.05705,0 1.63632,1.455069 1.63632,4.110239 0,2.55002 0.46638,3.65087 1.5467,3.65087 0.97631,0 2.26822,-1.95833 2.67636,-4.05694 0.63485,-3.264403 0.67835,-3.351391 1.67566,-3.351391 0.61201,0 1.53193,-0.586042 2.79493,-1.780535 1.75769,-1.662354 1.97069,-1.765113 3.20908,-1.548201 0.72954,0.127783 1.51067,0.463682 1.73583,0.746442 0.53419,0.670823 0.065,2.327569 -1.1272,3.979885 l -0.90061,1.24824 1.42657,1.28266 c 0.78461,0.70546 1.42657,1.51959 1.42657,1.80918 0,0.72165 -3.58752,3.43455 -4.54183,3.43455 -1.22781,0 -3.12631,0.931 -3.56321,1.74735 -0.53012,0.99055 -0.173,2.00676 0.79659,2.26669 0.43013,0.11531 4.52856,0.21183 9.1076,0.21448 l 8.32554,0.005 1.37585,1.00609 c 0.75672,0.55335 2.20929,1.89322 3.22793,2.9775 l 1.85209,1.9714 v 3.0116 c 0,2.82769 -0.0542,3.04708 -0.88704,3.5928 -0.48787,0.31966 -1.60493,0.66212 -2.48237,0.76102 -2.57292,0.29001 -2.97861,2.45653 -0.64274,3.43252 1.17969,0.49291 1.18992,0.51706 1.18992,2.80824 v 2.31105 h -1.41111 c -1.39457,0 -1.41116,-0.0155 -1.41592,-1.32291 -0.007,-1.96892 -0.35047,-2.91042 -1.06121,-2.91042 -0.55731,0 -0.60856,0.24706 -0.43903,2.11667 l 0.19194,2.11666 h -1.6365 c -1.34502,0 -1.6365,-0.11391 -1.6365,-0.63955 0,-0.97838 -1.94728,-2.65365 -3.07928,-2.64915 -0.53772,0.002 -1.59513,0.42548 -2.34981,0.94075 -1.78234,1.21691 -2.98052,1.18544 -4.62508,-0.12149 -0.73245,-0.58208 -1.59626,-1.05833 -1.91958,-1.05833 -0.64811,0 -2.61599,1.93674 -2.9572,2.91041 -0.15773,0.4501 -0.60168,0.61736 -1.63853,0.61736 -1.83685,0 -1.83909,-0.53372 -0.0111,-2.64583 0.77611,-0.89672 1.41111,-1.88015 1.41111,-2.18539 0,-1.57051 0.87488,-3.31287 1.99543,-3.97401 1.08919,-0.64264 1.17958,-0.83205 1.17958,-2.47175 0,-1.30542 0.18688,-1.96268 0.70555,-2.48135 1.49441,-1.49441 2.82222,-0.361 2.82222,2.40903 0,1.7825 0.0237,1.82431 1.03456,1.82431 0.72492,0 1.10163,-0.21129 1.25862,-0.70593 0.12323,-0.38827 0.54578,-0.87812 0.939,-1.08856 0.58149,-0.31121 0.87336,-0.23381 1.56361,0.41464 0.46676,0.4385 0.84866,1.01599 0.84866,1.2833 0,0.26731 0.48135,0.65382 1.06967,0.85892 0.70396,0.2454 1.24055,0.78187 1.5695,1.56914 0.2749,0.65795 0.73886,1.19626 1.03101,1.19626 0.62522,0 0.79762,-0.91223 1.10008,-5.82083 0.11956,-1.94028 0.36141,-3.67484 0.53744,-3.85458 0.49524,-0.50566 1.70086,0.79366 2.16077,2.3287 0.48877,1.63137 1.03931,2.14788 2.12531,1.99393 0.68709,-0.0974 0.83035,-0.35525 0.92402,-1.6632 0.14341,-2.00265 -0.42286,-3.31797 -1.92016,-4.46001 -2.03857,-1.5549 -4.04447,-2.04658 -7.30524,-1.79064 -1.58395,0.12433 -5.1024,0.21458 -7.81879,0.20057 -4.63157,-0.0239 -5.01464,-0.0786 -6.15621,-0.87865 -1.05504,-0.73942 -1.29028,-0.78714 -1.76454,-0.35795 -0.30096,0.27237 -0.98348,0.66109 -1.5167,0.86382 -1.39251,0.52943 -1.28294,1.65674 0.22216,2.28561 0.65541,0.27385 1.30066,0.67428 1.43388,0.88984 0.40795,0.66008 -0.10139,1.61229 -1.21397,2.26951 -1.37692,0.81336 -1.33824,1.59728 0.13689,2.77429 0.87958,0.70182 1.30767,1.42094 1.61938,2.72029 0.53342,2.22353 0.0767,3.79376 -1.66403,5.7205 -0.8379,0.92744 -1.17413,1.59125 -1.04879,2.07055 0.16387,0.62663 0.0107,0.70547 -1.36999,0.70547 h -1.55447 z m 1.7998,-19.47203 c 0.19359,-0.55533 0.7433,-1.188 1.22157,-1.40591 0.77343,-0.3524 1.90889,-2.02909 1.53385,-2.26499 -0.08,-0.0503 -1.23827,-0.63667 -2.57388,-1.30295 -2.9074,-1.45039 -3.45984,-2.39455 -3.15115,-5.38552 0.1799,-1.74298 0.12458,-1.98477 -0.49938,-2.18281 -0.38593,-0.12248 -1.20396,-0.774667 -1.81786,-1.449293 -1.25217,-1.376041 -1.52347,-1.461254 -2.17044,-0.681703 -0.38211,0.460409 -0.24418,0.757935 0.88961,1.919046 1.26318,1.29362 1.32889,1.4685 1.12118,2.98397 -0.21224,1.54842 -0.17354,1.64005 1.01457,2.40248 2.38256,1.52893 2.0065,3.42368 -1.04131,5.24666 -2.10764,1.26063 -2.56476,1.88614 -1.93389,2.64628 0.28887,0.34808 1.3385,0.48445 3.7286,0.48445 h 3.32655 z m 5.65158,-5.69385 c 0.83718,-1.04176 1.62764,-1.5673 3.01524,-2.0047 1.03433,-0.32605 1.8796,-0.76226 1.87837,-0.96936 -0.001,-0.2071 -0.47747,-0.64697 -1.05833,-0.9775 -1.42875,-0.81299 -1.32993,-1.5233 0.43654,-3.13802 1.41046,-1.289284 1.45931,-1.397761 0.88713,-1.969941 -0.57218,-0.572179 -0.70201,-0.50962 -2.35772,1.136057 -1.29355,1.285714 -1.81351,2.104464 -1.98642,3.127924 -0.16114,0.95382 -0.71674,1.9022 -1.78076,3.03973 -0.8506,0.90936 -1.54654,1.9941 -1.54654,2.41054 0,1.23654 1.25556,0.90935 2.51249,-0.65473 z"
         id="path124" />
      <path
         style="fill:#513010;stroke-width:0.352778"
         d="m 107.44603,132.56073 c 0,-1.59338 -0.0902,-1.73386 -2.82222,-4.3934 l -2.82222,-2.74739 v -2.42427 c 0,-2.15362 0.10208,-2.51975 0.91433,-3.27952 1.95775,-1.83121 1.80297,-2.65731 -0.59842,-3.194 -2.466593,-0.55125 -3.138135,-1.15167 -3.138135,-2.80577 0,-1.22579 0.246575,-1.68481 1.770785,-3.29643 1.19974,-1.26856 1.6995,-2.05809 1.54975,-2.44833 -0.12156,-0.31679 -0.33421,-0.57599 -0.47256,-0.57599 -0.13834,0 -0.91511,-0.56799 -1.72614,-1.26221 -1.778979,-1.52273 -1.897642,-2.52567 -0.427435,-3.61264 l 1.047175,-0.77422 -0.870786,-1.63773 c -1.65629,-3.115049 -1.001138,-4.558846 1.940416,-4.2762 1.34405,0.129147 2.11323,0.466356 3.32074,1.45582 0.86434,0.708257 1.81361,1.287741 2.10951,1.287741 1.05705,0 1.63632,1.455069 1.63632,4.110239 0,2.55002 0.46638,3.65087 1.5467,3.65087 0.97631,0 2.26822,-1.95833 2.67636,-4.05694 0.63485,-3.264403 0.67835,-3.351391 1.67566,-3.351391 0.61201,0 1.53193,-0.586042 2.79493,-1.780535 1.75769,-1.662354 1.97069,-1.765113 3.20908,-1.548201 0.72954,0.127783 1.51067,0.463682 1.73583,0.746442 0.53419,0.670823 0.065,2.327569 -1.1272,3.979885 l -0.90061,1.24824 1.42657,1.28266 c 0.78461,0.70546 1.42657,1.51959 1.42657,1.80918 0,0.72165 -3.58752,3.43455 -4.54183,3.43455 -1.22781,0 -3.12631,0.931 -3.56321,1.74735 -0.53012,0.99055 -0.173,2.00676 0.79659,2.26669 0.43013,0.11531 4.52856,0.21183 9.1076,0.21448 l 8.32554,0.005 1.37585,1.00609 c 0.75672,0.55335 2.20929,1.89322 3.22793,2.9775 l 1.85209,1.9714 v 3.0116 c 0,2.82769 -0.0542,3.04708 -0.88704,3.5928 -0.48787,0.31966 -1.60493,0.66212 -2.48237,0.76102 -2.57292,0.29001 -2.97861,2.45653 -0.64274,3.43252 1.17969,0.49291 1.18992,0.51706 1.18992,2.80824 v 2.31105 h -1.41783 c -1.33719,0 -1.40521,-0.0503 -1.19589,-0.88426 0.12206,-0.48634 0.11563,-1.45089 -0.0143,-2.14344 -0.18811,-1.00269 -0.48346,-1.36249 -1.44993,-1.76631 l -1.21372,-0.50712 v -3.1583 c 0,-3.02722 0.68228,-5.65168 1.46928,-5.65168 0.15414,0 0.59833,0.62346 0.98708,1.38547 0.87517,1.71548 1.93995,2.13612 2.92182,1.15425 0.59436,-0.59435 0.66944,-0.97393 0.46386,-2.34487 -0.29615,-1.97483 -1.70513,-3.71758 -3.84187,-4.75196 -1.38502,-0.67048 -2.11818,-0.72278 -9.83395,-0.70153 l -8.33735,0.023 -1.79221,-1.33802 c -2.01442,-1.5039 -2.37074,-2.80923 -1.07046,-3.92143 0.39697,-0.33955 1.48912,-1.3665 2.42699,-2.2821 1.26848,-1.23836 2.07581,-1.724 3.15214,-1.89611 1.51437,-0.24216 2.38578,-0.91305 1.99894,-1.53898 -0.12517,-0.20253 -0.50396,-0.36823 -0.84176,-0.36823 -0.78758,0 -1.46085,-0.67459 -1.46085,-1.46371 0,-0.33938 0.56342,-1.04679 1.25204,-1.57203 1.35497,-1.033479 1.55802,-2.326532 0.40003,-2.547324 -0.8199,-0.156329 -4.12151,3.230244 -4.12151,4.227574 0,1.1313 -1.03409,3.02235 -1.99813,3.65401 -0.48345,0.31677 -1.04093,1.04044 -1.23884,1.60816 -0.43978,1.26155 -1.2462,1.31367 -3.46438,0.22392 -2.0537,-1.00895 -2.55652,-1.99599 -2.3193,-4.5528 0.18092,-1.94993 0.15259,-2.03358 -0.95269,-2.81271 -0.62654,-0.441652 -1.43529,-1.173116 -1.79723,-1.625472 -0.812,-1.014851 -2.118,-0.931274 -2.27155,0.145368 -0.0673,0.472221 0.22314,1.013041 0.77896,1.450254 0.4875,0.38346 1.07796,1.11773 1.31214,1.63169 0.3718,0.816 0.32664,1.04003 -0.35614,1.76681 l -0.78192,0.83232 1.78204,1.28027 c 2.24556,1.61328 2.33121,2.48935 0.40579,4.15081 -0.75694,0.65317 -1.79798,1.47972 -2.31342,1.83677 -0.62032,0.42971 -0.90047,0.90679 -0.82861,1.41111 0.0967,0.67832 0.3815,0.78128 2.59589,0.93831 2.84083,0.20146 4.18664,0.89832 4.55287,2.35746 0.28478,1.13466 0.74669,1.51007 1.86744,1.5177 0.52093,0.004 0.79375,0.21915 0.79375,0.6273 0,0.34205 -0.35719,0.77861 -0.79375,0.97014 -1.33244,0.58457 -1.20079,1.97911 0.35671,3.77866 2.68589,3.1033 2.78994,4.96781 0.43619,7.81617 -0.77564,0.93864 -1.41026,2.00683 -1.41026,2.37376 0,0.52727 -0.25889,0.66714 -1.23473,0.66714 -1.23469,0 -1.23472,-3e-5 -1.23472,-1.64601 z m 4.50012,1.41164 c 0.24374,-0.0983 0.34458,-0.33819 0.22408,-0.53316 -0.1205,-0.19497 0.34405,-0.93547 1.03233,-1.64556 0.68828,-0.71009 1.36847,-1.76732 1.51155,-2.3494 0.14307,-0.58209 1.14011,-1.98129 2.21565,-3.10933 1.7212,-1.80523 1.95708,-2.22723 1.96853,-3.52175 0.0102,-1.15679 0.15574,-1.49849 0.68162,-1.60071 0.59294,-0.11525 0.64653,0.0346 0.47355,1.32426 -0.13732,1.02381 -0.0406,1.60867 0.32674,1.97602 0.70922,0.70922 3.59872,0.70372 3.87159,-0.007 0.23765,-0.61931 1.53869,-0.72076 1.53869,-0.11998 0,0.22505 1.50812,1.8786 3.35138,3.67454 3.15322,3.07227 3.35139,3.35055 3.35139,4.70609 v 1.44073 h -1.41111 c -1.12738,0 -1.41111,-0.12859 -1.41111,-0.63955 0,-0.97838 -1.94728,-2.65365 -3.07928,-2.64915 -0.53772,0.002 -1.59513,0.42548 -2.34981,0.94075 -1.78234,1.21691 -2.98052,1.18544 -4.62508,-0.12149 -0.73245,-0.58208 -1.59626,-1.05833 -1.91958,-1.05833 -0.64811,0 -2.61599,1.93674 -2.9572,2.91041 -0.16289,0.4648 -0.5896,0.61048 -1.72673,0.58951 -0.8307,-0.0153 -1.31095,-0.10825 -1.0672,-0.20652 z m -1.4768,-20.53954 c -0.10633,-0.17204 0.0289,-0.49725 0.30055,-0.72269 0.54988,-0.45636 1.11297,0.068 0.73308,0.68272 -0.26995,0.43678 -0.77629,0.45636 -1.03363,0.04 z"
         id="path122" />
      <path
         style="fill:#302d2c;stroke-width:0.352778"
         d="m 107.44603,132.56073 c 0,-1.59338 -0.0902,-1.73386 -2.82222,-4.3934 l -2.82222,-2.74739 v -2.42427 c 0,-2.15362 0.10208,-2.51975 0.91433,-3.27952 1.95775,-1.83121 1.80297,-2.65731 -0.59842,-3.194 -2.466593,-0.55125 -3.138135,-1.15167 -3.138135,-2.80577 0,-1.22579 0.246575,-1.68481 1.770785,-3.29643 1.19974,-1.26856 1.6995,-2.05809 1.54975,-2.44833 -0.12156,-0.31679 -0.33421,-0.57599 -0.47256,-0.57599 -0.13834,0 -0.91511,-0.56799 -1.72614,-1.26221 -1.778979,-1.52273 -1.897642,-2.52567 -0.427435,-3.61264 l 1.047175,-0.77422 -0.870786,-1.63773 c -1.65629,-3.115049 -1.001138,-4.558846 1.940416,-4.2762 1.34405,0.129147 2.11323,0.466356 3.32074,1.45582 0.86434,0.708257 1.81361,1.287741 2.10951,1.287741 1.05705,0 1.63632,1.455069 1.63632,4.110239 0,2.55002 0.46638,3.65087 1.5467,3.65087 0.97631,0 2.26822,-1.95833 2.67636,-4.05694 0.63485,-3.264403 0.67835,-3.351391 1.67566,-3.351391 0.61201,0 1.53193,-0.586042 2.79493,-1.780535 1.75769,-1.662354 1.97069,-1.765113 3.20908,-1.548201 0.72954,0.127783 1.51067,0.463682 1.73583,0.746442 0.53419,0.670823 0.065,2.327569 -1.1272,3.979885 l -0.90061,1.24824 1.42657,1.28266 c 0.78461,0.70546 1.42657,1.51959 1.42657,1.80918 0,0.72165 -3.58752,3.43455 -4.54183,3.43455 -1.22781,0 -3.12631,0.931 -3.56321,1.74735 -0.53012,0.99055 -0.173,2.00676 0.79659,2.26669 0.43013,0.11531 4.52856,0.21183 9.1076,0.21448 l 8.32554,0.005 1.37585,1.00609 c 0.75672,0.55335 2.20929,1.89322 3.22793,2.9775 l 1.85209,1.9714 v 3.0116 c 0,2.82769 -0.0542,3.04708 -0.88704,3.5928 -0.48787,0.31966 -1.60493,0.66212 -2.48237,0.76102 -2.57292,0.29001 -2.97861,2.45653 -0.64274,3.43252 1.17969,0.49291 1.18992,0.51706 1.18992,2.80824 v 2.31105 h -1.05833 c -1.00916,0 -1.05855,-0.0697 -1.06315,-1.4993 -0.007,-2.28244 -0.31492,-2.99762 -1.62056,-3.76797 -1.19367,-0.70428 -1.19684,-0.71327 -1.19684,-3.38708 0,-1.4745 0.16433,-2.98798 0.36518,-3.36328 0.42996,-0.80338 1.24116,-0.89621 1.51839,-0.17375 0.31021,0.80839 1.8995,1.68654 2.63173,1.45414 1.43962,-0.45692 1.70791,-2.90227 0.56761,-5.17358 -0.68377,-1.36197 -2.76553,-3.0503 -4.27952,-3.47074 -0.74925,-0.20807 -4.84917,-0.37092 -9.36614,-0.37202 l -8.03357,-0.002 -1.57962,-1.45604 c -0.86879,-0.80082 -1.57962,-1.67483 -1.57962,-1.94225 0,-0.7073 3.91901,-4.61356 5.06622,-5.04972 0.53731,-0.20429 1.34404,-0.37143 1.79272,-0.37143 1.89013,0 2.0246,-2.03964 0.16323,-2.47589 -1.3555,-0.31768 -1.25989,-1.4945 0.21267,-2.61768 0.98786,-0.753482 1.24802,-1.179793 1.16384,-1.907165 -0.078,-0.673647 -0.34051,-0.969632 -0.93475,-1.053771 -1.16741,-0.165293 -4.64171,3.337796 -4.64171,4.680176 0,1.24358 -0.53066,2.24645 -1.8907,3.57309 -0.60935,0.59439 -1.2771,1.37727 -1.4839,1.73973 -0.34613,0.6067 -0.50827,0.622 -2.04188,0.19261 -2.47678,-0.69345 -3.16896,-1.75524 -2.95094,-4.52663 0.17036,-2.16553 -0.22119,-3.248918 -1.17422,-3.248918 -0.17546,0 -0.82463,-0.555625 -1.4426,-1.234722 -1.26308,-1.388033 -2.59977,-1.634157 -2.94625,-0.542492 -0.26308,0.828894 0.14138,1.655434 1.37449,2.808842 1.16011,1.08514 1.17279,2.06257 0.0324,2.49615 -1.25524,0.47724 -1.08997,1.11283 0.52991,2.03787 0.77353,0.44173 1.66369,1.19579 1.97813,1.67569 0.52456,0.80057 0.52517,0.9436 0.007,1.73382 -0.31038,0.4737 -1.27055,1.34717 -2.13371,1.94104 -2.95794,2.03512 -2.50411,3.54769 1.06446,3.54769 2.00648,0 2.30283,0.0933 2.82407,0.88878 0.9123,1.39234 0.44203,3.22894 -1.21452,4.74317 -1.22055,1.11569 -1.37927,1.44974 -1.40972,2.96684 -0.0316,1.57605 0.0958,1.846 1.63195,3.45631 1.2086,1.26697 1.83509,1.68194 2.28096,1.51085 0.94019,-0.36079 0.7392,-1.14868 -0.62003,-2.4306 -0.6791,-0.64047 -1.23472,-1.50294 -1.23472,-1.91659 0,-0.83111 1.16104,-2.1746 1.85208,-2.14311 0.43541,0.0198 2.64601,2.62435 3.91817,4.61635 0.90826,1.4222 0.52935,3.15155 -1.0328,4.71369 -0.67421,0.67422 -1.32142,1.70375 -1.43824,2.28786 -0.17707,0.88531 -0.38116,1.062 -1.22664,1.062 -0.97222,0 -1.01424,-0.0682 -1.01424,-1.64601 z m 4.93889,1.00646 c 0,-0.35175 0.48925,-1.10582 1.08723,-1.67569 0.59797,-0.56988 1.29891,-1.5393 1.55763,-2.15428 0.25873,-0.61497 0.79971,-1.29436 1.20218,-1.50976 0.40247,-0.2154 0.97318,-0.85847 1.26824,-1.42905 0.29506,-0.57058 0.83128,-1.19519 1.1916,-1.38803 0.91973,-0.49222 5.1226,0.38364 5.26134,1.09644 0.0566,0.29089 -0.54838,1.20004 -1.34444,2.02032 -1.45352,1.49776 -1.73158,2.68099 -0.63003,2.68099 0.32354,0 0.95636,-0.54102 1.40628,-1.20228 0.44991,-0.66126 1.2298,-1.50718 1.73308,-1.87984 0.84424,-0.62512 1.01218,-0.63696 2.17032,-0.15306 0.6904,0.28847 1.61817,1.01533 2.06171,1.61525 0.44354,0.59992 0.9901,1.09077 1.21458,1.09077 0.74305,0 1.57584,1.27311 1.57584,2.40902 0,1.04339 -0.0832,1.11875 -1.23473,1.11875 -0.95706,0 -1.23472,-0.14382 -1.23472,-0.63955 0,-0.97838 -1.94728,-2.65365 -3.07928,-2.64915 -0.53772,0.002 -1.59513,0.42548 -2.34981,0.94075 -1.78234,1.21691 -2.98052,1.18544 -4.62508,-0.12149 -0.73245,-0.58208 -1.59626,-1.05833 -1.91958,-1.05833 -0.64811,0 -2.61599,1.93674 -2.9572,2.91041 -0.30852,0.88039 -2.35516,0.8611 -2.35516,-0.0222 z"
         id="path120" />
      <path
         style="fill:#362310;stroke-width:0.352778"
         d="m 107.71367,132.49927 c 0.16033,-1.66864 0.12514,-1.74287 -1.54718,-3.2632 -3.98944,-3.62685 -4.01213,-3.66197 -4.01213,-6.21238 0,-2.14835 0.0881,-2.41087 1.23473,-3.68006 0.67909,-0.75168 1.23472,-1.50555 1.23472,-1.67526 0,-0.59583 -1.0814,-1.19591 -2.70009,-1.49832 -2.143056,-0.40036 -2.591577,-0.82434 -2.591577,-2.44975 0,-1.11591 0.275326,-1.64152 1.587497,-3.03061 2.13494,-2.26008 2.10983,-2.69075 -0.25984,-4.45693 -2.082799,-1.55236 -2.279457,-2.21249 -0.994917,-3.33965 1.215757,-1.06682 1.336157,-1.68345 0.507487,-2.59913 -0.313992,-0.346954 -0.650369,-1.335953 -0.747509,-2.197777 -0.149723,-1.328337 -0.06492,-1.626732 0.556892,-1.959515 1.036947,-0.554958 3.301957,0.02383 4.914767,1.255886 0.72313,0.552418 1.79104,1.243159 2.37312,1.534979 1.01328,0.507994 1.06669,0.650732 1.25469,3.352807 0.24376,3.50362 0.48248,4.05694 1.75031,4.05694 1.51841,0 2.65566,-1.61276 3.15361,-4.47223 0.42572,-2.444646 0.73769,-2.921163 1.9187,-2.930699 0.36793,-0.003 1.43269,-0.719777 2.36613,-1.592902 1.75311,-1.639828 2.42118,-1.842766 4.04009,-1.227256 0.82289,0.312864 0.91921,0.501782 0.73228,1.436395 -0.11837,0.591882 -0.72071,1.78003 -1.33853,2.640322 l -1.12331,1.56418 1.47232,1.26025 c 0.80978,0.69314 1.47232,1.45339 1.47232,1.68944 0,0.76906 -3.35112,3.04361 -4.48418,3.04361 -1.38501,0 -3.35338,1.35163 -3.79433,2.60548 -0.30024,0.85374 -0.23228,1.09174 0.4754,1.66478 0.76167,0.61676 1.51488,0.66863 9.70958,0.66863 h 8.88387 l 2.89511,2.899 2.89511,2.899 v 2.91277 c 0,2.86872 -0.0157,2.92092 -1.04082,3.451 -0.57245,0.29603 -1.67811,0.53823 -2.45703,0.53823 -1.07617,0 -1.51111,0.1773 -1.8114,0.73841 -0.59987,1.12087 -0.0969,2.39286 1.2637,3.19561 1.09571,0.64649 1.22333,0.88075 1.22333,2.24559 0,0.83809 0.0964,1.77491 0.21413,2.08181 0.16694,0.43506 -0.0274,0.55802 -0.88195,0.55802 -1.05356,0 -1.09626,-0.0581 -1.10089,-1.4993 -0.007,-2.28244 -0.31492,-2.99762 -1.62056,-3.76797 -1.19367,-0.70428 -1.19684,-0.71327 -1.19684,-3.38708 0,-1.4745 0.16433,-2.98798 0.36518,-3.36328 0.42996,-0.80338 1.24116,-0.89621 1.51839,-0.17375 0.31021,0.80839 1.8995,1.68654 2.63173,1.45414 1.43962,-0.45692 1.70791,-2.90227 0.56761,-5.17358 -0.68377,-1.36197 -2.76553,-3.0503 -4.27952,-3.47074 -0.74925,-0.20807 -4.84917,-0.37092 -9.36614,-0.37202 l -8.03357,-0.002 -1.57962,-1.45604 c -0.86879,-0.80082 -1.57962,-1.67483 -1.57962,-1.94225 0,-0.7073 3.91901,-4.61356 5.06622,-5.04972 0.53731,-0.20429 1.34404,-0.37143 1.79272,-0.37143 1.89013,0 2.0246,-2.03964 0.16323,-2.47589 -1.3555,-0.31768 -1.25989,-1.4945 0.21267,-2.61768 0.98786,-0.753482 1.24802,-1.179793 1.16384,-1.907165 -0.078,-0.673647 -0.34051,-0.969632 -0.93475,-1.053771 -1.16741,-0.165293 -4.64171,3.337796 -4.64171,4.680176 0,1.24358 -0.53066,2.24645 -1.8907,3.57309 -0.60935,0.59439 -1.2771,1.37727 -1.4839,1.73973 -0.34613,0.6067 -0.50827,0.622 -2.04188,0.19261 -2.47678,-0.69345 -3.16896,-1.75524 -2.95094,-4.52663 0.17036,-2.16553 -0.22119,-3.248918 -1.17422,-3.248918 -0.17546,0 -0.82463,-0.555625 -1.4426,-1.234722 -1.26308,-1.388033 -2.59977,-1.634157 -2.94625,-0.542492 -0.26308,0.828894 0.14138,1.655434 1.37449,2.808842 1.16011,1.08514 1.17279,2.06257 0.0324,2.49615 -1.25524,0.47724 -1.08997,1.11283 0.52991,2.03787 0.77353,0.44173 1.66369,1.19579 1.97813,1.67569 0.52456,0.80057 0.52517,0.9436 0.007,1.73382 -0.31038,0.4737 -1.27055,1.34717 -2.13371,1.94104 -2.95794,2.03512 -2.50411,3.54769 1.06446,3.54769 2.00648,0 2.30283,0.0933 2.82407,0.88878 0.9123,1.39234 0.44203,3.22894 -1.21452,4.74317 -1.22055,1.11569 -1.37927,1.44974 -1.40972,2.96684 -0.0316,1.57605 0.0958,1.846 1.63195,3.45631 1.2086,1.26697 1.83509,1.68194 2.28096,1.51085 0.94019,-0.36079 0.7392,-1.14868 -0.62003,-2.4306 -0.6791,-0.64047 -1.23472,-1.50294 -1.23472,-1.91659 0,-0.83111 1.16104,-2.1746 1.85208,-2.14311 0.43541,0.0198 2.64601,2.62435 3.91817,4.61635 0.90826,1.4222 0.52935,3.15155 -1.0328,4.71369 -0.67421,0.67422 -1.32142,1.70375 -1.43824,2.28786 -0.17389,0.86941 -0.38695,1.062 -1.17486,1.062 -0.93811,0 -0.9583,-0.0432 -0.79838,-1.70747 z m 4.67125,1.06792 c 0,-0.35175 0.48925,-1.10582 1.08723,-1.67569 0.59797,-0.56988 1.29891,-1.5393 1.55763,-2.15428 0.25873,-0.61497 0.79971,-1.29436 1.20218,-1.50976 0.40247,-0.2154 0.97318,-0.85847 1.26824,-1.42905 0.29506,-0.57058 0.83128,-1.19519 1.1916,-1.38803 0.91973,-0.49222 5.1226,0.38364 5.26134,1.09644 0.0566,0.29089 -0.54838,1.20004 -1.34444,2.02032 -1.45352,1.49776 -1.73158,2.68099 -0.63003,2.68099 0.32354,0 0.95636,-0.54102 1.40628,-1.20228 0.44991,-0.66126 1.2298,-1.50718 1.73308,-1.87984 0.84424,-0.62512 1.01218,-0.63696 2.17032,-0.15306 0.6904,0.28847 1.61817,1.01533 2.06171,1.61525 0.44354,0.59992 0.9901,1.09077 1.21458,1.09077 0.74305,0 1.57584,1.27311 1.57584,2.40902 0,1.01644 -0.10025,1.11875 -1.09608,1.11875 -0.8204,0 -1.04593,-0.13069 -0.89668,-0.51961 0.29056,-0.75719 -1.36168,-2.54346 -2.78802,-3.01419 -1.09667,-0.36194 -1.39839,-0.30717 -2.7853,0.50561 -1.93425,1.13355 -2.59451,1.13764 -4.78115,0.0296 -0.95724,-0.48507 -1.904,-0.88194 -2.10392,-0.88194 -0.66767,0 -3.18774,2.54245 -3.18774,3.21605 0,0.50316 -0.25698,0.6645 -1.05834,0.6645 -0.78674,0 -1.05833,-0.16412 -1.05833,-0.63955 z"
         id="path118" />
      <path
         style="fill:#29180a;stroke-width:0.352778"
         d="m 107.71367,132.49927 c 0.16033,-1.66864 0.12514,-1.74287 -1.54718,-3.2632 -3.98944,-3.62685 -4.01213,-3.66197 -4.01213,-6.21238 0,-2.14835 0.0881,-2.41087 1.23473,-3.68006 0.67909,-0.75168 1.23472,-1.50555 1.23472,-1.67526 0,-0.59583 -1.0814,-1.19591 -2.70009,-1.49832 -2.143056,-0.40036 -2.591577,-0.82434 -2.591577,-2.44975 0,-1.11591 0.275326,-1.64152 1.587497,-3.03061 2.13494,-2.26008 2.10983,-2.69075 -0.25984,-4.45693 -2.082799,-1.55236 -2.279457,-2.21249 -0.994917,-3.33965 1.215757,-1.06682 1.336157,-1.68345 0.507487,-2.59913 -0.313992,-0.346954 -0.650369,-1.335953 -0.747509,-2.197777 -0.149723,-1.328337 -0.06492,-1.626732 0.556892,-1.959515 1.036947,-0.554958 3.301957,0.02383 4.914767,1.255886 0.72313,0.552418 1.79104,1.243159 2.37312,1.534979 1.01328,0.507994 1.06669,0.650732 1.25469,3.352807 0.24376,3.50362 0.48248,4.05694 1.75031,4.05694 1.51841,0 2.65566,-1.61276 3.15361,-4.47223 0.43672,-2.507808 0.72724,-2.921799 2.05664,-2.930699 0.48795,-0.0033 1.41678,-0.632912 2.34978,-1.592902 1.58722,-1.63313 2.28015,-1.850154 3.9185,-1.227256 0.83652,0.318044 0.92094,0.493124 0.72065,1.494581 -0.12478,0.623885 -0.43925,1.346712 -0.69882,1.606282 -0.39407,0.394075 -0.5068,0.297672 -0.68318,-0.584264 -0.12487,-0.624313 -0.49847,-1.14737 -0.91366,-1.279147 -0.86868,-0.275707 -2.73411,0.646346 -3.00483,1.48524 -0.11027,0.341677 -0.67714,0.891659 -1.25972,1.222185 -0.93784,0.53207 -1.05925,0.78797 -1.05925,2.23256 0,1.43445 -0.17434,1.80944 -1.44277,3.10322 -0.79353,0.80938 -1.56071,1.68221 -1.70486,1.93963 -0.3336,0.59574 -2.57242,0.2224 -3.58479,-0.59778 -0.89379,-0.72411 -1.41371,-2.93746 -1.01588,-4.32464 0.3959,-1.38042 0.13232,-1.97883 -1.1677,-2.651102 -0.58817,-0.304154 -1.45617,-1.012658 -1.92889,-1.574453 -0.96313,-1.144609 -1.88097,-1.297964 -2.72383,-0.455106 -0.72923,0.72924 -0.42536,1.749088 0.95431,3.202771 1.1434,1.20474 1.12902,2.22811 -0.0313,2.22811 -0.37039,0 -0.8572,0.22143 -1.08181,0.49207 -0.32459,0.39111 -0.18536,0.66251 0.67869,1.32291 3.01722,2.3061 3.28567,2.61931 3.04995,3.5585 -0.13283,0.52925 -0.95092,1.42708 -1.96257,2.15388 -2.02518,1.45495 -2.48811,2.45002 -1.59759,3.43403 0.46951,0.51881 1.08833,0.68028 2.60707,0.68028 2.35109,0 2.83811,0.37931 2.83811,2.21041 0,1.57699 -0.5157,2.72848 -1.22194,2.72848 -1.06764,0 -1.60029,1.0739 -1.60029,3.22642 0,2.0502 0.0544,2.17476 1.70758,3.90774 1.46641,1.53722 1.84009,1.75678 2.64583,1.55455 1.23841,-0.31082 1.24951,-1.57182 0.0239,-2.71819 -1.33442,-1.24818 -1.64454,-1.96924 -1.20233,-2.79552 0.20768,-0.38806 0.59156,-0.70556 0.85305,-0.70556 0.66657,0 4.43862,4.50145 4.43862,5.29692 0,1.16751 -0.67764,2.47847 -1.82089,3.52267 -0.78896,0.7206 -1.11892,1.33941 -1.11892,2.09841 0,0.93295 -0.12634,1.07644 -0.94776,1.07644 -0.92054,0 -0.94304,-0.049 -0.78368,-1.70747 z m 4.67125,1.40436 c 0,-0.16671 0.60039,-1.00014 1.33421,-1.85208 0.73381,-0.85193 1.51788,-1.97177 1.74238,-2.48851 0.2245,-0.51675 0.72383,-1.03972 1.10962,-1.16217 0.3858,-0.12245 1.02512,-0.77122 1.42072,-1.44171 0.76726,-1.30041 1.3183,-1.43694 4.00626,-0.99265 1.69721,0.28053 1.72207,1.01218 0.0882,2.59579 -0.6791,0.65821 -1.23715,1.36404 -1.24013,1.56851 -0.0155,1.06828 -0.59367,1.3269 -1.69415,0.75781 -0.5982,-0.30933 -1.2538,-0.56243 -1.45691,-0.56243 -0.67206,0 -3.19353,2.53924 -3.19353,3.21605 0,0.50316 -0.25698,0.6645 -1.05834,0.6645 -0.58208,0 -1.05833,-0.13639 -1.05833,-0.30311 z m 17.7628,-0.2165 c 0.29068,-0.7575 -1.36191,-2.54354 -2.78943,-3.01466 -1.06617,-0.35186 -1.39853,-0.30771 -2.47806,0.32923 -1.53641,0.9065 -1.5592,0.90643 -1.5592,-0.005 0,-0.91154 1.94,-2.78737 2.88272,-2.78737 0.95453,0 2.00593,0.61048 3.27701,1.90275 0.59284,0.60272 1.3358,1.25461 1.65101,1.44864 0.3152,0.19403 0.66714,0.86872 0.78208,1.49931 0.19881,1.09072 0.15606,1.14652 -0.87827,1.14652 -0.81263,0 -1.03689,-0.13124 -0.88786,-0.51961 z m 4.99137,-1.77344 c 0,-1.96407 0.0902,-2.29306 0.62843,-2.29306 0.74451,0 0.8579,0.29326 1.05711,2.73403 0.14681,1.79866 0.12468,1.85208 -0.76719,1.85208 -0.8951,0 -0.91835,-0.0581 -0.91835,-2.29305 z m -2.41065,-3.58658 c -0.41075,-0.41074 -0.26063,-5.59548 0.17462,-6.03073 0.31122,-0.31122 0.69606,-0.15847 1.59977,0.635 1.40431,1.233 2.22358,1.31399 3.13247,0.30967 1.39012,-1.53606 0.43563,-5.24732 -1.8415,-7.16017 -2.12573,-1.78566 -3.12337,-1.95015 -11.93025,-1.96698 l -8.10053,-0.0155 -1.48415,-1.45657 c -0.97817,-0.96001 -1.41305,-1.65155 -1.27562,-2.02847 0.11469,-0.31455 1.04261,-1.42125 2.06205,-2.45934 1.6513,-1.68151 2.05753,-1.91244 3.72342,-2.11667 1.61743,-0.19828 1.91492,-0.35736 2.20345,-1.17829 0.39001,-1.10963 -0.1847,-2.04955 -1.25318,-2.04955 -0.96195,0 -1.26149,-1.05595 -0.4648,-1.63851 0.864,-0.63177 1.2513,-0.6054 0.99305,0.0676 -0.13746,0.35819 0.2907,0.97385 1.24579,1.79138 0.80037,0.68509 1.45522,1.43875 1.45522,1.6748 0,0.76906 -3.35112,3.04361 -4.48418,3.04361 -1.38501,0 -3.35338,1.35163 -3.79433,2.60548 -0.30024,0.85374 -0.23228,1.09174 0.4754,1.66478 0.76167,0.61676 1.51488,0.66863 9.70958,0.66863 h 8.88387 l 2.89511,2.899 2.89511,2.899 v 2.91277 c 0,2.86872 -0.0157,2.92092 -1.04082,3.451 -0.57245,0.29603 -1.67811,0.53823 -2.45703,0.53823 -1.6112,0 -2.35843,0.87184 -1.99348,2.32591 0.16766,0.66805 0.0738,0.84909 -0.44038,0.84909 -0.35941,0 -0.75931,-0.10583 -0.88866,-0.23519 z"
         id="path116" />
      <path
         style="fill:#130d09;stroke-width:0.352778"
         d="m 107.79881,132.27933 v -1.92742 l -2.20486,-1.82798 c -2.96761,-2.46035 -3.43443,-3.23104 -3.43726,-5.67464 -0.002,-1.80985 0.12064,-2.14182 1.23905,-3.35138 1.41919,-1.53486 1.48025,-2.61355 0.16974,-2.99858 -0.48507,-0.14251 -1.59632,-0.46382 -2.46945,-0.71401 -1.572667,-0.45063 -1.587202,-0.46904 -1.555772,-1.97014 0.02684,-1.28187 0.257782,-1.7456 1.499302,-3.01062 2.03517,-2.07368 1.97713,-2.97667 -0.29631,-4.60997 -2.082827,-1.49636 -2.218573,-2.27192 -0.61736,-3.52719 1.06935,-0.8383 1.11248,-0.95283 0.64066,-1.70126 -1.092269,-1.732638 -1.477389,-2.775197 -1.370035,-3.708825 0.09455,-0.822309 0.298365,-0.991981 1.307355,-1.088366 1.75088,-0.167255 2.61633,0.141425 4.26988,1.52293 0.81439,0.680399 1.7776,1.23709 2.14047,1.23709 0.99431,0 1.39014,1.098371 1.39014,3.857361 0,2.02227 0.13315,2.62578 0.70556,3.19819 0.97453,0.97454 1.66577,0.88522 2.83487,-0.36632 0.9067,-0.97062 1.3216,-2.21113 1.82431,-5.45451 0.0773,-0.498511 0.41903,-0.731488 1.16467,-0.793928 l 1.05532,-0.08837 -0.79375,0.572375 c -0.63807,0.460113 -0.79375,0.912853 -0.79375,2.308343 0,1.58204 -0.14719,1.89332 -1.65981,3.51045 -1.54657,1.6534 -1.74514,1.75852 -2.91042,1.54081 -1.65325,-0.30888 -2.05449,-0.68715 -2.50551,-2.36212 -0.26865,-0.99771 -0.26878,-1.71724 -4.2e-4,-2.48705 0.29828,-0.85564 0.26429,-1.25612 -0.16181,-1.90643 -0.29667,-0.45279 -0.74166,-0.823242 -0.98885,-0.823242 -0.24719,0 -1.0695,-0.635 -1.82735,-1.411111 -1.52236,-1.559039 -2.564,-1.770514 -3.51963,-0.714559 -0.54318,0.60021 -0.56989,0.842562 -0.19311,1.752193 0.24049,0.580601 0.66697,1.246279 0.94773,1.479289 0.28076,0.23301 0.66419,0.71088 0.85207,1.06192 0.28505,0.53263 0.13589,0.72422 -0.90121,1.15754 -0.68354,0.2856 -1.24279,0.76388 -1.24279,1.06284 0,0.29896 0.8619,1.11584 1.91535,1.81529 1.05344,0.69944 2.00954,1.51718 2.12466,1.8172 0.26907,0.70117 -0.6066,2.0335 -1.84007,2.79967 -2.05195,1.27457 -2.626299,2.57254 -1.69953,3.84077 0.38306,0.52419 1.0656,0.72615 2.91042,0.86118 2.34338,0.17151 2.4132,0.20438 2.52574,1.18915 0.19125,1.67352 -0.2214,2.57998 -1.52448,3.34881 -1.22532,0.72296 -1.23709,0.75321 -1.23709,3.17816 v 2.44825 l 1.73199,1.79698 c 1.84235,1.91148 3.03123,2.27502 4.06364,1.24261 0.85389,-0.85389 0.66793,-1.6666 -0.68036,-2.97341 -0.67909,-0.6582 -1.23472,-1.40372 -1.23472,-1.6567 0,-0.97317 1.22177,-0.38469 2.89025,1.39212 1.54675,1.64717 1.71862,1.98565 1.55346,3.0593 -0.11244,0.7309 -0.67485,1.70814 -1.42542,2.47679 -0.68183,0.69827 -1.34223,1.7822 -1.46754,2.40876 -0.38915,1.94576 -1.19797,1.41358 -1.19797,-0.78824 z m 5.29167,1.28786 c 0,-0.35175 0.49222,-1.10582 1.09383,-1.67569 0.60161,-0.56988 1.2357,-1.40127 1.40909,-1.84754 0.17339,-0.44627 0.76656,-0.96872 1.31817,-1.16102 0.60499,-0.21089 1.20067,-0.79866 1.50133,-1.48138 0.54728,-1.24274 1.19084,-1.48896 3.00308,-1.14898 1.37435,0.25783 1.52355,0.84877 0.45782,1.81324 -0.40792,0.36916 -0.97199,1.1166 -1.2535,1.66098 -0.47949,0.92723 -0.6119,0.97476 -2.09567,0.75226 -1.53054,-0.22953 -1.63081,-0.18664 -2.97983,1.27462 -0.76779,0.83167 -1.39599,1.72384 -1.39599,1.9826 0,0.25876 -0.23813,0.47046 -0.52917,0.47046 -0.29104,0 -0.52916,-0.28779 -0.52916,-0.63955 z m 17.15137,-0.47512 c -0.2548,-1.27396 -0.12095,-1.52837 0.64869,-1.23303 0.6961,0.26711 0.74866,2.3477 0.0593,2.3477 -0.26679,0 -0.58539,-0.5016 -0.708,-1.11467 z m 5.4264,-1.03139 c 0,-2.84974 0.83586,-2.72665 0.98775,0.14546 0.0855,1.61727 0.001,2.0006 -0.44098,2.0006 -0.43392,0 -0.54677,-0.44292 -0.54677,-2.14606 z m -11.64166,-1.50036 c 0,-0.71763 1.35018,-1.64524 2.39474,-1.64524 1.02962,0 2.0472,0.52659 2.30233,1.19144 0.15436,0.40225 -0.1794,0.49543 -1.63419,0.45625 -1.00549,-0.0271 -2.10597,0.0843 -2.44552,0.24761 -0.45014,0.21644 -0.61736,0.14871 -0.61736,-0.25006 z m 9.05463,-2.58598 c -0.40794,-0.40793 -0.26991,-5.05648 0.15014,-5.05648 0.21193,0 0.78897,0.3175 1.2823,0.70555 0.49333,0.38806 1.34047,0.70556 1.88253,0.70556 1.99605,0 2.78526,-1.94743 1.9308,-4.76444 -0.72175,-2.37952 -0.68546,-2.54882 0.33987,-1.58556 0.7854,0.73784 0.88195,1.11204 0.88195,3.41807 0,2.54293 -0.0206,2.6021 -1.14653,3.28857 -0.65425,0.39891 -1.77407,0.69962 -2.60809,0.70037 -1.54678,10e-4 -1.88983,0.35908 -1.88983,1.97045 0,0.83126 -0.34832,1.09273 -0.82314,0.61791 z m 2.28991,-12.58196 c -1.2294,-1.30864 -3.66392,-1.64675 -11.85743,-1.64675 -6.24928,0 -7.58856,-0.0891 -7.95378,-0.52916 -0.38846,-0.46807 0.62031,-0.52917 8.73615,-0.52917 h 9.17532 l 1.87878,1.76389 c 1.07339,1.00776 1.64623,1.76389 1.33631,1.76389 -0.29835,0 -0.89026,-0.37022 -1.31535,-0.8227 z m -21.78636,-4.25626 c -0.25725,-0.67036 2.80515,-4.30192 3.86826,-4.5872 0.414,-0.11109 1.2672,-0.20415 1.89601,-0.2068 0.91561,-0.004 1.30199,-0.24976 1.94028,-1.23481 0.77299,-1.19295 1.32575,-1.41707 1.58402,-0.64226 0.22901,0.68703 -3.42698,3.28325 -4.62547,3.28468 -1.61598,0.002 -3.36907,1.19943 -3.62432,2.47567 -0.24875,1.24375 -0.74428,1.67819 -1.03878,0.91072 z m 7.97237,-12.660822 c 0,-0.923255 -1.30652,-1.763918 -2.36703,-1.523032 l -0.98436,0.223588 0.82992,-0.708586 c 1.3802,-1.178411 3.61403,-0.345816 3.31195,1.234432 -0.18587,0.9723 -0.79048,1.563999 -0.79048,0.773598 z"
         id="path114" />
    </g>
  </g>
</svg>
