<?xml version="1.0" encoding="UTF-8" standalone="no"?>
<svg
   xmlns:dc="http://purl.org/dc/elements/1.1/"
   xmlns:cc="http://creativecommons.org/ns#"
   xmlns:rdf="http://www.w3.org/1999/02/22-rdf-syntax-ns#"
   xmlns:svg="http://www.w3.org/2000/svg"
   xmlns="http://www.w3.org/2000/svg"
   xmlns:sodipodi="http://sodipodi.sourceforge.net/DTD/sodipodi-0.dtd"
   xmlns:inkscape="http://www.inkscape.org/namespaces/inkscape"
   width="210mm"
   height="297mm"
   viewBox="0 0 210 297"
   version="1.1"
   id="svg96"
   inkscape:version="1.0.1 (3bc2e813f5, 2020-09-07)"
   sodipodi:docname="aerial_wiki_free_200Perc_edit_200Perc_edit_Gaus3_OilBrush1_Course8_color8.svg">
  <defs
     id="defs90" />
  <sodipodi:namedview
     id="base"
     pagecolor="#ffffff"
     bordercolor="#666666"
     borderopacity="1.0"
     inkscape:pageopacity="0.0"
     inkscape:pageshadow="2"
     inkscape:zoom="0.7"
     inkscape:cx="198.76195"
     inkscape:cy="1029.7889"
     inkscape:document-units="mm"
     inkscape:current-layer="layer1"
     inkscape:document-rotation="0"
     showgrid="false"
     inkscape:window-width="3840"
     inkscape:window-height="2097"
     inkscape:window-x="1432"
     inkscape:window-y="140"
     inkscape:window-maximized="1" />
  <metadata
     id="metadata93">
    <rdf:RDF>
      <cc:Work
         rdf:about="">
        <dc:format>image/svg+xml</dc:format>
        <dc:type
           rdf:resource="http://purl.org/dc/dcmitype/StillImage" />
        <dc:title></dc:title>
      </cc:Work>
    </rdf:RDF>
  </metadata>
  <g
     inkscape:label="Laag 1"
     inkscape:groupmode="layer"
     id="layer1">
    <g
       id="g126"
       transform="matrix(3.7187501,0,0,3.4034744,-111.73626,-308.51245)">
      <path
         style="fill:#fbfbfb;stroke-width:0.352778"
         d="M 30.080606,116.60566 V 90.500107 h 28.222221 28.222222 v 26.105553 26.10556 H 58.302827 30.080606 Z"
         id="path142" />
      <path
         style="fill:#a3a2a2;stroke-width:0.352778"
         d="m 44.894948,141.3883 c -0.0028,-1.55895 -0.489789,-2.31883 -3.437743,-5.3635 l -2.204377,-2.2767 v -2.35003 c 0,-1.84052 0.157946,-2.55083 0.728481,-3.27615 0.927339,-1.17892 0.633565,-1.63848 -1.047402,-1.63848 -1.958799,0 -2.503301,-0.78669 -2.503301,-3.61673 0,-2.11551 0.111955,-2.47312 1.234722,-3.94402 0.679097,-0.88967 1.234722,-1.91486 1.234722,-2.27821 0,-0.36335 -0.555625,-1.08443 -1.234722,-1.6024 -1.468299,-1.11993 -1.701852,-2.84321 -0.529167,-3.90447 0.8901,-0.80553 0.8901,-1.31114 0,-2.11667 -0.571617,-0.51731 -0.705555,-1.08654 -0.705555,-2.99861 0,-3.08915 0.448482,-3.52778 3.607019,-3.52778 h 2.316742 l 3.298769,3.14848 3.298769,3.14847 0.177544,2.23139 c 0.132827,1.66936 0.310828,2.23138 0.706712,2.23138 0.399347,0 0.555725,-0.51782 0.637421,-2.11075 l 0.108255,-2.11075 3.34979,-3.26911 3.349791,-3.26911 h 2.396307 c 3.132005,0 3.563991,0.43855 3.563991,3.61818 0,2.20501 -0.06053,2.37581 -1.146527,3.23542 l -1.146528,0.90751 1.146528,0.90751 c 1.778747,1.40794 1.439015,3.38196 -0.713557,4.14615 -0.34395,0.1221 -0.725267,0.50342 -0.847373,0.84737 -0.436536,1.22965 -1.279007,1.86008 -2.485689,1.86008 -1.38705,0 -2.683501,0.58599 -2.380636,1.07604 0.121713,0.19693 3.798107,0.33517 8.917519,0.3353 l 8.71043,2.2e-4 3.439583,3.36268 3.439583,3.36267 v 3.81437 c 0,4.52764 -0.220345,4.88065 -3.151459,5.0489 -1.936475,0.11116 -2.788214,0.78134 -1.552183,1.22131 1.574881,0.56059 1.88142,1.19305 1.88142,3.8818 v 2.59116 h -4.778534 c -4.626736,0 -4.806554,-0.028 -5.660481,-0.88195 -0.48507,-0.48507 -1.180049,-0.88194 -1.544398,-0.88194 -0.364349,0 -1.134112,0.39687 -1.710584,0.88194 -0.796836,0.67049 -1.450841,0.88195 -2.727796,0.88195 -1.248113,0 -1.976746,-0.2266 -2.835953,-0.88195 -0.635959,-0.48507 -1.487784,-0.88194 -1.892945,-0.88194 -0.443425,0 -0.896613,0.35106 -1.138498,0.88194 -0.400453,0.8789 -0.418699,0.88195 -5.284103,0.88195 h -4.882263 l -0.0023,-1.32292 z"
         id="path140" />
      <path
         style="fill:#5e5c5b;stroke-width:0.352778"
         d="m 45.600503,141.21191 c -0.0028,-1.79424 -0.529879,-2.64639 -3.437258,-5.55699 -2.200587,-2.20302 -2.204861,-2.21129 -2.204861,-4.266 0,-1.80001 0.137686,-2.21552 1.095712,-3.30666 1.472635,-1.67723 1.184306,-2.30438 -1.059442,-2.30438 -2.279771,0 -2.858493,-0.58117 -2.858493,-2.87061 0,-1.94864 0.323831,-2.74444 1.815624,-4.4618 0.553629,-0.63734 1.006599,-1.41579 1.006599,-1.72989 0,-0.31409 -0.635,-1.15731 -1.411112,-1.87381 -0.790729,-0.73 -1.411111,-1.6307 -1.411111,-2.04873 0,-0.71419 1.232009,-2.1846 1.830409,-2.1846 0.629481,0 0.22747,-0.9528 -0.772075,-1.82989 -0.911985,-0.80025 -1.058334,-1.1735 -1.058334,-2.69919 0,-2.326 0.569412,-2.88241 2.935616,-2.86858 1.79668,0.0105 1.879378,0.0594 5.001884,2.9582 l 3.175,2.94751 0.176389,2.38541 c 0.129836,1.75585 0.339325,2.48762 0.79375,2.77265 1.160137,0.72767 1.840203,-0.14525 1.955927,-2.51061 0.09715,-1.98575 0.210826,-2.23617 1.763888,-3.88586 0.913025,-0.96984 2.423764,-2.41913 3.357196,-3.22065 1.485857,-1.27589 1.910944,-1.45732 3.414385,-1.45732 2.214448,0 2.82763,0.59984 2.820563,2.75922 -0.0064,1.95707 -0.222706,2.36838 -1.501084,2.85442 -1.434122,0.54525 -1.30527,1.87581 0.271764,2.80628 1.716542,1.01278 1.607799,2.12355 -0.27809,2.84057 -0.533475,0.20283 -1.13498,0.80433 -1.337807,1.33781 -0.447294,1.17647 -0.911336,1.50033 -2.159865,1.5074 -2.056676,0.0117 -3.916444,1.74284 -2.700184,2.51349 0.263298,0.16684 4.402487,0.30577 9.198198,0.30874 l 8.719474,0.005 1.68747,1.50309 c 0.928109,0.82669 2.441532,2.31159 3.363164,3.29977 l 1.675695,1.7967 v 3.20141 c 0,3.90493 -0.280215,4.31014 -2.980613,4.31014 -2.058172,0 -2.869166,0.56118 -2.498545,1.72891 0.122972,0.38745 0.532021,0.80234 0.909003,0.92199 1.375434,0.43654 1.747932,1.19263 1.747932,3.54791 v 2.26786 l -4.145138,-0.0136 -4.145139,-0.0136 -0.707796,-1.12523 c -0.389287,-0.61888 -1.139821,-1.27717 -1.667852,-1.46287 -0.827652,-0.29106 -1.165012,-0.17292 -2.446122,0.8566 -1.937213,1.55679 -3.178567,1.55853 -5.338355,0.007 -1.474717,-1.05906 -1.751311,-1.14173 -2.570729,-0.76838 -0.505017,0.2301 -1.096663,0.89114 -1.314771,1.46897 l -0.396559,1.0506 h -4.155991 -4.155991 l -0.0023,-1.49931 z"
         id="path138" />
      <path
         style="fill:#895c2b;stroke-width:0.352778"
         d="m 46.204313,141.35752 c 0.243851,-1.81805 -0.408045,-2.97204 -3.222495,-5.7045 -2.312512,-2.24514 -2.317879,-2.25494 -2.317879,-4.22965 0,-1.79892 0.112523,-2.08836 1.234722,-3.17604 0.679097,-0.65821 1.234722,-1.38429 1.234722,-1.61351 0,-0.79937 -1.180734,-1.38636 -3.140986,-1.56149 l -1.974291,-0.17639 -0.103681,-1.95746 c -0.09406,-1.77588 0.01229,-2.10935 1.146528,-3.59481 1.713414,-2.24399 1.718047,-3.75638 0.01549,-5.05498 -1.518465,-1.15819 -1.576219,-2.07443 -0.176389,-2.79831 1.42738,-0.73812 1.420253,-1.9873 -0.01718,-3.01084 -0.992243,-0.70654 -1.067354,-0.90642 -0.970139,-2.58166 l 0.105375,-1.81583 1.896918,-0.10818 c 1.752373,-0.1 1.98122,-0.0193 3.003262,1.05833 0.60849,0.64158 1.937689,1.91373 2.953777,2.82698 1.826281,1.64146 1.847431,1.68398 1.847431,3.71387 0,2.3839 0.669902,3.6215 1.960282,3.6215 1.515375,0 2.273052,-1.15245 2.273052,-3.45737 v -2.04627 l 3.007872,-2.91074 3.007872,-2.91074 1.842822,0.10631 1.842822,0.10631 0.106205,1.83982 c 0.104781,1.81515 0.08911,1.84697 -1.168352,2.37237 -1.176915,0.49175 -1.26613,0.63257 -1.164539,1.83814 0.08598,1.02034 0.335936,1.43026 1.14403,1.87619 1.44047,0.79489 1.510482,1.37114 0.221193,1.82059 -0.721054,0.25136 -1.266648,0.77927 -1.579687,1.52848 -0.407548,0.9754 -0.701061,1.17438 -1.986595,1.34681 -2.836315,0.38043 -4.399202,2.41321 -2.745776,3.57131 0.684435,0.4794 2.119434,0.56323 9.641055,0.56323 h 8.836934 l 2.916745,2.93198 2.916749,2.93198 -0.102313,3.32983 -0.102316,3.32983 -2.223442,0.2126 c -2.505826,0.23961 -2.98003,0.54903 -2.98003,1.94448 0,0.89876 0.426946,1.42929 1.954777,2.42903 0.358041,0.23428 0.587015,1.09336 0.681701,2.55763 l 0.142571,2.20487 h -3.814871 c -3.351118,0 -3.814872,-0.0727 -3.814872,-0.59806 0,-0.32893 -0.426576,-1.04331 -0.947946,-1.5875 -1.238186,-1.29239 -2.950275,-1.33414 -4.408056,-0.1075 -0.644431,0.54225 -1.486878,0.88194 -2.18725,0.88194 -0.661098,0 -1.640759,-0.37009 -2.334526,-0.88194 -1.525115,-1.12519 -3.152283,-1.15073 -4.171839,-0.0655 -0.421877,0.44907 -0.767049,1.16345 -0.767049,1.5875 0,0.7457 -0.126319,0.77102 -3.846987,0.77102 h -3.846986 z"
         id="path136" />
      <path
         style="fill:#744c24;stroke-width:0.352778"
         d="m 46.204313,141.35752 c 0.243851,-1.81805 -0.408045,-2.97204 -3.222495,-5.7045 -2.312512,-2.24514 -2.317879,-2.25494 -2.317879,-4.22965 0,-1.79892 0.112523,-2.08836 1.234722,-3.17604 0.679097,-0.65821 1.234722,-1.38429 1.234722,-1.61351 0,-0.79937 -1.180734,-1.38636 -3.140986,-1.56149 l -1.974291,-0.17639 -0.103681,-1.95746 c -0.09406,-1.77588 0.01229,-2.10935 1.146528,-3.59481 1.713414,-2.24399 1.718047,-3.75638 0.01549,-5.05498 -1.518465,-1.15819 -1.576219,-2.07443 -0.176389,-2.79831 1.42738,-0.73812 1.420253,-1.9873 -0.01718,-3.01084 -0.992243,-0.70654 -1.067354,-0.90642 -0.970139,-2.58166 l 0.105375,-1.81583 1.896918,-0.10818 c 1.752373,-0.1 1.98122,-0.0193 3.003262,1.05833 0.60849,0.64158 1.937689,1.91373 2.953777,2.82698 1.826281,1.64146 1.847431,1.68398 1.847431,3.71387 0,2.3839 0.669902,3.6215 1.960282,3.6215 1.515375,0 2.273052,-1.15245 2.273052,-3.45737 v -2.04627 l 3.007872,-2.91074 3.007872,-2.91074 1.842822,0.10631 1.842822,0.10631 0.106205,1.83982 c 0.104781,1.81515 0.08911,1.84697 -1.168352,2.37237 -1.176915,0.49175 -1.26613,0.63257 -1.164539,1.83814 0.08598,1.02034 0.335936,1.43026 1.14403,1.87619 1.44047,0.79489 1.510482,1.37114 0.221193,1.82059 -0.721054,0.25136 -1.266648,0.77927 -1.579687,1.52848 -0.407548,0.9754 -0.701061,1.17438 -1.986595,1.34681 -2.836315,0.38043 -4.399202,2.41321 -2.745776,3.57131 0.684435,0.4794 2.119434,0.56323 9.641055,0.56323 h 8.836934 l 2.916745,2.93198 2.916749,2.93198 -0.102313,3.32983 -0.102316,3.32983 -2.223442,0.2126 c -2.505826,0.23961 -2.98003,0.54903 -2.98003,1.94448 0,0.89876 0.426946,1.42929 1.954777,2.42903 0.358041,0.23428 0.587015,1.09336 0.681701,2.55763 l 0.142571,2.20487 h -3.814871 c -3.351118,0 -3.814872,-0.0727 -3.814872,-0.59806 0,-0.32893 -0.426576,-1.04331 -0.947946,-1.5875 -1.238186,-1.29239 -2.950275,-1.33414 -4.408056,-0.1075 -0.644431,0.54225 -1.486878,0.88194 -2.18725,0.88194 -0.661098,0 -1.640759,-0.37009 -2.334526,-0.88194 -1.525115,-1.12519 -3.152283,-1.15073 -4.171839,-0.0655 -0.421877,0.44907 -0.767049,1.16345 -0.767049,1.5875 0,0.7457 -0.126319,0.77102 -3.846987,0.77102 h -3.846986 z m 7.441848,-10.35853 c 0.232833,-0.23283 0.423333,-0.86783 0.423333,-1.41111 0,-0.81069 0.153591,-0.98777 0.856746,-0.98777 1.718611,0 2.511115,-1.76274 1.171726,-2.60622 -0.89875,-0.56599 -1.827966,0.14195 -1.962629,1.49527 -0.08973,0.90178 -0.267641,1.11095 -0.94494,1.11095 -0.819391,0 -1.943125,0.81606 -1.943125,1.41111 0,0.45307 1.046994,1.41111 1.542143,1.41111 0.238377,0 0.623913,-0.1905 0.856746,-0.42334 z m 14.111111,0 c 0.690209,-0.69021 0.48454,-1.68057 -0.436115,-2.10005 -1.670671,-0.76121 -2.699828,0.6776 -1.408409,1.96902 0.662873,0.66288 1.269581,0.70598 1.844524,0.13103 z m 8.116206,-1.80002 c 0.09753,-1.52208 -0.01161,-1.8076 -1.11125,-2.90724 -1.135098,-1.1351 -2.701068,-1.64835 -2.701068,-0.88529 0,0.18376 0.396875,1.08053 0.881945,1.99282 0.485069,0.91229 0.881944,1.92082 0.881944,2.24117 0,0.77055 0.733605,1.47504 1.40377,1.34805 0.371997,-0.0705 0.569669,-0.61921 0.644659,-1.78951 z m -10.581994,-2.09817 0.10949,-1.32292 h 2.204335 c 1.359535,0 2.466774,-0.19369 2.88912,-0.50541 1.152973,-0.85097 0.187198,-1.30519 -2.525184,-1.18761 -2.21846,0.0962 -2.444474,0.17595 -2.547203,0.89927 -0.08547,0.60183 -0.345643,0.79375 -1.075973,0.79375 -1.082173,0 -1.809908,0.56739 -1.809908,1.41111 0,0.86175 0.778271,1.45297 1.761411,1.33808 0.744772,-0.087 0.90171,-0.31224 0.993912,-1.42627 z m -20.87055,-5.20347 c 0.564958,0 0.951849,-0.27688 1.16303,-0.83233 0.199046,-0.52353 0.702807,-0.9096 1.357833,-1.0406 0.57276,-0.11456 1.140234,-0.46588 1.261053,-0.78073 0.276948,-0.72172 -0.349413,-1.93245 -0.999736,-1.93245 -0.709219,0 -1.600286,0.99619 -1.600286,1.78908 0,0.54418 -0.250645,0.68036 -1.252241,0.68036 -1.452783,0 -3.33387,0.86766 -3.33387,1.53776 0,0.76013 0.466772,0.99708 1.540953,0.78225 0.559177,-0.11184 1.397646,-0.20334 1.863264,-0.20334 z m 9.408824,-6.4747 c 0.496287,-0.65066 1.388254,-1.3843 1.982149,-1.63029 1.200208,-0.49715 1.330449,-0.95378 0.561862,-1.96995 -0.834869,-1.10379 -0.630065,-1.81419 0.870725,-3.02026 1.322495,-1.06278 1.949039,-2.27179 0.970139,-1.87201 -0.565772,0.23105 -2.734028,3.09422 -2.734028,3.61027 0,0.74046 -1.910908,3.55528 -2.700443,3.97783 -0.85625,0.45825 -1.300127,1.25507 -0.984048,1.7665 0.386895,0.62601 1.143138,0.30543 2.033644,-0.86209 z m -8.932486,-5.04559 c 0,-0.47788 -0.320848,-0.96411 -0.79375,-1.20288 -0.436562,-0.22043 -1.220494,-0.9007 -1.74207,-1.51172 -0.759326,-0.88954 -1.03688,-1.02322 -1.392699,-0.67075 -0.356556,0.35321 -0.186567,0.67635 0.860126,1.63508 0.717477,0.65719 1.304504,1.36158 1.304504,1.56531 0,0.20374 0.17061,0.81733 0.379132,1.36353 0.365674,0.95785 0.396981,0.9688 0.881945,0.30832 0.276547,-0.37663 0.502812,-1.04574 0.502812,-1.48689 z"
         id="path134" />
      <path
         style="fill:#6c451b;stroke-width:0.352778"
         d="m 46.204313,141.35752 c 0.243851,-1.81805 -0.408045,-2.97204 -3.222495,-5.7045 -2.312512,-2.24514 -2.317879,-2.25494 -2.317879,-4.22965 0,-1.79892 0.112523,-2.08836 1.234722,-3.17604 0.679097,-0.65821 1.234722,-1.38429 1.234722,-1.61351 0,-0.79937 -1.180734,-1.38636 -3.140986,-1.56149 l -1.974291,-0.17639 -0.103681,-1.95746 c -0.09406,-1.77588 0.01229,-2.10935 1.146528,-3.59481 1.713414,-2.24399 1.718047,-3.75638 0.01549,-5.05498 -1.518465,-1.15819 -1.576219,-2.07443 -0.176389,-2.79831 1.42738,-0.73812 1.420253,-1.9873 -0.01718,-3.01084 -0.992243,-0.70654 -1.067354,-0.90642 -0.970139,-2.58166 l 0.105375,-1.81583 1.896918,-0.10818 c 1.7555,-0.10012 1.97905,-0.0208 2.998611,1.06382 0.605931,0.6446 1.892224,1.85665 2.858429,2.69344 1.755582,1.52043 1.756879,1.52318 1.973629,4.17313 0.241177,2.94857 0.493939,3.27657 2.53144,3.28489 1.174486,0.005 1.322917,0.10435 1.322917,0.88734 0,0.54877 0.199907,0.88195 0.529167,0.88195 0.605705,0 1.940277,-1.22667 1.940277,-1.78341 0,-0.20476 0.88602,-0.77792 1.968934,-1.2737 l 1.968934,-0.90141 -0.944882,-0.98624 c -1.161649,-1.2125 -0.972247,-2.08542 0.735029,-3.38763 1.211709,-0.92421 1.604074,-1.89817 0.764692,-1.89817 -0.845593,0 -3.354796,2.98047 -3.752439,4.4572 -0.447759,1.66285 -1.616684,3.30391 -2.353372,3.30391 -0.386866,0 -0.503562,-0.55596 -0.503562,-2.39904 v -2.39904 l 3.007872,-2.91074 3.007872,-2.91074 1.842822,0.10631 1.842822,0.10631 0.106205,1.83982 c 0.104781,1.81515 0.08911,1.84697 -1.168352,2.37237 -1.176915,0.49175 -1.26613,0.63257 -1.164539,1.83814 0.08598,1.02034 0.335936,1.43026 1.14403,1.87619 1.44047,0.79489 1.510482,1.37114 0.221193,1.82059 -0.721054,0.25136 -1.266648,0.77927 -1.579687,1.52848 -0.407548,0.9754 -0.701061,1.17438 -1.986595,1.34681 -2.836315,0.38043 -4.399202,2.41321 -2.745776,3.57131 0.684435,0.4794 2.119434,0.56323 9.641055,0.56323 h 8.836934 l 2.916745,2.93198 2.916749,2.93198 -0.102313,3.32983 -0.102316,3.32983 -2.223442,0.2126 c -2.505826,0.23961 -2.98003,0.54903 -2.98003,1.94448 0,0.89876 0.426946,1.42929 1.954777,2.42903 0.358041,0.23428 0.587015,1.09336 0.681701,2.55763 l 0.142571,2.20487 h -1.52182 c -0.837,0 -1.521816,-0.15875 -1.521816,-0.35278 0,-0.19403 -0.238125,-0.35278 -0.529167,-0.35278 -0.291042,0 -0.529167,0.15875 -0.529167,0.35278 0,0.19403 -0.793749,0.35278 -1.763888,0.35278 -1.423021,0 -1.763889,-0.11558 -1.763889,-0.59806 0,-0.32893 -0.426576,-1.04331 -0.947946,-1.5875 -1.238186,-1.29239 -2.950275,-1.33414 -4.408056,-0.1075 -0.644431,0.54225 -1.486878,0.88194 -2.18725,0.88194 -0.661098,0 -1.640759,-0.37009 -2.334526,-0.88194 -1.525115,-1.12519 -3.152283,-1.15073 -4.171839,-0.0655 -0.421877,0.44907 -0.767049,1.16345 -0.767049,1.5875 0,0.67646 -0.191092,0.77102 -1.558102,0.77102 -0.926967,0 -1.62215,-0.17863 -1.716219,-0.44098 -0.219,-0.61076 0.361877,-1.71782 1.341997,-2.55763 0.452888,-0.38806 0.92119,-1.18181 1.040671,-1.76389 l 0.217239,-1.05834 -0.632932,0.87878 c -0.348113,0.48333 -1.157953,1.46512 -1.799645,2.18177 -0.641692,0.71664 -1.191412,1.63088 -1.2216,2.03163 -0.04708,0.62502 -0.290301,0.72866 -1.710135,0.72866 h -1.655247 z m 23.983492,-14.59525 c 0.314378,-0.34739 0.779395,-0.63161 1.03337,-0.63161 0.621182,0 2.251097,2.44629 2.251097,3.37861 0,1.10459 1.292369,2.16239 2.049123,1.67721 0.44135,-0.28297 0.591997,-0.86786 0.578609,-2.24643 -0.01683,-1.73408 -0.120587,-1.95479 -1.490112,-3.17014 -1.942691,-1.72399 -3.832984,-2.22533 -7.34235,-1.94732 -1.535105,0.12161 -5.045569,0.30187 -7.801027,0.40058 -4.193666,0.15023 -5.191756,0.0854 -6.125952,-0.39765 -0.802367,-0.41492 -1.223613,-0.46954 -1.498826,-0.19432 -0.210539,0.21054 -0.747923,0.38279 -1.194187,0.38279 -0.446264,0 -0.811389,0.15875 -0.811389,0.35278 0,0.19403 0.387873,0.35278 0.861941,0.35278 0.862727,0 1.960281,1.13823 1.960281,2.03293 0,0.25565 -0.674113,1.08728 -1.49803,1.84806 l -1.49803,1.38323 1.49803,1.52638 c 0.934032,0.95171 1.49803,1.84975 1.49803,2.38528 v 0.85889 l 0.549171,-0.78405 c 0.312698,-0.44644 0.920321,-0.78405 1.411111,-0.78405 0.901881,0 0.972551,-0.16368 0.871516,-2.01847 -0.0504,-0.92522 0.221706,-1.40092 1.463563,-2.55863 1.29491,-1.20718 1.68543,-1.38908 2.583806,-1.20352 0.582083,0.12022 1.132333,0.28728 1.222778,0.37122 0.09044,0.084 0.134098,1.17666 0.09701,2.42824 -0.0382,1.28912 0.08167,2.2756 0.276528,2.2756 0.18918,0 0.343964,-0.23812 0.343964,-0.52917 0,-0.65615 1.245657,-1.94027 1.882154,-1.94027 0.259074,0 1.195654,0.71437 2.081291,1.5875 0.885634,0.87312 1.924406,1.5875 2.30838,1.5875 0.453217,0 0.867847,0.40222 1.181904,1.14652 0.453813,1.07554 0.489991,0.8962 0.584211,-2.89617 0.07772,-3.1284 0.229711,-4.18554 0.672038,-4.6743 z M 48.148691,120.6129 c 1.025122,-0.90046 1.923023,-1.68723 1.995334,-1.74837 0.271489,-0.22956 -2.976034,-3.30525 -3.482864,-3.29859 -0.291042,0.004 -0.846667,0.67567 -1.234722,1.49299 -0.535226,1.12729 -1.173961,1.7443 -2.645833,2.55584 -1.312377,0.7236 -1.976759,1.32312 -2.053009,1.85257 -0.108431,0.75292 -0.0046,0.78277 2.722252,0.78277 h 2.834983 z m -3.093267,-10.74467 c -0.09444,-0.31011 -0.557141,-0.73944 -1.028219,-0.95408 -0.471077,-0.21464 -1.121284,-0.79435 -1.444903,-1.28826 -0.648778,-0.99016 -1.918363,-1.21858 -1.918363,-0.34515 0,0.30407 0.555625,1.07688 1.234722,1.71735 1.062051,1.00164 1.234722,1.39056 1.234722,2.781 0,1.17105 0.170125,1.71293 0.617362,1.96641 0.53656,0.30411 0.673576,0.11018 1.046877,-1.48177 0.236233,-1.00742 0.352245,-2.0854 0.257802,-2.3955 z"
         id="path132" />
      <path
         style="fill:#543312;stroke-width:0.352778"
         d="m 46.204313,141.35752 c 0.243851,-1.81805 -0.408045,-2.97204 -3.222495,-5.7045 -2.312512,-2.24514 -2.317879,-2.25494 -2.317879,-4.22965 0,-1.79892 0.112523,-2.08836 1.234722,-3.17604 0.679097,-0.65821 1.234722,-1.38429 1.234722,-1.61351 0,-0.79937 -1.180734,-1.38636 -3.140986,-1.56149 l -1.974291,-0.17639 -0.103681,-1.95746 c -0.09406,-1.77588 0.01229,-2.10935 1.146528,-3.59481 1.713414,-2.24399 1.718047,-3.75638 0.01549,-5.05498 -1.518465,-1.15819 -1.576219,-2.07443 -0.176389,-2.79831 1.42738,-0.73812 1.420253,-1.9873 -0.01718,-3.01084 -0.992243,-0.70654 -1.067354,-0.90642 -0.970139,-2.58166 l 0.105375,-1.81583 1.896918,-0.10818 c 1.752373,-0.1 1.98122,-0.0193 3.003262,1.05833 0.60849,0.64158 1.937689,1.91373 2.953777,2.82698 1.784061,1.60351 1.847597,1.72452 1.852249,3.52778 0.0026,1.02702 0.100539,2.2245 0.217533,2.66106 0.186908,0.69745 0.08082,0.79375 -0.874349,0.79375 -1.427724,0 -1.886033,-0.89482 -1.748758,-3.41434 0.0909,-1.66842 -0.0012,-2.03774 -0.59033,-2.36799 -0.383917,-0.2152 -1.202263,-0.92176 -1.818547,-1.57013 -1.198046,-1.26042 -2.32631,-1.38613 -2.53878,-0.28287 -0.07646,0.39702 0.364798,1.09509 1.142477,1.80742 1.252349,1.14711 1.697886,2.69778 0.91427,3.18208 -0.694482,0.42921 -0.330466,1.15573 1.030251,2.05621 2.489292,1.64733 2.167718,3.25507 -1.051315,5.25613 -1.682703,1.04603 -2.365615,2.01953 -1.921165,2.73867 0.120989,0.19576 1.202798,0.35682 2.404021,0.3579 3.259338,0.003 4.807109,0.533 5.247817,1.79721 0.236861,0.67946 0.78352,1.22078 1.560797,1.54555 1.539556,0.64326 1.599548,1.72027 0.137927,2.47611 -1.393192,0.72044 -1.409628,1.9591 -0.04062,3.06123 1.336909,1.07629 2.157599,2.75796 2.155966,4.41778 -0.0014,1.41473 -1.054199,3.49305 -2.163477,4.27085 -0.388061,0.2721 -0.657426,0.88641 -0.657426,1.49931 0,0.9921 -0.06918,1.03833 -1.553931,1.03833 h -1.553931 z m 4.337404,1.15412 c 0,-0.44685 0.847194,-1.80368 1.747695,-2.79903 0.526612,-0.58209 1.151661,-1.74212 1.388998,-2.57786 0.424666,-1.49538 0.764237,-1.93322 2.500542,-3.22416 0.705751,-0.52472 0.910204,-1.0487 1.058333,-2.71236 0.146387,-1.64408 0.316318,-2.08728 0.838431,-2.18676 1.005599,-0.19158 1.406582,0.46873 1.340797,2.20794 -0.0472,1.24773 0.08626,1.66499 0.624679,1.95315 1.127048,0.60317 2.091263,0.41934 2.703798,-0.51551 0.803938,-1.22696 1.709012,-1.10081 2.56985,0.3582 0.402438,0.68208 1.132494,1.39253 1.622347,1.57877 0.489853,0.18624 0.89064,0.553 0.89064,0.81503 0,0.67967 1.638371,2.12971 2.090551,1.85025 0.214718,-0.1327 0.378894,-1.36414 0.378894,-2.84197 0,-2.31085 0.723854,-6.30589 1.235205,-6.81724 0.29742,-0.29742 0.974143,0.53415 1.751439,2.15222 0.550725,1.14641 0.943004,1.51958 1.687488,1.60524 1.239164,0.14258 1.756407,-1.01257 1.319939,-2.94781 -0.428561,-1.90018 -1.3776,-3.0138 -3.525872,-4.13731 l -1.866759,-0.97629 -8.150026,0.22754 -8.150025,0.22753 -1.371425,-1.10333 c -1.566235,-1.26006 -1.73004,-1.30037 -2.332742,-0.57416 -0.241543,0.29104 -0.816606,0.52916 -1.277918,0.52916 -1.204498,0 -1.179885,-1.62358 0.03299,-2.1762 0.487731,-0.22223 1.038389,-0.90215 1.250052,-1.54349 0.246725,-0.74759 0.743551,-1.29758 1.428382,-1.58125 0.577539,-0.23922 1.312258,-0.8788 1.632709,-1.42128 0.571222,-0.967 2.150254,-1.84016 4.077534,-2.25475 1.215863,-0.26155 1.264618,-1.16623 0.07889,-1.46383 -0.490187,-0.12303 -1.058231,-0.53569 -1.262318,-0.91704 -0.313637,-0.58603 -0.144655,-0.90873 1.0918,-2.08494 1.514444,-1.44065 1.742355,-2.50184 0.585182,-2.72469 -0.887997,-0.17102 -4.07168,3.34775 -4.094831,4.52581 -0.0226,1.15011 -1.266096,3.175 -1.949788,3.175 -0.420742,0 -0.534351,-0.47256 -0.534351,-2.22266 v -2.22265 l 3.007872,-2.91074 3.007872,-2.91074 1.842822,0.10631 1.842822,0.10631 0.106205,1.83982 c 0.104781,1.81515 0.08911,1.84697 -1.168352,2.37237 -1.176915,0.49175 -1.26613,0.63257 -1.164539,1.83814 0.08598,1.02034 0.335936,1.43026 1.14403,1.87619 1.44047,0.79489 1.510482,1.37114 0.221193,1.82059 -0.721054,0.25136 -1.266648,0.77927 -1.579687,1.52848 -0.407548,0.9754 -0.701061,1.17438 -1.986595,1.34681 -2.836315,0.38043 -4.399202,2.41321 -2.745776,3.57131 0.684435,0.4794 2.119434,0.56323 9.641055,0.56323 h 8.836934 l 2.916745,2.93198 2.916749,2.93198 -0.102313,3.32983 -0.102316,3.32983 -2.223442,0.2126 c -2.505826,0.23961 -2.98003,0.54903 -2.98003,1.94448 0,0.89876 0.426946,1.42929 1.954777,2.42903 0.358041,0.23428 0.587015,1.09336 0.681701,2.55763 l 0.142571,2.20487 H 74.64131 73.119494 v -1.86973 c 0,-1.97707 -0.414461,-2.71638 -1.522811,-2.71638 -0.537126,0 -0.626791,0.1632 -0.436111,0.79375 0.13202,0.43656 0.329932,1.46843 0.439804,2.29305 l 0.199764,1.49931 h -1.633378 c -1.300329,0 -1.633379,-0.12195 -1.633379,-0.59806 0,-0.32893 -0.426576,-1.04331 -0.947946,-1.5875 -1.238186,-1.29239 -2.950275,-1.33414 -4.408056,-0.1075 -0.644431,0.54225 -1.486878,0.88194 -2.18725,0.88194 -0.661098,0 -1.640759,-0.37009 -2.334526,-0.88194 -1.525115,-1.12519 -3.152283,-1.15073 -4.171839,-0.0655 -0.421877,0.44907 -0.767049,1.16345 -0.767049,1.5875 0,0.67861 -0.190261,0.77102 -1.5875,0.77102 -0.873125,0 -1.5875,-0.0898 -1.5875,-0.19958 z m -1.270105,-25.47041 c -0.213488,-0.14255 -0.576261,-0.61637 -0.806162,-1.05293 -0.400307,-0.76015 -0.358621,-0.79375 0.984701,-0.79375 1.548072,0 1.955651,0.35588 1.61973,1.41427 -0.224467,0.70723 -1.078963,0.91271 -1.798269,0.43241 z"
         id="path130" />
      <path
         style="fill:#231911;stroke-width:0.352778"
         d="m 46.307065,141.03552 c -0.0016,-1.98858 -0.772434,-3.40185 -2.881784,-5.28331 -2.762897,-2.46439 -2.761342,-2.46197 -2.761342,-4.30122 0,-1.5261 0.148808,-1.87559 1.234722,-2.89985 2.123638,-2.00307 1.525032,-3.47881 -1.411111,-3.47881 -2.156643,0 -2.645833,-0.40869 -2.645833,-2.21042 0,-1.55457 0.385418,-2.4172 1.815624,-4.06366 1.497613,-1.72407 1.196039,-4.42396 -0.542898,-4.86041 -1.572261,-0.39461 -1.569259,-1.68889 0.0053,-2.28753 0.471193,-0.17915 0.932023,-0.56623 1.024064,-0.86019 0.09204,-0.29395 0.244369,-0.77943 0.338504,-1.07884 0.234988,-0.74741 1.435522,-0.0949 1.70229,0.92523 0.156302,0.5977 -0.01911,0.83779 -0.837878,1.14684 -1.375332,0.51913 -1.326963,1.48191 0.110961,2.20868 1.587645,0.80245 2.734027,1.91398 2.734027,2.6509 0,0.34091 -0.960108,1.45491 -2.133574,2.47556 -1.712139,1.48917 -2.112814,2.034 -2.028473,2.75825 0.09917,0.85159 0.234141,0.90858 2.391315,1.00967 2.826005,0.13244 3.534621,0.6742 3.534621,2.70233 0,1.59393 -0.365166,2.21152 -1.852084,3.13238 -0.889116,0.55063 -0.970139,0.78315 -0.970139,2.78418 0,2.09046 0.06318,2.24775 1.484563,3.69604 1.535169,1.56422 2.857315,1.9524 3.241339,0.95165 0.262564,-0.68423 0.009,-1.12326 -1.27083,-2.20014 -1.239779,-1.04321 -1.347062,-2.66504 -0.216322,-3.2702 0.699091,-0.37414 0.948628,-0.20944 2.734028,1.80447 1.080597,1.2189 2.056225,2.54953 2.168062,2.95694 0.320889,1.169 -0.241187,2.61857 -1.597464,4.11981 -0.729695,0.80768 -1.251709,1.75287 -1.251709,2.26642 0,0.74362 -0.164955,0.88093 -1.058333,0.88093 -1.027203,0 -1.058372,-0.0493 -1.059652,-1.6757 z m 4.940207,1.17519 c 0,-0.27528 0.549393,-1.01871 1.220873,-1.65206 0.67148,-0.63336 1.317015,-1.58929 1.434521,-2.1243 0.13238,-0.60272 0.674417,-1.24459 1.424961,-1.68742 0.666221,-0.39309 1.211312,-0.93357 1.211312,-1.20109 0,-0.26751 0.307147,-0.76435 0.682549,-1.10408 0.581788,-0.52651 1.010791,-0.57364 2.906004,-0.31926 2.739552,0.36771 2.961478,0.91924 1.168479,2.90387 -0.857202,0.94882 -1.244433,1.6881 -1.167688,2.2293 0.168323,1.18699 1.170634,1.0013 2.119018,-0.39257 0.449914,-0.66126 1.237234,-1.51274 1.749599,-1.89217 0.794643,-0.58848 1.105768,-0.63232 2.116667,-0.29823 0.651803,0.21541 1.628422,0.94782 2.170271,1.62758 0.541849,0.67977 1.210952,1.23594 1.486895,1.23594 0.636626,0 1.232094,1.09702 1.232094,2.26986 0,0.77052 -0.157399,0.90514 -1.058333,0.90514 -0.680198,0 -1.058333,-0.1794 -1.058333,-0.5021 0,-0.86591 -1.736083,-2.61074 -2.838574,-2.85288 -0.789895,-0.17349 -1.447117,-0.002 -2.610923,0.67962 -1.930587,1.1314 -3.145424,1.13638 -4.957448,0.0203 -0.776111,-0.47802 -1.78051,-0.86994 -2.231997,-0.87094 -1.018089,-0.002 -2.88328,1.80473 -2.88328,2.79328 0,0.57892 -0.22212,0.7327 -1.058334,0.7327 -0.67862,0 -1.058333,-0.17958 -1.058333,-0.50051 z m 22.577777,-1.59096 c 0,-1.98841 -0.534335,-3.2002 -1.411111,-3.2002 -0.908477,0 -1.411111,-1.21099 -1.411111,-3.39978 0,-3.55972 0.842303,-4.50585 2.469445,-2.77383 1.025768,1.09188 2.254115,1.13225 2.978608,0.0979 1.542771,-2.20261 -0.555981,-6.40853 -3.937416,-7.89061 -0.870991,-0.38176 -3.058449,-0.49756 -9.398657,-0.49756 h -8.263459 l -1.441017,-1.14653 c -2.061642,-1.64032 -2.228147,-2.58986 -0.691729,-3.94478 0.675005,-0.59527 1.482432,-1.49681 1.794283,-2.00344 0.367959,-0.59778 1.085335,-1.05271 2.043552,-1.29593 1.703653,-0.43244 2.451946,-0.25032 2.451946,0.59676 0,0.90041 -0.722843,1.44377 -1.922639,1.44524 -1.723003,0.002 -3.369027,1.19938 -3.369027,2.45053 0,0.67814 0.24212,1.18068 0.682363,1.41629 0.417982,0.2237 4.086957,0.36519 9.469563,0.36519 h 8.787198 l 3.054051,3.05405 3.054046,3.05405 v 2.87262 c 0,1.76389 -0.163392,3.03601 -0.423333,3.29595 -0.232834,0.23283 -1.240106,0.42333 -2.238379,0.42333 -2.29973,0 -3.177219,0.79298 -2.843854,2.56995 0.1683,0.89712 0.501653,1.30985 1.364823,1.68981 1.091967,0.48066 1.146746,0.59959 1.247161,2.7076 l 0.105026,2.20487 H 74.900217 73.825049 Z M 49.483383,115.90011 c 0,-0.19403 0.238125,-0.35278 0.529167,-0.35278 0.291042,0 0.529167,0.15875 0.529167,0.35278 0,0.19402 -0.238125,0.35277 -0.529167,0.35277 -0.291042,0 -0.529167,-0.15875 -0.529167,-0.35277 z m -3.508737,-2.43387 c -0.229027,-0.42794 -0.290707,-1.4837 -0.154424,-2.64326 l 0.226918,-1.93072 -1.20838,-0.50489 c -0.66461,-0.27769 -1.468731,-0.90224 -1.786937,-1.38788 -0.788191,-1.20293 -1.917872,-1.44717 -2.766842,-0.5982 -0.373657,0.37365 -0.679375,0.99189 -0.679375,1.37386 0,0.513 -0.161329,0.63496 -0.617361,0.4667 -0.884961,-0.32651 -1.134999,-0.81671 -1.141126,-2.23716 -0.007,-1.61452 0.512052,-2.09903 2.248544,-2.09903 1.125961,0 1.658395,0.24304 2.663472,1.2158 5.508195,5.33105 5.00508,4.6274 4.888845,6.83745 -0.08078,1.53593 -0.241242,2.02 -0.698433,2.10697 -0.326457,0.0621 -0.765163,-0.20774 -0.974901,-0.59964 z m 14.09207,-0.38836 c 0,-0.53133 0.184204,-0.72181 0.617361,-0.63839 0.339549,0.0654 0.617362,0.35267 0.617362,0.63839 0,0.28573 -0.277813,0.57301 -0.617362,0.6384 -0.433157,0.0834 -0.617361,-0.10706 -0.617361,-0.6384 z m -7.878703,0.1176 c -0.129352,-0.12936 -0.233806,-0.88342 -0.23212,-1.6757 0.0027,-1.26549 0.22199,-1.65481 1.804998,-3.2044 0.991063,-0.97013 2.382219,-2.3592 3.09146,-3.0868 1.068665,-1.09634 1.532913,-1.32292 2.710557,-1.32292 1.753184,0 2.267697,0.48025 2.267697,2.11667 0,2.02706 -1.533953,2.97924 -1.974136,1.22542 -0.404071,-1.60995 -2.682682,-1.96434 -3.150614,-0.49002 -0.115076,0.36257 -0.732996,1.09949 -1.373156,1.6376 -0.871668,0.73272 -1.224567,1.37261 -1.405428,2.54838 -0.309598,2.01271 -1.036815,2.95421 -1.739258,2.25177 z m 5.219132,-2.25649 c -0.279192,-0.45174 0.861627,-1.80435 1.295608,-1.53613 0.168096,0.10389 0.30563,0.57639 0.30563,1.05001 0,0.61721 -0.193951,0.86113 -0.684736,0.86113 -0.376604,0 -0.78903,-0.16876 -0.916502,-0.37501 z"
         id="path128" />
    </g>
  </g>
</svg>
