<?xml version="1.0" encoding="UTF-8" standalone="no"?>
<svg
   xmlns:dc="http://purl.org/dc/elements/1.1/"
   xmlns:cc="http://creativecommons.org/ns#"
   xmlns:rdf="http://www.w3.org/1999/02/22-rdf-syntax-ns#"
   xmlns:svg="http://www.w3.org/2000/svg"
   xmlns="http://www.w3.org/2000/svg"
   xmlns:sodipodi="http://sodipodi.sourceforge.net/DTD/sodipodi-0.dtd"
   xmlns:inkscape="http://www.inkscape.org/namespaces/inkscape"
   width="210mm"
   height="297mm"
   viewBox="0 0 210 297"
   version="1.1"
   id="svg920"
   sodipodi:docname="tactical_400Percent_Gaus9_OilBrush1_Course8_Sharpen20_16color.svg"
   inkscape:version="1.0.1 (3bc2e813f5, 2020-09-07)">
  <defs
     id="defs914" />
  <sodipodi:namedview
     id="base"
     pagecolor="#ffffff"
     bordercolor="#666666"
     borderopacity="1.0"
     inkscape:pageopacity="0.0"
     inkscape:pageshadow="2"
     inkscape:zoom="1.979899"
     inkscape:cx="422.73823"
     inkscape:cy="448.66353"
     inkscape:document-units="mm"
     inkscape:current-layer="layer1"
     inkscape:document-rotation="0"
     showgrid="false"
     inkscape:window-width="1973"
     inkscape:window-height="1546"
     inkscape:window-x="1856"
     inkscape:window-y="564"
     inkscape:window-maximized="0" />
  <metadata
     id="metadata917">
    <rdf:RDF>
      <cc:Work
         rdf:about="">
        <dc:format>image/svg+xml</dc:format>
        <dc:type
           rdf:resource="http://purl.org/dc/dcmitype/StillImage" />
      </cc:Work>
    </rdf:RDF>
  </metadata>
  <g
     inkscape:label="Laag 1"
     inkscape:groupmode="layer"
     id="layer1">
    <g
       id="g1020"
       transform="matrix(4.9631217,0,0,4.8019367,-482.95238,-409.95928)">
      <path
         style="fill:#fbfbfb;stroke-width:0.352778"
         d="M 97.323975,105.1691 V 85.413544 h 21.166665 21.16667 V 105.1691 124.92465 H 118.49064 97.323975 Z"
         id="path1052" />
      <path
         style="fill:#d1d0cf;stroke-width:0.352778"
         d="m 104.38168,123.07257 0.002,-1.85208 -2.70678,-2.48432 -2.706779,-2.48431 0.0029,-1.57263 c 0.0017,-0.92715 0.32556,-2.20206 0.78897,-3.10614 1.011719,-1.9738 0.790419,-2.52344 -1.016018,-2.52344 H 97.32379 v -3.7969 -3.7969 l 0.79375,-0.34824 c 0.543917,-0.23863 0.828485,-0.70831 0.904107,-1.492227 L 99.132004,98.47139 98.227897,98.059452 97.32379,97.647513 v -6.116984 -6.116985 h 3.35138 c 2.02331,0 3.35139,0.141331 3.35139,0.356646 0,0.594421 5.42718,5.991627 6.0258,5.992521 0.72134,0.0011 5.61587,-5.038596 5.61587,-5.782401 v -0.566766 h 4.54838 4.54836 l 0.19157,0.499224 c 0.25725,0.670365 -0.29207,4.388999 -0.81711,5.531468 l -0.42069,0.915414 0.36433,1.319471 c 0.50043,1.812419 0.133,2.542194 -2.37971,4.726539 -1.18919,1.03379 -2.07172,2.02598 -1.96117,2.20486 0.29964,0.48483 4.17658,0.3934 8.06405,-0.19017 5.31437,-0.797774 6.35892,-0.41256 8.33877,3.07519 0.68773,1.2115 1.75316,2.52022 2.36766,2.90828 l 1.11727,0.70556 0.0136,4.98199 0.0136,4.982 -1.42461,0.2278 c -1.73907,0.27809 -2.04567,0.92831 -1.23716,2.62376 0.33732,0.70738 0.69956,2.1217 0.80496,3.14293 l 0.19163,1.85679 h -4.9611 -4.9611 l -1.05833,-1.05833 -1.05834,-1.05833 h -4.77589 -4.77589 l -0.7193,0.77207 c -0.3956,0.42464 -0.71929,0.90089 -0.71929,1.05833 0,0.15745 -2.38125,0.28626 -5.29167,0.28626 h -5.29166 z"
         id="path1050" />
      <path
         style="fill:#b1afae;stroke-width:0.352778"
         d="m 105.08509,122.86748 v -2.05717 l -2.61772,-2.35214 c -1.80989,-1.62628 -2.692312,-2.6918 -2.859461,-3.45282 l -0.241751,-1.10069 1.114872,-2.16169 1.11486,-2.16168 -0.76393,-0.6186 c -0.43547,-0.35262 -1.353847,-0.61859 -2.135956,-0.61859 h -1.372029 v -3.1322 -3.1322 l 1.062821,-0.44024 c 1.880724,-0.77902 1.880724,-3.450594 0,-4.229614 l -1.062821,-0.440235 v -2.044469 c 0,-1.290637 0.162594,-2.120346 0.440972,-2.250256 l 0.440972,-0.205787 -0.440972,-0.205787 C 97.457958,92.12005 97.323975,91.048189 97.323975,88.735534 v -3.32199 h 3.174995 3.175 v 0.648192 c 0,0.356505 1.17151,1.834989 2.60334,3.285521 1.69207,1.714164 2.68977,3.030842 2.85025,3.76153 0.32973,1.501229 1.15662,1.431921 1.81861,-0.152431 0.29337,-0.702147 1.63465,-2.440114 2.98061,-3.862148 1.34595,-1.422034 2.44719,-2.831925 2.44719,-3.13309 v -0.547574 h 3.92956 3.92955 l -0.19653,2.167371 c -0.12662,1.396361 -0.45779,2.520738 -0.93094,3.160715 -0.86545,1.170574 -0.8982,1.595697 -0.24532,3.183692 0.30365,0.738568 0.38067,1.474781 0.20315,1.941739 -0.36391,0.957219 -3.87457,3.713704 -5.37236,4.218239 -0.62739,0.21133 -1.14072,0.60821 -1.14072,0.88194 v 0.49769 l 2.64584,0.12336 c 1.4552,0.0678 4.8056,-0.0711 7.44532,-0.30885 l 4.79948,-0.43219 1.21685,0.40159 1.21684,0.4016 1.8541,2.66699 c 1.24045,1.78429 2.19739,2.78666 2.89131,3.02856 l 1.03721,0.36157 v 4.5516 4.5516 H 138.223 c -1.6448,0 -2.79903,0.50597 -2.79903,1.22697 0,0.27313 0.34135,1.07513 0.75855,1.78224 0.80717,1.36804 1.40439,3.86807 1.10833,4.63958 l -0.17847,0.4651 h -4.47103 -4.47103 l -0.38892,-1.03037 -0.38892,-1.03038 -1.36412,-0.37877 c -1.44525,-0.40129 -7.69569,-0.45166 -9.478,-0.0764 -0.73604,0.15498 -1.21948,0.56967 -1.5875,1.36174 l -0.52916,1.13889 -4.67431,0.008 -4.6743,0.008 z"
         id="path1048" />
      <path
         style="fill:#928f8c;stroke-width:0.352778"
         d="m 105.79064,122.91271 v -2.01193 l -2.82222,-2.69982 -2.82222,-2.69982 v -1.34036 c 0,-0.8542 0.29732,-1.73631 0.81972,-2.43199 1.25454,-1.6707 1.36694,-2.25636 0.58339,-3.03992 l -0.69756,-0.69755 h -1.763886 -1.763889 v -2.78398 -2.78398 l 0.857276,-0.21516 c 1.324511,-0.33243 1.964949,-1.19525 1.964949,-2.64725 0,-1.425161 -1.116996,-2.858518 -2.227601,-2.858518 h -0.594624 v -1.387338 -1.387338 l 0.672966,-0.213591 c 1.306538,-0.414679 1.153208,-2.303399 -0.186995,-2.303399 H 97.323975 V 88.397888 85.38501 l 2.886005,0.102461 2.886,0.102462 0.2649,0.994104 c 0.14569,0.546758 1.2959,1.975508 2.55601,3.175 l 2.29111,2.180895 0.38135,1.458211 c 0.20975,0.802016 0.61834,1.654892 0.90799,1.895279 l 0.52663,0.437068 0.47208,-0.391784 c 0.25963,-0.215481 0.66946,-1.05064 0.91073,-1.855907 0.29248,-0.976219 1.25198,-2.323417 2.87932,-4.042727 1.38847,-1.466952 2.44065,-2.890708 2.44065,-3.302566 v -0.723962 h 3.39379 3.39379 l -0.1481,2.047532 -0.14811,2.047533 -0.95263,1.248961 c -1.07747,1.412642 -1.1527,1.946505 -0.41224,2.925483 0.28487,0.376633 0.51795,1.06966 0.51795,1.540059 0,1.13069 -2.50586,3.419412 -4.58611,4.188728 -2.56308,0.94787 -2.91295,1.3828 -1.91508,2.38067 0.68058,0.68058 2.25302,0.70256 10.09972,0.14118 l 5.89159,-0.42151 0.87291,0.39772 c 0.4801,0.21875 1.51572,1.34431 2.30138,2.50125 1.58343,2.3317 2.96565,3.58017 3.96372,3.58017 h 0.65798 v 4.23333 4.23334 h -1.8856 -1.8856 l -0.65517,0.72394 -0.65516,0.72395 1.12965,2.05484 c 0.75612,1.37538 1.12965,2.53579 1.12965,3.50938 v 1.45455 h -3.97672 -3.97672 l -0.66415,-1.23326 c -0.86403,-1.6044 -2.09618,-1.93726 -7.18054,-1.93977 -4.66022,-0.002 -6.08332,0.43364 -6.76167,2.0713 l -0.45635,1.10173 h -4.01414 -4.01415 z"
         id="path1046" />
      <path
         style="fill:#8a827a;stroke-width:0.352778"
         d="m 106.07658,122.58407 -0.14904,-2.34059 -1.03859,-0.87591 c -0.57122,-0.48176 -1.79265,-1.55176 -2.71428,-2.37777 l -1.6757,-1.50186 v -1.21838 c 0,-0.77021 0.39918,-1.82103 1.08518,-2.8567 0.68393,-1.03255 1.00752,-1.88298 0.87516,-2.3 -0.28556,-0.89972 -1.67476,-1.47432 -3.564434,-1.47432 h -1.570901 v -2.47826 -2.47827 l 1.070989,-0.21419 c 1.370666,-0.27414 2.104006,-1.33291 2.104006,-3.037697 0,-1.528822 -1.235789,-3.080469 -2.453404,-3.080469 h -0.721591 v -1.058333 -1.058333 h 0.635 c 0.848086,0 1.481667,-0.678836 1.481667,-1.5875 0,-0.908664 -0.633581,-1.5875 -1.481667,-1.5875 h -0.635 v -2.822222 -2.822222 h 2.822225 2.82222 v 0.919543 c 0,0.65882 0.69074,1.634066 2.43617,3.439583 1.75212,1.812438 2.54719,2.936573 2.83155,4.00347 0.21745,0.815886 0.64775,1.73581 0.95622,2.044276 l 0.56084,0.560847 0.74897,-0.497294 c 0.41193,-0.273512 0.94586,-1.177371 1.18652,-2.008577 0.30132,-1.04073 1.13943,-2.238297 2.69177,-3.846245 1.40906,-1.459535 2.34812,-2.762492 2.50467,-3.475282 l 0.25046,-1.140321 h 3.01427 3.01426 l -0.15821,1.907781 c -0.0904,1.089771 -0.44944,2.319879 -0.83743,2.868884 -0.37358,0.528606 -0.86958,1.291633 -1.10224,1.695615 l -0.42301,0.734514 0.6876,1.112548 c 0.37817,0.611901 0.68759,1.351404 0.68759,1.643339 0,0.944072 -3.02929,3.396024 -4.72235,3.822341 -2.78219,0.700564 -3.38298,2.275104 -1.21133,3.174624 l 1.07117,0.4437 7.3882,-0.44014 7.3882,-0.44014 0.84322,0.5525 c 0.46377,0.30387 1.35258,1.309 1.97514,2.2336 1.73152,2.5716 2.44602,3.2383 3.72833,3.47886 l 1.17831,0.22105 v 3.84129 3.8413 h -1.86178 c -2.01443,0 -3.43387,0.70299 -3.42387,1.6957 0.003,0.32854 0.47685,1.3911 1.05231,2.36124 0.71352,1.20287 1.04822,2.24076 1.05232,3.2632 l 0.006,1.4993 h -3.83646 -3.83646 l -0.20846,-1.04232 c -0.11861,-0.59303 -0.62609,-1.31534 -1.1773,-1.6757 l -0.96884,-0.63337 h -5.42374 -5.42375 l -0.85138,0.98981 c -0.46827,0.5444 -0.85139,1.29846 -0.85139,1.6757 v 0.68588 h -3.83946 -3.83946 z"
         id="path1044" />
      <path
         style="fill:#837b72;stroke-width:0.352778"
         d="m 106.14342,122.96118 c 0,-2.26365 -0.36315,-3.09626 -1.89684,-4.34902 -0.60597,-0.49498 -1.71756,-1.50146 -2.4702,-2.23663 l -1.36842,-1.33667 0.20191,-1.24423 c 0.11105,-0.68433 0.60778,-1.72658 1.10384,-2.31612 1.85253,-2.20161 0.83322,-3.83997 -2.389041,-3.83997 h -2.000694 v -2.42534 -2.42535 l 1.112905,-0.22258 c 1.72049,-0.3441 2.06209,-0.81777 2.06209,-2.859317 v -1.848976 l -0.930046,-0.93005 c -0.511527,-0.511528 -1.225902,-0.930051 -1.5875,-0.930051 -1.027371,0 -0.831543,-1.290928 0.236493,-1.558988 0.992849,-0.249189 1.787083,-1.614141 1.450142,-2.492189 -0.119962,-0.312616 -0.696457,-0.735144 -1.281099,-0.938951 l -1.062985,-0.370559 v -2.611322 -2.611323 h 2.617803 2.617802 l 0.24971,1.146528 c 0.16091,0.738847 1.07848,1.988682 2.58048,3.514935 1.6518,1.678465 2.48644,2.850787 2.86513,4.024296 0.29389,0.910738 0.81216,1.828517 1.15171,2.039509 l 0.61736,0.383622 0.61737,-0.384711 c 0.33954,-0.21159 0.89185,-1.226511 1.22735,-2.255378 l 0.61,-1.870667 2.30042,-2.382822 c 1.62993,-1.688314 2.30042,-2.649874 2.30042,-3.299067 v -0.916245 h 2.99861 2.99861 l -0.002,0.970139 c -0.003,1.655295 -0.66369,3.455503 -1.585,4.321023 -0.99586,0.935567 -1.16969,2.497963 -0.35331,3.175504 0.29105,0.241543 0.52917,0.796388 0.52917,1.232988 0,1.068421 -2.7426,3.558412 -4.27126,3.877848 -2.68616,0.561314 -3.73014,2.377624 -1.92263,3.344974 l 0.86167,0.46115 7.75722,-0.25659 c 4.26647,-0.14112 8.07087,-0.15704 8.45423,-0.0354 0.38336,0.12167 1.37025,1.25454 2.19308,2.51748 1.7021,2.61248 2.54296,3.32141 3.93952,3.32141 h 0.97984 v 3.85346 3.85346 l -1.85209,-0.0386 c -1.01864,-0.0212 -2.20927,0.15529 -2.64583,0.39229 -1.06688,0.57917 -1.04465,2.23571 0.0496,3.69281 0.95708,1.27448 1.43412,3.05932 1.09948,4.11367 l -0.22645,0.71348 h -3.68039 -3.68039 v -0.82045 c 0,-0.45124 -0.40967,-1.20531 -0.91037,-1.67569 l -0.91036,-0.85525 h -5.75538 -5.75537 l -0.7426,0.67204 c -0.42345,0.38322 -0.74259,1.10338 -0.74259,1.6757 v 1.00365 h -3.88056 -3.88055 z"
         id="path1042" />
      <path
         style="fill:#746f6c;stroke-width:0.352778"
         d="m 106.28583,122.5859 -0.034,-2.33699 -2.75589,-2.52499 -2.75589,-2.52499 0.0325,-1.14415 c 0.0194,-0.6821 0.46935,-1.73814 1.11418,-2.61497 1.27088,-1.72813 1.3221,-2.14971 0.37609,-3.09571 l -0.70555,-0.70556 h -2.116668 -2.116667 v -2.46944 -2.46945 h 0.990907 c 1.525586,0 2.236088,-0.73264 2.415628,-2.49089 l 0.15991,-1.56605 -0.74235,-1.183761 c -0.408287,-0.651069 -1.210738,-1.36056 -1.783219,-1.576648 -1.242288,-0.468911 -1.289784,-0.663304 -0.274799,-1.124688 0.421342,-0.19153 1.091609,-0.790519 1.489482,-1.331088 L 100.3029,92.443674 99.930013,91.839026 C 99.724965,91.506469 99.054698,91.082486 98.44057,90.89684 l -1.116595,-0.337536 v -2.57288 -2.57288 h 2.600745 2.60075 l 0.21726,1.358723 0.21727,1.358722 2.42036,2.270628 2.42035,2.270628 0.25954,1.397732 c 0.64189,3.456908 3.31873,3.567231 3.86369,0.159237 l 0.23382,-1.462235 2.46088,-2.599977 2.46089,-2.599978 v -1.07674 -1.07674 h 2.82222 2.82222 v 1.730511 1.730511 l -1.23472,1.477867 c -1.42537,1.706062 -1.51686,2.368387 -0.50487,3.654932 0.43375,0.551419 0.6457,1.193032 0.52241,1.581462 -0.3442,1.084495 -3.03153,2.984839 -4.91001,3.472109 -2.44955,0.635405 -3.05811,1.820674 -1.60841,3.132634 l 0.73106,0.6616 2.35574,0.0104 c 1.29566,0.006 5.01947,-0.11618 8.27514,-0.27092 l 5.91939,-0.28136 0.95978,1.01721 c 0.52787,0.55947 1.35665,1.6977 1.84172,2.52941 1.04643,1.79424 1.90705,2.43009 3.44802,2.54751 l 1.13809,0.0867 -0.001,3.71733 -0.001,3.71732 h -2.07904 -2.07903 l -0.7422,0.67204 c -0.99578,0.90164 -0.93509,2.0432 0.17901,3.36724 0.9838,1.16918 1.64813,3.32494 1.33718,4.33919 l -0.18913,0.61736 h -3.68039 -3.68039 v -1.0036 c 0,-1.58538 -1.02225,-2.20616 -4.22252,-2.5642 -3.61061,-0.40396 -9.37296,0.0788 -10.144,0.84984 -0.30181,0.30182 -0.56625,1.03648 -0.58764,1.63258 l -0.0389,1.08382 -3.70417,-7e-5 -3.70416,-8e-5 -0.034,-2.33699 z"
         id="path1040" />
      <path
         style="fill:#83572c;stroke-width:0.352778"
         d="m 106.73602,122.62247 c -0.11824,-1.2662 -0.3596,-2.56061 -0.53636,-2.87646 -0.17676,-0.31584 -1.33328,-1.3894 -2.57006,-2.38568 l -2.24868,-1.81142 -0.11046,-1.32561 -0.11046,-1.32562 1.0806,-1.23073 c 1.2499,-1.42356 1.37741,-2.67326 0.37504,-3.67563 l -0.70555,-0.70556 h -2.29306 -2.293055 v -2.11666 -2.11667 h 1.234722 c 0.788893,0 1.505633,-0.27091 1.985013,-0.75029 l 0.7503,-0.75029 -0.20227,-1.959767 c -0.11912,-1.154162 -0.50005,-2.362541 -0.92668,-2.939589 -0.85125,-1.151374 -0.886614,-1.64623 -0.184032,-2.575127 0.284872,-0.376633 0.517942,-1.184589 0.517942,-1.795457 v -1.11067 l -0.898539,-0.409404 c -0.494199,-0.225172 -1.208574,-0.409403 -1.5875,-0.409403 h -0.688956 v -2.469445 -2.469444 h 2.423286 2.423289 l 0.20789,1.281095 0.20789,1.281095 2.43886,2.515201 2.43885,2.515201 0.24715,1.462833 c 0.34087,2.017619 0.92784,2.703833 2.31278,2.703833 1.39796,0 1.96139,-0.674672 2.26736,-2.715013 l 0.22603,-1.507268 1.95548,-1.916405 c 2.1764,-2.132905 2.95947,-3.382096 2.95947,-4.721109 v -0.899463 h 2.46944 2.46945 v 1.762872 1.762873 l -1.23473,1.36669 c -1.34245,1.485936 -1.64147,3.150261 -0.70555,3.927009 0.88651,0.735738 0.59997,1.648307 -0.92832,2.956459 -0.96942,0.829795 -1.96821,1.324139 -2.9827,1.47627 -2.05231,0.307763 -2.73256,0.866442 -2.69428,2.212763 0.0173,0.60841 0.12821,1.26276 0.24647,1.4541 0.56745,0.91817 3.09773,1.09659 10.29069,0.72564 l 7.27882,-0.37538 0.76518,0.50136 c 0.42085,0.27576 1.37663,1.54689 2.12395,2.82475 1.42647,2.43917 1.67013,2.61527 3.80366,2.74913 l 1.32292,0.083 v 3.42211 3.4221 l -1.38981,-0.18641 c -3.9836,-0.53431 -5.8747,2.08313 -3.54611,4.90812 0.68406,0.82988 1.13999,1.86163 1.28267,2.9026 l 0.22137,1.61505 h -3.38574 -3.38574 l -0.38716,-1.43779 -0.38716,-1.4378 -1.30213,-0.55089 -1.30214,-0.55088 -5.1792,0.0175 c -3.56073,0.012 -5.48995,0.16498 -6.17361,0.48938 l -0.99441,0.47184 -0.33234,1.49931 -0.33234,1.4993 h -3.05623 -3.05623 z"
         id="path1038" />
      <path
         style="fill:#554f4a;stroke-width:0.352778"
         d="m 106.73602,122.62247 c -0.11824,-1.2662 -0.3596,-2.56061 -0.53636,-2.87646 -0.17676,-0.31584 -1.33328,-1.3894 -2.57006,-2.38568 l -2.24868,-1.81142 -0.11046,-1.32561 -0.11046,-1.32562 1.0806,-1.23073 c 1.2499,-1.42356 1.37741,-2.67326 0.37504,-3.67563 l -0.70555,-0.70556 h -2.29306 -2.293055 v -2.11666 -2.11667 h 1.234722 c 0.788893,0 1.505633,-0.27091 1.985013,-0.75029 l 0.7503,-0.75029 -0.20227,-1.959767 c -0.11912,-1.154162 -0.50005,-2.362541 -0.92668,-2.939589 -0.85125,-1.151374 -0.886614,-1.64623 -0.184032,-2.575127 0.284872,-0.376633 0.517942,-1.184589 0.517942,-1.795457 v -1.11067 l -0.898539,-0.409404 c -0.494199,-0.225172 -1.208574,-0.409403 -1.5875,-0.409403 h -0.688956 v -2.469445 -2.469444 h 2.429389 2.429386 l 0.24431,1.675694 0.2443,1.675695 1.29506,1.356124 c 0.71228,0.745868 1.65419,1.496743 2.09314,1.668611 0.86196,0.337495 1.25747,1.069202 1.85347,3.428946 0.43526,1.723339 1.51663,2.39787 2.9627,1.848073 0.88293,-0.335691 1.06928,-0.706588 1.45804,-2.9021 l 0.23074,-1.303124 2.10972,-2.012332 c 2.15449,-2.055035 2.75808,-3.056591 2.75808,-4.576608 v -0.858979 h 2.46944 2.46945 v 1.762872 1.762873 l -1.23473,1.36669 c -1.34245,1.485936 -1.64147,3.150261 -0.70555,3.927009 0.88651,0.735738 0.59997,1.648307 -0.92832,2.956459 -0.96942,0.829795 -1.96821,1.324139 -2.9827,1.47627 -2.05231,0.307763 -2.73256,0.866442 -2.69428,2.212763 0.0173,0.60841 0.12821,1.26276 0.24647,1.4541 0.56745,0.91817 3.09773,1.09659 10.29069,0.72564 l 7.27882,-0.37538 0.7867,0.51547 c 0.94569,0.61964 3.18078,4.40406 3.03334,5.13602 -0.0575,0.28567 -0.41612,0.73758 -0.79684,1.00425 -0.9351,0.65497 -0.76901,2.35691 0.23001,2.35691 h 0.70555 l 0.10949,-1.32292 c 0.0602,-0.7276 0.26803,-1.32292 0.46179,-1.32292 0.19377,0 0.23904,-0.18328 0.10059,-0.40728 -0.13958,-0.22584 -0.0983,-0.31244 0.0928,-0.19439 0.18947,0.1171 1.00775,0.25204 1.8184,0.29987 l 1.47392,0.087 v 3.42523 3.42524 l -1.38981,-0.18641 c -3.9836,-0.53431 -5.8747,2.08313 -3.54611,4.90812 0.68406,0.82988 1.13999,1.86163 1.28267,2.9026 l 0.22137,1.61505 h -3.38574 -3.38574 l -0.38716,-1.43779 -0.38716,-1.4378 -1.30213,-0.55089 -1.30214,-0.55088 -5.1792,0.0175 c -3.56073,0.012 -5.48995,0.16498 -6.17361,0.48938 l -0.99441,0.47184 -0.33234,1.49931 -0.33234,1.4993 h -3.05623 -3.05623 z m 7.73705,-8.89851 c 0.32165,-0.53358 1.04848,-1.66195 1.61519,-2.5075 1.26813,-1.8921 1.19341,-2.90013 -0.24345,-3.284 -1.55397,-0.41515 -2.14891,-0.0911 -3.16253,1.72245 -1.31538,2.35347 -1.39861,2.98766 -0.53597,4.08432 0.95338,1.21203 1.58945,1.20786 2.32676,-0.0153 z m 13.80601,-0.17639 c 0.19241,-0.24254 0.4312,-1.20148 0.53064,-2.13098 0.0994,-0.92951 0.45163,-1.98926 0.78262,-2.355 0.86803,-0.95916 0.56222,-1.92875 -0.65223,-2.06796 -1.23031,-0.14102 -5.57653,0.88656 -6.44944,1.52485 l -0.63258,0.46256 0.34475,0.89453 c 0.37933,0.98426 4.23889,4.04591 5.15224,4.08709 0.31579,0.0142 0.73159,-0.17256 0.924,-0.41509 z m -20.4827,-10.55663 c 0.44906,-0.42188 0.81648,-1.00469 0.81648,-1.29514 0,-0.74799 -1.05284,-1.818368 -1.78858,-1.818368 -0.716,0 -3.58701,3.106578 -3.30007,3.570848 0.10527,0.17034 0.92587,0.30971 1.82354,0.30971 h 1.63214 z m 8.93037,-8.228786 c 0,-0.291041 -0.14938,-0.529166 -0.33196,-0.529166 -0.44484,0 -0.76344,0.550894 -0.4816,0.832739 0.3973,0.397292 0.81356,0.241966 0.81356,-0.303573 z"
         id="path1036" />
      <path
         style="fill:#724c27;stroke-width:0.352778"
         d="m 107.11808,123.20189 c 0.22873,-2.3804 -0.41689,-4.09065 -1.97344,-5.22772 -3.83824,-2.80386 -4.32011,-3.93984 -2.5341,-5.974 1.38036,-1.57214 1.65021,-2.71723 0.90749,-3.85078 -0.80616,-1.23034 -2.1533,-1.67141 -4.341972,-1.42162 l -1.852083,0.21138 v -1.76697 -1.76697 h 1.562302 c 0.949903,0 1.779603,-0.2173 2.116663,-0.55437 0.74623,-0.74622 0.73303,-4.276504 -0.023,-6.166142 l -0.57743,-1.443123 0.43903,-1.330279 0.43903,-1.330278 -0.55411,-1.071543 c -0.5952,-1.150988 -1.201091,-1.50982 -2.549343,-1.50982 h -0.853092 v -2.293056 -2.293055 h 2.247968 2.247967 l 0.23823,1.489803 0.23823,1.489804 2.27691,2.243569 c 1.2523,1.233963 2.36597,2.666989 2.47483,3.184502 0.10885,0.517513 0.2797,1.337807 0.37965,1.822877 0.44168,2.143382 2.8283,2.865252 4.29861,1.300179 0.42188,-0.449067 0.76793,-0.965005 0.76902,-1.146527 0.008,-1.342212 1.00829,-3.344522 2.43916,-4.882545 2.26151,-2.43085 2.85054,-3.365231 2.85054,-4.521824 v -0.979838 h 2.11666 2.11667 v 1.508799 1.5088 l -1.41111,1.878011 c -1.57974,2.10243 -1.62139,2.277589 -0.87977,3.699575 0.28984,0.555756 0.52699,1.213998 0.52699,1.462761 0,0.825322 -2.3335,2.530139 -3.77972,2.761398 -3.06401,0.489955 -4.32087,3.009242 -2.40108,4.812792 l 0.87475,0.82178 8.62051,-0.20356 8.62052,-0.20357 0.55889,0.61758 c 0.3074,0.33967 0.55891,0.76982 0.55891,0.9559 0,0.18608 0.46979,0.88796 1.04399,1.55972 1.24165,1.45263 1.3267,2.12776 0.34529,2.74066 -0.97569,0.60933 -0.82862,2.3613 0.19822,2.3613 h 0.70555 l 0.11122,-1.35183 0.11121,-1.35183 0.535,0.2053 c 0.29425,0.11292 1.15702,0.2053 1.91726,0.2053 h 1.38226 v 2.82222 2.82223 h -2.32019 -2.3202 l -1.03119,1.03119 c -1.37976,1.37975 -1.33327,2.58445 0.17054,4.41965 0.8122,0.99118 1.24091,1.91778 1.32257,2.85856 l 0.12083,1.39198 -2.91007,0.10246 -2.91007,0.10246 v -0.73734 c 0,-1.2021 -1.02288,-2.82109 -2.04537,-3.23736 -0.57238,-0.23302 -3.4143,-0.38285 -7.11291,-0.375 l -6.15968,0.0131 -0.80769,0.93899 c -0.50364,0.58552 -0.80768,1.39638 -0.80768,2.15404 v 1.21505 h -2.94683 -2.94683 z m 7.35499,-9.47793 c 0.32165,-0.53358 1.04848,-1.66195 1.61519,-2.5075 1.26813,-1.8921 1.19341,-2.90013 -0.24345,-3.284 -1.55397,-0.41515 -2.14891,-0.0911 -3.16253,1.72245 -1.31538,2.35347 -1.39861,2.98766 -0.53597,4.08432 0.95338,1.21203 1.58945,1.20786 2.32676,-0.0153 z m 13.80601,-0.17639 c 0.19241,-0.24254 0.4312,-1.20148 0.53064,-2.13098 0.0994,-0.92951 0.45163,-1.98926 0.78262,-2.355 0.86803,-0.95916 0.56222,-1.92875 -0.65223,-2.06796 -1.23031,-0.14102 -5.57653,0.88656 -6.44944,1.52485 l -0.63258,0.46256 0.34475,0.89453 c 0.37933,0.98426 4.23889,4.04591 5.15224,4.08709 0.31579,0.0142 0.73159,-0.17256 0.924,-0.41509 z m -20.4827,-10.55663 c 0.44906,-0.42188 0.81648,-1.00469 0.81648,-1.29514 0,-0.74799 -1.05284,-1.818368 -1.78858,-1.818368 -0.716,0 -3.58701,3.106578 -3.30007,3.570848 0.10527,0.17034 0.92587,0.30971 1.82354,0.30971 h 1.63214 z m 8.93037,-8.228786 c 0,-0.291041 -0.14938,-0.529166 -0.33196,-0.529166 -0.44484,0 -0.76344,0.550894 -0.4816,0.832739 0.3973,0.397292 0.81356,0.241966 0.81356,-0.303573 z"
         id="path1034" />
      <path
         style="fill:#564432;stroke-width:0.352778"
         d="m 107.11808,123.20189 c 0.22873,-2.3804 -0.41689,-4.09065 -1.97344,-5.22772 -3.83824,-2.80386 -4.32011,-3.93984 -2.5341,-5.974 1.38036,-1.57214 1.65021,-2.71723 0.90749,-3.85078 -0.80616,-1.23034 -2.1533,-1.67141 -4.341972,-1.42162 l -1.852083,0.21138 v -1.73292 -1.73293 l 1.849585,-0.12474 1.84958,-0.12474 0.61986,0.61986 0.61986,0.61986 2.20486,-0.005 c 2.53571,-0.006 3.72654,-0.49341 4.47851,-1.83314 l 0.53109,-0.9462 -0.7667,-1.5781 -0.7667,-1.578098 -0.81206,0.194347 c -0.44663,0.106891 -1.44705,0.799335 -2.22316,1.538771 -0.77611,0.73943 -1.84768,1.50846 -2.38125,1.70895 l -0.97014,0.36454 v -2.10079 c 0,-1.155441 -0.25788,-2.7453 -0.57306,-3.533024 l -0.57307,-1.432225 0.58612,-1.863425 c 0.79322,-2.521846 0.559,-2.952793 -1.76246,-3.242841 l -1.910865,-0.238747 v -2.252407 -2.252407 h 2.293055 2.29306 l 0.0603,0.970139 c 0.0332,0.533576 0.0729,1.320319 0.0882,1.748316 0.0304,0.848942 3.24012,4.3371 3.99091,4.3371 0.53685,0 1.02159,1.056552 1.31305,2.861984 0.29644,1.836238 1.11756,2.42792 3.30115,2.378725 1.07818,-0.02429 1.83697,-0.203413 1.84743,-0.436104 0.17894,-3.983884 1.31269,-6.119842 3.93778,-7.418687 l 0.80698,-0.399276 0.32168,-2.021098 0.32168,-2.021099 h 2.05957 2.05957 v 1.642123 1.642122 l -1.41111,1.342358 c -1.53308,1.458378 -1.7287,2.340835 -0.87977,3.968582 0.28984,0.555756 0.52699,1.213998 0.52699,1.462761 0,0.740205 -2.41845,2.636917 -3.45186,2.707176 -0.52682,0.03582 -1.27536,0.09955 -1.66342,0.141626 -0.38805,0.04208 -0.96248,0.09215 -1.27651,0.111266 l -0.57096,0.03476 -0.0434,1.881622 -0.0434,1.88163 0.87173,0.81895 0.87173,0.81894 8.62051,-0.20356 8.62052,-0.20357 0.4707,0.5898 c 0.95306,1.1942 1.45334,2.32013 1.08539,2.44278 -0.19987,0.0666 -0.28773,0.41046 -0.19526,0.76408 0.0925,0.35362 0.005,1.23265 -0.19369,1.95339 -0.42473,1.53826 -0.0553,2.79748 0.98402,3.35369 l 0.71435,0.38231 0.71365,-0.71364 c 0.39916,-0.39916 0.71364,-1.18002 0.71364,-1.77198 v -1.05833 h 1.5875 1.5875 v 2.82222 2.82223 h -2.32019 -2.3202 l -1.03119,1.03119 c -1.37976,1.37975 -1.33327,2.58445 0.17054,4.41965 0.8122,0.99118 1.24091,1.91778 1.32257,2.85856 l 0.12083,1.39198 -2.91007,0.10246 -2.91007,0.10246 v -0.73734 c 0,-1.2021 -1.02288,-2.82109 -2.04537,-3.23736 -0.57238,-0.23302 -3.4143,-0.38285 -7.11291,-0.375 l -6.15968,0.0131 -0.80769,0.93899 c -0.50364,0.58552 -0.80768,1.39638 -0.80768,2.15404 v 1.21505 h -2.94683 -2.94683 z m 7.24665,-7.02048 c 0.31326,-0.34614 0.95973,-1.51161 1.43662,-2.58992 0.85421,-1.93153 2.63255,-3.83628 3.58168,-3.83628 0.26701,0 0.99564,0.63484 1.61919,1.41075 0.6874,0.85539 1.60683,1.54139 2.33555,1.7426 0.66102,0.18251 1.86489,0.86904 2.67528,1.52561 0.81038,0.65657 1.74704,1.29455 2.08147,1.41775 l 0.60804,0.22399 0.53849,-1.81327 c 0.29616,-0.9973 0.53848,-2.15411 0.53848,-2.5707 0,-0.41659 0.50589,-1.52119 1.1242,-2.45467 l 1.1242,-1.69723 -0.78663,-0.63697 c -1.29007,-1.04464 -3.45446,-1.16849 -6.04788,-0.34607 -3.75752,1.19157 -5.45331,1.25802 -9.31756,0.36507 l -3.45331,-0.79799 -0.31194,0.49265 c -0.17157,0.27095 -0.32,1.04827 -0.32985,1.72737 -0.01,0.67909 -0.24477,1.63159 -0.52206,2.11666 -0.27729,0.48507 -0.50979,1.27745 -0.51667,1.76084 -0.012,0.84367 2.27162,4.58916 2.79801,4.58916 0.14032,0 0.51144,-0.2832 0.82469,-0.62935 z m 2.7148,-21.066478 0.43917,-0.529166 -0.43917,-0.529167 c -0.24154,-0.291042 -0.63934,-0.529167 -0.884,-0.529167 -0.59564,0 -0.8962,1.253685 -0.41575,1.73414 0.5124,0.512396 0.77763,0.482472 1.29975,-0.14664 z"
         id="path1032" />
      <path
         style="fill:#6c451a;stroke-width:0.352778"
         d="m 107.12564,122.04378 -0.16678,-2.88087 -1.20147,-1.03397 c -3.46198,-2.97934 -4.20008,-3.69554 -4.20008,-4.07543 0,-0.22864 0.55562,-1.03072 1.23472,-1.7824 l 1.23472,-1.36669 v -1.2488 -1.2488 l -1.13544,-0.95542 -1.13545,-0.95541 -2.21594,0.17788 -2.215945,0.17787 v -1.75427 -1.75428 l 1.499306,0.24911 c 0.824618,0.13702 1.917139,0.46286 2.427819,0.7241 l 0.92852,0.47499 2.76816,-0.31043 2.76816,-0.31044 0.80124,-0.93149 c 0.91221,-1.06051 0.98145,-1.75631 0.29765,-2.99107 l -0.47858,-0.864195 0.88419,-0.458722 c 0.4863,-0.252297 1.19488,-0.458722 1.57461,-0.458722 1.21615,0 2.40392,-1.940459 2.40392,-3.927259 v -1.071838 l 1.25825,-1.113967 c 2.09565,-1.855343 3.12337,-3.455492 3.32085,-5.170519 l 0.1834,-1.592805 2.02848,-0.1058 2.02847,-0.105799 v 1.441545 1.441546 l -1.59953,1.662865 c -1.7723,1.842482 -2.17849,2.829171 -1.60547,3.89987 0.59725,1.115968 0.45693,1.989681 -0.48232,3.003147 -0.56518,0.609839 -1.2321,0.933458 -1.92368,0.933458 -1.12849,0 -2.74797,0.603209 -3.47303,1.293604 -0.25577,0.243546 -0.44097,1.296451 -0.44097,2.507081 v 2.08718 l 0.63982,0.57903 c 0.44542,0.4031 0.75196,0.46688 1.00893,0.20991 0.22982,-0.22982 2.81737,-0.37102 6.85671,-0.37416 3.56818,-0.003 7.23529,-0.18038 8.14915,-0.39469 l 1.66155,-0.38965 0.89609,0.40829 c 0.53677,0.24457 0.89608,0.6992 0.89608,1.13381 0,0.39904 0.26268,1.12642 0.58372,1.6164 l 0.58372,0.89087 -0.38654,1.65435 -0.38654,1.65436 0.62904,1.23473 c 0.35749,0.70171 0.94296,1.28145 1.35625,1.34298 0.85108,0.12671 1.85368,-1.11243 1.85368,-2.29101 0,-0.85223 0.9208,-1.52142 2.09348,-1.52142 h 0.72875 v 2.86779 2.86779 l -2.08812,-0.23624 -2.08812,-0.23625 -1.25891,1.10534 c -0.73684,0.64696 -1.43682,1.69913 -1.68791,2.53719 l -0.42899,1.43185 0.81633,0.56391 c 1.91506,1.32288 2.50238,2.11386 2.50238,3.37009 v 1.25075 l -2.73402,-0.002 -2.73403,-0.002 -0.0557,-1.45507 c -0.0366,-0.95544 -0.31177,-1.71108 -0.80136,-2.20067 l -0.74561,-0.74537 -6.60697,-0.12834 c -3.63384,-0.0706 -6.86286,-0.26387 -7.17561,-0.4295 -1.09339,-0.57906 -1.8361,0.45756 -2.00547,2.79911 l -0.15653,2.16407 h -2.55811 -2.5581 z m 7.23909,-5.86237 c 0.31326,-0.34614 0.95973,-1.51161 1.43662,-2.58992 0.85421,-1.93153 2.63255,-3.83628 3.58168,-3.83628 0.26701,0 0.99564,0.63484 1.61919,1.41075 0.6874,0.85539 1.60683,1.54139 2.33555,1.7426 0.66102,0.18251 1.86489,0.86904 2.67528,1.52561 0.81038,0.65657 1.74704,1.29455 2.08147,1.41775 l 0.60804,0.22399 0.53849,-1.81327 c 0.29616,-0.9973 0.53848,-2.15411 0.53848,-2.5707 0,-0.41659 0.50589,-1.52119 1.1242,-2.45467 l 1.1242,-1.69723 -0.81051,-0.6563 c -0.44577,-0.36097 -1.09718,-0.65631 -1.44757,-0.65631 -0.3504,0 -0.69,-0.14421 -0.75467,-0.32046 -0.14061,-0.38319 -0.80389,-0.49777 -2.23426,-0.38597 l -1.05833,0.0827 0.69939,0.17713 c 0.4903,0.12418 0.0684,0.37518 -1.41111,0.83957 -3.5855,1.12541 -5.322,1.18275 -9.13501,0.30165 l -3.45331,-0.79799 -0.31194,0.49265 c -0.17157,0.27095 -0.32,1.04827 -0.32985,1.72737 -0.01,0.67909 -0.24477,1.63159 -0.52206,2.11666 -0.27729,0.48507 -0.50979,1.27745 -0.51667,1.76084 -0.012,0.84367 2.27162,4.58916 2.79801,4.58916 0.14032,0 0.51144,-0.2832 0.82469,-0.62935 z m 2.7148,-21.066478 0.43917,-0.529166 -0.43917,-0.529167 c -0.24154,-0.291042 -0.63934,-0.529167 -0.884,-0.529167 -0.59564,0 -0.8962,1.253685 -0.41575,1.73414 0.5124,0.512396 0.77763,0.482472 1.29975,-0.14664 z m -14.19231,6.266398 c -0.35638,-0.0828 -0.74645,-0.68212 -0.93739,-1.440224 -0.17986,-0.714118 -0.52722,-2.118939 -0.7719,-3.121824 l -0.44487,-1.823429 0.60052,-0.91651 0.60052,-0.916511 -0.36862,-1.368926 c -0.41009,-1.522957 -0.84241,-1.794251 -2.859247,-1.794251 h -1.382258 v -2.293056 -2.293055 h 2.293055 2.29306 v 1.710189 1.710189 l 2.11862,2.020822 c 2.50831,2.392524 2.66543,2.656646 2.98391,5.015893 0.17586,1.302766 0.11934,1.891625 -0.20055,2.089327 l -0.44543,0.275289 0.68214,0.267128 0.68214,0.267127 -0.6922,0.0248 c -0.38071,0.01364 -1.33321,0.63321 -2.11667,1.376822 -0.84102,0.79826 -1.67446,1.29394 -2.03483,1.21021 z"
         id="path1030" />
      <path
         style="fill:#4b3928;stroke-width:0.352778"
         d="m 107.12564,122.04378 -0.16678,-2.88087 -1.20147,-1.03397 c -3.46198,-2.97934 -4.20008,-3.69554 -4.20008,-4.07543 0,-0.22864 0.55562,-1.03072 1.23472,-1.7824 l 1.23472,-1.36669 v -1.2488 -1.2488 l -1.13544,-0.95542 -1.13545,-0.95541 -2.21594,0.17788 -2.215945,0.17787 v -1.75427 -1.75428 l 1.499306,0.24911 c 0.824618,0.13702 1.927979,0.46847 2.451929,0.73657 0.52394,0.2681 1.67166,0.48745 2.5505,0.48745 0.87883,0 2.25182,0.26166 3.05108,0.58146 l 1.4532,0.58145 0.67692,1.57919 0.67692,1.5792 -0.20737,1.63171 -0.20737,1.63171 1.21655,2.00007 c 0.6691,1.10004 1.47041,2.74513 1.78069,3.65575 l 0.56414,1.65567 -0.22029,2.60606 -0.22029,2.60606 h -2.54874 -2.54874 z m 22.77453,1.42181 c -0.0364,-0.94938 -0.31174,-1.71105 -0.79236,-2.19167 l -0.73662,-0.73662 -6.85229,-0.18757 c -3.76877,-0.10317 -6.98027,-0.31606 -7.13667,-0.47308 -0.3205,-0.3218 1.23567,-3.46162 2.75555,-5.55976 1.12164,-1.54838 1.72994,-1.69627 2.96878,-0.7218 0.46489,0.36568 1.57385,0.77414 2.46436,0.90768 1.09492,0.16419 2.0385,0.61364 2.91455,1.38825 2.21398,1.95763 3.89678,3.10556 4.24086,2.8929 0.18153,-0.11219 0.3432,-1.13696 0.35925,-2.27726 0.0321,-2.28259 0.39635,-3.54744 1.21782,-4.2292 l 0.53903,-0.44735 1.42394,0.72644 c 0.78317,0.39954 1.65939,0.72644 1.94716,0.72644 0.6872,0 1.62155,-1.35935 1.62155,-2.35914 0,-0.85223 0.9208,-1.52142 2.09348,-1.52142 h 0.72875 v 2.86779 2.86779 l -2.08812,-0.23624 -2.08812,-0.23625 -1.27781,1.12194 c -0.82717,0.72626 -1.42067,1.65606 -1.68289,2.63645 -0.26111,0.97624 -0.64332,1.57682 -1.07542,1.68982 l -0.67035,0.1753 0.24475,0.81851 c 0.34051,1.13872 1.17827,2.406 1.59053,2.406 0.18956,0 0.34465,-0.635 0.34465,-1.41111 0,-1.62837 0.38833,-1.76041 1.60353,-0.5452 0.59372,0.59372 0.86591,1.25907 0.86591,2.11667 v 1.25075 l -2.73402,-0.002 -2.73403,-0.002 -0.0557,-1.45507 z m -14.09919,-17.245 c -1.36081,-0.42364 -2.15471,-1.28712 -1.64868,-1.79315 0.21705,-0.21705 2.92412,-0.36098 6.84658,-0.36403 3.56818,-0.003 7.23529,-0.18038 8.14915,-0.39469 l 1.66155,-0.38965 0.89609,0.40829 c 0.6293,0.28672 0.89608,0.6848 0.89608,1.33705 v 0.92877 l -1.21949,-0.22878 c -1.97519,-0.37055 -4.87401,-0.29524 -6.01245,0.1562 -1.37126,0.54376 -8.14159,0.78432 -9.56883,0.33999 z m -4.11298,-3.13966 c -0.69376,-0.24518 -2.48543,-3.78898 -2.17202,-4.296094 0.30895,-0.499893 2.14073,-0.372451 2.59996,0.180886 0.23949,0.288569 0.36942,1.309578 0.30778,2.418458 l -0.10669,1.91906 z m -9.76855,-3.291693 c -0.20383,-0.824618 -0.52745,-2.073348 -0.71915,-2.774957 -0.48965,-1.79207 -0.44264,-2.236047 0.33703,-3.183182 l 0.68558,-0.832832 0.40986,1.153974 c 0.77207,2.173784 1.94531,2.165751 2.77596,-0.01901 0.68399,-1.799048 1.19184,-1.200438 1.63245,1.924209 l 0.2324,1.648063 -1.09425,0.565857 c -0.60183,0.311221 -1.09424,0.682464 -1.09424,0.824985 0,0.482364 -1.78903,2.192196 -2.29374,2.192196 -0.29644,0 -0.65274,-0.6127 -0.8719,-1.499305 z m 12.04657,-2.844959 c -1.01741,-1.08299 -1.0334,-3.150496 -0.0321,-4.151799 0.93237,-0.932375 1.1341,-0.730353 0.65191,0.652858 -0.20911,0.599857 -0.32889,1.538412 -0.26617,2.085678 l 0.11403,0.995028 1.11075,0.107878 c 0.61091,0.05933 1.70194,-0.139138 2.4245,-0.441045 l 1.31376,-0.548922 -0.46691,0.617433 c -1.33749,1.768651 -3.53859,2.078586 -4.84978,0.682891 z m 3.68576,-4.520718 -0.52608,-0.751093 -0.90503,0.173006 c -1.08829,0.208041 -1.15126,-0.102522 -0.19605,-0.966976 l 0.70899,-0.64162 0.87851,0.470168 c 0.61858,0.33105 0.87852,0.765678 0.87852,1.468889 0,1.195958 -0.1447,1.238673 -0.83886,0.247626 z M 97.323975,87.706599 v -2.293055 h 2.293055 2.29306 v 1.526006 1.526006 l -0.81649,0.767049 c -0.56983,0.535325 -1.262558,0.76705 -2.293056,0.76705 h -1.476569 z m 21.063485,1.494633 c -0.42626,-0.531922 -0.59871,-1.248949 -0.52916,-2.200188 l 0.10317,-1.411111 2.02848,-0.1058 2.02847,-0.105799 v 1.381141 c 0,2.658855 -2.24638,4.169511 -3.63096,2.441757 z"
         id="path1028" />
      <path
         style="fill:#503214;stroke-width:0.352778"
         d="m 107.75741,122.71979 c -0.13256,-1.21267 -0.39172,-2.77943 -0.57591,-3.48168 l -0.3349,-1.27682 -1.49812,-0.97322 c -2.04182,-1.32642 -3.08562,-2.3176 -3.08562,-2.93007 0,-0.28221 0.55563,-1.12812 1.23473,-1.8798 1.47703,-1.6349 1.52974,-2.38676 0.31287,-4.46318 l -0.92185,-1.57302 0.48088,-0.32187 c 0.26448,-0.17704 0.77611,-0.49023 1.13696,-0.69598 l 0.65609,-0.37411 1.57872,0.60292 1.57872,0.60292 0.68192,1.59087 0.68193,1.59087 -0.20737,1.63171 -0.20737,1.63171 1.22782,2.01879 c 0.6753,1.11033 1.48951,2.80667 1.80936,3.76965 l 0.58154,1.75085 -0.54997,1.06353 c -0.30249,0.58494 -0.54998,1.70642 -0.54998,2.49216 v 1.42863 h -1.89471 -1.89471 z m 22.72768,0.76662 v -1.43825 l -1.0312,-1.0312 -1.0312,-1.0312 -2.76116,-0.0701 c -1.51864,-0.0386 -4.13582,-0.0215 -5.81595,0.0379 -1.73767,0.0615 -3.60758,-0.0744 -4.3369,-0.3151 l -1.28212,-0.42314 1.11405,-1.99604 c 1.55412,-2.78453 2.7387,-4.28909 3.37692,-4.28909 0.29907,0 0.92413,0.29919 1.38903,0.66488 0.46489,0.36568 1.57385,0.77414 2.46436,0.90768 1.09492,0.16419 2.0385,0.61364 2.91455,1.38825 2.21398,1.95763 3.89678,3.10556 4.24086,2.8929 0.18153,-0.11219 0.3432,-1.13696 0.35925,-2.27726 0.032,-2.27224 0.39626,-3.54737 1.20521,-4.21874 l 0.52644,-0.4369 0.89758,0.40897 c 0.49367,0.22493 1.09042,0.87451 1.32611,1.4435 l 0.42851,1.03453 -1.50772,1.53626 -1.50773,1.53626 0.36754,1.0543 0.36753,1.0543 -0.70722,0.18495 -0.70723,0.18494 0.24475,0.81851 c 0.34051,1.13872 1.17827,2.406 1.59053,2.406 0.18956,0 0.34465,-0.55562 0.34465,-1.23472 0,-0.6791 0.15509,-1.23472 0.34465,-1.23472 0.49672,0 1.31115,1.40128 1.58903,2.73402 l 0.23905,1.14653 h -2.32109 -2.32108 z m 7.51389,-8.82972 c -0.62104,-0.1796 -1.20897,-0.45568 -1.30652,-0.61351 -0.26369,-0.42666 0.78788,-3.67872 1.29333,-3.99975 0.24024,-0.15258 0.71461,-0.27985 1.05416,-0.28282 l 0.61736,-0.005 v 2.64583 c 0,1.45521 -0.11907,2.63152 -0.26459,2.61402 -0.14552,-0.0175 -0.7727,-0.17876 -1.39374,-0.35837 z m -40.675005,-9.44833 v -1.45037 h 0.540497 c 0.755121,0 2.854038,0.91011 3.130488,1.35741 0.28683,0.46411 -0.64087,0.97488 -2.354563,1.29637 l -1.316422,0.24696 z m 19.602585,1.05513 c -1.11761,-0.43766 -0.11366,-0.75714 3.08959,-0.9832 1.83019,-0.12916 3.20528,-0.0653 3.62263,0.16828 l 0.67269,0.37647 -0.9931,0.37758 c -1.12206,0.42662 -5.35491,0.46693 -6.39181,0.0609 z m 13.9995,-0.62247 c -0.24254,-0.0979 -0.44097,-0.32346 -0.44097,-0.50132 0,-0.51161 0.92805,-0.37627 1.41111,0.20579 l 0.43917,0.52916 -0.48417,-0.0279 c -0.26629,-0.0153 -0.68261,-0.10792 -0.92514,-0.20578 z m -20.5328,-4.22093 c -0.39713,-0.89779 -0.72206,-1.758304 -0.72206,-1.91225 0,-0.313787 2.07739,-0.845608 2.32722,-0.595778 0.2689,0.2689 -0.28783,4.140368 -0.5954,4.140368 -0.15823,0 -0.61262,-0.73455 -1.00976,-1.63234 z m -7.48905,-1.2586 c -0.65167,-0.50569 -1.29119,-3.811836 -0.73733,-3.811836 0.19932,0 0.23946,-0.642104 0.0983,-1.572332 -0.13125,-0.864782 -0.10608,-1.490413 0.0559,-1.390291 0.162,0.100123 0.29455,0.410797 0.29455,0.690388 0,0.711154 1.35774,1.994083 1.81275,1.71287 0.20675,-0.127777 0.63752,-0.808255 0.95727,-1.512173 l 0.58137,-1.27985 0.1042,2.172823 0.10419,2.172824 -0.80975,0.875065 c -0.44536,0.481286 -1.04788,1.218843 -1.33892,1.639014 l -0.52916,0.763948 z m 11.03755,-3.243043 -0.79132,-0.842319 0.38277,-1.362542 c 0.21052,-0.749399 0.63474,-1.680043 0.9427,-2.068098 l 0.55993,-0.705556 -0.29161,0.881945 c -0.16038,0.485069 -0.29586,1.516944 -0.30107,2.293055 l -0.009,1.411111 0.99503,0.114028 c 0.54726,0.06272 1.46007,-0.04809 2.02847,-0.246231 1.57081,-0.547589 1.23425,0.151636 -0.38481,0.799454 -1.87239,0.749181 -2.19524,0.720837 -3.13063,-0.274847 z m 3.71002,-4.494887 -0.52608,-0.751093 -0.90503,0.173006 c -1.08829,0.208041 -1.15126,-0.102522 -0.19605,-0.966976 l 0.70899,-0.64162 0.87851,0.470168 c 0.61858,0.33105 0.87852,0.765678 0.87852,1.468889 0,1.195958 -0.1447,1.238673 -0.83886,0.247626 z m 0.83387,-3.094153 c -0.35546,-0.452038 -0.4911,-1.220652 -0.40545,-2.297571 l 0.12871,-1.618292 h 1.88257 1.88258 l -0.18945,1.322917 c -0.37084,2.589441 -2.18218,4.013137 -3.29896,2.592946 z M 97.323975,87.53306 v -2.119516 h 2.116667 2.116668 v 1.720693 c 0,0.956406 -0.19587,1.874735 -0.44097,2.067499 -0.24254,0.190744 -1.195039,0.370214 -2.116671,0.398823 l -1.675694,0.05202 z"
         id="path1026" />
      <path
         style="fill:#372414;stroke-width:0.352778"
         d="m 107.74188,122.61238 c -0.45332,-4.23305 -0.74782,-4.73586 -4.1561,-7.09597 -1.41369,-0.97893 -1.66979,-1.85915 -0.76048,-2.61381 l 0.56243,-0.46678 0.64871,0.86001 0.64871,0.86001 0.87551,-0.8225 c 1.17906,-1.10768 1.96147,-0.79684 3.68101,1.4624 1.84837,2.4285 2.11468,2.99449 2.19448,4.66398 0.12501,2.6153 0.0279,3.00195 -0.83668,3.33065 -0.45959,0.17474 -1.15712,0.72643 -1.55008,1.22599 -0.39295,0.49956 -0.79218,0.90829 -0.88717,0.90829 -0.095,0 -0.28415,-1.04052 -0.42034,-2.31227 z m 22.74321,1.93867 c 0,-0.20548 0.15875,-0.27548 0.35277,-0.15556 0.19403,0.11991 0.35278,0.28803 0.35278,0.37359 0,0.0856 -0.15875,0.15557 -0.35278,0.15557 -0.19402,0 -0.35277,-0.16812 -0.35277,-0.3736 z m 3.53317,-0.42015 c 0.003,-0.43656 0.15929,-1.03187 0.34738,-1.32291 l 0.34197,-0.52917 0.0102,0.52917 c 0.006,0.29104 0.10595,0.88635 0.22294,1.32291 l 0.21272,0.79375 h -0.57032 c -0.35785,0 -0.5683,-0.2957 -0.56491,-0.79375 z m -18.22016,-4.6688 c -0.23759,-0.61916 0.63475,-2.26303 1.7574,-3.3117 l 0.89578,-0.83676 1.69538,0.25297 c 0.93245,0.13913 2.23875,0.47935 2.90289,0.75604 1.48242,0.61761 4.33282,2.90797 4.09597,3.29121 -0.0951,0.1538 -2.64645,0.28855 -5.66976,0.29943 l -5.49692,0.0198 -0.18074,-0.47098 z m 15.6349,-2.17379 c -0.51614,-0.51614 -0.23539,-2.84395 0.41386,-3.43151 l 0.65622,-0.59387 0.93128,0.35408 c 0.51221,0.19474 0.93128,0.5639 0.93128,0.82037 0,0.61551 -2.62053,3.16303 -2.93264,2.85093 z m 6.56598,-2.63162 c -0.62104,-0.1796 -1.20897,-0.45568 -1.30652,-0.61351 -0.26369,-0.42666 0.78788,-3.67872 1.29333,-3.99975 0.24024,-0.15258 0.71461,-0.27985 1.05416,-0.28282 l 0.61736,-0.005 v 2.64583 c 0,1.45521 -0.11907,2.63152 -0.26459,2.61402 -0.14552,-0.0175 -0.7727,-0.17876 -1.39374,-0.35837 z m -33.88003,-6.21654 -1.14252,-2.35242 0.43697,-0.28644 c 1.06873,-0.70057 3.78835,1.02496 3.78835,2.40361 0,0.83198 -1.03206,2.60972 -1.50836,2.59816 -0.23755,-0.006 -0.94605,-1.06907 -1.57444,-2.36291 z m -6.794975,-3.23179 v -1.45037 h 0.540497 c 0.755121,0 2.854038,0.91011 3.130488,1.35741 0.28683,0.46411 -0.64087,0.97488 -2.354563,1.29637 l -1.316422,0.24696 z m 5.170445,-5.242734 c -0.0896,-0.145521 -0.27571,-1.018646 -0.41365,-1.940277 l -0.2508,-1.675695 h 0.50773 c 0.27925,0 0.86536,0.380676 1.30246,0.845946 l 0.79472,0.845946 -0.5659,1.094331 c -0.55173,1.066923 -1.04521,1.364813 -1.37456,0.829749 z M 97.323975,87.53021 v -2.116666 h 2.116667 2.116668 v 1.08547 c 0,1.474907 -1.672958,3.147863 -3.147865,3.147863 h -1.08547 z m 21.780425,0.867668 c -0.63392,-0.587804 -0.96654,-1.255511 -0.96654,-1.940277 v -1.044057 h 1.9181 1.9181 l -0.20328,1.322917 c -0.41736,2.716076 -1.08221,3.130343 -2.66638,1.661417 z"
         id="path1024" />
      <path
         style="fill:#2c1a0b;stroke-width:0.352778"
         d="m 108.12144,121.89719 c -0.11777,-0.30691 -0.21413,-1.09033 -0.21413,-1.74092 0,-1.57024 -0.57626,-3.01212 -1.44778,-3.62256 -0.82763,-0.57969 -0.77023,-1.76987 0.11203,-2.32285 l 0.60453,-0.37891 1.09588,1.04844 c 1.70099,1.62735 2.55377,3.24608 2.55377,4.84751 v 1.44346 l -0.79274,0.64192 c -0.97523,0.7897 -1.6297,0.81842 -1.91156,0.0839 z m 8.60531,-3.20928 c 0,-1.3486 1.28725,-2.5827 2.69392,-2.5827 1.49846,0 4.17619,0.97424 4.91178,1.78706 0.7558,0.83515 0.5258,1.11824 -0.98502,1.21239 -0.63394,0.0395 -2.38293,0.19783 -3.88665,0.35184 l -2.73403,0.28002 z m 15.25029,-3.70718 c 0.21804,-0.65413 0.97749,-0.76262 0.97749,-0.13964 0,0.30721 -0.25135,0.55856 -0.55857,0.55856 -0.30721,0 -0.49572,-0.18851 -0.41892,-0.41892 z m 6.39345,-0.63705 c -1.08601,-0.43818 -1.20171,-0.77981 -0.78862,-2.32852 0.34153,-1.28041 1.11741,-2.25995 1.79009,-2.25995 0.15694,0 0.28535,1.11125 0.28535,2.46944 0,2.56314 -0.0366,2.62345 -1.28682,2.11903 z M 104.9453,107.7831 c -0.11841,-0.30856 -0.12126,-0.71314 -0.006,-0.89908 0.26999,-0.43685 1.20446,0.31891 1.20446,0.97411 0,0.6713 -0.93418,0.6128 -1.19812,-0.075 z m -7.621325,-2.47063 c 0,-1.28826 0.503026,-1.52372 1.787081,-0.83652 1.042954,0.55817 0.816229,1.23924 -0.552359,1.65927 l -1.234722,0.37895 z m 0,-17.91249 v -1.986436 h 1.940278 1.940277 v 1.019251 c 0,1.42183 -0.99843,2.492152 -2.557638,2.741803 l -1.322917,0.211818 z m 21.938745,0.469266 c -0.42464,-0.395614 -0.77208,-1.109989 -0.77208,-1.5875 v -0.868202 h 1.5875 1.5875 v 0.68259 c 0,1.098176 -0.6486,2.49241 -1.15947,2.49241 -0.25926,0 -0.81881,-0.323684 -1.24345,-0.719298 z"
         id="path1022" />
    </g>
  </g>
</svg>
