<?xml version="1.0" standalone="no"?>
<!DOCTYPE svg PUBLIC "-//W3C//DTD SVG 20010904//EN"
 "http://www.w3.org/TR/2001/REC-SVG-20010904/DTD/svg10.dtd">
<svg version="1.0" xmlns="http://www.w3.org/2000/svg"
 width="896.000000pt" height="1020.000000pt" viewBox="0 0 896.000000 1020.000000"
 preserveAspectRatio="xMidYMid meet">

<g transform="translate(0.000000,1020.000000) scale(0.100000,-0.100000)"
fill="#000000" stroke="none">
<path d="M0 5100 l0 -5100 4480 0 4480 0 0 5100 0 5100 -4480 0 -4480 0 0
-5100z m5073 3575 c49 -10 58 -27 48 -96 -1 -3 -10 -15 -21 -27 -19 -20 -29
-21 -130 -19 -70 2 -114 7 -122 15 -18 18 -62 14 -81 -8 -12 -14 -29 -20 -61
-20 -25 0 -48 -6 -55 -14 -7 -8 -23 -17 -36 -20 -41 -10 -55 -52 -52 -155 2
-95 0 -99 -45 -92 -5 0 -8 -5 -8 -12 0 -8 -11 -20 -25 -27 -23 -12 -26 -11
-47 16 -24 30 -51 58 -84 85 -10 9 -28 28 -39 43 -23 31 -75 46 -75 21 0 -11
-10 -15 -35 -15 -21 0 -35 5 -35 13 0 8 -4 7 -11 -3 -8 -12 -12 -12 -16 -2 -4
10 -10 10 -29 -3 -22 -14 -24 -14 -25 2 0 16 -2 15 -9 -2 -7 -17 -9 -17 -9 -2
-1 21 -31 23 -31 2 0 -8 -4 -15 -9 -15 -5 0 -16 -3 -24 -6 -9 -3 -38 18 -76
55 -35 34 -57 61 -51 61 10 0 9 4 0 15 -7 8 -23 15 -36 15 -32 0 -67 30 -53
46 7 9 7 24 0 49 l-10 37 47 -6 c26 -3 64 -8 85 -12 21 -3 43 -2 50 4 8 7 49
7 129 -1 93 -8 123 -8 141 2 20 11 29 10 55 -3 16 -8 32 -21 34 -28 7 -19 121
-17 145 3 21 18 74 42 80 36 2 -3 17 8 33 23 27 25 90 43 195 53 51 5 258 0
298 -8z m-1186 -585 c6 -9 31 -22 55 -29 55 -17 68 -28 68 -60 0 -14 7 -35 15
-45 8 -11 15 -15 15 -8 0 8 10 7 34 -3 38 -16 66 -11 66 11 0 8 6 14 13 14 8
0 19 11 25 25 6 14 18 25 25 25 8 0 20 -11 27 -25 7 -14 19 -25 25 -25 17 0
93 -87 137 -156 43 -69 88 -169 88 -195 0 -10 10 -24 22 -30 27 -15 99 -19
115 -7 6 5 14 44 18 86 4 42 13 89 21 105 8 15 21 40 29 56 11 21 41 42 103
73 48 23 90 48 94 53 4 6 8 7 8 3 0 -13 40 26 40 39 0 7 7 13 16 13 9 0 23 8
30 18 11 15 30 17 160 15 106 -1 159 2 188 13 23 7 60 14 83 14 36 0 45 -4 57
-28 8 -15 26 -33 39 -39 19 -9 27 -23 33 -55 4 -24 7 -46 6 -51 -1 -4 12 -16
29 -26 39 -24 69 -68 69 -102 0 -15 10 -48 23 -75 13 -29 22 -70 23 -99 0 -27
4 -83 9 -123 5 -51 5 -76 -3 -81 -6 -3 -12 -53 -14 -119 -2 -94 -1 -112 12
-113 8 -1 -2 -6 -22 -11 -21 -6 -38 -16 -38 -23 0 -8 -9 -17 -20 -20 -11 -3
-20 -10 -20 -15 0 -4 -57 -9 -127 -9 -86 -1 -130 -6 -136 -14 -6 -9 -10 -9
-13 0 -10 23 -68 -10 -144 -84 -45 -43 -83 -73 -96 -73 -12 0 -38 -18 -60 -43
-21 -23 -50 -51 -64 -62 -26 -21 -65 -118 -55 -135 8 -13 -12 -33 -50 -51 -24
-11 -31 -22 -35 -54 -4 -28 -11 -43 -28 -51 -20 -10 -22 -14 -10 -25 10 -9 13
-28 10 -61 -2 -28 3 -69 13 -102 14 -45 23 -57 49 -67 17 -7 56 -37 88 -67 53
-51 78 -60 78 -26 0 8 6 14 14 14 23 0 29 36 15 93 -22 94 -41 137 -68 152
-14 8 -21 14 -16 15 6 0 -1 6 -15 13 -32 16 -33 42 -2 42 17 0 29 12 44 42 15
30 25 39 39 36 11 -3 19 -14 19 -24 0 -10 5 -30 10 -44 9 -23 13 -25 25 -15 8
7 15 23 15 35 0 23 17 35 49 35 10 0 29 9 42 21 22 19 24 19 36 4 6 -10 15
-15 20 -12 5 3 13 -10 19 -29 10 -32 9 -35 -12 -40 -26 -7 -33 -34 -9 -34 10
0 15 -10 15 -30 0 -32 4 -34 95 -49 69 -10 74 -7 68 39 -4 26 -2 40 6 40 19 0
12 32 -8 37 -13 3 -18 12 -16 24 6 33 31 49 75 49 23 0 71 5 108 11 63 11 69
14 105 60 20 27 37 53 37 58 0 34 97 46 131 15 10 -9 25 -14 34 -11 8 4 15 3
15 -1 0 -5 8 -17 18 -28 40 -42 54 -87 53 -164 0 -41 3 -104 8 -140 4 -36 5
-96 0 -135 -14 -132 -20 -281 -9 -265 6 10 10 11 10 3 0 -7 7 -13 15 -13 9 0
20 -11 25 -24 14 -38 58 -43 320 -41 136 2 250 -2 270 -7 19 -6 58 -27 85 -46
50 -36 51 -36 190 -44 77 -5 150 -13 163 -18 13 -6 33 -10 46 -10 12 0 44 -11
72 -24 27 -13 76 -26 110 -28 40 -4 75 -14 100 -30 21 -13 55 -30 74 -38 19
-7 44 -22 56 -32 11 -10 25 -18 31 -18 5 0 18 -9 28 -20 10 -11 26 -20 36 -20
21 0 44 -31 54 -72 4 -14 15 -34 26 -44 22 -20 26 -83 7 -115 -10 -17 -10 -23
0 -26 7 -3 12 -22 12 -45 0 -23 7 -46 16 -56 20 -20 13 -106 -14 -156 -53
-102 -265 -337 -336 -373 -17 -9 -35 -22 -39 -30 -5 -8 -19 -18 -32 -23 -26
-10 -95 -131 -95 -167 0 -33 37 -91 96 -151 72 -74 83 -147 28 -199 -25 -25
-72 -31 -80 -10 -3 8 -20 20 -39 27 -18 7 -36 21 -38 31 -3 11 -26 24 -62 35
l-57 18 -18 -22 c-10 -12 -27 -22 -38 -22 -16 0 -23 -10 -31 -50 -6 -28 -11
-66 -11 -84 0 -19 -11 -59 -25 -91 -24 -53 -26 -75 -36 -289 -14 -324 -30
-437 -81 -596 -19 -58 -53 -136 -76 -174 -23 -39 -42 -75 -42 -81 0 -22 -62
-128 -85 -147 -13 -10 -26 -27 -29 -36 -4 -10 -22 -24 -41 -31 -19 -7 -35 -16
-35 -21 0 -12 -152 -164 -165 -166 -5 -1 -16 -2 -22 -3 -7 0 -13 -7 -13 -15 0
-8 -9 -18 -20 -21 -11 -4 -27 -17 -36 -30 -15 -23 -54 -41 -54 -24 0 17 -35
-6 -93 -62 -32 -32 -74 -68 -92 -81 -19 -12 -36 -30 -38 -40 -3 -9 -13 -16
-23 -16 -25 2 -124 -44 -124 -57 0 -6 -16 -26 -35 -45 -42 -40 -43 -48 -10
-56 21 -5 25 -12 25 -43 0 -20 4 -43 9 -50 8 -12 12 -10 22 12 12 28 33 35 44
17 4 -6 12 -10 18 -9 7 1 20 -1 29 -5 10 -5 32 -3 50 3 17 6 52 9 77 5 25 -3
66 0 91 6 38 10 105 21 198 34 12 2 22 -1 22 -5 0 -5 11 -9 25 -9 16 0 25 6
25 15 0 18 -3 17 172 15 85 -1 144 3 157 10 12 6 91 15 175 20 147 8 196 18
196 41 0 6 8 18 17 27 13 13 45 19 137 25 67 4 139 9 161 11 22 2 119 7 215
11 145 6 182 11 215 28 24 12 78 24 135 30 129 13 369 17 376 6 3 -5 16 -9 30
-9 14 0 42 -9 62 -19 20 -11 57 -29 82 -39 61 -27 84 -55 111 -132 17 -50 35
-78 76 -120 29 -30 56 -65 59 -77 9 -33 -16 -180 -37 -229 -10 -23 -20 -57
-22 -76 -5 -45 -33 -132 -59 -182 -11 -21 -23 -66 -26 -100 -3 -37 -11 -67
-21 -76 -9 -8 -21 -24 -27 -35 -6 -11 -21 -21 -33 -23 -11 -2 -21 -8 -21 -13
0 -5 -15 -19 -34 -30 -32 -18 -76 -77 -76 -100 0 -5 15 -9 34 -9 32 0 35 -3
41 -38 4 -28 -1 -59 -18 -111 -14 -39 -27 -75 -31 -78 -3 -4 -6 -15 -6 -25 0
-10 -7 -18 -15 -18 -18 0 -19 -12 -3 -28 9 -9 9 -12 -1 -12 -7 0 -9 -5 -5 -11
6 -10 -10 -113 -23 -149 -4 -8 -7 -19 -9 -25 -1 -5 -12 -35 -24 -65 -12 -30
-26 -75 -30 -100 -4 -25 -12 -57 -18 -72 -6 -16 -9 -28 -6 -28 3 0 -1 -6 -8
-13 -22 -23 -88 -40 -127 -34 -65 11 -73 13 -82 28 -7 12 -10 12 -18 0 -6 -9
-23 -12 -55 -10 -25 2 -47 0 -49 -6 -2 -5 -24 -10 -50 -10 -74 0 -94 54 -38
106 10 9 25 53 36 100 10 46 28 112 42 147 13 35 25 79 28 98 7 57 17 108 24
119 3 6 7 19 8 30 2 11 8 21 13 23 6 2 10 9 10 15 0 7 11 36 25 65 13 29 24
56 24 60 0 4 10 9 23 12 13 3 25 15 27 25 4 23 29 44 54 45 22 0 23 36 1 48
-13 7 -15 19 -11 53 6 55 16 98 27 124 17 39 23 81 23 150 -1 110 -9 134 -69
192 -30 29 -56 53 -58 53 -9 0 -156 146 -156 155 0 17 -43 51 -102 84 l-57 30
-123 -9 c-178 -14 -237 -18 -290 -19 -43 -1 -47 -3 -50 -28 -2 -21 -9 -29 -28
-31 -14 -2 -32 -10 -40 -17 -10 -8 -50 -13 -112 -14 -56 -1 -115 -8 -139 -16
-23 -8 -63 -15 -90 -15 -26 0 -51 -5 -54 -10 -3 -6 -19 -10 -35 -10 -16 0 -59
-7 -97 -16 -50 -12 -134 -17 -323 -20 -140 -2 -266 -6 -280 -9 -14 -4 -52 -6
-85 -6 -79 0 -95 -5 -95 -34 0 -23 -18 -34 -137 -88 -49 -22 -90 -66 -96 -103
-5 -30 -1 -44 23 -78 46 -63 82 -101 118 -122 17 -10 32 -24 32 -32 0 -7 17
-29 38 -49 20 -19 37 -39 37 -44 0 -5 15 -22 33 -38 17 -17 32 -35 32 -42 0
-6 24 -35 53 -64 28 -28 57 -60 63 -71 6 -10 28 -29 50 -41 26 -15 42 -33 51
-58 7 -22 46 -70 100 -124 149 -148 243 -247 243 -256 0 -8 45 -61 123 -144
23 -24 47 -54 54 -67 11 -23 10 -24 -18 -24 -16 0 -32 0 -35 1 -4 0 -10 -3
-13 -8 -15 -20 -68 -33 -140 -33 -85 0 -148 19 -158 48 -3 9 -16 28 -28 42
-12 14 -30 46 -39 73 -19 50 -71 121 -170 228 -34 36 -75 83 -93 105 -90 110
-107 132 -136 173 -36 53 -103 121 -118 121 -12 0 -127 115 -149 149 -8 13
-30 39 -47 59 -18 19 -30 38 -28 42 3 5 -35 50 -85 101 -67 68 -94 104 -105
138 -9 25 -21 56 -27 69 -9 18 -9 31 1 59 12 32 12 37 -5 46 -11 6 -31 10 -45
8 -20 -2 -28 3 -33 21 -7 23 -8 23 -21 -7 -8 -16 -14 -42 -15 -57 0 -15 -5
-39 -12 -53 -9 -19 -8 -31 1 -49 7 -13 16 -38 20 -57 4 -22 16 -38 36 -49 38
-21 52 -78 38 -155 -14 -77 2 -295 26 -365 42 -120 52 -168 53 -255 1 -123
-23 -315 -45 -348 -16 -24 -16 -26 1 -29 28 -6 -109 -51 -160 -52 -31 -1 -52
5 -66 17 -36 33 -52 145 -33 228 5 22 4 43 -1 54 -6 9 -10 62 -11 116 0 55 -4
102 -8 105 -5 3 -9 11 -9 19 0 7 -10 24 -21 37 -19 22 -21 35 -20 124 1 54 -3
124 -9 154 -6 30 -19 118 -29 194 -16 119 -16 142 -5 154 19 18 18 39 -3 51
-22 12 -32 143 -13 166 8 10 10 29 6 56 -4 22 -2 57 4 77 5 20 19 78 31 127
25 100 37 124 88 175 20 20 49 53 64 73 15 20 34 37 42 37 14 0 176 100 220
135 11 8 35 24 53 35 17 11 32 25 32 32 0 6 3 9 6 5 6 -5 15 1 83 58 76 64
256 138 338 139 48 1 56 4 88 41 19 22 39 54 43 70 5 18 25 42 50 60 22 17 41
34 41 38 1 14 83 88 108 98 13 5 28 21 34 36 24 60 35 76 52 81 9 2 17 9 17
14 0 6 13 38 29 72 39 82 55 208 52 413 -1 54 2 94 9 98 5 3 10 26 10 51 0 26
6 52 14 60 11 10 15 41 15 116 0 56 5 104 10 107 5 4 11 63 12 131 1 69 8 152
14 185 7 33 16 107 20 165 4 58 12 114 18 125 17 32 14 205 -5 239 -15 29 -15
30 16 45 21 11 32 24 34 43 3 29 30 51 77 62 17 4 44 18 62 32 17 13 36 24 42
24 6 0 24 14 39 30 16 17 36 30 45 30 9 0 18 9 22 19 3 11 18 24 33 30 37 16
58 29 126 81 32 25 67 50 77 56 9 5 28 18 41 27 13 10 43 27 68 40 106 52 80
145 -45 161 -38 6 -56 14 -75 37 -14 16 -31 29 -37 29 -7 0 -16 7 -21 16 -11
19 -75 33 -154 34 -67 0 -142 26 -134 46 9 22 -14 28 -135 35 -106 6 -159 18
-159 37 0 4 23 17 50 30 45 21 65 42 40 42 -21 0 -9 16 30 40 22 14 40 28 40
33 0 14 -62 35 -125 42 -33 4 -71 9 -85 12 -14 2 -32 6 -40 7 -9 1 -21 5 -27
9 -11 7 -317 22 -390 20 -47 -2 -81 -31 -94 -80 -6 -23 -20 -49 -30 -59 -10
-9 -19 -20 -19 -24 0 -13 -76 -122 -114 -165 -20 -22 -36 -44 -36 -49 0 -6
-12 -27 -26 -47 -21 -30 -27 -53 -31 -118 -5 -70 -8 -81 -24 -81 -21 0 -26
-26 -6 -33 9 -4 9 -8 1 -14 -17 -12 -28 -53 -14 -53 6 0 4 -12 -6 -31 -12 -23
-13 -34 -4 -39 6 -4 9 -17 5 -31 -5 -22 -11 -24 -61 -22 -48 1 -56 -2 -64 -20
l-9 -22 0 22 c-1 12 -5 24 -10 27 -12 8 -63 117 -57 124 3 2 1 13 -5 24 -6 11
-13 17 -16 14 -7 -6 -33 19 -33 32 0 15 -38 44 -49 37 -7 -3 -11 2 -11 14 0
14 -6 21 -18 21 -10 0 -22 4 -28 10 -5 5 -61 11 -124 12 -112 3 -115 3 -129
30 -14 24 -14 28 1 45 14 15 14 20 2 31 -8 7 -14 31 -14 52 0 38 -1 40 -33 40
-34 0 -92 -43 -112 -84 -7 -14 -22 -22 -45 -24 -19 -1 -46 -8 -58 -14 -32 -16
-56 -63 -43 -85 6 -11 5 -23 -2 -35 -9 -13 -9 -23 -1 -35 15 -23 38 -24 81 -2
53 27 81 25 95 -8 7 -16 29 -44 50 -64 36 -36 39 -37 130 -41 54 -2 104 -10
119 -19 26 -14 79 -72 128 -141 14 -19 41 -42 62 -52 28 -14 41 -29 53 -60 14
-36 22 -44 53 -52 24 -6 43 -18 52 -35 13 -23 13 -30 -2 -62 -9 -19 -17 -51
-17 -71 0 -41 -33 -93 -66 -106 -13 -5 -24 -21 -27 -40 -7 -31 -61 -90 -84
-90 -7 0 -13 -4 -13 -10 0 -5 -5 -10 -10 -10 -6 0 -24 -12 -41 -27 -82 -75
-172 -84 -202 -23 -8 17 -23 27 -45 30 -18 3 -33 10 -33 15 0 6 -11 22 -25 37
-13 15 -24 32 -24 37 0 5 -27 39 -60 75 -61 68 -71 96 -50 136 7 13 7 21 0 25
-5 3 -10 17 -10 31 0 14 -9 34 -20 46 -18 20 -23 20 -62 9 -50 -15 -58 -24
-58 -68 0 -27 -5 -33 -45 -50 -40 -16 -45 -21 -45 -50 0 -18 -4 -33 -9 -33 -5
0 -11 -32 -13 -71 -3 -65 -7 -73 -35 -98 -16 -14 -42 -43 -57 -63 -15 -20 -44
-45 -64 -55 -20 -11 -38 -25 -40 -31 -1 -7 -13 -30 -27 -51 -19 -31 -31 -40
-62 -43 -48 -6 -108 18 -122 49 -6 13 -17 23 -24 23 -21 0 -67 39 -77 65 -6
16 -27 30 -67 45 -32 12 -72 35 -88 51 -24 22 -41 29 -75 30 -25 1 -55 6 -67
10 -14 5 -23 5 -23 -1 0 -15 -38 -12 -65 6 -15 9 -26 29 -30 52 -7 40 -55 102
-80 102 -8 0 -17 11 -21 25 -3 14 -12 25 -19 25 -21 0 -73 126 -80 192 -1 10
-4 21 -7 24 -10 9 -159 -26 -174 -41 -17 -16 -40 -11 -72 19 -73 66 -93 180
-90 506 1 143 5 228 12 232 16 10 14 190 -1 195 -7 3 -13 11 -13 20 0 14 -19
64 -40 104 -4 8 -6 27 -3 42 5 26 -21 176 -37 205 -4 10 -14 36 -21 59 -13 45
-3 73 27 73 10 0 14 13 14 44 0 34 4 45 17 48 15 3 15 5 1 18 -22 22 -7 54 40
84 25 15 48 42 62 70 12 25 26 46 31 46 5 0 14 11 19 24 14 38 -5 88 -49 124
-31 26 -42 43 -50 83 -14 65 -14 126 1 131 6 2 13 29 15 59 4 58 -11 313 -23
368 -4 22 -2 36 5 41 10 5 10 17 1 50 -10 36 -9 50 5 86 9 24 20 44 25 44 5 0
18 26 30 58 12 31 29 66 39 77 10 11 27 36 39 55 11 19 39 53 61 75 23 21 41
45 41 52 0 8 7 16 15 19 8 4 13 10 10 14 -3 5 5 20 17 35 31 34 116 42 152 14
34 -27 52 -24 64 10 5 15 33 47 60 71 28 23 61 57 74 75 17 26 33 36 68 42 51
10 70 7 87 -17z m-1286 -1237 c16 -10 32 -25 35 -35 3 -9 18 -28 35 -42 16
-14 29 -35 29 -48 0 -13 9 -38 20 -56 11 -18 20 -39 20 -47 0 -8 9 -31 21 -52
30 -53 56 -162 48 -198 -4 -16 -7 -62 -8 -101 -1 -73 13 -122 49 -173 19 -26
25 -59 37 -194 7 -79 -5 -125 -54 -206 -18 -30 -33 -63 -33 -72 0 -10 -4 -20
-9 -24 -6 -3 -16 -19 -24 -35 -14 -27 -13 -31 5 -52 l20 -23 -41 -3 c-41 -3
-41 -4 -41 -43 0 -43 -12 -49 -47 -24 -12 9 -35 16 -50 16 -349 9 -633 8 -672
-1 -25 -6 -64 -15 -85 -20 -21 -4 -43 -15 -48 -24 -5 -9 -17 -16 -27 -16 -10
0 -28 -11 -41 -25 -19 -20 -63 -42 -102 -51 -5 -1 -10 -2 -13 -3 -3 0 -7 0 -9
2 -2 1 -12 -5 -22 -14 -11 -9 -34 -21 -51 -28 -18 -7 -44 -24 -57 -36 -22 -20
-23 -25 -11 -35 8 -7 15 -18 15 -24 0 -7 20 -17 45 -24 26 -7 45 -18 45 -26 0
-7 12 -25 26 -40 21 -20 34 -25 61 -22 19 3 47 0 62 -6 14 -6 57 -10 95 -9 50
1 76 -3 95 -16 50 -33 69 -58 74 -102 3 -27 15 -53 30 -70 15 -16 27 -44 31
-71 7 -49 44 -216 53 -240 4 -8 7 -19 8 -25 1 -5 3 -13 5 -17 1 -5 3 -11 5
-15 1 -5 7 -21 13 -36 7 -16 12 -40 12 -55 1 -36 38 -174 49 -181 10 -7 33
-109 27 -119 -3 -6 1 -31 30 -167 3 -16 12 -45 20 -63 9 -18 19 -56 24 -85 5
-28 14 -70 20 -92 6 -22 15 -59 20 -83 6 -24 12 -47 14 -51 3 -4 8 -21 10 -37
3 -16 19 -82 36 -148 16 -65 30 -126 30 -136 0 -10 6 -23 14 -29 8 -7 18 -38
22 -69 3 -31 13 -72 20 -91 8 -18 14 -42 14 -52 0 -12 10 -23 25 -29 14 -5 25
-14 25 -19 0 -5 15 -15 34 -21 20 -6 50 -30 71 -55 31 -39 190 -155 212 -155
4 0 22 -13 39 -29 17 -17 47 -36 65 -44 19 -8 62 -42 97 -76 34 -34 67 -61 74
-61 7 0 29 -12 50 -27 31 -21 51 -26 101 -28 34 0 75 -6 90 -13 16 -7 37 -12
47 -12 22 0 72 -18 80 -29 11 -16 141 -72 235 -101 55 -17 111 -39 124 -50 13
-11 30 -20 39 -20 9 0 25 -11 37 -24 19 -23 28 -25 141 -29 67 -3 130 -9 140
-15 11 -5 24 -8 29 -5 6 2 20 -5 31 -16 12 -10 41 -22 65 -26 54 -9 136 -51
150 -76 5 -11 16 -19 24 -19 8 0 29 -19 45 -42 17 -23 43 -48 58 -55 15 -7 35
-27 44 -43 9 -17 24 -30 32 -30 10 0 19 -16 26 -42 6 -24 15 -54 21 -68 6 -13
15 -78 20 -145 5 -66 19 -154 30 -195 11 -41 26 -129 35 -195 8 -66 19 -134
25 -151 5 -17 11 -60 14 -95 2 -35 9 -86 14 -112 6 -27 9 -52 6 -57 -3 -5 1
-25 10 -45 8 -20 17 -73 20 -118 4 -45 11 -118 16 -162 5 -44 14 -115 19 -158
6 -52 15 -85 29 -103 12 -15 21 -41 21 -61 0 -30 -3 -34 -20 -28 -11 3 -20 2
-20 -2 0 -16 -90 -33 -178 -33 -68 0 -97 4 -127 20 -26 13 -50 18 -67 14 -39
-8 -51 2 -33 29 15 23 15 24 15 62 0 15 11 36 27 51 l26 24 -21 23 c-18 19
-22 39 -27 132 -3 61 -13 149 -21 198 -10 57 -11 93 -5 104 6 12 5 26 -4 43
-8 15 -16 50 -18 78 -2 29 -7 55 -10 59 -4 3 -4 16 -1 28 3 13 -1 27 -10 34
-20 17 -20 31 -1 31 19 0 21 60 3 61 -10 0 -10 2 0 6 8 3 12 32 12 93 0 80 -2
92 -24 114 -30 33 -94 56 -123 45 -12 -4 -28 -21 -36 -36 -8 -15 -24 -37 -36
-47 -12 -11 -21 -25 -21 -32 0 -7 -4 -14 -10 -16 -5 -1 -11 -12 -13 -23 -2
-11 -8 -28 -12 -39 -5 -11 -3 -21 5 -26 7 -4 9 -13 6 -19 -4 -6 0 -11 11 -11
17 -1 17 -1 1 -14 -10 -7 -18 -20 -18 -29 0 -9 -13 -23 -30 -32 -16 -9 -30
-22 -30 -30 0 -7 -27 -38 -60 -67 -33 -29 -60 -60 -60 -68 0 -21 -20 -40 -41
-40 -13 0 -19 -12 -24 -43 -10 -66 -45 -149 -77 -181 -31 -32 -80 -101 -91
-128 -3 -10 -11 -18 -17 -18 -5 0 -10 -6 -10 -13 0 -7 -11 -24 -25 -39 -14
-15 -25 -30 -25 -32 0 -9 -41 -57 -72 -85 -16 -14 -28 -29 -28 -34 0 -5 -13
-25 -30 -44 -16 -18 -30 -40 -30 -48 0 -8 -7 -15 -15 -15 -8 0 -15 -4 -15 -10
0 -5 -11 -10 -24 -10 -14 0 -28 -4 -31 -10 -13 -21 -125 -6 -125 16 0 9 -11
14 -28 14 -16 0 -31 3 -35 6 -3 4 21 31 54 62 33 31 57 62 55 69 -3 7 -1 15 3
18 14 8 50 82 44 89 -4 3 -1 6 6 6 7 0 10 4 6 9 -3 5 15 39 41 75 25 36 42 66
39 66 -4 0 -1 7 6 16 8 9 14 22 14 28 2 32 28 68 55 77 33 12 40 29 11 29 -16
0 -17 5 -12 33 5 24 13 33 30 35 18 3 21 6 11 12 -10 6 0 23 42 68 30 33 59
73 62 89 4 15 18 42 32 60 13 17 24 34 24 38 0 6 12 33 54 125 9 19 26 53 39
75 22 39 25 75 6 75 -5 0 -9 6 -9 14 0 25 -77 47 -166 47 -47 0 -84 4 -84 10
0 5 -16 9 -35 9 -19 0 -35 4 -35 9 0 5 -17 9 -37 9 -21 0 -67 5 -103 11 -36 7
-148 16 -250 21 -102 6 -196 14 -210 20 -14 5 -54 12 -90 15 -67 5 -85 8 -110
18 -19 8 -99 14 -310 26 -91 6 -184 12 -208 14 -47 5 -82 33 -82 66 0 25 -13
29 -84 26 -32 -2 -73 1 -89 6 -21 6 -33 5 -38 -3 -5 -8 -15 -8 -36 0 -15 6
-91 13 -168 16 -163 7 -169 8 -215 23 -39 14 -76 22 -135 29 -22 3 -58 10 -80
15 -51 14 -315 11 -356 -3 -31 -11 -70 -42 -68 -54 3 -10 -44 -114 -51 -114
-11 0 -80 -73 -80 -85 0 -6 -18 -27 -40 -46 -22 -19 -40 -37 -40 -41 0 -9 -63
-147 -116 -253 -19 -38 -34 -78 -34 -87 0 -9 -4 -19 -9 -22 -5 -3 -8 -28 -8
-56 1 -28 -1 -50 -5 -50 -14 0 15 -76 37 -95 26 -22 41 -71 24 -77 -6 -2 7
-22 28 -44 26 -27 44 -57 52 -87 8 -33 17 -47 29 -48 16 -1 16 -2 0 -6 -16 -4
-16 -6 -4 -19 8 -8 19 -14 23 -14 17 0 56 -63 57 -92 1 -16 7 -28 14 -28 7 0
12 -6 10 -13 -2 -6 12 -26 30 -43 17 -17 32 -34 32 -38 0 -4 9 -19 20 -34 23
-32 31 -105 13 -123 -17 -17 -94 -28 -208 -28 -80 -1 -106 3 -130 17 -16 10
-42 22 -57 25 -21 6 -35 22 -59 69 -18 36 -27 64 -21 66 16 5 -19 92 -38 93
-13 1 -13 2 1 6 20 5 13 60 -12 87 -13 13 -16 23 -9 32 7 8 6 13 -4 17 -8 3
-17 21 -21 39 -4 18 -16 48 -26 66 -23 40 -23 42 -4 42 8 0 15 5 15 10 0 6 -4
10 -8 10 -4 0 -8 10 -10 23 -1 12 -12 55 -25 95 -13 40 -20 72 -17 72 9 0 -3
59 -25 125 -25 75 -37 182 -24 208 7 12 29 45 50 73 22 28 39 56 39 62 0 7 5
12 10 12 6 0 10 7 10 15 0 20 32 86 52 106 9 9 30 47 48 84 18 37 43 83 56
102 20 30 23 44 19 96 -3 44 -10 66 -26 84 -15 15 -25 19 -29 12 -5 -7 -9 -5
-13 5 -4 9 -17 16 -30 16 -13 0 -27 4 -33 9 -5 5 -44 16 -86 25 -99 22 -115
36 -129 110 -13 70 -5 126 22 155 25 26 99 28 245 6 54 -8 118 -15 142 -15 23
0 42 -4 42 -10 0 -5 16 -10 35 -10 19 0 35 -4 35 -9 0 -10 151 -22 310 -24 58
-1 111 -6 118 -10 6 -5 66 -5 131 -1 119 7 119 7 145 -19 14 -14 26 -33 26
-41 0 -26 61 -35 275 -41 116 -3 239 -10 275 -15 135 -19 328 -40 369 -40 23
0 50 -4 60 -9 9 -5 125 -12 256 -14 132 -3 242 -6 245 -7 3 -2 40 -2 83 0 71
2 79 0 84 -18 4 -17 16 -21 71 -25 37 -3 81 -8 97 -12 17 -3 71 -10 120 -15
199 -23 282 -28 328 -19 31 6 56 5 67 -1 40 -21 156 -7 120 15 -5 3 -10 21
-10 39 0 26 5 35 23 41 l22 7 -25 8 c-14 4 -55 8 -91 9 -37 1 -83 8 -103 16
-21 9 -54 18 -74 20 -84 10 -118 19 -135 36 -10 11 -34 28 -55 39 -20 11 -52
29 -70 40 -18 11 -47 22 -65 25 -17 3 -43 14 -57 23 -14 10 -44 24 -67 30 -53
16 -127 71 -131 99 -2 15 -14 24 -47 32 -24 6 -56 22 -72 35 -15 13 -50 35
-78 49 -27 14 -63 35 -80 46 -16 12 -37 21 -45 21 -17 0 -80 53 -80 67 0 6
-18 17 -40 26 -24 9 -44 26 -51 41 -7 14 -16 26 -21 26 -4 0 -8 4 -8 10 0 10
-120 130 -131 130 -4 0 -45 34 -93 75 -58 51 -94 92 -111 125 -14 28 -30 50
-35 50 -5 0 -17 17 -25 37 -9 21 -20 40 -26 44 -6 3 -13 25 -16 48 -5 33 -3
41 11 41 20 0 22 47 2 75 -14 22 -25 66 -30 130 -4 49 -37 198 -45 205 -17 14
-31 54 -36 107 -7 64 -31 168 -46 196 -6 10 -7 27 -4 38 4 11 2 19 -6 19 -8 0
-8 4 1 15 10 12 10 19 2 27 -7 7 -12 20 -12 30 0 10 -4 18 -8 18 -4 0 -8 8 -9
18 -1 9 -6 35 -12 57 -6 22 -13 69 -16 105 -6 67 -25 110 -49 110 -8 0 -16 4
-18 8 -2 4 -27 20 -56 35 -62 32 -71 29 -149 -43 -80 -76 -113 -92 -207 -97
-75 -5 -85 -4 -102 15 -43 46 -62 72 -52 72 7 0 9 15 5 40 -5 38 -4 39 23 36
36 -4 126 66 151 119 10 20 30 50 46 68 41 48 71 109 56 114 -7 3 -13 16 -13
29 0 19 -5 24 -24 24 -19 0 -25 6 -28 28 -2 16 -8 26 -16 24 -8 -1 -30 2 -50
7 -24 7 -40 7 -48 0 -6 -5 -30 -7 -53 -3 -26 4 -57 1 -89 -9 -26 -9 -58 -14
-70 -10 l-22 5 0 -176 c0 -97 -4 -176 -8 -176 -14 0 -34 -98 -27 -132 4 -18
18 -46 31 -63 30 -39 60 -126 69 -194 8 -66 26 -113 61 -154 24 -29 26 -36 20
-92 -10 -83 -8 -105 9 -132 9 -13 13 -27 11 -32 -3 -5 5 -25 19 -45 14 -20 25
-48 25 -62 0 -16 19 -44 55 -82 30 -31 55 -60 55 -64 0 -4 18 -19 41 -33 26
-17 46 -40 57 -66 12 -27 30 -47 57 -62 22 -13 47 -36 55 -53 8 -17 26 -46 40
-64 32 -41 163 -170 173 -170 4 0 16 -14 26 -31 18 -29 18 -32 2 -49 -9 -10
-24 -30 -34 -44 -15 -22 -21 -24 -45 -15 -15 6 -38 20 -52 33 -14 12 -47 35
-74 51 -50 28 -130 104 -175 165 -14 18 -43 45 -65 61 -39 28 -75 75 -112 147
-9 19 -39 57 -65 86 -35 39 -51 66 -59 102 -6 27 -38 98 -71 158 -32 60 -59
114 -59 119 0 5 -9 21 -19 36 -11 15 -23 39 -26 54 -9 33 12 97 32 97 12 0 11
5 -5 25 -15 18 -18 33 -13 57 4 18 2 46 -3 61 -8 21 -8 30 3 36 11 7 10 13 -4
34 -9 14 -16 28 -16 31 0 3 -2 13 -6 22 -4 12 -8 13 -13 3 -6 -8 -16 -4 -35
16 -28 27 -28 27 -22 131 8 121 -4 194 -38 230 -27 29 -42 125 -30 196 15 95
10 144 -19 178 -15 18 -25 39 -22 47 3 7 -3 28 -14 46 -22 36 -26 72 -9 83 8
5 10 31 5 83 -5 59 -3 81 9 97 8 12 17 40 21 63 9 55 89 142 199 216 46 31 91
68 100 82 18 26 76 82 86 83 4 0 31 16 60 36 30 20 79 48 109 63 31 15 82 47
115 71 l59 43 380 5 c378 4 380 4 391 25 6 12 25 26 43 32 26 7 32 14 32 38 0
15 -5 38 -12 50 -15 29 -58 270 -58 330 0 26 -4 47 -10 47 -14 0 -13 85 2 129
48 150 94 251 114 251 8 0 14 8 14 18 0 43 58 56 111 25z m2389 -287 c0 -2 -7
-9 -15 -16 -13 -11 -14 -10 -9 4 5 14 24 23 24 12z m-2117 -2135 c16 -40 97
-106 121 -98 6 2 28 -7 48 -20 21 -12 40 -23 44 -23 3 0 17 -9 31 -19 13 -11
31 -17 39 -14 8 3 14 0 14 -5 0 -6 10 -14 23 -18 26 -8 76 -54 77 -71 0 -6 9
-15 20 -18 11 -3 20 -11 20 -16 0 -6 4 -8 9 -5 4 3 16 -3 26 -14 10 -11 25
-20 34 -20 9 0 43 -14 76 -30 33 -17 67 -30 76 -30 31 0 124 -43 144 -67 11
-13 31 -25 45 -28 14 -2 31 -14 39 -25 7 -11 24 -20 36 -20 12 0 29 -8 36 -17
16 -19 172 -93 197 -93 17 0 114 -73 120 -91 2 -5 9 -9 16 -9 7 0 25 -13 40
-29 16 -16 42 -35 60 -42 17 -7 40 -24 50 -38 11 -13 35 -38 53 -54 18 -17 33
-35 33 -42 0 -6 14 -24 31 -41 l31 -29 -44 -5 c-41 -5 -43 -6 -46 -42 -4 -47
-12 -48 -37 -5 -10 17 -22 34 -26 37 -11 8 -77 61 -114 93 -18 15 -50 34 -71
43 -22 9 -46 22 -54 28 -8 7 -51 22 -95 33 -71 18 -101 20 -217 14 -26 -1 -68
-45 -79 -83 -5 -18 -9 -73 -8 -123 2 -85 3 -91 31 -117 17 -16 33 -28 37 -28
3 0 24 -16 46 -35 22 -19 45 -35 51 -35 7 0 14 -8 17 -19 2 -10 17 -21 33 -24
72 -14 111 -26 141 -41 19 -10 42 -15 53 -11 11 4 20 2 20 -4 0 -6 7 -11 15
-11 8 0 15 -4 15 -10 0 -5 8 -10 18 -10 21 0 50 -29 77 -77 19 -32 19 -32 -10
-73 -16 -22 -32 -43 -37 -46 -5 -3 -64 -7 -131 -9 -89 -2 -135 1 -172 12 -84
26 -165 69 -165 88 0 4 -30 36 -66 71 -55 53 -78 68 -131 84 -36 11 -71 20
-77 20 -7 0 -18 11 -24 25 -7 14 -23 30 -37 37 -14 6 -25 16 -25 22 0 6 -21
19 -48 30 -52 21 -123 63 -195 116 -39 29 -51 44 -63 86 -18 63 -16 225 4 232
7 2 12 -5 12 -16 0 -11 7 -25 15 -32 13 -11 16 -8 21 19 8 40 27 35 35 -10 3
-19 13 -48 22 -65 14 -28 23 -32 98 -47 57 -11 87 -13 95 -6 7 6 35 11 62 12
43 2 49 5 46 21 -2 11 -9 23 -15 27 -8 5 -8 8 0 13 12 8 16 118 5 129 -4 4 -8
35 -10 69 -2 42 -8 66 -19 74 -8 6 -15 19 -15 28 0 9 -6 16 -13 16 -8 0 -22 9
-32 20 -10 11 -23 20 -30 20 -7 0 -20 9 -30 20 -10 11 -24 20 -31 20 -7 0 -31
9 -51 20 -21 11 -63 24 -93 30 -30 6 -56 14 -58 19 -2 5 -23 15 -47 22 -31 9
-45 19 -47 33 -2 11 -19 30 -38 43 -19 12 -43 28 -52 37 -9 8 -25 12 -35 10
-24 -7 -63 27 -63 54 0 12 -8 23 -20 27 -12 4 -22 19 -25 39 -7 36 10 116 25
116 6 0 10 6 10 14 0 17 15 24 56 25 28 1 34 -4 47 -38z m2605 -494 c5 -21 15
-33 29 -35 31 -5 60 -39 45 -54 -7 -7 -12 -30 -12 -51 0 -47 -36 -290 -49
-329 -9 -27 -8 -28 30 -28 36 0 39 -2 39 -27 1 -24 2 -25 11 -10 11 19 39 23
39 6 0 -7 12 -9 35 -5 32 6 35 5 36 -16 2 -42 -3 -73 -13 -79 -5 -4 -15 -15
-21 -27 -22 -37 -111 -167 -122 -177 -6 -5 -24 -31 -39 -58 -15 -26 -33 -50
-40 -55 -6 -4 -20 -26 -30 -49 -27 -61 -46 -75 -97 -71 -41 3 -46 6 -66 47
-18 35 -20 47 -10 53 9 6 8 11 -5 19 -22 12 -23 45 -3 56 8 5 17 27 19 48 5
52 22 95 47 118 11 11 18 25 15 33 -3 8 -1 14 5 14 6 0 7 5 4 10 -4 6 -2 17 4
24 6 8 14 51 18 97 3 46 10 89 14 95 5 6 3 25 -4 43 -9 26 -16 32 -34 28 -15
-3 -23 1 -23 9 0 22 -17 16 -48 -17 -17 -19 -39 -63 -56 -117 -16 -48 -37
-102 -48 -119 -21 -35 -48 -44 -48 -16 0 13 -3 14 -12 5 -19 -19 -44 -14 -58
12 -16 30 -7 129 18 190 51 131 207 318 293 353 63 25 99 56 99 85 0 49 25 46
38 -5z m-884 -721 c26 -30 46 -64 46 -78 0 -12 9 -42 19 -65 11 -23 17 -51 14
-62 -3 -12 -1 -21 6 -21 7 0 11 -19 11 -48 0 -27 7 -71 15 -98 14 -47 28 -173
29 -256 1 -21 4 -38 9 -38 4 0 7 -22 7 -50 0 -27 4 -59 9 -72 5 -13 15 -43 22
-68 13 -47 29 -74 29 -51 0 9 10 12 29 9 27 -4 30 -1 41 38 7 24 10 58 6 76
-6 35 -8 267 -1 277 2 4 6 42 10 86 7 86 16 105 39 86 11 -9 15 -9 18 1 3 9
13 9 39 2 41 -12 37 30 39 -404 1 -377 0 -404 -17 -421 -7 -7 -13 -19 -13 -26
0 -7 -6 -13 -13 -13 -7 0 -29 -14 -49 -30 -47 -39 -133 -58 -158 -35 -9 8 -22
15 -29 15 -21 0 -121 107 -121 129 0 11 -11 28 -23 38 -13 10 -27 32 -31 48
-9 39 -9 168 -1 276 5 68 4 93 -8 116 -15 28 -40 129 -52 206 -3 20 -10 37
-15 37 -14 0 -12 84 1 97 11 11 -6 76 -32 126 -12 22 -14 92 -4 135 5 23 3 32
-7 33 -7 1 3 4 22 8 23 4 38 14 45 29 5 12 13 22 16 22 4 0 27 -24 53 -54z"/>
<path d="M3644 7068 c-12 -5 -27 -20 -34 -33 -21 -40 -134 -85 -220 -88 -30
-1 -50 -7 -50 -13 0 -13 -23 -24 -49 -24 -10 0 -26 -9 -35 -19 -15 -16 -17
-30 -11 -78 l6 -59 81 7 c45 4 91 4 102 0 12 -5 27 -6 34 -4 19 7 41 -15 35
-36 -3 -13 10 -35 44 -69 48 -50 106 -78 136 -66 11 4 17 1 17 -7 1 -10 4 -9
13 3 12 15 16 13 46 -18 19 -19 29 -34 22 -34 -6 0 -11 -11 -11 -25 0 -21 5
-25 30 -25 28 0 30 -3 30 -34 0 -37 9 -43 65 -46 69 -4 71 -3 70 43 0 23 -6
48 -13 55 -16 18 -5 63 22 84 11 10 24 18 28 18 4 0 29 -17 57 -37 38 -28 52
-47 60 -78 14 -51 42 -71 122 -86 35 -6 70 -13 77 -15 7 -2 12 -20 12 -42 0
-21 5 -43 12 -50 9 -9 8 -15 -8 -26 -24 -18 -18 -24 31 -28 22 -2 45 -9 51
-16 8 -11 16 -7 40 21 72 86 122 174 133 237 5 29 3 37 -14 45 -11 6 -22 19
-24 30 -2 11 -11 29 -20 41 -14 18 -18 19 -30 7 -11 -12 -49 -14 -98 -4 -2 1
-3 8 -3 16 0 16 -116 105 -136 105 -6 0 -28 19 -48 43 -20 23 -43 49 -51 57
-49 48 -63 60 -71 60 -5 0 -22 11 -38 25 -16 14 -48 31 -70 37 -23 7 -43 15
-46 18 -3 3 -14 6 -25 6 -29 1 -82 35 -97 63 -24 44 -120 66 -174 39z"/>
<path d="M3982 5220 c-63 -34 -117 -75 -177 -134 -33 -32 -82 -75 -110 -96
-81 -60 -123 -170 -67 -178 12 -2 22 -10 22 -18 0 -19 32 -10 75 20 52 36 90
45 133 31 45 -16 69 -5 92 42 9 19 25 33 40 36 18 4 29 16 38 41 18 48 53 65
163 78 70 9 102 9 139 -1 75 -19 263 -5 287 21 17 19 17 20 0 33 -9 6 -17 20
-17 29 0 9 -6 16 -14 16 -7 0 -19 6 -25 14 -8 10 -30 14 -66 13 -29 -1 -59 4
-67 10 -7 6 -30 13 -50 17 -21 4 -44 16 -52 27 -12 17 -20 20 -48 14 -47 -11
-168 -14 -168 -5 0 15 -96 7 -128 -10z"/>
<path d="M2568 6357 c-14 -11 -15 -20 -6 -55 6 -23 16 -42 23 -42 14 0 29 46
20 61 -4 5 0 12 9 15 19 7 9 34 -13 34 -9 0 -24 -6 -33 -13z"/>
<path d="M2640 6345 c0 -9 9 -15 21 -15 18 0 19 2 9 15 -7 8 -16 15 -21 15 -5
0 -9 -7 -9 -15z"/>
<path d="M2650 6310 c0 -5 5 -10 11 -10 5 0 7 5 4 10 -3 6 -8 10 -11 10 -2 0
-4 -4 -4 -10z"/>
<path d="M1123 5403 c-7 -2 -13 -9 -13 -15 0 -12 41 -6 41 7 1 12 -11 15 -28
8z"/>
<path d="M4065 1808 c-4 -13 -8 -29 -9 -37 0 -8 -16 -18 -33 -23 -33 -9 -43
-30 -21 -44 6 -4 47 -18 91 -30 l79 -22 19 44 c13 29 26 44 39 44 16 0 17 3 7
25 -12 24 -45 45 -72 45 -8 0 -15 5 -15 10 0 6 -17 10 -39 10 -31 0 -40 -4
-46 -22z"/>
</g>
</svg>
