<?xml version="1.0" encoding="UTF-8" standalone="no"?>
<svg
   xmlns:dc="http://purl.org/dc/elements/1.1/"
   xmlns:cc="http://creativecommons.org/ns#"
   xmlns:rdf="http://www.w3.org/1999/02/22-rdf-syntax-ns#"
   xmlns:svg="http://www.w3.org/2000/svg"
   xmlns="http://www.w3.org/2000/svg"
   xmlns:sodipodi="http://sodipodi.sourceforge.net/DTD/sodipodi-0.dtd"
   xmlns:inkscape="http://www.inkscape.org/namespaces/inkscape"
   width="210mm"
   height="297mm"
   viewBox="0 0 210 297"
   version="1.1"
   id="svg56"
   inkscape:version="1.0.1 (3bc2e813f5, 2020-09-07)"
   sodipodi:docname="aerial_wiki_free_200Perc_edit_200Perc_edit_Gaus3_OilBrush1_Course8_edit_color8.svg">
  <defs
     id="defs50" />
  <sodipodi:namedview
     id="base"
     pagecolor="#ffffff"
     bordercolor="#666666"
     borderopacity="1.0"
     inkscape:pageopacity="0.0"
     inkscape:pageshadow="2"
     inkscape:zoom="0.98994949"
     inkscape:cx="555.04527"
     inkscape:cy="322.29661"
     inkscape:document-units="mm"
     inkscape:current-layer="layer1"
     inkscape:document-rotation="0"
     showgrid="false"
     inkscape:window-width="3840"
     inkscape:window-height="2097"
     inkscape:window-x="1432"
     inkscape:window-y="140"
     inkscape:window-maximized="1" />
  <metadata
     id="metadata53">
    <rdf:RDF>
      <cc:Work
         rdf:about="">
        <dc:format>image/svg+xml</dc:format>
        <dc:type
           rdf:resource="http://purl.org/dc/dcmitype/StillImage" />
        <dc:title></dc:title>
      </cc:Work>
    </rdf:RDF>
  </metadata>
  <g
     inkscape:label="Laag 1"
     inkscape:groupmode="layer"
     id="layer1">
    <g
       id="g72"
       transform="matrix(3.7274117,0,0,3.5799842,-278.17508,-309.61707)">
      <path
         style="fill:#fcfcfc;stroke-width:0.352778"
         d="M 74.587303,112.6369 V 86.531349 h 28.222217 28.22223 V 112.6369 138.74246 H 102.80952 74.587303 Z"
         id="path88" />
      <path
         style="fill:#a1a0a0;stroke-width:0.352778"
         d="m 89.401645,137.41954 c -0.0027,-1.54741 -0.489185,-2.29969 -3.449553,-5.33451 l -2.192567,-2.24771 v -2.17171 c 0,-2.21846 0.498234,-3.40736 1.834358,-4.37718 0.962224,-0.69843 0.795563,-0.92944 -1.184126,-1.64133 -2.352645,-0.846 -3.119676,-1.63447 -3.119676,-3.20688 0,-1.6451 0.740974,-3.01553 2.373891,-4.39053 1.235499,-1.04035 1.283515,-1.14943 0.673953,-1.53106 -2.86384,-1.79293 -3.400622,-2.35931 -3.400622,-3.58811 0,-0.76213 0.269266,-1.50177 0.705555,-1.93806 0.852501,-0.8525 0.865909,-1.16759 0.140301,-3.29713 -0.706971,-2.07485 -0.432015,-3.23668 0.933044,-3.942577 1.561821,-0.807649 3.965158,-0.273715 6.098804,1.354937 0.935736,0.71426 1.899632,1.29866 2.14199,1.29866 0.242358,0 0.785823,0.36742 1.2077,0.81649 0.636615,0.67764 0.76705,1.23607 0.76705,3.28396 0,1.45304 0.186375,2.72236 0.453334,3.08744 0.427191,0.58422 0.49313,0.576 1.143439,-0.14258 0.411126,-0.45429 0.857006,-1.7531 1.102963,-3.21283 0.465812,-2.76455 0.89807,-3.4797 2.103238,-3.4797 0.48698,0 1.235745,-0.44862 1.793417,-1.07451 1.614322,-1.811806 3.135942,-2.56568 4.743382,-2.350077 3.14469,0.421792 3.5713,2.262107 1.34373,5.796557 -0.45842,0.72736 -0.39876,0.87209 0.81937,1.98786 1.60105,1.4665 1.73727,2.72324 0.39556,3.64939 -0.50502,0.34861 -1.40201,1.0707 -1.99331,1.60465 -0.5913,0.53396 -1.72591,1.13277 -2.52136,1.3307 -1.86303,0.46357 -2.504597,0.83272 -2.504597,1.4411 0,0.40048 0.875747,0.46983 4.762497,0.37712 2.61938,-0.0625 6.56711,0.052 8.77273,0.25442 3.5997,0.33035 4.19559,0.48623 5.82084,1.52262 3.74077,2.38544 5.14198,4.69678 5.15424,8.50211 0.0112,3.46359 -0.64749,4.45433 -3.43183,5.1621 -1.56697,0.39831 -1.93284,0.94491 -0.88195,1.31759 1.54273,0.54711 1.85208,1.19362 1.85208,3.87054 v 2.59116 h -4.76571 -4.76571 l -1.10744,-1.05834 c -1.32642,-1.26759 -1.75785,-1.30368 -3.16331,-0.26458 -1.63948,1.21212 -4.16707,1.10883 -5.56168,-0.22729 -1.02143,-0.97859 -1.10194,-0.99732 -1.93668,-0.45037 -0.47903,0.31387 -0.973067,0.8924 -1.097871,1.28562 -0.213608,0.67302 -0.515211,0.71496 -5.142034,0.71496 h -4.915116 l -0.0023,-1.32292 z"
         id="path86" />
      <path
         style="fill:#5e5d5c;stroke-width:0.352778"
         d="m 90.109525,137.12912 c 0,-1.53592 -0.135443,-1.75478 -2.822222,-4.56027 l -2.822222,-2.94693 v -2.14149 c 0,-1.95192 0.109306,-2.26248 1.234722,-3.50818 0.679097,-0.75168 1.234722,-1.53977 1.234722,-1.75131 0,-0.21154 -0.674688,-0.56613 -1.499306,-0.78797 -3.034159,-0.81628 -3.439583,-1.19596 -3.439583,-3.22115 0,-1.69475 0.106943,-1.91777 1.610303,-3.35825 0.885666,-0.84861 1.560353,-1.75568 1.499305,-2.0157 -0.06105,-0.26002 -0.825372,-1.01367 -1.698497,-1.67479 -1.973362,-1.49419 -2.248482,-2.74426 -0.911169,-4.14012 l 0.907375,-0.94709 -0.703659,-1.38019 c -0.786185,-1.54205 -0.925111,-3.69066 -0.280325,-4.33544 0.232834,-0.23284 1.252549,-0.423336 2.266035,-0.423336 1.560463,0 2.088923,0.187946 3.450263,1.227076 0.884159,0.6749 2.160669,1.45819 2.836688,1.74065 1.395662,0.58314 1.562942,1.03551 1.69368,4.58017 0.0703,1.90602 0.227991,2.51695 0.72846,2.82222 1.018202,0.62107 2.114413,-0.95793 2.679548,-3.85965 0.550413,-2.82613 0.857935,-3.33547 2.013856,-3.33547 0.48698,0 1.235745,-0.44861 1.793417,-1.0745 1.567784,-1.75957 3.105674,-2.546694 4.427024,-2.265848 2.57472,0.547238 2.91222,2.116988 1.04664,4.867948 l -0.91633,1.3512 1.3023,1.22866 c 1.48067,1.39692 1.63899,2.32879 0.5464,3.21614 -0.41575,0.33764 -1.27202,1.05211 -1.90282,1.5877 -0.66315,0.56305 -1.86145,1.10729 -2.84093,1.29027 -1.720051,0.32134 -2.718474,1.16472 -2.532044,2.13883 0.08732,0.45624 1.417164,0.56477 8.937454,0.72942 8.26576,0.18097 8.91465,0.24273 10.07343,0.9589 1.23593,0.76385 4.76711,4.17345 5.29009,5.10795 0.37068,0.66238 0.49619,5.53073 0.16844,6.53391 -0.29218,0.8943 -2.23071,1.84609 -3.75998,1.84609 -0.54693,0 -1.09342,0.16017 -1.21441,0.35593 -0.35927,0.58133 0.16287,1.70828 0.89986,1.94219 1.37543,0.43655 1.74793,1.19264 1.74793,3.54791 v 2.26786 l -4.14514,-0.0136 -4.14514,-0.0136 -0.70779,-1.12523 c -0.8572,-1.36274 -2.40605,-2.01759 -3.27957,-1.38659 -3.04231,2.19765 -4.18371,2.27791 -6.27554,0.44126 -0.67481,-0.59251 -1.29525,-1.07727 -1.37877,-1.07727 -0.42047,0 -2.645829,2.2561 -2.645829,2.68238 0,0.39427 -0.845132,0.49262 -4.233333,0.49262 h -4.233333 z"
         id="path84" />
      <path
         style="fill:#895c2b;stroke-width:0.352778"
         d="m 90.729312,137.14248 0.180341,-1.59998 -2.869508,-2.79343 -2.869509,-2.79342 v -2.42426 c 0,-2.15363 0.102078,-2.51976 0.914337,-3.27952 1.957745,-1.83122 1.802967,-2.65732 -0.598428,-3.19401 -2.463779,-0.55062 -3.138131,-1.15226 -3.138131,-2.79976 0,-1.19408 0.250768,-1.68618 1.5875,-3.11526 0.873125,-0.93344 1.5875,-1.94517 1.5875,-2.24829 0,-0.30313 -0.674688,-1.07631 -1.499306,-1.71819 -0.824618,-0.64188 -1.615937,-1.32991 -1.758486,-1.52895 -0.530841,-0.74121 -0.244747,-1.88479 0.611959,-2.44612 1.066088,-0.69853 1.10119,-1.24329 0.177707,-2.75794 -0.834911,-1.36938 -0.918928,-3.18573 -0.175885,-3.8024 0.337334,-0.27997 1.168945,-0.37939 2.280214,-0.27261 1.344054,0.12915 2.113234,0.46636 3.320743,1.45582 0.864335,0.70826 1.813612,1.28774 2.109505,1.28774 1.057051,0 1.636326,1.45507 1.636326,4.11025 0,2.57495 0.466023,3.65086 1.581339,3.65086 0.774474,0 2.254186,-2.04079 2.501451,-3.44996 0.670142,-3.81914 0.650522,-3.77543 1.751557,-3.90208 0.665001,-0.0765 1.722927,-0.76209 2.913572,-1.88815 1.74148,-1.647021 1.95885,-1.751747 3.17535,-1.52986 2.0945,0.38202 2.41333,0.90563 1.69568,2.78475 -0.33181,0.86885 -0.83307,1.77042 -1.1139,2.00349 -0.84368,0.70019 -0.58244,1.65778 0.72412,2.65434 0.67909,0.51798 1.23472,1.21236 1.23472,1.54308 0,0.84102 -3.42737,3.54828 -4.49209,3.54828 -1.36095,0 -3.129159,0.99994 -3.601537,2.03669 -0.379999,0.83401 -0.339922,1.01752 0.342979,1.5705 0.69244,0.5607 1.655898,0.62615 9.218358,0.62615 6.55602,0 8.6582,0.11063 9.39773,0.49457 0.52394,0.27201 2.02418,1.60595 3.33387,2.96431 l 2.38125,2.46974 v 3.02478 c 0,2.84177 -0.0537,3.05994 -0.88704,3.60598 -0.48787,0.31966 -1.60493,0.66213 -2.48237,0.76103 -0.96816,0.10912 -1.71255,0.4039 -1.8935,0.74984 -0.44994,0.86017 0.15816,2.05364 1.36415,2.67728 0.97765,0.50556 1.07653,0.71524 1.07653,2.28267 0,0.94929 0.0964,1.97709 0.21414,2.284 0.18733,0.4882 -0.27613,0.55802 -3.70417,0.55802 -3.44835,0 -3.9183,-0.0717 -3.9183,-0.59806 0,-0.32893 -0.42658,-1.04331 -0.94795,-1.5875 -1.22909,-1.2829 -2.8954,-1.3228 -4.48875,-0.1075 -1.55499,1.18605 -2.97113,1.13195 -4.61747,-0.17639 -0.73245,-0.58208 -1.54251,-1.05833 -1.80012,-1.05833 -0.75575,0 -2.962376,2.12945 -2.962376,2.85877 0,0.61582 -0.305056,0.66901 -3.837222,0.66901 h -3.837221 z"
         id="path82" />
      <path
         style="fill:#744c24;stroke-width:0.352778"
         d="m 90.729312,137.14248 0.180341,-1.59998 -2.869508,-2.79343 -2.869509,-2.79342 v -2.42426 c 0,-2.15363 0.102078,-2.51976 0.914337,-3.27952 1.957745,-1.83122 1.802967,-2.65732 -0.598428,-3.19401 -2.463779,-0.55062 -3.138131,-1.15226 -3.138131,-2.79976 0,-1.19408 0.250768,-1.68618 1.5875,-3.11526 0.873125,-0.93344 1.5875,-1.94517 1.5875,-2.24829 0,-0.30313 -0.674688,-1.07631 -1.499306,-1.71819 -0.824618,-0.64188 -1.615937,-1.32991 -1.758486,-1.52895 -0.530841,-0.74121 -0.244747,-1.88479 0.611959,-2.44612 1.066088,-0.69853 1.10119,-1.24329 0.177707,-2.75794 -0.834911,-1.36938 -0.918928,-3.18573 -0.175885,-3.8024 0.337334,-0.27997 1.168945,-0.37939 2.280214,-0.27261 1.344054,0.12915 2.113234,0.46636 3.320743,1.45582 0.864335,0.70826 1.813612,1.28774 2.109505,1.28774 1.057051,0 1.636326,1.45507 1.636326,4.11025 0,2.57495 0.466023,3.65086 1.581339,3.65086 0.774474,0 2.254186,-2.04079 2.501451,-3.44996 0.670142,-3.81914 0.650522,-3.77543 1.751557,-3.90208 0.665001,-0.0765 1.722927,-0.76209 2.913572,-1.88815 1.74148,-1.647021 1.95885,-1.751747 3.17535,-1.52986 2.0945,0.38202 2.41333,0.90563 1.69568,2.78475 -0.33181,0.86885 -0.83307,1.77042 -1.1139,2.00349 -0.84368,0.70019 -0.58244,1.65778 0.72412,2.65434 0.67909,0.51798 1.23472,1.21236 1.23472,1.54308 0,0.84102 -3.42737,3.54828 -4.49209,3.54828 -1.36095,0 -3.129159,0.99994 -3.601537,2.03669 -0.379999,0.83401 -0.339922,1.01752 0.342979,1.5705 0.69244,0.5607 1.655898,0.62615 9.218358,0.62615 6.55602,0 8.6582,0.11063 9.39773,0.49457 0.52394,0.27201 2.02418,1.60595 3.33387,2.96431 l 2.38125,2.46974 v 3.02478 c 0,2.84177 -0.0537,3.05994 -0.88704,3.60598 -0.48787,0.31966 -1.60493,0.66213 -2.48237,0.76103 -0.96816,0.10912 -1.71255,0.4039 -1.8935,0.74984 -0.44994,0.86017 0.15816,2.05364 1.36415,2.67728 0.97765,0.50556 1.07653,0.71524 1.07653,2.28267 0,0.94929 0.0964,1.97709 0.21414,2.284 0.18733,0.4882 -0.27613,0.55802 -3.70417,0.55802 -3.44835,0 -3.9183,-0.0717 -3.9183,-0.59806 0,-0.32893 -0.42658,-1.04331 -0.94795,-1.5875 -1.22909,-1.2829 -2.8954,-1.3228 -4.48875,-0.1075 -1.55499,1.18605 -2.97113,1.13195 -4.61747,-0.17639 -0.73245,-0.58208 -1.54251,-1.05833 -1.80012,-1.05833 -0.75575,0 -2.962376,2.12945 -2.962376,2.85877 0,0.61582 -0.305056,0.66901 -3.837222,0.66901 h -3.837221 z m 7.423546,-10.11224 c 0.232833,-0.23284 0.423333,-0.86784 0.423333,-1.41111 0,-0.8107 0.153591,-0.98778 0.856746,-0.98778 1.718613,0 2.511113,-1.76273 1.171723,-2.60622 -0.898747,-0.56599 -1.827963,0.14195 -1.962626,1.49527 -0.08973,0.90179 -0.267641,1.11095 -0.94494,1.11095 -0.819391,0 -1.943125,0.81606 -1.943125,1.41111 0,0.45307 1.046994,1.41111 1.542143,1.41111 0.238377,0 0.623913,-0.1905 0.856746,-0.42333 z m 14.111112,0 c 0.69021,-0.69021 0.48454,-1.68057 -0.43612,-2.10005 -1.67067,-0.76121 -2.69982,0.6776 -1.4084,1.96901 0.66287,0.66288 1.26958,0.70598 1.84452,0.13104 z m 8.11621,-1.80003 c 0.0975,-1.52208 -0.0116,-1.8076 -1.11125,-2.90724 -1.1351,-1.1351 -2.70107,-1.64835 -2.70107,-0.88529 0,0.18376 0.39687,1.08053 0.88194,1.99282 0.48507,0.91229 0.88195,1.92082 0.88195,2.24117 0,0.77056 0.7336,1.47504 1.40377,1.34805 0.37199,-0.0705 0.56967,-0.61921 0.64466,-1.78951 z m -10.582,-2.09817 0.10949,-1.32291 h 2.20434 c 1.35953,0 2.46677,-0.1937 2.88912,-0.50542 1.15297,-0.85097 0.18719,-1.30518 -2.52519,-1.18761 -2.21846,0.0962 -2.44447,0.17596 -2.5472,0.89928 -0.0855,0.60182 -0.34564,0.79375 -1.07597,0.79375 -1.08218,0 -1.80991,0.56738 -1.80991,1.41111 0,0.86174 0.77827,1.45296 1.76141,1.33808 0.74477,-0.087 0.90171,-0.31225 0.99391,-1.42628 z m -20.870549,-5.20347 c 0.564958,0 0.951849,-0.27688 1.16303,-0.83233 0.199046,-0.52353 0.702807,-0.9096 1.357833,-1.0406 0.57276,-0.11455 1.140234,-0.46588 1.261053,-0.78073 0.276948,-0.72172 -0.349413,-1.93245 -0.999736,-1.93245 -0.709219,0 -1.600286,0.99619 -1.600286,1.78909 0,0.54418 -0.250645,0.68035 -1.252241,0.68035 -1.452783,0 -3.33387,0.86766 -3.33387,1.53777 0,0.76012 0.466772,0.99707 1.540953,0.78224 0.559177,-0.11184 1.397646,-0.20334 1.863264,-0.20334 z m 9.408824,-6.47469 c 0.496287,-0.65067 1.388254,-1.3843 1.982145,-1.6303 1.20021,-0.49715 1.33045,-0.95378 0.56187,-1.96994 -0.83503,-1.10401 -0.63152,-1.7853 0.91772,-3.07218 0.80196,-0.66616 1.38895,-1.41865 1.30443,-1.67222 -0.18198,-0.54594 -2.13534,1.41885 -2.78924,2.80555 -0.23375,0.49571 -0.680551,1.43419 -0.992897,2.08553 -0.312347,0.65133 -1.16887,1.80828 -1.903386,2.57099 -1.281818,1.33102 -1.441656,2.06559 -0.449457,2.06559 0.256562,0 0.872529,-0.53236 1.368815,-1.18302 z m -8.932486,-5.0456 c 0,-0.47788 -0.320848,-0.96411 -0.79375,-1.20288 -0.436562,-0.22043 -1.220494,-0.9007 -1.74207,-1.51172 -0.759326,-0.88954 -1.03688,-1.02321 -1.392699,-0.67074 -0.356556,0.3532 -0.186567,0.67634 0.860126,1.63508 0.717477,0.65718 1.304504,1.36157 1.304504,1.5653 0,0.20374 0.17061,0.81733 0.379132,1.36353 0.365674,0.95786 0.396981,0.9688 0.881945,0.30832 0.276547,-0.37663 0.502812,-1.04573 0.502812,-1.48689 z"
         id="path80" />
      <path
         style="fill:#6c451b;stroke-width:0.352778"
         d="m 90.729312,137.14248 0.180341,-1.59998 -2.869508,-2.79343 -2.869509,-2.79342 v -2.42426 c 0,-2.15363 0.102078,-2.51976 0.914337,-3.27952 1.957745,-1.83122 1.802967,-2.65732 -0.598428,-3.19401 -2.463779,-0.55062 -3.138131,-1.15226 -3.138131,-2.79976 0,-1.19408 0.250768,-1.68618 1.5875,-3.11526 0.873125,-0.93344 1.5875,-1.94517 1.5875,-2.24829 0,-0.30313 -0.674688,-1.07631 -1.499306,-1.71819 -0.824618,-0.64188 -1.615937,-1.32991 -1.758486,-1.52895 -0.530841,-0.74121 -0.244747,-1.88479 0.611959,-2.44612 1.066088,-0.69853 1.10119,-1.24329 0.177707,-2.75794 -0.834911,-1.36938 -0.918928,-3.18573 -0.175885,-3.8024 0.337334,-0.27997 1.168945,-0.37939 2.280214,-0.27261 1.344054,0.12915 2.113234,0.46636 3.320743,1.45582 0.864335,0.70826 1.813612,1.28774 2.109505,1.28774 1.057051,0 1.636326,1.45507 1.636326,4.11025 0,2.57495 0.466023,3.65086 1.581339,3.65086 0.774474,0 2.254186,-2.04079 2.501451,-3.44996 0.670142,-3.81914 0.650522,-3.77543 1.751557,-3.90208 0.665001,-0.0765 1.722927,-0.76209 2.913572,-1.88815 1.74148,-1.647021 1.95885,-1.751747 3.17535,-1.52986 2.0945,0.38202 2.41333,0.90563 1.69568,2.78475 -0.33181,0.86885 -0.83307,1.77042 -1.1139,2.00349 -0.84368,0.70019 -0.58244,1.65778 0.72412,2.65434 0.67909,0.51798 1.23472,1.21236 1.23472,1.54308 0,0.84102 -3.42737,3.54828 -4.49209,3.54828 -1.36095,0 -3.129159,0.99994 -3.601537,2.03669 -0.379999,0.83401 -0.339922,1.01752 0.342979,1.5705 0.69244,0.5607 1.655898,0.62615 9.218358,0.62615 6.55602,0 8.6582,0.11063 9.39773,0.49457 0.52394,0.27201 2.02418,1.60595 3.33387,2.96431 l 2.38125,2.46974 v 3.02478 c 0,2.84177 -0.0537,3.05994 -0.88704,3.60598 -0.48787,0.31966 -1.60493,0.66213 -2.48237,0.76103 -0.96816,0.10912 -1.71255,0.4039 -1.8935,0.74984 -0.44994,0.86017 0.15816,2.05364 1.36415,2.67728 0.97765,0.50556 1.07653,0.71524 1.07653,2.28267 0,0.94929 0.0964,1.97709 0.21414,2.284 0.17616,0.45907 -0.074,0.55802 -1.41112,0.55802 -0.89388,0 -1.62524,-0.15875 -1.62524,-0.35278 0,-0.19403 -0.23812,-0.35278 -0.52917,-0.35278 -0.29104,0 -0.52916,0.15875 -0.52916,0.35278 0,0.19403 -0.79375,0.35278 -1.76389,0.35278 -1.42302,0 -1.76389,-0.11558 -1.76389,-0.59806 0,-0.32893 -0.42658,-1.04331 -0.94795,-1.5875 -1.22909,-1.2829 -2.8954,-1.3228 -4.48875,-0.1075 -1.55499,1.18605 -2.97113,1.13195 -4.61747,-0.17639 -0.73245,-0.58208 -1.54251,-1.05833 -1.80012,-1.05833 -0.75575,0 -2.962376,2.12945 -2.962376,2.85877 0,0.55584 -0.263557,0.66901 -1.558102,0.66901 -0.926967,0 -1.62215,-0.17862 -1.716219,-0.44097 -0.219,-0.61077 0.361877,-1.71783 1.341997,-2.55764 0.452888,-0.38806 0.92119,-1.18181 1.040671,-1.76389 l 0.217239,-1.05834 -0.632932,0.87878 c -0.348113,0.48333 -1.157953,1.46512 -1.799645,2.18177 -0.641692,0.71664 -1.191412,1.63088 -1.2216,2.03164 -0.04703,0.62436 -0.290404,0.72865 -1.70037,0.72865 H 90.548971 Z M 114.6945,122.79351 c 0.31438,-0.34738 0.7794,-0.63161 1.03337,-0.63161 0.62118,0 2.2511,2.44629 2.2511,3.37861 0,1.10459 1.29237,2.1624 2.04912,1.67721 0.44135,-0.28297 0.592,-0.86785 0.57861,-2.24643 -0.0168,-1.73408 -0.12059,-1.95479 -1.49011,-3.17014 -1.94269,-1.72399 -3.83298,-2.22532 -7.34235,-1.94732 -1.53511,0.12161 -5.04557,0.30187 -7.80103,0.40058 -4.193664,0.15023 -5.191754,0.0854 -6.12595,-0.39765 -0.802367,-0.41492 -1.223613,-0.46953 -1.498826,-0.19432 -0.210539,0.21054 -0.747923,0.3828 -1.194187,0.3828 -0.446264,0 -0.811389,0.15875 -0.811389,0.35277 0,0.19403 0.387873,0.35278 0.861941,0.35278 0.862727,0 1.960281,1.13823 1.960281,2.03293 0,0.25565 -0.674113,1.08728 -1.49803,1.84806 l -1.49803,1.38323 1.49803,1.52638 c 0.934032,0.95171 1.49803,1.84975 1.49803,2.38528 v 0.85889 l 0.549171,-0.78405 c 0.312698,-0.44644 0.920321,-0.78405 1.411111,-0.78405 0.901878,0 0.972548,-0.16368 0.871516,-2.01847 -0.0504,-0.92522 0.221702,-1.40092 1.463562,-2.55863 1.29491,-1.20718 1.68543,-1.38908 2.58381,-1.20352 0.58208,0.12023 1.13233,0.28728 1.22277,0.37123 0.0905,0.084 0.1341,1.17665 0.097,2.42823 -0.0382,1.28912 0.0817,2.2756 0.27653,2.2756 0.18918,0 0.34396,-0.23812 0.34396,-0.52916 0,-0.65616 1.24566,-1.94028 1.88216,-1.94028 0.25907,0 1.19565,0.71437 2.08129,1.5875 0.88563,0.87312 1.9244,1.5875 2.30838,1.5875 0.45322,0 0.86785,0.40222 1.1819,1.14653 0.45382,1.07553 0.48999,0.89619 0.58421,-2.89618 0.0777,-3.1284 0.22971,-4.18553 0.67204,-4.6743 z m -22.039112,-6.16753 c 1.025122,-0.91046 1.863859,-1.80761 1.863859,-1.99368 0,-0.3312 -3.208746,-2.70188 -3.654492,-2.7 -0.124335,5.3e-4 -0.543564,0.59129 -0.931619,1.3128 -0.472156,0.87789 -1.347403,1.66893 -2.645833,2.39128 -1.308241,0.72782 -1.976999,1.33442 -2.053009,1.8622 -0.108431,0.75292 -0.0046,0.78277 2.722252,0.78277 h 2.834983 z m 5.201505,-4.40837 c 0.395614,-0.42465 0.719298,-0.90968 0.719298,-1.07785 0,-0.16818 0.88602,-0.71141 1.968939,-1.20719 l 1.96893,-0.9014 -0.94488,-0.98625 c -1.16165,-1.2125 -0.97225,-2.08542 0.73503,-3.38762 0.66598,-0.50797 1.21087,-1.14287 1.21087,-1.41088 0,-1.73933 -3.601194,1.75093 -4.2346,4.10415 -0.282662,1.05015 -0.887864,2.00879 -1.799798,2.85089 -1.380342,1.27465 -1.846381,2.78822 -0.858511,2.78822 0.283483,0 0.839108,-0.34743 1.234722,-0.77207 z m -8.294772,-6.31814 c -0.09444,-0.31011 -0.557141,-0.73944 -1.028219,-0.95408 -0.471077,-0.21463 -1.121284,-0.79435 -1.444903,-1.28826 -0.648778,-0.99016 -1.918363,-1.21858 -1.918363,-0.34515 0,0.30407 0.555625,1.07688 1.234722,1.71735 1.062051,1.00164 1.234722,1.39056 1.234722,2.781 0,1.17106 0.170125,1.71294 0.617362,1.96642 0.53656,0.3041 0.673576,0.11017 1.046877,-1.48178 0.236233,-1.00742 0.352245,-2.0854 0.257802,-2.3955 z"
         id="path78" />
      <path
         style="fill:#553212;stroke-width:0.352778"
         d="m 90.729312,137.14248 0.180341,-1.59998 -2.869508,-2.79343 -2.869509,-2.79342 v -2.42426 c 0,-2.15363 0.102078,-2.51976 0.914337,-3.27952 1.957745,-1.83122 1.802967,-2.65732 -0.598428,-3.19401 -2.463779,-0.55062 -3.138131,-1.15226 -3.138131,-2.79976 0,-1.19408 0.250768,-1.68618 1.5875,-3.11526 0.873125,-0.93344 1.5875,-1.94517 1.5875,-2.24829 0,-0.30313 -0.674688,-1.07631 -1.499306,-1.71819 -0.824618,-0.64188 -1.615937,-1.32991 -1.758486,-1.52895 -0.530841,-0.74121 -0.244747,-1.88479 0.611959,-2.44612 1.066088,-0.69853 1.10119,-1.24329 0.177707,-2.75794 -0.834911,-1.36938 -0.918928,-3.18573 -0.175885,-3.8024 0.337334,-0.27997 1.168945,-0.37939 2.280214,-0.27261 1.344054,0.12915 2.113234,0.46636 3.320743,1.45582 0.864335,0.70826 1.813612,1.28774 2.109505,1.28774 1.057051,0 1.636326,1.45507 1.636326,4.11025 0,2.57495 0.466023,3.65086 1.581339,3.65086 0.774474,0 2.254186,-2.04079 2.501451,-3.44996 0.670142,-3.81914 0.650522,-3.77543 1.751557,-3.90208 0.665001,-0.0765 1.722927,-0.76209 2.913572,-1.88815 1.74148,-1.647021 1.95885,-1.751747 3.17535,-1.52986 2.0945,0.38202 2.41333,0.90563 1.69568,2.78475 -0.33181,0.86885 -0.83307,1.77042 -1.1139,2.00349 -0.84368,0.70019 -0.58244,1.65778 0.72412,2.65434 0.67909,0.51798 1.23472,1.21236 1.23472,1.54308 0,0.84102 -3.42737,3.54828 -4.49209,3.54828 -1.36095,0 -3.129159,0.99994 -3.601537,2.03669 -0.379999,0.83401 -0.339922,1.01752 0.342979,1.5705 0.69244,0.5607 1.655898,0.62615 9.218358,0.62615 6.55602,0 8.6582,0.11063 9.39773,0.49457 0.52394,0.27201 2.02418,1.60595 3.33387,2.96431 l 2.38125,2.46974 v 3.02478 c 0,2.84177 -0.0537,3.05994 -0.88704,3.60598 -0.48787,0.31966 -1.60493,0.66213 -2.48237,0.76103 -0.96816,0.10912 -1.71255,0.4039 -1.8935,0.74984 -0.44994,0.86017 0.15816,2.05364 1.36415,2.67728 0.97765,0.50556 1.07653,0.71524 1.07653,2.28267 0,0.94929 0.0964,1.97709 0.21414,2.284 0.17616,0.45907 -0.074,0.55802 -1.41112,0.55802 h -1.62524 v -1.86972 c 0,-1.97708 -0.41446,-2.71639 -1.52281,-2.71639 -0.53713,0 -0.62679,0.1632 -0.43611,0.79375 0.13202,0.43656 0.32993,1.46843 0.4398,2.29305 l 0.19977,1.49931 h -1.63338 c -1.30033,0 -1.63338,-0.12195 -1.63338,-0.59806 0,-0.32893 -0.42658,-1.04331 -0.94795,-1.5875 -1.22909,-1.2829 -2.8954,-1.3228 -4.48875,-0.1075 -1.55499,1.18605 -2.97113,1.13195 -4.61747,-0.17639 -0.73245,-0.58208 -1.54251,-1.05833 -1.80012,-1.05833 -0.75575,0 -2.962376,2.12945 -2.962376,2.85877 0,0.55771 -0.264092,0.66901 -1.5875,0.66901 -0.873125,0 -1.5875,-0.0898 -1.5875,-0.19958 0,-0.44685 0.847194,-1.80368 1.747695,-2.79903 0.526612,-0.58209 1.151661,-1.74212 1.388998,-2.57786 0.237337,-0.83574 0.743797,-1.78824 1.125466,-2.11667 2.173557,-1.87036 2.405797,-2.24635 2.511517,-4.06627 0.0837,-1.44039 0.24091,-1.84169 0.76032,-1.94051 1.00565,-0.19132 1.40658,0.46896 1.3408,2.20811 -0.0472,1.24773 0.0863,1.665 0.62468,1.95315 1.12705,0.60317 2.09126,0.41934 2.7038,-0.51551 0.77787,-1.18718 1.76771,-1.11787 2.43391,0.17042 0.29931,0.5788 1.01776,1.29725 1.59656,1.59656 0.5788,0.29931 1.05236,0.70609 1.05236,0.90395 0,0.58109 1.73752,2.14952 2.11963,1.91336 0.1924,-0.11892 0.34982,-1.38972 0.34982,-2.82401 0,-2.31085 0.72385,-6.30589 1.2352,-6.81724 0.29742,-0.29742 0.97415,0.53416 1.75144,2.15222 0.55073,1.14642 0.94301,1.51958 1.68749,1.60524 1.23916,0.14258 1.75641,-1.01257 1.31994,-2.9478 -0.42856,-1.90019 -1.3776,-3.01381 -3.52587,-4.13732 l -1.86676,-0.97629 -8.15003,0.22754 -8.150022,0.22754 -1.371425,-1.10334 c -1.566235,-1.26005 -1.73004,-1.30037 -2.332742,-0.57416 -0.241543,0.29104 -0.816606,0.52917 -1.277918,0.52917 -1.204498,0 -1.179885,-1.62359 0.03299,-2.17621 0.487731,-0.22223 1.038389,-0.90214 1.250052,-1.54349 0.246725,-0.74758 0.743551,-1.29758 1.428382,-1.58125 0.577539,-0.23922 1.312258,-0.8788 1.632709,-1.42128 0.571222,-0.967 2.150254,-1.84016 4.077534,-2.25475 1.21586,-0.26155 1.26462,-1.16623 0.0789,-1.46383 -0.49019,-0.12303 -1.05374,-0.5273 -1.25234,-0.89839 -0.29927,-0.55919 -0.11431,-0.92646 1.08022,-2.14507 1.49327,-1.52336 1.70003,-2.46882 0.58678,-2.68321 -0.88799,-0.17101 -4.071677,3.34775 -4.094828,4.52581 -0.02157,1.09768 -1.157477,3.00657 -2.084232,3.50255 -0.382899,0.20493 -0.879955,0.92943 -1.104569,1.61002 -0.474073,1.43645 -0.757872,1.48711 -2.935307,0.52393 -2.480724,-1.09735 -3.1229,-2.14206 -2.999923,-4.88041 0.08777,-1.95433 0.0048,-2.32835 -0.59022,-2.66151 -0.380786,-0.2132 -1.196571,-0.91812 -1.812855,-1.56649 -1.170976,-1.23194 -2.325383,-1.39094 -2.526245,-0.34795 -0.06162,0.31997 0.452494,1.14629 1.142476,1.83627 1.231104,1.23111 1.657095,2.75147 0.901736,3.21831 -0.694482,0.42921 -0.330466,1.15573 1.030251,2.05621 2.489292,1.64734 2.167718,3.25507 -1.051315,5.25613 -2.955833,1.83745 -2.78731,3.09461 0.414833,3.09461 1.163811,0 2.80439,0.17333 3.645731,0.38518 1.275997,0.3213 1.56344,0.55382 1.733061,1.40193 0.148075,0.74037 0.541859,1.15817 1.448726,1.53709 1.588261,0.66361 1.668206,1.73069 0.187046,2.49663 -1.393192,0.72044 -1.409628,1.9591 -0.04062,3.06123 1.336909,1.07629 2.157599,2.75796 2.155966,4.41778 -0.0014,1.41473 -1.054199,3.49305 -2.163477,4.27085 -0.388061,0.27211 -0.657426,0.88641 -0.657426,1.49931 0,0.99111 -0.07022,1.03833 -1.544166,1.03833 h -1.544166 z"
         id="path76" />
      <path
         style="fill:#20160f;stroke-width:0.352778"
         d="m 90.81508,136.96351 c 0,-1.76109 -0.02834,-1.80636 -2.822222,-4.50797 l -2.822222,-2.72902 v -2.19379 c 0,-2.03342 0.09521,-2.29918 1.302471,-3.63547 1.619706,-1.79282 1.361302,-2.38995 -1.329234,-3.07161 -2.390398,-0.60562 -2.795459,-0.94312 -2.795459,-2.32922 0,-1.10813 1.49322,-3.74286 2.121252,-3.74286 0.558788,0 1.436075,-1.62918 1.203563,-2.2351 -0.120433,-0.31384 -0.997159,-1.12969 -1.948281,-1.81301 -2.022279,-1.45286 -2.187634,-2.29469 -0.670979,-3.416 1.255311,-0.9281 1.280184,-1.11125 0.331799,-2.44313 -0.912836,-1.28196 -1.089236,-3.78106 -0.302951,-4.29197 0.940442,-0.611083 3.751895,0.0221 5.013122,1.12897 0.622403,0.54625 1.726954,1.24179 2.454558,1.54565 1.258592,0.52561 1.324706,0.63483 1.359724,2.24617 0.102791,4.72989 0.504383,5.69269 2.197252,5.26781 1.196557,-0.30032 2.2255,-2.11188 2.530983,-4.45606 0.297322,-2.28155 0.651764,-2.82222 1.850153,-2.82222 0.59393,0 1.369859,-0.52134 2.362711,-1.5875 1.2712,-1.36506 1.67261,-1.58674 2.8648,-1.5821 0.76255,0.003 1.60825,0.14584 1.87932,0.31748 0.72436,0.45864 0.26555,2.65422 -0.82565,3.95104 -0.49606,0.58953 -0.90193,1.27126 -0.90193,1.51494 0,0.24368 0.635,0.95336 1.41111,1.57706 0.77611,0.6237 1.41111,1.27654 1.41111,1.45077 0,0.17422 -0.88768,1.03987 -1.97262,1.92365 -1.46214,1.19105 -2.27676,1.60688 -3.14793,1.60688 -2.237418,0 -4.264405,2.67928 -2.889964,3.81996 0.290818,0.24136 3.726824,0.41685 9.479814,0.48417 l 9.02366,0.1056 1.54449,1.41111 c 0.84947,0.77611 2.21918,2.17104 3.0438,3.09985 1.47099,1.65686 1.4992,1.7368 1.4939,4.23334 -0.003,1.39952 -0.12203,2.71925 -0.26458,2.93275 -0.44209,0.66208 -1.86154,1.26003 -3.5653,1.50188 -1.441,0.20455 -1.64568,0.34337 -1.74271,1.18189 -0.14131,1.22113 0.48957,2.39612 1.28652,2.39612 1.07393,0 1.46925,0.77834 1.46925,2.89278 0,2.03827 -0.004,2.04611 -1.05833,2.04611 -1.05692,0 -1.05833,-0.003 -1.05833,-2.09147 0,-1.9884 -0.53434,-3.2002 -1.41111,-3.2002 -0.90848,0 -1.41112,-1.21099 -1.41112,-3.39978 0,-3.53446 0.86957,-4.538 2.4035,-2.77383 1.47298,1.69408 3.60249,0.73446 3.58448,-1.61528 -0.0184,-2.39928 -2.23767,-5.36579 -4.72035,-6.30971 -0.56333,-0.21418 -4.384,-0.36529 -9.23597,-0.36529 h -8.275197 l -1.579618,-1.45604 c -0.86879,-0.80082 -1.572461,-1.71363 -1.563713,-2.02847 0.0087,-0.31484 0.858165,-1.48486 1.887595,-2.60004 1.640233,-1.77688 2.105703,-2.072 3.764063,-2.3865 2.0824,-0.39492 2.33201,-0.55145 2.50504,-1.57093 0.0863,-0.5083 -0.23541,-0.86213 -1.20524,-1.32569 -0.72761,-0.34778 -1.32292,-0.77571 -1.32292,-0.95097 0,-0.17525 0.51594,-0.74933 1.14653,-1.27574 1.52317,-1.27152 1.77959,-1.78009 1.32542,-2.62872 -0.63883,-1.19366 -1.89292,-0.86178 -3.80007,1.00564 -1.390056,1.36111 -1.803054,2.03579 -1.997524,3.2632 -0.189462,1.19579 -0.666518,2.00512 -2.099877,3.56243 -1.849829,2.00979 -1.858121,2.01406 -3.145213,1.61904 -0.709772,-0.21783 -1.651405,-0.78142 -2.092518,-1.25241 -0.688537,-0.73518 -0.794967,-1.20418 -0.752148,-3.3145 l 0.04988,-2.45816 -1.372793,-0.8666 c -0.755037,-0.47664 -1.372794,-1.01929 -1.372794,-1.2059 0,-0.18661 -0.441466,-0.56759 -0.981035,-0.84661 -2.134473,-1.10378 -2.993939,1.00188 -1.135631,2.78225 1.326554,1.27092 1.405323,2.5453 0.176389,2.85375 -1.132605,0.28426 -1.123856,1.00064 0.02203,1.80409 2.129151,1.49287 2.97658,2.32339 2.97658,2.91719 0,0.56354 -1.083113,1.69209 -3.494421,3.64101 -0.534512,0.43201 -0.747878,0.93556 -0.67267,1.5875 0.104899,0.90931 0.221069,0.9632 2.438454,1.13118 2.873383,0.21769 3.496084,0.6829 3.481306,2.60084 -0.01227,1.59269 -0.370003,2.20381 -1.840864,3.14478 -0.889157,0.56884 -0.970139,0.80525 -0.970139,2.83212 0,2.14567 0.04593,2.25655 1.543531,3.72633 1.110886,1.09026 1.777328,1.48165 2.377645,1.39637 1.276672,-0.18136 1.196877,-1.17307 -0.196401,-2.44092 -1.491839,-1.35755 -1.704522,-2.8804 -0.492843,-3.52888 0.689646,-0.36908 0.957787,-0.19334 2.806875,1.83968 1.808245,1.9881 2.046161,2.42183 2.059736,3.75492 0.01302,1.27869 -0.198589,1.73929 -1.395765,3.03807 -0.902855,0.97948 -1.411111,1.86609 -1.411111,2.46156 0,0.79891 -0.149849,0.93069 -1.058333,0.93069 -1.03601,0 -1.058334,-0.0375 -1.058334,-1.77895 z m 4.938889,1.58504 c 0,-0.49495 1.11486,-2.27554 1.424756,-2.27554 0.191566,0 0.678913,-0.68049 1.082991,-1.51221 0.404079,-0.83171 1.195766,-1.77683 1.759304,-2.10026 0.56354,-0.32342 1.02462,-0.80895 1.02462,-1.07894 0,-0.27 0.30339,-0.76547 0.67421,-1.10106 0.53384,-0.48311 1.02964,-0.56178 2.38125,-0.3778 3.39509,0.46214 3.68753,0.89266 1.85269,2.7275 -1.50716,1.50717 -1.86279,2.55719 -1.11825,3.30173 0.54931,0.54931 0.62455,0.53484 1.13326,-0.21794 0.29969,-0.44347 1.12769,-1.42341 1.84,-2.17764 1.10638,-1.17149 1.44055,-1.33621 2.29306,-1.13033 0.54887,0.13255 1.73686,0.89278 2.63999,1.6894 0.90313,0.79661 1.89531,1.65308 2.20486,1.90327 0.30955,0.25018 0.56281,0.92487 0.56281,1.4993 0,0.92529 -0.12072,1.04443 -1.05833,1.04443 -0.73495,0 -1.05833,-0.17247 -1.05833,-0.56445 0,-0.31044 -0.53975,-1.10419 -1.19945,-1.76389 -1.46463,-1.46463 -2.76431,-1.55747 -4.445,-0.3175 -0.6718,0.49565 -1.67619,0.88195 -2.29305,0.88195 -0.61687,0 -1.62125,-0.3863 -2.29306,-0.88195 -0.65747,-0.48506 -1.5538,-0.88194 -1.99183,-0.88194 -0.85803,0 -3.299834,2.25895 -3.299834,3.05273 0,0.29265 -0.406361,0.47505 -1.058334,0.47505 -0.582083,0 -1.058333,-0.0873 -1.058333,-0.19391 z"
         id="path74" />
    </g>
  </g>
</svg>
