<svg xmlns="http://www.w3.org/2000/svg" width="793.701" height="1122.52" viewBox="0 0 210 297"  xmlns:v="https://vecta.io/nano"><path d="M.126 134.749V-.013h282.222V269.51H.126z" fill="#d00002"/><path d="M.126 134.749V-.013h282.222V269.51H.126zm155.641-9.126c.521-.123 1.35-.575 1.842-1.006.835-.731.861-.848.393-1.764-.276-.54-.584-1.259-.684-1.599-.231-.778-1.571-.802-4.022-.075l-1.828.543v1.901c0 1.514.126 1.934.617 2.062.872.228 2.568.199 3.682-.063z" fill="#b60000"/><path d="M.126 134.749V-.013h282.222V269.51H.126zm158.671-10.046c1.305-.675 2.838-1.616 3.407-2.093 1.005-.842 1.021-.906.573-2.263-.817-2.477-.57-2.442-5.723-.805-6.856 2.178-7.15 2.349-7.285 4.236-.072 1.003.053 1.657.353 1.847.255.162 1.778.297 3.383.3 2.648.005 3.14-.109 5.292-1.221zm-46.327.655c.88-.338 1.689-2.139 1.29-2.871-1.154-2.118-4.32-3.822-9.347-5.031-2.499-.601-2.883-.616-3.792-.145-.813.421-1.012.759-1.012 1.725 0 1.425.54 1.871 4.939 4.077 4.678 2.346 6.393 2.832 7.922 2.246z" fill="#8f0000"/><path d="M.126 134.749V-.013h282.222V269.51H.126zm158.077-9.362c2.409-1.014 4.602-2.503 5.651-3.836.577-.734.667-1.2.475-2.477-.152-1.013-.432-1.611-.787-1.68-.578-.112-12.732 3.852-14.099 4.598-.97.529-1.306 1.719-.836 2.955.409 1.077.941 1.222 4.724 1.288 2.217.039 3.153-.124 4.873-.848zm-45.404.205c.739-.281 1.98-1.938 1.98-2.642 0-.518-2.754-3.148-3.919-3.742-1.805-.921-7.185-2.45-8.621-2.45-1.928 0-2.859.529-3.106 1.765-.123.613-.068 1.405.122 1.759.337.63 6.886 4.174 9.463 5.121 1.575.579 2.896.64 4.081.19z" fill="#6d0000"/><path d="M.126 134.749V-.013h282.222V269.51H.126zm158.871-9.461c1.194-.566 3.283-1.862 4.641-2.88l3.277-2.226c.675-.314.77-.554.577-1.46-.127-.596-.395-1.287-.595-1.535-.682-.846-4.164-.152-10.844 2.16-8.098 2.803-7.509 2.54-8.411 3.76l-.758 1.025.901.973c1.713 1.848 7.499 1.943 11.211.183zm-44.816-.073c1.395-1.097 1.502-1.956.422-3.373-1.814-2.379-4.652-3.749-10.158-4.903-2.895-.607-3.182-.612-4.312-.073-1.447.69-1.935 2.061-1.195 3.354.317.553 2.197 1.739 5.212 3.288 4.347 2.233 4.889 2.423 6.92 2.423 1.679 0 2.42-.17 3.112-.715z" fill="#4e0000"/><path d="M.126 134.749V-.013h282.222V269.51H.126zm159.456-9.379l8.325-5.114c.736-.611.614-2.575-.207-3.318-1.17-1.059-3.177-.784-9.001 1.232l-6.879 2.296c-2.947.936-5.152 2.221-5.538 3.226-.218.568 1.097 2.146 2.187 2.625.388.17 2.611.271 4.939.223 3.988-.082 4.346-.149 6.174-1.169zm-44.626.065c.97-.462 2.081-1.09 2.469-1.395.698-.549.695-.564-.234-1.361-.517-.443-1.196-1.322-1.508-1.953-.467-.942-.773-1.147-1.716-1.147-.631 0-1.46-.219-1.843-.486-1.031-.721-3.822-1.62-7.37-2.375-2.623-.558-3.357-.598-4.41-.242-2.588.875-3.192 2.279-1.704 3.961.813.918 6.239 4 9.084 5.16 2.28.929 5.073.867 7.232-.161z" fill="#2e0000"/><path d="M.126 134.749V-.013h282.222V269.51H.126zm158.854-8.175c.93-.196 2.042-.718 2.469-1.16s1.889-1.444 3.247-2.227c2.928-1.688 3.967-2.717 4.269-4.226.188-.938.046-1.292-.887-2.225-.974-.974-1.271-1.082-2.423-.886l-2.018.335c-2.916.456-4.121.77-5.793 1.508-1.052.464-3.036 1.138-4.41 1.497-2.333.61-5.205 1.661-7.26 2.657-.786.381-.872.616-.788 2.16.135 2.5.514 2.731 4.928 3.008 3.97.25 5.84.154 8.664-.441zm-41.928-1.035c.875-.658 1.9-1.809 2.279-2.558 1.228-2.429.256-3.282-4.906-4.302-.679-.134-1.868-.565-2.642-.956s-2.441-.839-3.704-.993l-4.519-.666c-1.222-.212-2.388-.283-2.591-.158s-.992.219-1.753.209c-.954-.013-1.676.232-2.324.789-.882.758-.911.878-.475 1.93.707 1.707 3.341 3.805 7.248 5.773 4.675 2.355 4.783 2.383 8.544 2.246 3.064-.112 3.344-.188 4.843-1.315z" fill="#080808"/><path d="M.126 134.749V-.013h282.222V269.51H.126zm138.189 102.923c.401-.437 1.458-2.152 2.35-3.812 1.846-3.437 1.837-4.019-.094-6.685-1.326-1.83-1.365-2.446-.226-3.516.479-.45 1.059-1.391 1.288-2.09.488-1.491 3.141-6.981 4.207-8.705 1.399-2.264.155-3.954-1.554-2.111-.464.501-1.975 3.191-3.357 5.978-2.081 4.196-2.513 5.363-2.513 6.79 0 1.415-.252 2.109-1.413 3.885-1.643 2.514-2.199 4.862-1.879 7.927.321 3.076 1.633 4.038 3.192 2.341zm-15.181-6.323c1.027-.965 1.079-2.816.128-4.525l-1.433-2.822-1.126-2.364c-.228-.466-.288-1.563-.15-2.741.242-2.059-.42-4.049-1.7-5.112-.47-.39-.528-.971-.345-3.504.212-2.934.181-3.106-.898-5.106-.615-1.138-1.229-2.726-1.366-3.528-.224-1.312-.35-1.458-1.259-1.458-1.585 0-1.867.854-.971 2.935.445 1.033.766 2.517.766 3.533 0 1.503.203 2.019 1.434 3.639 1.335 1.756 1.42 2.003 1.224 3.555-.229 1.811.676 4.22 1.737 4.627.707.271.709 2.629.004 3.562-.648.857-.654 2.652-.017 5.046.271 1.017.418 2.135.327 2.483-.224.855 1.161 2.546 2.085 2.546.41 0 1.113-.345 1.562-.767zm27.336-47.123c.694-.728 1.723-2.275 2.286-3.44l3.042-5.915c1.11-2.089 2.019-4.232 2.02-4.762s-.254-2.017-.567-3.303c-.527-2.171-.524-2.488.033-4.41.33-1.139 1.55-3.937 2.712-6.217 1.87-3.672 2.412-4.416 4.739-6.507 2.261-2.031 2.705-2.628 3.183-4.27.387-1.332.483-2.511.317-3.9-.365-3.047-.522-3.458-1.494-3.9-1.126-.513-1.775.004-3.226 2.576-.561.994-2.625 3.346-4.601 5.242-4.266 4.095-4.698 4.208-7.394 1.94-2.376-1.999-2.954-2.799-5.235-7.242-4.252-8.283-5.171-9.219-7.172-7.302-.692.663-1.146 1.579-1.408 2.839-.42 2.023-.7 2.355-3.108 3.679-.889.489-2.359 1.825-3.298 2.999l-2.633 3.278c-.636.787-.993 1.72-1.106 2.894-.151 1.569-.065 1.835.908 2.807 1.217 1.217 2.422 1.361 5.009.6 2.25-.662 3.122-.316 4.609 1.828.709 1.022 2.956 3.556 4.995 5.632 4.207 4.283 4.86 5.326 4.86 7.766 0 2.054-.801 3.267-2.844 4.309-.751.383-1.53 1.003-1.731 1.378-.656 1.226-.394 3.31.71 5.643.591 1.248 1.169 2.962 1.285 3.809.472 3.441 2.828 4.339 5.11 1.948zm-33.143-2.822c.298-.34 1.208-2.064 2.023-3.831 1.961-4.252 1.882-4.858-.849-6.507-2.467-1.49-3.49-2.722-3.449-4.156.05-1.742 1.989-5.042 3.934-6.693 2.028-1.721 2.201-2.465 1.084-4.655-.974-1.909-.885-3.438.352-6.054.582-1.23 1.058-2.638 1.058-3.128 0-1.087-2.238-5.861-3.262-6.957-1.221-1.307-2.404-1.038-3.869.882-.703.922-1.943 2.39-2.755 3.263-1.673 1.8-2.047 2.551-2.631 5.292-.318 1.492-.628 2.061-1.343 2.464-.99.557-.78.601-4.71-.985-1.511-.61-1.916-.656-2.433-.278-.854.625-.486 1.875 1.116 3.79.706.845 1.491 2.012 1.744 2.594l4.385 9.878c.709 1.502 1.054 2.885 1.189 4.763.157 2.202.439 3.134 1.68 5.553 2.166 4.225 3.213 5.383 4.862 5.383.826 0 1.536-.234 1.872-.617zm43.841-54.581c3.389-.799 4.666-1.737 6.46-4.744 1.175-1.97 1.493-2.83 1.41-3.81-.123-1.436-1.411-2.646-2.796-2.627-3.242.044-6.357.603-8.352 1.499-1.221.549-3.08 1.156-4.13 1.351s-2.576.693-3.391 1.109-2.251.984-3.191 1.263c-2.083.619-2.728 1.53-2.506 3.543.204 1.851 1.067 2.656 3.202 2.984 2.654.409 10.591.069 13.296-.569zm-44.31-.555c1.416-1.026 3.564-3.9 3.564-4.769 0-.227-.314-.812-.699-1.301-.528-.672-1.278-.998-3.075-1.337-1.307-.247-3.334-.896-4.505-1.443-2.57-1.201-5.775-1.703-10.925-1.712-3.481-.006-3.938.068-4.674.76-2.28 2.142.536 5.427 7.637 8.912l3.998 1.962h3.599c3.45 0 3.66-.044 5.08-1.073z"/></svg>