<?xml version="1.0" encoding="UTF-8" standalone="no"?>
<svg
   xmlns:dc="http://purl.org/dc/elements/1.1/"
   xmlns:cc="http://creativecommons.org/ns#"
   xmlns:rdf="http://www.w3.org/1999/02/22-rdf-syntax-ns#"
   xmlns:svg="http://www.w3.org/2000/svg"
   xmlns="http://www.w3.org/2000/svg"
   xmlns:sodipodi="http://sodipodi.sourceforge.net/DTD/sodipodi-0.dtd"
   xmlns:inkscape="http://www.inkscape.org/namespaces/inkscape"
   width="210mm"
   height="297mm"
   viewBox="0 0 210 297"
   version="1.1"
   id="svg8"
   inkscape:version="1.0.1 (3bc2e813f5, 2020-09-07)"
   sodipodi:docname="portrait_wiki_400perc_Gaus7_edit_OilBrush6_Course23_face_black_color8.svg">
  <defs
     id="defs2" />
  <sodipodi:namedview
     id="base"
     pagecolor="#ffffff"
     bordercolor="#666666"
     borderopacity="1.0"
     inkscape:pageopacity="0.0"
     inkscape:pageshadow="2"
     inkscape:zoom="1.4"
     inkscape:cx="1237.8655"
     inkscape:cy="450.77049"
     inkscape:document-units="mm"
     inkscape:current-layer="layer1"
     inkscape:document-rotation="0"
     showgrid="false"
     inkscape:window-width="3840"
     inkscape:window-height="2097"
     inkscape:window-x="1432"
     inkscape:window-y="140"
     inkscape:window-maximized="1" />
  <metadata
     id="metadata5">
    <rdf:RDF>
      <cc:Work
         rdf:about="">
        <dc:format>image/svg+xml</dc:format>
        <dc:type
           rdf:resource="http://purl.org/dc/dcmitype/StillImage" />
        <dc:title></dc:title>
      </cc:Work>
    </rdf:RDF>
  </metadata>
  <g
     inkscape:label="Laag 1"
     inkscape:groupmode="layer"
     id="layer1">
    <g
       id="g90"
       transform="translate(73.957349,48.569941)">
      <path
         style="fill:#d00002;stroke-width:0.352778"
         d="M -73.831352,86.178571 V -48.582539 H 67.279763 208.39088 V 86.178571 220.93968 H 67.279763 -73.831352 Z"
         id="path106" />
      <path
         style="fill:#b60000;stroke-width:0.352778"
         d="M -73.831352,86.178571 V -48.582539 H 67.279763 208.39088 V 86.178571 220.93968 H 67.279763 -73.831352 Z M 81.809696,77.052806 c 0.521391,-0.122565 1.350306,-0.575049 1.842029,-1.005522 0.834803,-0.730815 0.860841,-0.847694 0.392963,-1.763889 -0.275594,-0.539666 -0.58359,-1.259025 -0.684432,-1.598574 -0.230931,-0.777571 -1.570993,-0.802404 -4.022019,-0.07453 l -1.827918,0.542834 v 1.900745 c 0,1.513586 0.125747,1.933603 0.617361,2.062074 0.87189,0.227852 2.567848,0.198766 3.682016,-0.06314 z"
         id="path104" />
      <path
         style="fill:#8f0000;stroke-width:0.352778"
         d="M -73.831352,86.178571 V -48.582539 H 67.279763 208.39088 V 86.178571 220.93968 H 67.279763 -73.831352 Z M 84.839263,76.132529 c 1.304844,-0.674628 2.837935,-1.61647 3.406867,-2.092981 1.005068,-0.841799 1.021338,-0.906025 0.573395,-2.263303 -0.817447,-2.476895 -0.570206,-2.442114 -5.723076,-0.805095 -6.855608,2.177962 -7.149673,2.348974 -7.284709,4.236346 -0.07178,1.003275 0.05303,1.656599 0.352777,1.846682 0.255122,0.161781 1.777507,0.296577 3.383079,0.299548 2.647989,0.0049 3.139656,-0.108568 5.291667,-1.221197 z M 38.512569,76.78721 c 0.87956,-0.33752 1.689005,-2.138651 1.290189,-2.870852 -1.153749,-2.118212 -4.31952,-3.822196 -9.346653,-5.030865 -2.499198,-0.60088 -2.882995,-0.61559 -3.792361,-0.145338 -0.813404,0.420628 -1.01176,0.758783 -1.01176,1.724844 0,1.424844 0.540272,1.870787 4.938889,4.076601 4.678373,2.346103 6.393103,2.832188 7.921696,2.24561 z"
         id="path102" />
      <path
         style="fill:#6d0000;stroke-width:0.352778"
         d="M -73.831352,86.178571 V -48.582539 H 67.279763 208.39088 V 86.178571 220.93968 H 67.279763 -73.831352 Z M 84.24576,76.816212 c 2.408541,-1.013742 4.601895,-2.502821 5.650919,-3.836433 0.577236,-0.733842 0.666566,-1.199614 0.475032,-2.476867 -0.151923,-1.01309 -0.432075,-1.611115 -0.78699,-1.679953 -0.57754,-0.112017 -12.731684,3.851614 -14.098708,4.597778 -0.969504,0.52918 -1.306354,1.719153 -0.836489,2.954993 0.409448,1.076929 0.941155,1.221927 4.723507,1.288133 2.217495,0.03881 3.153396,-0.123994 4.872729,-0.847651 z m -45.404473,0.205292 c 0.738689,-0.280846 1.980142,-1.93754 1.980142,-2.642454 0,-0.518029 -2.754358,-3.148157 -3.91916,-3.742397 -1.805019,-0.920848 -7.185385,-2.449749 -8.620951,-2.449749 -1.928446,0 -2.858527,0.528603 -3.105841,1.765173 -0.12263,0.613146 -0.0679,1.404546 0.121623,1.758672 0.336914,0.629525 6.886022,4.173759 9.462936,5.121137 1.57467,0.578912 2.895879,0.640295 4.081251,0.189618 z"
         id="path100" />
      <path
         style="fill:#4e0000;stroke-width:0.352778"
         d="M -73.831352,86.178571 V -48.582539 H 67.279763 208.39088 V 86.178571 220.93968 H 67.279763 -73.831352 Z M 85.039976,76.717763 c 1.194453,-0.566301 3.282982,-1.862173 4.641177,-2.879715 1.358194,-1.017545 2.83301,-2.019332 3.277369,-2.226197 0.675192,-0.314325 0.769923,-0.554115 0.576626,-1.459558 -0.127216,-0.595895 -0.395055,-1.286577 -0.5952,-1.534851 -0.681941,-0.845933 -4.163967,-0.152383 -10.843518,2.159811 -8.097841,2.803151 -7.509133,2.539965 -8.411404,3.760353 l -0.757619,1.024732 0.901485,0.972717 c 1.713036,1.848401 7.498895,1.942691 11.211084,0.182708 z m -44.816142,-0.0734 c 1.394591,-1.09698 1.502064,-1.956467 0.421753,-3.372824 -1.814481,-2.378907 -4.652201,-3.74875 -10.157764,-4.90342 -2.894686,-0.607095 -3.182451,-0.611981 -4.312267,-0.07321 -1.446862,0.68996 -1.935438,2.060967 -1.195176,3.353823 0.316501,0.552772 2.197255,1.739213 5.21159,3.287642 4.347259,2.233137 4.888819,2.422748 6.919785,2.422748 1.678693,0 2.419802,-0.170212 3.112079,-0.714759 z"
         id="path98" />
      <path
         style="fill:#2e0000;stroke-width:0.352778"
         d="M -73.831352,86.178571 V -48.582539 H 67.279763 208.39088 V 86.178571 220.93968 H 67.279763 -73.831352 Z M 85.624208,76.79984 c 2.471808,-1.379051 7.678985,-4.577828 8.325418,-5.114322 0.736314,-0.611085 0.613897,-2.575225 -0.206795,-3.317938 -1.170199,-1.059018 -3.176566,-0.784472 -9.000568,1.2316 -2.134305,0.738826 -5.22993,1.771971 -6.879166,2.295881 -2.947025,0.936177 -5.152267,2.220867 -5.538082,3.226283 -0.21794,0.567941 1.096923,2.146223 2.186693,2.624769 0.388055,0.170406 2.610555,0.270771 4.938889,0.22303 3.988251,-0.08177 4.345661,-0.149469 6.173611,-1.169303 z m -44.62639,0.06525 c 0.970139,-0.461956 2.081389,-1.089809 2.469444,-1.395226 0.697961,-0.549331 0.695438,-0.563986 -0.234403,-1.361496 -0.516978,-0.443403 -1.19574,-1.322123 -1.508365,-1.952714 -0.466975,-0.941934 -0.773116,-1.146527 -1.715572,-1.146527 -0.630943,0 -1.460306,-0.218772 -1.843024,-0.48616 -1.031392,-0.72058 -3.822295,-1.619832 -7.370068,-2.374695 -2.622899,-0.558073 -3.356635,-0.59841 -4.409722,-0.242411 -2.587918,0.874846 -3.192325,2.279484 -1.704263,3.960706 0.81267,0.918157 6.238572,4.000147 9.084028,5.159855 2.279696,0.929121 5.072772,0.866814 7.231945,-0.161332 z"
         id="path96" />
      <path
         style="fill:#080808;stroke-width:0.352778"
         d="M -73.831352,86.178571 V -48.582539 H 67.279763 208.39088 V 86.178571 220.93968 H 67.279763 -73.831352 Z M 85.022859,78.003207 c 0.930441,-0.196151 2.041691,-0.718368 2.469445,-1.160487 0.427757,-0.442115 1.888987,-1.44442 3.247182,-2.227344 2.928168,-1.687928 3.967201,-2.716558 4.269176,-4.226436 0.18754,-0.937694 0.04623,-1.292289 -0.886778,-2.225301 -0.973533,-0.973533 -1.271108,-1.082333 -2.422522,-0.885737 -0.721959,0.123271 -1.630154,0.273819 -2.018209,0.33455 -2.916055,0.456357 -4.120674,0.770025 -5.792799,1.508361 -1.051733,0.4644 -3.036108,1.138178 -4.409722,1.497281 -2.332877,0.609885 -5.205377,1.661287 -7.25998,2.657319 -0.785939,0.381007 -0.871749,0.616169 -0.788275,2.160313 0.135135,2.499758 0.513793,2.730912 4.928186,3.008446 3.970098,0.249601 5.840017,0.154432 8.664296,-0.440965 z M 43.095258,76.967896 c 0.874787,-0.657948 1.900347,-1.808956 2.279022,-2.557798 1.228475,-2.42933 0.255775,-3.282255 -4.905629,-4.301567 -0.679097,-0.134112 -1.867888,-0.564508 -2.641759,-0.95643 -0.773871,-0.391922 -2.440746,-0.83856 -3.704166,-0.992523 -1.263421,-0.153966 -3.296896,-0.453615 -4.518826,-0.665885 -1.221934,-0.212274 -2.387664,-0.28338 -2.590508,-0.158013 -0.202847,0.125363 -0.991693,0.21934 -1.752991,0.208834 -0.954236,-0.01316 -1.676178,0.232061 -2.324241,0.789499 -0.881522,0.758253 -0.911127,0.878455 -0.475414,1.930354 0.707097,1.707085 3.34102,3.80486 7.248183,5.772785 4.675198,2.35476 4.782837,2.383053 8.543738,2.245741 3.063759,-0.111855 3.344175,-0.188002 4.842591,-1.314997 z"
         id="path94" />
      <path
         style="fill:#000000;stroke-width:0.352778"
         d="M -73.831352,86.178571 V -48.582539 H 67.279763 208.39088 V 86.178571 220.93968 H 67.279763 -73.831352 Z M 64.358001,189.10149 c 0.400953,-0.43657 1.458253,-2.15202 2.349553,-3.81212 1.845529,-3.4374 1.837355,-4.01853 -0.09403,-6.68473 -1.325651,-1.83001 -1.365236,-2.44614 -0.22594,-3.51645 0.479439,-0.45041 1.058926,-1.3909 1.287752,-2.08997 0.488096,-1.49114 3.140971,-6.98113 4.206653,-8.70544 1.398961,-2.26357 0.154573,-3.95438 -1.553715,-2.1111 -0.464277,0.50096 -1.975125,3.19092 -3.357436,5.97769 -2.081127,4.19558 -2.513294,5.36309 -2.513294,6.78971 0,1.41521 -0.252268,2.10896 -1.412681,3.88492 -1.642788,2.51421 -2.199175,4.86167 -1.878796,7.92687 0.321455,3.07552 1.633407,4.03757 3.191937,2.34062 z m -15.180836,-6.3233 c 1.027148,-0.96496 1.079475,-2.81558 0.127938,-4.52462 -0.378096,-0.6791 -1.023108,-1.9491 -1.433357,-2.82222 -0.410249,-0.87313 -0.917152,-1.93708 -1.126451,-2.36434 -0.228209,-0.46586 -0.288153,-1.5629 -0.149744,-2.74054 0.241977,-2.05884 -0.420049,-4.04916 -1.700255,-5.11163 -0.470436,-0.39043 -0.527551,-0.97076 -0.344875,-3.50418 0.211525,-2.9335 0.181119,-3.10629 -0.898458,-5.10562 -0.614567,-1.13814 -1.229434,-2.72564 -1.366369,-3.52777 -0.223947,-1.31185 -0.350488,-1.45842 -1.259092,-1.45842 -1.584558,0 -1.867048,0.85354 -0.971486,2.93534 0.444517,1.0333 0.766413,2.5171 0.766413,3.53283 0,1.5032 0.203172,2.01862 1.43437,3.63877 1.334713,1.75636 1.419729,2.00339 1.223602,3.55545 -0.228801,1.81062 0.675556,4.22026 1.736722,4.62747 0.706893,0.27126 0.709411,2.6287 0.0038,3.56159 -0.648346,0.85719 -0.65442,2.65168 -0.01707,5.04577 0.270873,1.01749 0.418045,2.1347 0.327046,2.48268 -0.223665,0.85529 1.161288,2.54649 2.085364,2.54649 0.409974,0 1.112827,-0.34518 1.561896,-0.76705 z m 27.335756,-47.12254 c 0.694355,-0.7276 1.723076,-2.27541 2.286053,-3.43958 0.562973,-1.16417 1.932083,-3.82573 3.042465,-5.91458 1.110385,-2.08885 2.019296,-4.23198 2.019801,-4.7625 3.53e-4,-0.53052 -0.254434,-2.01704 -0.566544,-3.30337 -0.526711,-2.17082 -0.524365,-2.48752 0.03267,-4.40972 0.33007,-1.13902 1.550247,-3.93651 2.711511,-6.21665 1.870018,-3.67179 2.411761,-4.41562 4.738994,-6.50674 2.260829,-2.031467 2.705086,-2.627549 3.182655,-4.270336 0.387301,-1.332265 0.482971,-2.510991 0.316559,-3.900202 -0.364949,-3.046543 -0.52238,-3.457589 -1.493796,-3.900194 -1.126458,-0.51325 -1.774546,0.0043 -3.226068,2.576248 -0.56104,0.99411 -2.624787,3.34555 -4.600829,5.242203 -4.266212,4.094811 -4.698326,4.208191 -7.39442,1.940147 -2.376025,-1.998789 -2.954348,-2.798766 -5.235385,-7.24197 -4.252327,-8.283049 -5.171373,-9.218669 -7.172318,-7.301643 -0.691652,0.662644 -1.145928,1.57896 -1.407537,2.839121 -0.419947,2.022877 -0.700451,2.35488 -3.108188,3.678798 -0.889046,0.488851 -2.359018,1.825364 -3.298045,2.998611 -0.93176,1.164167 -2.116794,2.639296 -2.633409,3.278068 -0.636302,0.786761 -0.993006,1.720363 -1.105799,2.894224 -0.150718,1.568525 -0.06462,1.834705 0.908021,2.807345 1.216964,1.21697 2.421933,1.36121 5.009353,0.59963 2.249618,-0.66215 3.122133,-0.31606 4.608883,1.82816 0.708509,1.02183 2.956479,3.5563 4.995485,5.63217 4.207405,4.28347 4.859511,5.32562 4.859511,7.76614 0,2.0538 -0.800661,3.2671 -2.843774,4.30943 -0.751282,0.38327 -1.530025,1.00341 -1.73054,1.37807 -0.655984,1.22571 -0.39381,3.31046 0.709654,5.64299 0.590519,1.24825 1.168595,2.96211 1.284616,3.80857 0.471692,3.44137 2.827959,4.33933 5.110424,1.94756 z m -33.142694,-2.82222 c 0.297815,-0.33955 1.208236,-2.06355 2.023156,-3.83113 1.960552,-4.25247 1.881512,-4.85843 -0.84873,-6.50683 -2.467342,-1.48968 -3.490154,-2.72191 -3.449391,-4.15565 0.04954,-1.74235 1.988824,-5.04151 3.933998,-6.69263 2.027756,-1.72121 2.200949,-2.46501 1.083836,-4.65473 -0.973921,-1.90904 -0.884883,-3.43814 0.352499,-6.05374 0.581931,-1.230098 1.058182,-2.637893 1.058333,-3.128434 3.39e-4,-1.086912 -2.238036,-5.86123 -3.261889,-6.957409 -1.220999,-1.307254 -2.40398,-1.037587 -3.868932,0.881944 -0.703375,0.921632 -1.943054,2.390069 -2.754845,3.263194 -1.673218,1.799629 -2.04681,2.551011 -2.63107,5.291665 -0.318156,1.49242 -0.628184,2.0611 -1.34313,2.46369 -0.989747,0.55734 -0.780091,0.6012 -4.709647,-0.98509 -1.511477,-0.61016 -1.915986,-0.6564 -2.433271,-0.27815 -0.854259,0.62465 -0.486333,1.87463 1.115691,3.79042 0.706216,0.84454 1.491217,2.01177 1.744444,2.59385 2.480727,5.7023 3.533588,8.07375 4.385487,9.87778 0.709302,1.50206 1.054467,2.88492 1.188734,4.7625 0.157455,2.20185 0.439381,3.13368 1.680062,5.55304 2.166429,4.22458 3.212871,5.38307 4.862431,5.38307 0.825917,0 1.536168,-0.2342 1.872234,-0.61736 z M 87.211708,78.252095 c 3.389316,-0.799352 4.666291,-1.737134 6.459725,-4.743862 1.17499,-1.969901 1.493248,-2.830082 1.409527,-3.809626 -0.122696,-1.435517 -1.41121,-2.646352 -2.79605,-2.627496 -3.242321,0.04415 -6.357264,0.603384 -8.352205,1.499489 -1.221366,0.548626 -3.080028,1.156363 -4.130361,1.350528 -1.050328,0.194162 -2.576343,0.693124 -3.39114,1.108802 -0.814796,0.415682 -2.250655,0.984211 -3.190801,1.263403 -2.083357,0.618691 -2.728013,1.530205 -2.505978,3.543349 0.204149,1.850976 1.067407,2.655599 3.201713,2.984239 2.653873,0.408644 10.590802,0.06908 13.29557,-0.568826 z M 42.902133,77.697402 c 1.415878,-1.025656 3.563741,-3.900223 3.563741,-4.769489 0,-0.226889 -0.314428,-0.812253 -0.698726,-1.300811 C 45.23881,70.95543 44.488882,70.629467 42.691871,70.290395 41.384766,70.043761 39.35763,69.394558 38.187124,68.847721 35.617389,67.647193 32.412307,67.144887 27.262221,67.13556 c -3.480732,-0.0063 -3.937628,0.06799 -4.674306,0.760059 -2.279587,2.141563 0.535936,5.427328 7.636859,8.912335 l 3.998275,1.962284 h 3.599038 c 3.449896,0 3.660409,-0.04446 5.080046,-1.072836 z"
         id="path92" />
    </g>
  </g>
</svg>
